<?xml version="1.0" encoding="UTF-8" standalone="no"?>
<!-- Generator: Adobe Illustrator 16.0.0, SVG Export Plug-In . SVG Version: 6.00 Build 0)  -->

<svg
   xmlns:dc="http://purl.org/dc/elements/1.1/"
   xmlns:cc="http://creativecommons.org/ns#"
   xmlns:rdf="http://www.w3.org/1999/02/22-rdf-syntax-ns#"
   xmlns:svg="http://www.w3.org/2000/svg"
   xmlns="http://www.w3.org/2000/svg"
   xmlns:sodipodi="http://sodipodi.sourceforge.net/DTD/sodipodi-0.dtd"
   xmlns:inkscape="http://www.inkscape.org/namespaces/inkscape"
   version="1.1"
   id="svg2"
   inkscape:output_extension="org.inkscape.output.svg.inkscape"
   sodipodi:docname="JH_amenity_fountain_v2.svg"
   inkscape:version="0.91 r13725"
   sodipodi:version="0.32"
   x="0px"
   y="0px"
   width="580px"
   height="580px"
   viewBox="0 0 580 580"
   enable-background="new 0 0 580 580"
   xml:space="preserve"
   inkscape:export-filename="/media/juhele/KONZERVA/__PRACE/JH_icons/JH_amenity_fountain_v2.png"
   inkscape:export-xdpi="31"
   inkscape:export-ydpi="31"><metadata
     id="metadata17"><rdf:RDF><cc:Work
         rdf:about=""><dc:format>image/svg+xml</dc:format><dc:type
           rdf:resource="http://purl.org/dc/dcmitype/StillImage" /></cc:Work></rdf:RDF></metadata><sodipodi:namedview
     showgrid="false"
     inkscape:cy="181.1822"
     inkscape:cx="-135.79365"
     inkscape:zoom="0.65172414"
     pagecolor="#ffffff"
     bordercolor="#666666"
     guidetolerance="10.0"
     objecttolerance="10.0"
     gridtolerance="10.0"
     borderopacity="1.0"
     id="base"
     inkscape:current-layer="g4198"
     inkscape:window-y="0"
     inkscape:window-x="0"
     inkscape:pageopacity="0.0"
     inkscape:pageshadow="2"
     inkscape:window-width="1920"
     inkscape:window-height="1125"
     inkscape:window-maximized="1" /><defs
     id="defs4"><inkscape:perspective
       inkscape:vp_z="580 : 290 : 1"
       inkscape:vp_y="0 : 1000 : 0"
       inkscape:vp_x="0 : 290 : 1"
       sodipodi:type="inkscape:persp3d"
       id="perspective3653"
       inkscape:persp3d-origin="290 : 193.33333 : 1" /><inkscape:perspective
       inkscape:vp_z="355.02399 : 217.53 : 1"
       inkscape:vp_y="0 : 1000 : 0"
       inkscape:vp_x="0 : 217.53 : 1"
       sodipodi:type="inkscape:persp3d"
       id="perspective2512"
       inkscape:persp3d-origin="177.51199 : 145.02 : 1" /></defs><g
     id="g2121" /><g
     id="g4198"
     transform="translate(-2.8338787,-220.28663)"><g
       id="g4142"><g
         transform="matrix(1.0794007,0,0,1.0794007,-23.251216,-41.596522)"
         id="g4164"><rect
           width="471.24869"
           height="471.24869"
           x="60.278324"
           y="265.45596"
           id="rect4154"
           style="visibility:hidden;fill:none;stroke:none" /><path
           inkscape:connector-curvature="0"
           d="m 36.194899,635.00909 509.572201,0 c -19.40286,91.74224 -183.43966,122.24034 -252.93322,122.24034 -69.49356,0 -222.157386,-32.79969 -256.638981,-122.24034 z M 366.0332,261.35319 c -34.74678,0 -61.91195,25.96626 -73.6065,53.01975 -11.72936,-28.37454 -41.75112,-54.60774 -76.4979,-54.60774 -52.13289,0 -75.49356,86.40553 -75.49356,121.1523 0,34.74678 65.4227,23.4418 65.4227,1.05867 34.74678,-69.49356 36.34675,-19.28853 47.23289,24.6592 l 0,12.14779 c -13.30793,-6.57441 -22.21413,0.39464 -37.16203,0.39464 -50.9755,0 -99.55364,41.87527 -99.55364,110.24034 l 0,40.74678 c 0,34.74678 81.23745,34.74678 81.23745,0 l 0,-40.74678 c 0,-33.56398 7.87972,-38.41441 27.58059,-38.41441 19.09241,0 26.50257,4.92472 27.89763,35.56409 l 0,1.42518 0,94.2693 c 26.33153,-20.08988 49.44881,-20.64628 74.7075,0 l 2.8014,-92.84433 0,-4.34334 c 1.42628,-30.5981 16.08399,-31.79046 35.16202,-31.79046 19.70087,0 22.16909,1.14466 22.16909,34.70865 l 0,40.74678 c 0,34.74678 77.38457,34.74678 77.38457,0 l 0,-40.74678 c 0,-68.36509 -48.57813,-110.24034 -99.55366,-110.24034 -14.95574,1.7e-4 -23.84879,-4.90703 -37.16202,1.67339 0,-3.12178 -0.58045,-6.29801 0,-9.36535 17.92658,-74.02956 37.06428,-69.96898 58.76873,-25.02568 0,18.33753 54.1583,30.10012 54.1583,-4.64667 0,-34.74678 -23.36067,-119.035 -75.49356,-119.03499 z"
           style="fill:#ffffff;fill-opacity:1;fill-rule:evenodd;stroke:none;stroke-width:1px;stroke-linecap:butt;stroke-linejoin:miter;stroke-opacity:1"
           id="path4162"
           sodipodi:nodetypes="ccscccsscccssssssccccccsssssccccscc" /><path
           id="path4156"
           style="fill:#0c69c1;fill-opacity:1;fill-rule:evenodd;stroke:none;stroke-width:1px;stroke-linecap:butt;stroke-linejoin:miter;stroke-opacity:1"
           d="m 360.15512,276.45704 c -33.66062,0 -56.38671,34.84198 -67.7157,61.04979 -11.3627,-27.48756 -33.26616,-62.58814 -66.92678,-62.58814 -50.50325,0 -67.32124,64.75731 -67.32124,98.41793 0,33.66062 33.66062,22.70902 33.66062,1.02557 33.66062,-67.32124 67.32124,-54.32836 75.47343,52.09546 l 0,11.76807 c -12.89193,-6.36891 -27.33217,-10.38746 -41.81281,-10.38746 -49.38204,0 -92.5667,34.75383 -92.5667,100.98186 l 0,33.66062 c 0,33.66062 50.49093,33.66062 50.49093,0 l 0,-33.66062 c 0,-32.5148 22.99074,-50.49093 42.07577,-50.49093 18.49559,0 40.46137,18.0481 41.81281,47.72971 l 0,1.38062 0,83.57258 c 25.50843,-19.46188 25.50843,-20.00088 49.97754,0 l 0.77636,-82.19215 0,-4.20758 c 1.3817,-29.64162 23.33113,-47.66396 41.8128,-47.66396 19.08503,0 42.07579,17.97614 42.07579,50.49093 l 0,33.66062 c 0,33.66062 50.49093,33.66062 50.49093,0 l 0,-33.66062 c 0,-66.22803 -43.18465,-100.98186 -92.56672,-100.98186 -14.48824,1.7e-4 -28.91573,4.07865 -41.8128,10.45337 0,-3.0242 -0.56231,-6.10113 0,-9.07259 8.41515,-92.37175 42.07577,-119.77174 75.73639,-52.4505 0,17.76431 33.66062,31.0967 33.66062,-2.56393 0,-33.66062 -16.81799,-96.3668 -67.32124,-96.36679 z"
           inkscape:connector-curvature="0"
           sodipodi:nodetypes="scsscccssssssccccccsssssccccss" /><path
           inkscape:connector-curvature="0"
           d="m 57.209541,644.67272 471.248679,0 c -33.66061,67.32124 -168.3031,100.98186 -235.62433,100.98186 -67.32125,0 -191.81563,-33.66062 -235.624349,-100.98186 z"
           style="fill:#734a08;fill-opacity:1;fill-rule:evenodd;stroke:none;stroke-width:1px;stroke-linecap:butt;stroke-linejoin:miter;stroke-opacity:1"
           id="path7478"
           sodipodi:nodetypes="ccsc" /></g></g></g></svg>