<?xml version="1.0" encoding="UTF-8" standalone="no"?>
<!-- Generator: Adobe Illustrator 16.0.0, SVG Export Plug-In . SVG Version: 6.00 Build 0)  -->

<svg
   xmlns:dc="http://purl.org/dc/elements/1.1/"
   xmlns:cc="http://creativecommons.org/ns#"
   xmlns:rdf="http://www.w3.org/1999/02/22-rdf-syntax-ns#"
   xmlns:svg="http://www.w3.org/2000/svg"
   xmlns="http://www.w3.org/2000/svg"
   xmlns:sodipodi="http://sodipodi.sourceforge.net/DTD/sodipodi-0.dtd"
   xmlns:inkscape="http://www.inkscape.org/namespaces/inkscape"
   version="1.1"
   id="svg2"
   inkscape:output_extension="org.inkscape.output.svg.inkscape"
   sodipodi:docname="JH_amenity_fire_station.svg"
   inkscape:version="0.91 r13725"
   sodipodi:version="0.32"
   x="0px"
   y="0px"
   width="580px"
   height="580px"
   viewBox="0 0 580 580"
   enable-background="new 0 0 580 580"
   xml:space="preserve"
   inkscape:export-filename="/media/juhele/KONZERVA/__PRACE/JH_icons/JH_amenity_fire_station.png"
   inkscape:export-xdpi="31"
   inkscape:export-ydpi="31"><metadata
     id="metadata17"><rdf:RDF><cc:Work
         rdf:about=""><dc:format>image/svg+xml</dc:format><dc:type
           rdf:resource="http://purl.org/dc/dcmitype/StillImage" /></cc:Work></rdf:RDF></metadata><sodipodi:namedview
     showgrid="false"
     inkscape:cy="195.07379"
     inkscape:cx="152.57803"
     inkscape:zoom="0.70710678"
     pagecolor="#ffffff"
     bordercolor="#666666"
     guidetolerance="10.0"
     objecttolerance="10.0"
     gridtolerance="10.0"
     borderopacity="1.0"
     id="base"
     inkscape:current-layer="g4198"
     inkscape:window-y="0"
     inkscape:window-x="0"
     inkscape:pageopacity="0.0"
     inkscape:pageshadow="2"
     inkscape:window-width="1920"
     inkscape:window-height="1125"
     inkscape:window-maximized="1"
     showguides="true"
     inkscape:guide-bbox="true" /><defs
     id="defs4"><inkscape:perspective
       inkscape:vp_z="580 : 290 : 1"
       inkscape:vp_y="0 : 1000 : 0"
       inkscape:vp_x="0 : 290 : 1"
       sodipodi:type="inkscape:persp3d"
       id="perspective3653"
       inkscape:persp3d-origin="290 : 193.33333 : 1" /><inkscape:perspective
       inkscape:vp_z="355.02399 : 217.53 : 1"
       inkscape:vp_y="0 : 1000 : 0"
       inkscape:vp_x="0 : 217.53 : 1"
       sodipodi:type="inkscape:persp3d"
       id="perspective2512"
       inkscape:persp3d-origin="177.51199 : 145.02 : 1" /></defs><g
     id="g2121" /><g
     id="g4198"
     transform="translate(-2.8338787,-220.28663)"><g
       id="g6701"
       transform="matrix(0.80581417,0,0,0.80581417,56.86419,87.694502)"><path
         inkscape:connector-curvature="0"
         d="M 357.88768,180.71856 C 142.56335,192.28694 41.187998,404.08018 41.187998,555.06769 c 0,150.98761 87.821062,264.71957 201.316682,301.97509 120.74021,19.39376 84.05406,9.36958 150.98754,0 54.76722,-28.13914 150.98754,-100.6583 150.98754,-251.64591 0,-150.9875 -100.65836,-201.31669 -100.65836,-352.30422 -69.63122,30.15942 -126.1142,85.102 -126.1142,135.43118 -12.56113,-125.5919 3.99344,-154.14148 40.18048,-207.80527 z"
         id="path6697"
         style="fill:#ffffff;fill-opacity:1;stroke:none"
         sodipodi:nodetypes="csccsccc" /><path
         style="fill:#734a08;fill-opacity:1;stroke:none"
         id="fire-station"
         d="M 290.00543,232.17878 C 140.71416,284.00841 81.255467,440.92877 81.255467,566.17877 c 0,125.25 72.850893,219.59509 166.999963,250.49999 -83.49997,-136.04587 -83.49997,-250.49999 41.75,-333.99999 -21.08049,56.48015 0,167 41.75,208.75 18.01325,-16.7316 41.75,-59.48235 41.75,-83.5 83.5,83.5 23.501,151.68863 0,208.74999 45.43152,-23.34251 125.25,-83.49999 125.25,-208.74999 0,-125.25 -83.5,-167 -83.5,-292.24999 -57.76179,25.0184 -83.5,83.49999 -83.5,125.24999 -39.74854,-23.23634 -83.5,-114.96172 -41.75,-208.74999 z"
         inkscape:connector-curvature="0" /></g></g></svg>