<?xml version="1.0" encoding="UTF-8" standalone="no"?>
<!-- Generator: Adobe Illustrator 16.0.0, SVG Export Plug-In . SVG Version: 6.00 Build 0)  -->

<svg
   xmlns:dc="http://purl.org/dc/elements/1.1/"
   xmlns:cc="http://creativecommons.org/ns#"
   xmlns:rdf="http://www.w3.org/1999/02/22-rdf-syntax-ns#"
   xmlns:svg="http://www.w3.org/2000/svg"
   xmlns="http://www.w3.org/2000/svg"
   xmlns:sodipodi="http://sodipodi.sourceforge.net/DTD/sodipodi-0.dtd"
   xmlns:inkscape="http://www.inkscape.org/namespaces/inkscape"
   version="1.1"
   id="svg2"
   inkscape:output_extension="org.inkscape.output.svg.inkscape"
   sodipodi:docname="JH_amenity_wifi_internet.svg"
   inkscape:version="0.92.2 (5c3e80d, 2017-08-06)"
   sodipodi:version="0.32"
   x="0px"
   y="0px"
   width="580px"
   height="580px"
   viewBox="0 0 580 580"
   enable-background="new 0 0 580 580"
   xml:space="preserve"
   inkscape:export-filename="/media/juhele/data_2TB/_GRAFIKA/2018_03_22_Symboly_turistika/JH_icons/JH_amenity_wifi_internet.png"
   inkscape:export-xdpi="33.103447"
   inkscape:export-ydpi="33.103447"><metadata
     id="metadata17"><rdf:RDF><cc:Work
         rdf:about=""><dc:format>image/svg+xml</dc:format><dc:type
           rdf:resource="http://purl.org/dc/dcmitype/StillImage" /></cc:Work></rdf:RDF></metadata><sodipodi:namedview
     showgrid="false"
     inkscape:cy="13.460179"
     inkscape:cx="844.98185"
     inkscape:zoom="0.46083856"
     pagecolor="#ffffff"
     bordercolor="#666666"
     guidetolerance="10.0"
     objecttolerance="10.0"
     gridtolerance="10.0"
     borderopacity="1.0"
     id="base"
     inkscape:current-layer="g4198"
     inkscape:window-y="0"
     inkscape:window-x="0"
     inkscape:pageopacity="0.0"
     inkscape:pageshadow="2"
     inkscape:window-width="1920"
     inkscape:window-height="1140"
     inkscape:window-maximized="1" /><defs
     id="defs4"><inkscape:perspective
       inkscape:vp_z="580 : 290 : 1"
       inkscape:vp_y="0 : 1000 : 0"
       inkscape:vp_x="0 : 290 : 1"
       sodipodi:type="inkscape:persp3d"
       id="perspective3653"
       inkscape:persp3d-origin="290 : 193.33333 : 1" /><inkscape:perspective
       inkscape:vp_z="355.02399 : 217.53 : 1"
       inkscape:vp_y="0 : 1000 : 0"
       inkscape:vp_x="0 : 217.53 : 1"
       sodipodi:type="inkscape:persp3d"
       id="perspective2512"
       inkscape:persp3d-origin="177.51199 : 145.02 : 1" /></defs><g
     id="g2121" /><g
     id="g4198"
     transform="translate(-2.8338787,-220.28663)"><g
       transform="matrix(0.82813099,0,0,0.82813099,-3.5098325,50.736017)"
       inkscape:label="Layer 1"
       id="layer1"
       style="fill:#734a08;fill-opacity:1"><path
         style="color:#000000;font-style:normal;font-variant:normal;font-weight:normal;font-stretch:normal;font-size:medium;line-height:normal;font-family:sans-serif;font-variant-ligatures:normal;font-variant-position:normal;font-variant-caps:normal;font-variant-numeric:normal;font-variant-alternates:normal;font-feature-settings:normal;text-indent:0;text-align:start;text-decoration:none;text-decoration-line:none;text-decoration-style:solid;text-decoration-color:#000000;letter-spacing:normal;word-spacing:normal;text-transform:none;writing-mode:lr-tb;direction:ltr;text-orientation:mixed;dominant-baseline:auto;baseline-shift:baseline;text-anchor:start;white-space:normal;shape-padding:0;clip-rule:nonzero;display:inline;overflow:visible;visibility:visible;opacity:1;isolation:auto;mix-blend-mode:normal;color-interpolation:sRGB;color-interpolation-filters:linearRGB;solid-color:#000000;solid-opacity:1;vector-effect:none;fill:#ffffff;fill-opacity:1;fill-rule:nonzero;stroke:none;stroke-width:20;stroke-linecap:butt;stroke-linejoin:miter;stroke-miterlimit:4;stroke-dasharray:none;stroke-dashoffset:0;stroke-opacity:1;color-rendering:auto;image-rendering:auto;shape-rendering:auto;text-rendering:auto;enable-background:accumulate"
         d="m 362.42969,382.61633 c -75.50837,0.28449 -151.01155,25.34985 -212.69141,75.1211 -8.07723,6.51774 -15.91688,13.45994 -23.48633,20.82226 v -0.002 l -14.62109,14.21875 84.34375,83.40234 14.0625,-13.65429 c 84.59105,-82.16581 220.69639,-82.6564 305.89062,-1.06055 v 0.002 l 14.14063,13.54102 84.06641,-84.11328 -15.20704,-14.5586 -0.49609,-0.36914 C 521.10786,418.37666 448.65846,382.29287 362.42969,382.61633 Z"
         id="path38"
         inkscape:connector-curvature="0"
         sodipodi:nodetypes="cscccccccccccc" /><path
         inkscape:connector-curvature="0"
         style="color:#000000;fill:#734a08;fill-opacity:1"
         sodipodi:nodetypes="cccccccccc"
         d="m 362.47,402.61524 c -80.452,0.30312 -160.77,30.425 -222.31,90.281 l 55.906,55.281 c 92.256,-89.611 240.75,-90.142 333.66,-1.1562 l 55.781,-55.813 c -62.02,-59.38 -142.59,-88.89 -223.04,-88.59 z m -166.41,145.56 -0.125,0.0937 z"
         id="path4391" /><path
         style="color:#000000;font-style:normal;font-variant:normal;font-weight:normal;font-stretch:normal;font-size:medium;line-height:normal;font-family:sans-serif;font-variant-ligatures:normal;font-variant-position:normal;font-variant-caps:normal;font-variant-numeric:normal;font-variant-alternates:normal;font-feature-settings:normal;text-indent:0;text-align:start;text-decoration:none;text-decoration-line:none;text-decoration-style:solid;text-decoration-color:#000000;letter-spacing:normal;word-spacing:normal;text-transform:none;writing-mode:lr-tb;direction:ltr;text-orientation:mixed;dominant-baseline:auto;baseline-shift:baseline;text-anchor:start;white-space:normal;shape-padding:0;clip-rule:nonzero;display:inline;overflow:visible;visibility:visible;opacity:1;isolation:auto;mix-blend-mode:normal;color-interpolation:sRGB;color-interpolation-filters:linearRGB;solid-color:#000000;solid-opacity:1;vector-effect:none;fill:#ffffff;fill-opacity:1;fill-rule:nonzero;stroke:none;stroke-width:20;stroke-linecap:butt;stroke-linejoin:miter;stroke-miterlimit:4;stroke-dasharray:none;stroke-dashoffset:0;stroke-opacity:1;color-rendering:auto;image-rendering:auto;shape-rendering:auto;text-rendering:auto;enable-background:accumulate"
         d="m 362.32812,237.36914 -9.96289,0.0371 v 0.23437 C 239.81765,240.46058 128.02978,283.73686 41.871094,367.5332 L 27.25,381.75391 l 83.88867,82.9414 14.0586,-13.61328 h 0.002 c 131.27122,-127.13306 342.2208,-127.77995 474.2812,-1.29883 l 14.02734,13.43164 85.17188,-83.85546 -14.875,-14.2461 C 594.42531,279.51723 478.22039,236.94088 362.32812,237.36914 Z"
         id="path40"
         inkscape:connector-curvature="0"
         sodipodi:nodetypes="ccccccccccccc" /><path
         inkscape:connector-curvature="0"
         style="color:#000000;fill:#734a08;fill-opacity:1"
         sodipodi:nodetypes="sccccsccc"
         d="m 362.37,257.37 c -110.95,0.41801 -221.72,41.957 -306.59,124.5 l 55.469,54.844 c 138.94,-134.56 362.26,-135.24 502.03,-1.375 l 56.656,-55.781 c -85.52,-81.9 -196.62,-122.6 -307.57,-122.19 z m -251.12,179.34 -0.5625,0.53125 z"
         id="path4395" /><path
         style="color:#000000;font-style:normal;font-variant:normal;font-weight:normal;font-stretch:normal;font-size:medium;line-height:normal;font-family:sans-serif;font-variant-ligatures:normal;font-variant-position:normal;font-variant-caps:normal;font-variant-numeric:normal;font-variant-alternates:normal;font-feature-settings:normal;text-indent:0;text-align:start;text-decoration:none;text-decoration-line:none;text-decoration-style:solid;text-decoration-color:#000000;letter-spacing:normal;word-spacing:normal;text-transform:none;writing-mode:lr-tb;direction:ltr;text-orientation:mixed;dominant-baseline:auto;baseline-shift:baseline;text-anchor:start;white-space:normal;shape-padding:0;clip-rule:nonzero;display:inline;overflow:visible;visibility:visible;opacity:1;isolation:auto;mix-blend-mode:normal;color-interpolation:sRGB;color-interpolation-filters:linearRGB;solid-color:#000000;solid-opacity:1;vector-effect:none;fill:#f9f9f9;fill-opacity:1;fill-rule:nonzero;stroke:none;stroke-width:20;stroke-linecap:butt;stroke-linejoin:miter;stroke-miterlimit:4;stroke-dasharray:none;stroke-dashoffset:0;stroke-opacity:1;color-rendering:auto;image-rendering:auto;shape-rendering:auto;text-rendering:auto;enable-background:accumulate"
         d="m 209.99219,604.48572 -14.625,14.22266 81.88281,80.92578 13.83203,-13.42969 0.004,-0.004 0.2207,-0.21484 0.0137,-0.0137 c 39.51581,-38.36355 103.04604,-38.56993 142.83985,-0.45508 l 14.14453,13.55273 81.48828,-81.62695 -14.74609,-14.125 c -42.45647,-40.66177 -97.69355,-60.9064 -152.73983,-60.70467 -55.04628,0.20172 -110.16205,20.87925 -152.31498,61.87276 z"
         id="path42"
         inkscape:connector-curvature="0"
         sodipodi:nodetypes="ccccccccccccc" /><path
         inkscape:connector-curvature="0"
         style="color:#000000;fill:#734a08;fill-opacity:1"
         sodipodi:nodetypes="cccccccccc"
         d="m 362.34,562.60572 c -50.088,0.18872 -100.12,18.953 -138.44,56.219 l 53.438,52.812 c 47.181,-45.821 123.11,-46.068 170.62,-0.5625 l 53.219,-53.312 c -38.607,-36.975 -88.756,-55.345 -138.84,-55.156 z m -85,109.03 -0.063,0.0625 z"
         id="path4381" /><path
         style="color:#000000;fill:#f9f9f9;fill-opacity:1;stroke-width:1.34175754"
         d="M 465.51818,790.7984 A 107.67176,103.03519 0 0 1 357.84642,893.83359 107.67176,103.03519 0 0 1 250.17466,790.7984 107.67176,103.03519 0 0 1 357.84642,687.76322 107.67176,103.03519 0 0 1 465.51818,790.7984 Z"
         id="path32"
         inkscape:connector-curvature="0" /><path
         style="color:#000000;fill:#734a08;fill-opacity:1"
         d="m 436.34642,790.7984 a 78.5,78.5 0 0 1 -78.5,78.5 78.5,78.5 0 0 1 -78.5,-78.5 78.5,78.5 0 0 1 78.5,-78.5 78.5,78.5 0 0 1 78.5,78.5 z"
         id="path4411"
         inkscape:connector-curvature="0" /></g></g></svg>