<?xml version="1.0" encoding="UTF-8" standalone="no"?>
<!-- Generator: Adobe Illustrator 16.0.0, SVG Export Plug-In . SVG Version: 6.00 Build 0)  -->

<svg
   xmlns:dc="http://purl.org/dc/elements/1.1/"
   xmlns:cc="http://creativecommons.org/ns#"
   xmlns:rdf="http://www.w3.org/1999/02/22-rdf-syntax-ns#"
   xmlns:svg="http://www.w3.org/2000/svg"
   xmlns="http://www.w3.org/2000/svg"
   xmlns:sodipodi="http://sodipodi.sourceforge.net/DTD/sodipodi-0.dtd"
   xmlns:inkscape="http://www.inkscape.org/namespaces/inkscape"
   version="1.1"
   id="svg2"
   inkscape:output_extension="org.inkscape.output.svg.inkscape"
   sodipodi:docname="JH_amenity_embassy.svg"
   inkscape:version="0.91 r13725"
   sodipodi:version="0.32"
   x="0px"
   y="0px"
   width="580px"
   height="580px"
   viewBox="0 0 580 580"
   enable-background="new 0 0 580 580"
   xml:space="preserve"
   inkscape:export-filename="F:\_GRAFIKA\2016_08_29_Symboly_turistika\JH_icons\JH_amenity_embassy.png"
   inkscape:export-xdpi="31"
   inkscape:export-ydpi="31"><metadata
     id="metadata17"><rdf:RDF><cc:Work
         rdf:about=""><dc:format>image/svg+xml</dc:format><dc:type
           rdf:resource="http://purl.org/dc/dcmitype/StillImage" /></cc:Work></rdf:RDF></metadata><sodipodi:namedview
     showgrid="false"
     inkscape:cy="35.680285"
     inkscape:cx="1021.9355"
     inkscape:zoom="0.65172414"
     pagecolor="#ffffff"
     bordercolor="#666666"
     guidetolerance="10.0"
     objecttolerance="10.0"
     gridtolerance="10.0"
     borderopacity="1.0"
     id="base"
     inkscape:current-layer="g4198"
     inkscape:window-y="-9"
     inkscape:window-x="-9"
     inkscape:pageopacity="0.0"
     inkscape:pageshadow="2"
     inkscape:window-width="2560"
     inkscape:window-height="1369"
     inkscape:window-maximized="1" /><defs
     id="defs4"><inkscape:perspective
       inkscape:vp_z="580 : 290 : 1"
       inkscape:vp_y="0 : 1000 : 0"
       inkscape:vp_x="0 : 290 : 1"
       sodipodi:type="inkscape:persp3d"
       id="perspective3653"
       inkscape:persp3d-origin="290 : 193.33333 : 1" /><inkscape:perspective
       inkscape:vp_z="355.02399 : 217.53 : 1"
       inkscape:vp_y="0 : 1000 : 0"
       inkscape:vp_x="0 : 217.53 : 1"
       sodipodi:type="inkscape:persp3d"
       id="perspective2512"
       inkscape:persp3d-origin="177.51199 : 145.02 : 1" /></defs><g
     id="g2121" /><g
     id="g4198"
     transform="translate(-2.8338787,-220.28663)"><g
       id="g4178"
       transform="matrix(1.0816679,0,0,1.0816679,13.077888,-36.111577)"><path
         sodipodi:nodetypes="sccsccsssssss"
         inkscape:connector-curvature="0"
         d="m 276.95721,290.51834 c -99.96996,66.64664 -168.6166,-16 -168.6166,-16 l 0,291.26325 c 0,0 68.64664,74.64663 168.6166,8 99.96995,-66.64664 196.61663,4 196.61663,4 l 0,-287.26325 c 0,0 -96.64668,-66.64663 -196.61663,0 z M 74.355626,265.52586 c -8.33083,0 -30.66166,8.33083 -30.66166,24.99248 l 0,433.87986 c 0,33.3233 63.323324,33.3233 63.323324,0 l 0,-435.87986 c 0,-16.66165 -24.330824,-22.99248 -32.661664,-22.99248 z"
         id="path4176"
         style="fill:#ffffff;fill-opacity:1;stroke:none" /><path
         style="fill:#734a08;fill-opacity:1;stroke:none"
         id="embassy"
         d="m 292.21215,309.70804 c -99.96996,66.64664 -166.6166,0 -166.6166,0 l 0,233.26325 c 0,0 66.64664,66.64663 166.6166,0 99.96995,-66.64664 166.61663,0 166.61663,0 l 0,-233.26325 c 0,0 -66.64668,-66.64663 -166.61663,0 z M 75.610562,284.71556 c -8.33083,0 -16.66166,8.33083 -16.66166,24.99248 l 0,399.87986 c 0,33.3233 33.32332,33.3233 33.32332,0 l 0,-399.87986 c 0,-16.66165 -8.33082,-24.99248 -16.66166,-24.99248 z"
         inkscape:connector-curvature="0" /></g></g></svg>