<?xml version="1.0" encoding="UTF-8" standalone="no"?>
<!-- Generator: Adobe Illustrator 16.0.0, SVG Export Plug-In . SVG Version: 6.00 Build 0)  -->

<svg
   xmlns:dc="http://purl.org/dc/elements/1.1/"
   xmlns:cc="http://creativecommons.org/ns#"
   xmlns:rdf="http://www.w3.org/1999/02/22-rdf-syntax-ns#"
   xmlns:svg="http://www.w3.org/2000/svg"
   xmlns="http://www.w3.org/2000/svg"
   xmlns:sodipodi="http://sodipodi.sourceforge.net/DTD/sodipodi-0.dtd"
   xmlns:inkscape="http://www.inkscape.org/namespaces/inkscape"
   version="1.1"
   id="svg2"
   inkscape:output_extension="org.inkscape.output.svg.inkscape"
   sodipodi:docname="JH_amenity_prison.svg"
   inkscape:version="0.91 r13725"
   sodipodi:version="0.32"
   x="0px"
   y="0px"
   width="580px"
   height="580px"
   viewBox="0 0 580 580"
   enable-background="new 0 0 580 580"
   xml:space="preserve"
   inkscape:export-filename="/media/juhele/KONZERVA/__PRACE/JH_icons/JH_amenity_prison.png"
   inkscape:export-xdpi="31"
   inkscape:export-ydpi="31"><metadata
     id="metadata17"><rdf:RDF><cc:Work
         rdf:about=""><dc:format>image/svg+xml</dc:format><dc:type
           rdf:resource="http://purl.org/dc/dcmitype/StillImage" /></cc:Work></rdf:RDF></metadata><sodipodi:namedview
     showgrid="false"
     inkscape:cy="106.98732"
     inkscape:cx="-304.87996"
     inkscape:zoom="0.70710678"
     pagecolor="#ffffff"
     bordercolor="#666666"
     guidetolerance="10.0"
     objecttolerance="10.0"
     gridtolerance="10.0"
     borderopacity="1.0"
     id="base"
     inkscape:current-layer="g7472"
     inkscape:window-y="0"
     inkscape:window-x="0"
     inkscape:pageopacity="0.0"
     inkscape:pageshadow="2"
     inkscape:window-width="1920"
     inkscape:window-height="1125"
     inkscape:window-maximized="1"
     showguides="true"
     inkscape:guide-bbox="true" /><defs
     id="defs4"><inkscape:perspective
       inkscape:vp_z="580 : 290 : 1"
       inkscape:vp_y="0 : 1000 : 0"
       inkscape:vp_x="0 : 290 : 1"
       sodipodi:type="inkscape:persp3d"
       id="perspective3653"
       inkscape:persp3d-origin="290 : 193.33333 : 1" /><inkscape:perspective
       inkscape:vp_z="355.02399 : 217.53 : 1"
       inkscape:vp_y="0 : 1000 : 0"
       inkscape:vp_x="0 : 217.53 : 1"
       sodipodi:type="inkscape:persp3d"
       id="perspective2512"
       inkscape:persp3d-origin="177.51199 : 145.02 : 1" /></defs><g
     id="g2121" /><g
     id="g4198"
     transform="translate(-2.8338787,-220.28663)"><g
       id="g7472"
       transform="matrix(32.377863,0,0,32.377863,-606.20689,280.34132)"><g
         id="g7525"><g
           style="fill:#ffffff;stroke:#000000;stroke-width:0.99998975;stroke-miterlimit:4;stroke-dasharray:none;stroke-opacity:1"
           id="g7492"
           transform="matrix(0.89626379,0,0,1.1010063,-13.889734,-4.7172683)"><path
             sodipodi:nodetypes="cccccc"
             inkscape:connector-curvature="0"
             id="path7494"
             d="m 38.978367,3.2349053 0,0.5 0,14.4999997 15,0 0,-14.9999997 z"
             style="color:#000000;font-style:normal;font-variant:normal;font-weight:normal;font-stretch:normal;font-size:medium;line-height:normal;font-family:sans-serif;text-indent:0;text-align:start;text-decoration:none;text-decoration-line:none;text-decoration-style:solid;text-decoration-color:#000000;letter-spacing:normal;word-spacing:normal;text-transform:none;direction:ltr;block-progression:tb;writing-mode:lr-tb;baseline-shift:baseline;text-anchor:start;white-space:normal;clip-rule:nonzero;display:inline;overflow:visible;visibility:visible;opacity:1;isolation:auto;mix-blend-mode:normal;color-interpolation:sRGB;color-interpolation-filters:linearRGB;solid-color:#000000;solid-opacity:1;fill:#ffffff;fill-opacity:1;fill-rule:nonzero;stroke:none;stroke-width:0.99998975;stroke-linecap:butt;stroke-linejoin:miter;stroke-miterlimit:4;stroke-dasharray:none;stroke-dashoffset:0;stroke-opacity:1;color-rendering:auto;image-rendering:auto;shape-rendering:auto;text-rendering:auto;enable-background:accumulate" /></g><g
           transform="matrix(0.89626379,0,0,1.1010063,16.859866,-6.813832)"
           id="g7473"><path
             inkscape:connector-curvature="0"
             d="m 5.1820746,5.4966903 0,13.9999997 14.0000004,0 0,-13.9999997 -14.0000004,0 z m 1,1 3,0 0,11.9999997 -0.5,0 0,-4.21875 c -0.299072,0.35376 -0.5,0.78125 -0.5,1.21875 l 0,3 -2,0 0,-11.9999997 z m 4.0000004,0 4,0 0,11.9999997 -0.5,0 0,-5 -3,0 0,5 -0.5,0 0,-11.9999997 z m 5,0 3,0 0,11.9999997 -2,0 0,-3 c 0,-0.4375 -0.200928,-0.86499 -0.5,-1.21875 l 0,4.21875 -0.5,0 0,-11.9999997 z m -3,2 c -0.600848,0 -1.133385,0.2680514 -1.5,0.6875 l 0,2.6249997 c 0.366615,0.419449 0.899152,0.6875 1.5,0.6875 0.600847,0 1.133385,-0.268051 1.5,-0.6875 l 0,-2.6249997 c -0.366615,-0.4194486 -0.899153,-0.6875 -1.5,-0.6875 z"
             id="prison"
             style="fill:#734a08;fill-opacity:1;stroke:none" /></g></g></g></g></svg>