<?xml version="1.0" encoding="UTF-8" standalone="no"?>
<!-- Generator: Adobe Illustrator 16.0.0, SVG Export Plug-In . SVG Version: 6.00 Build 0)  -->

<svg
   xmlns:dc="http://purl.org/dc/elements/1.1/"
   xmlns:cc="http://creativecommons.org/ns#"
   xmlns:rdf="http://www.w3.org/1999/02/22-rdf-syntax-ns#"
   xmlns:svg="http://www.w3.org/2000/svg"
   xmlns="http://www.w3.org/2000/svg"
   xmlns:sodipodi="http://sodipodi.sourceforge.net/DTD/sodipodi-0.dtd"
   xmlns:inkscape="http://www.inkscape.org/namespaces/inkscape"
   version="1.1"
   id="svg2"
   inkscape:output_extension="org.inkscape.output.svg.inkscape"
   sodipodi:docname="JH_amenity_post_office.svg"
   inkscape:version="0.91 r13725"
   sodipodi:version="0.32"
   x="0px"
   y="0px"
   width="580px"
   height="580px"
   viewBox="0 0 580 580"
   enable-background="new 0 0 580 580"
   xml:space="preserve"
   inkscape:export-filename="/media/juhele/KONZERVA/__PRACE/JH_icons/JH_amenity_post_office.png"
   inkscape:export-xdpi="31"
   inkscape:export-ydpi="31"><metadata
     id="metadata17"><rdf:RDF><cc:Work
         rdf:about=""><dc:format>image/svg+xml</dc:format><dc:type
           rdf:resource="http://purl.org/dc/dcmitype/StillImage" /></cc:Work></rdf:RDF></metadata><sodipodi:namedview
     showgrid="false"
     inkscape:cy="71.761244"
     inkscape:cx="-70.424354"
     inkscape:zoom="0.5"
     pagecolor="#ffffff"
     bordercolor="#666666"
     guidetolerance="10.0"
     objecttolerance="10.0"
     gridtolerance="10.0"
     borderopacity="1.0"
     id="base"
     inkscape:current-layer="g4198"
     inkscape:window-y="0"
     inkscape:window-x="0"
     inkscape:pageopacity="0.0"
     inkscape:pageshadow="2"
     inkscape:window-width="1920"
     inkscape:window-height="1125"
     inkscape:window-maximized="1"
     showguides="true"
     inkscape:guide-bbox="true" /><defs
     id="defs4"><inkscape:perspective
       inkscape:vp_z="580 : 290 : 1"
       inkscape:vp_y="0 : 1000 : 0"
       inkscape:vp_x="0 : 290 : 1"
       sodipodi:type="inkscape:persp3d"
       id="perspective3653"
       inkscape:persp3d-origin="290 : 193.33333 : 1" /><inkscape:perspective
       inkscape:vp_z="355.02399 : 217.53 : 1"
       inkscape:vp_y="0 : 1000 : 0"
       inkscape:vp_x="0 : 217.53 : 1"
       sodipodi:type="inkscape:persp3d"
       id="perspective2512"
       inkscape:persp3d-origin="177.51199 : 145.02 : 1" /></defs><g
     id="g2121" /><g
     id="g4198"
     transform="translate(-2.8338787,-220.28663)"><g
       id="layer1-6"
       transform="matrix(4.9894759,0,0,4.9894759,-231.39196,-31.446025)"><g
         transform="matrix(0.81088,0,0,0.81088,5.9097,-403.36)"
         id="g2423"><g
           id="g7510"
           transform="matrix(0.70537939,0,0,0.70537939,36.02701,186.00362)"><g
             id="g7520"
             transform="matrix(1.0701028,0,0,1.0701028,-8.5723635,-44.258195)"><path
               inkscape:connector-curvature="0"
               style="fill:#ffffff;fill-opacity:1;stroke:none;stroke-width:3.75;stroke-linecap:round;stroke-linejoin:round"
               d="m 31.898278,566.35361 180.768892,0 0,129.95821 -180.768892,0 z"
               id="path7518" /><path
               id="path7493"
               d="m 38.046533,572.04374 168.472377,0 0,118.57793 -168.472377,0 z"
               style="fill:#734a08;fill-opacity:1;stroke:none;stroke-width:3.75;stroke-linecap:round;stroke-linejoin:round"
               inkscape:connector-curvature="0" /><path
               style="fill:#ffffff;fill-opacity:1;stroke:none;stroke-width:3.75;stroke-linecap:round;stroke-linejoin:round"
               d="m 43.282722,579.23543 157.999998,0 0,104.19454 -157.999998,0 z"
               id="rect2398"
               inkscape:connector-curvature="0" /><path
               style="opacity:1;fill:#734a08;fill-opacity:1;stroke:none;stroke-width:0.5;stroke-linecap:round;stroke-miterlimit:4;stroke-dasharray:none;stroke-opacity:1"
               d="m 48.816812,631.33271 0,-42.54773 1.373284,1.11773 c 0.755305,0.61475 12.933102,10.2499 27.061766,21.41145 14.128667,11.16154 26.015368,20.60309 26.414888,20.98122 l 0.72639,0.68752 -26.079468,19.21925 c -14.343707,10.5706 -26.84838,19.77255 -27.788163,20.44878 l -1.708697,1.2295 0,-42.54772 z"
               id="path7482"
               inkscape:connector-curvature="0" /><path
               style="opacity:1;fill:#734a08;fill-opacity:1;stroke:none;stroke-width:0.5;stroke-linecap:round;stroke-miterlimit:4;stroke-dasharray:none;stroke-opacity:1"
               d="m 166.79641,653.51199 c -15.62896,-11.35162 -28.38072,-20.66412 -28.3372,-20.69446 0.32444,-0.22622 53.65188,-41.4971 55.22395,-42.73864 l 2.0126,-1.58942 0,42.85555 c 0,23.57055 -0.10868,42.84446 -0.24152,42.83091 -0.13284,-0.0136 -13.02886,-9.31233 -28.65783,-20.66394 z"
               id="path7486"
               inkscape:connector-curvature="0" /><path
               style="opacity:1;fill:#734a08;fill-opacity:1;stroke:none;stroke-width:0.5;stroke-linecap:round;stroke-miterlimit:4;stroke-dasharray:none;stroke-opacity:1"
               d="m 53.616251,678.64402 c 0.221255,-0.21417 55.582039,-40.98577 56.006709,-41.2473 0.22913,-0.14111 2.41767,1.3727 5.39563,3.73217 5.88168,4.66009 5.98258,4.72232 6.99481,4.31399 0.42059,-0.16966 3.14103,-2.16649 6.04542,-4.4374 l 5.28071,-4.12892 0.99422,0.74856 c 0.54682,0.41172 13.47804,9.78836 28.73602,20.83698 15.258,11.04863 27.80373,20.13942 27.87942,20.20177 0.0757,0.0623 -30.82422,0.11335 -68.66647,0.11335 -37.84224,0 -68.742153,-0.0599 -68.666469,-0.1332 z"
               id="path7488"
               inkscape:connector-curvature="0" /><path
               style="opacity:1;fill:#734a08;fill-opacity:1;stroke:none;stroke-width:0.5;stroke-linecap:round;stroke-miterlimit:4;stroke-dasharray:none;stroke-opacity:1"
               d="M 89.168593,611.20206 C 71.741107,597.39099 57.519694,586.05359 57.565441,586.00785 c 0.09496,-0.095 129.351689,-0.74408 129.434569,-0.65001 0.0946,0.10728 -65.3729,50.71125 -65.76761,50.83597 -0.20761,0.0656 -14.63634,-11.18068 -32.063807,-24.99175 z"
               id="path7484"
               inkscape:connector-curvature="0" /></g></g></g></g></g></svg>