<?xml version="1.0" encoding="UTF-8" standalone="no"?>
<!-- Generator: Adobe Illustrator 16.0.0, SVG Export Plug-In . SVG Version: 6.00 Build 0)  -->

<svg
   xmlns:dc="http://purl.org/dc/elements/1.1/"
   xmlns:cc="http://creativecommons.org/ns#"
   xmlns:rdf="http://www.w3.org/1999/02/22-rdf-syntax-ns#"
   xmlns:svg="http://www.w3.org/2000/svg"
   xmlns="http://www.w3.org/2000/svg"
   xmlns:sodipodi="http://sodipodi.sourceforge.net/DTD/sodipodi-0.dtd"
   xmlns:inkscape="http://www.inkscape.org/namespaces/inkscape"
   version="1.1"
   id="svg2"
   inkscape:output_extension="org.inkscape.output.svg.inkscape"
   sodipodi:docname="JH_amenity_library.svg"
   inkscape:version="0.91 r13725"
   sodipodi:version="0.32"
   x="0px"
   y="0px"
   width="580px"
   height="580px"
   viewBox="0 0 580 580"
   enable-background="new 0 0 580 580"
   xml:space="preserve"
   inkscape:export-filename="/media/juhele/KONZERVA/__PRACE/JH_icons/JH_amenity_library.png"
   inkscape:export-xdpi="31"
   inkscape:export-ydpi="31"><metadata
     id="metadata17"><rdf:RDF><cc:Work
         rdf:about=""><dc:format>image/svg+xml</dc:format><dc:type
           rdf:resource="http://purl.org/dc/dcmitype/StillImage" /></cc:Work></rdf:RDF></metadata><sodipodi:namedview
     showgrid="false"
     inkscape:cy="199.66071"
     inkscape:cx="-70.000002"
     inkscape:zoom="0.5"
     pagecolor="#ffffff"
     bordercolor="#666666"
     guidetolerance="10.0"
     objecttolerance="10.0"
     gridtolerance="10.0"
     borderopacity="1.0"
     id="base"
     inkscape:current-layer="g4198"
     inkscape:window-y="0"
     inkscape:window-x="0"
     inkscape:pageopacity="0.0"
     inkscape:pageshadow="2"
     inkscape:window-width="1920"
     inkscape:window-height="1125"
     inkscape:window-maximized="1"
     showguides="true"
     inkscape:guide-bbox="true" /><defs
     id="defs4"><inkscape:perspective
       inkscape:vp_z="580 : 290 : 1"
       inkscape:vp_y="0 : 1000 : 0"
       inkscape:vp_x="0 : 290 : 1"
       sodipodi:type="inkscape:persp3d"
       id="perspective3653"
       inkscape:persp3d-origin="290 : 193.33333 : 1" /><inkscape:perspective
       inkscape:vp_z="355.02399 : 217.53 : 1"
       inkscape:vp_y="0 : 1000 : 0"
       inkscape:vp_x="0 : 217.53 : 1"
       sodipodi:type="inkscape:persp3d"
       id="perspective2512"
       inkscape:persp3d-origin="177.51199 : 145.02 : 1" /></defs><g
     id="g2121" /><g
     id="g4198"
     transform="translate(-2.8338787,-220.28663)"><g
       id="g7473"
       transform="matrix(17.686961,0,0,17.686961,53.154881,671.61168)"><path
         style="opacity:1;fill:#ffffff;fill-opacity:1;stroke:none;stroke-width:0.07543459;stroke-linecap:round;stroke-miterlimit:4;stroke-dasharray:none;stroke-opacity:1"
         d="M 4.8794056,2.4590276 -1.5200846,0.31165628 -1.5618577,-9.355092 c -0.022981,-5.316711 -0.00333,-11.024571 0.043717,-11.024571 0.047024,0 0.52392996,0.17815 1.05978722,0.395888 l 0.97428753,0.395888 1.13573815,-1.537777 c 0.6246558,-0.845777 1.2601351,-1.588946 1.4121754,-1.651485 0.1520414,-0.06254 0.69763,-0.105582 1.2124182,-0.09566 2.268594,0.04374 5.1309089,1.646853 7.1627932,5.055702 0.172682,0.289705 0.216054,0.277639 0.810062,-0.225376 3.030218,-2.566029 5.932751,-3.74134 9.157311,-4.353029 1.413564,-0.26815 3.421526,-0.237493 3.421526,-0.237493 l 0.003,3.681585 3.842851,-1.347233 -0.0298,10.9838211 -0.0298,9.62599957 -6.47897,2.16040263 -6.478969,2.1604036 -2.188694,-0.01279 -2.188695,-0.01279 -6.3994883,-2.1473702 z"
         id="path7497"
         inkscape:connector-curvature="0"
         sodipodi:nodetypes="ccssscssssssccccccccccc" /><path
         style="fill:#734a08;fill-opacity:1;stroke:none"
         d="m 4.4627666,-21.344582 c -0.40122,0.01617 -0.800142,0.09639 -1.196072,0.248689 l 0,16.1686869 c 0,0 6.442211,-0.2526378 8.0843444,6.0632557 l 0,-16.9779096 c -1.253053,-2.638728 -4.0797344,-5.615898 -6.8882724,-5.502722 z M 11.351039,1.1360496 C 7.1825486,-2.085054 1.2456083,-2.9061202 1.2456083,-2.9061202 l 0,-15.3594648 -2.02108593,-0.809222 0,18.18977071 12.12651663,4.04217409 4.042172,0 12.126515,-4.04217409 0,-18.18977071 -2.021086,0.809222 0,16.1686894 -10.105429,3.2329452 c -1.347392,-0.51473009 -2.918083,-0.42313859 -4.042172,0 z M 23.477554,-21.095893 c -4.027054,-0.215349 -8.675907,2.202339 -11.115972,4.282964 l 0,17.10817661 C 14.61463,-1.5735293 18.6544,-4.0324512 23.477554,-4.5245674 Z"
         id="path4176"
         inkscape:connector-curvature="0" /></g></g></svg>