<?xml version="1.0" encoding="UTF-8" standalone="no"?>
<!-- Generator: Adobe Illustrator 16.0.0, SVG Export Plug-In . SVG Version: 6.00 Build 0)  -->

<svg
   xmlns:dc="http://purl.org/dc/elements/1.1/"
   xmlns:cc="http://creativecommons.org/ns#"
   xmlns:rdf="http://www.w3.org/1999/02/22-rdf-syntax-ns#"
   xmlns:svg="http://www.w3.org/2000/svg"
   xmlns="http://www.w3.org/2000/svg"
   xmlns:sodipodi="http://sodipodi.sourceforge.net/DTD/sodipodi-0.dtd"
   xmlns:inkscape="http://www.inkscape.org/namespaces/inkscape"
   version="1.1"
   id="svg2"
   inkscape:output_extension="org.inkscape.output.svg.inkscape"
   sodipodi:docname="JH_amenity_town-hall.svg"
   inkscape:version="0.91 r13725"
   sodipodi:version="0.32"
   x="0px"
   y="0px"
   width="580px"
   height="580px"
   viewBox="0 0 580 580"
   enable-background="new 0 0 580 580"
   xml:space="preserve"
   inkscape:export-filename="F:\_GRAFIKA\2016_08_29_Symboly_turistika\JH_icons\JH_amenity_town-hall.png"
   inkscape:export-xdpi="31"
   inkscape:export-ydpi="31"><metadata
     id="metadata17"><rdf:RDF><cc:Work
         rdf:about=""><dc:format>image/svg+xml</dc:format><dc:type
           rdf:resource="http://purl.org/dc/dcmitype/StillImage" /></cc:Work></rdf:RDF></metadata><sodipodi:namedview
     showgrid="false"
     inkscape:cy="454.64105"
     inkscape:cx="783.03034"
     inkscape:zoom="0.92167712"
     pagecolor="#ffffff"
     bordercolor="#666666"
     guidetolerance="10.0"
     objecttolerance="10.0"
     gridtolerance="10.0"
     borderopacity="1.0"
     id="base"
     inkscape:current-layer="g4198"
     inkscape:window-y="-9"
     inkscape:window-x="-9"
     inkscape:pageopacity="0.0"
     inkscape:pageshadow="2"
     inkscape:window-width="2560"
     inkscape:window-height="1369"
     inkscape:window-maximized="1" /><defs
     id="defs4"><inkscape:perspective
       inkscape:vp_z="580 : 290 : 1"
       inkscape:vp_y="0 : 1000 : 0"
       inkscape:vp_x="0 : 290 : 1"
       sodipodi:type="inkscape:persp3d"
       id="perspective3653"
       inkscape:persp3d-origin="290 : 193.33333 : 1" /><inkscape:perspective
       inkscape:vp_z="355.02399 : 217.53 : 1"
       inkscape:vp_y="0 : 1000 : 0"
       inkscape:vp_x="0 : 217.53 : 1"
       sodipodi:type="inkscape:persp3d"
       id="perspective2512"
       inkscape:persp3d-origin="177.51199 : 145.02 : 1" /></defs><g
     id="g2121" /><g
     id="g4198"
     transform="translate(-2.8338787,-220.28663)"><g
       id="g4146"
       transform="matrix(36.669882,0,0,36.669882,-1271.7728,213.25344)"><path
         inkscape:connector-curvature="0"
         d="m 42.780379,0.75791059 c -0.25,0.0032 -0.903075,0.34143821 -0.903075,0.67701431 l 0,3.8750002 -6.370133,3.0600663 14.320355,0 L 43.602415,5.3099251 43.457393,1.4349249 C 43.444365,1.0868095 43.030379,0.75471489 42.780379,0.75791059 Z m 0.577257,0 0.01967,3.68459211 5.2391,-0.055208 -2.393365,-1.8343603 2.649052,-1.77535555 z m -6.980332,7.88696971 0,1.7976227 1,0 0,3.492421 -1,0 0,1.507578 12.797622,0 0,-1.507578 -1,0 0,-3.492421 0.927489,0 0,-1.7976227 z m 6.33436,2.3172907 c 1,0 1.66564,0.562802 1.66564,0.972754 l 0,1.999999 -3.202378,0 0,-1.999999 c 0,-0.606635 0.930102,-0.972754 1.536738,-0.972754 z"
         id="path4173"
         style="fill:#ffffff;fill-opacity:1;stroke:none"
         sodipodi:nodetypes="csccccsccccccccccccccccccccssccss" /><path
         style="fill:#734a08;fill-opacity:1;stroke:none"
         id="town-hall"
         d="m 42.739859,1.0799471 c -0.25,0.0032 -0.5,0.1644239 -0.5,0.5 l 0,3.8750002 -5.5,2.6249996 12,0 -5.5,-2.6249996 0,-3.8750002 c 0,-0.3483591 -0.25,-0.5031957 -0.5,-0.5 z m 1,0 0,3 4,0 -2,-1.5 2,-1.5 z m -7,7.9999999 0,1 1,0 0,3.999999 -1,0 0,1 12,0 0,-1 -1,0 0,-3.999999 1,0 0,-1 z m 6,1.5 c 1,0 2,0.5 2,1.5 l 0,1.999999 -4,0 0,-1.999999 c 0,-1 0.999999,-1.5 2,-1.5 z"
         inkscape:connector-curvature="0" /></g></g></svg>