<?xml version="1.0" encoding="UTF-8" standalone="no"?>
<!-- Generator: Adobe Illustrator 16.0.0, SVG Export Plug-In . SVG Version: 6.00 Build 0)  -->

<svg
   xmlns:dc="http://purl.org/dc/elements/1.1/"
   xmlns:cc="http://creativecommons.org/ns#"
   xmlns:rdf="http://www.w3.org/1999/02/22-rdf-syntax-ns#"
   xmlns:svg="http://www.w3.org/2000/svg"
   xmlns="http://www.w3.org/2000/svg"
   xmlns:sodipodi="http://sodipodi.sourceforge.net/DTD/sodipodi-0.dtd"
   xmlns:inkscape="http://www.inkscape.org/namespaces/inkscape"
   version="1.1"
   id="svg2"
   inkscape:output_extension="org.inkscape.output.svg.inkscape"
   sodipodi:docname="JH_education_school.svg"
   inkscape:version="0.91 r13725"
   sodipodi:version="0.32"
   x="0px"
   y="0px"
   width="580px"
   height="580px"
   viewBox="0 0 580 580"
   enable-background="new 0 0 580 580"
   xml:space="preserve"
   inkscape:export-filename="F:\_GRAFIKA\2016_08_29_Symboly_turistika\JH_icons\JH_education_school.png"
   inkscape:export-xdpi="31"
   inkscape:export-ydpi="31"><metadata
     id="metadata17"><rdf:RDF><cc:Work
         rdf:about=""><dc:format>image/svg+xml</dc:format><dc:type
           rdf:resource="http://purl.org/dc/dcmitype/StillImage" /><dc:title /></cc:Work></rdf:RDF></metadata><sodipodi:namedview
     showgrid="false"
     inkscape:cy="-249.34281"
     inkscape:cx="599.35482"
     inkscape:zoom="0.46083856"
     pagecolor="#ffffff"
     bordercolor="#666666"
     guidetolerance="10.0"
     objecttolerance="10.0"
     gridtolerance="10.0"
     borderopacity="1.0"
     id="base"
     inkscape:current-layer="layer1"
     inkscape:window-y="-9"
     inkscape:window-x="-9"
     inkscape:pageopacity="0.0"
     inkscape:pageshadow="2"
     inkscape:window-width="2560"
     inkscape:window-height="1369"
     inkscape:window-maximized="1" /><defs
     id="defs4"><inkscape:perspective
       inkscape:vp_z="580 : 290 : 1"
       inkscape:vp_y="0 : 1000 : 0"
       inkscape:vp_x="0 : 290 : 1"
       sodipodi:type="inkscape:persp3d"
       id="perspective3653"
       inkscape:persp3d-origin="290 : 193.33333 : 1" /><inkscape:perspective
       inkscape:vp_z="355.02399 : 217.53 : 1"
       inkscape:vp_y="0 : 1000 : 0"
       inkscape:vp_x="0 : 217.53 : 1"
       sodipodi:type="inkscape:persp3d"
       id="perspective2512"
       inkscape:persp3d-origin="177.51199 : 145.02 : 1" /><style
       type="text/css"
       id="style3100">.str0 {stroke:#DEDEDD;stroke-width:0.000425674}
    .fil0 {fill:#C1E0B9}
    .fil2 {fill:#00923F;fill-rule:nonzero}
    .fil1 {fill:#1F1A17;fill-rule:nonzero}</style><style
       type="text/css"
       id="style3100-6">.str0 {stroke:#DEDEDD;stroke-width:0.000425674}
    .fil0 {fill:#C1E0B9}
    .fil2 {fill:#00923F;fill-rule:nonzero}
    .fil1 {fill:#1F1A17;fill-rule:nonzero}</style><style
       type="text/css"
       id="style3107">.fil1 {fill:black}
    .fil0 {fill:#FE7D19}
    .fil2 {fill:black;fill-rule:nonzero}</style><style
       type="text/css"
       id="style3107-8">.fil1 {fill:black}
    .fil0 {fill:#FE7D19}
    .fil2 {fill:black;fill-rule:nonzero}</style></defs><g
     id="g2121" /><g
     id="g4198"
     transform="translate(-2.8338787,-220.28663)"><g
       transform="matrix(3.8505141,0,0,3.8505141,-2295.2989,303.94482)"
       inkscape:label="Layer 1"
       id="layer1"><g
         id="g4325"
         transform="matrix(1.2873722,0,0,1.2873722,-113.99904,-26.697668)"><path
           style="color:#000000;font-style:normal;font-variant:normal;font-weight:normal;font-stretch:normal;font-size:medium;line-height:normal;font-family:sans-serif;text-indent:0;text-align:start;text-decoration:none;text-decoration-line:none;text-decoration-style:solid;text-decoration-color:#000000;letter-spacing:normal;word-spacing:normal;text-transform:none;direction:ltr;block-progression:tb;writing-mode:lr-tb;baseline-shift:baseline;text-anchor:start;white-space:normal;clip-rule:nonzero;display:inline;overflow:visible;visibility:visible;opacity:1;isolation:auto;mix-blend-mode:normal;color-interpolation:sRGB;color-interpolation-filters:linearRGB;solid-color:#000000;solid-opacity:1;fill:#ffffff;fill-opacity:1;fill-rule:nonzero;stroke:none;stroke-width:17.68400002;stroke-linecap:butt;stroke-linejoin:miter;stroke-miterlimit:4;stroke-dasharray:none;stroke-dashoffset:0;stroke-opacity:1;color-rendering:auto;image-rendering:auto;shape-rendering:auto;text-rendering:auto;enable-background:accumulate"
           d="m 611.40248,31.762441 -0.66853,0.2009 -54.97946,16.483211 11.18965,4.459627 -4.59914,24.170865 4.26639,1.538449 2.37995,-4.314056 2.89328,5.243342 4.02139,-2.218672 -4.36172,-7.904784 0,-14.681983 19.15275,7.632911 0,22.314367 2.33889,-0.04357 c 0,0 10.12217,0.136858 15.89326,4.699041 l -0.0304,0.04679 c -5.3e-4,8.48e-4 -9.7e-4,0.0017 -0.002,0.0025 l -0.006,0.0088 0.47172,0.303309 c 0.30141,0.260848 0.59939,0.525615 0.87042,0.814127 l -0.0263,-0.271376 0.0558,0.03597 0.21874,0.326148 -0.16142,0.0025 c 0.37943,0.412766 0.7276,0.84799 1.04085,1.311201 l 5e-4,-5.27e-4 0.69949,1.044914 0.69289,-1.083953 c 2e-4,-3.22e-4 2.9e-4,-7.02e-4 4.9e-4,-0.001 0.30276,-0.468825 0.63481,-0.908407 0.99266,-1.321845 l -0.14856,0.002 0.16289,-0.254707 0.0944,-0.06404 -0.0146,0.211427 c 0.1971,-0.222539 0.41958,-0.420603 0.63303,-0.627439 l 0.69695,-0.469205 -0.006,-0.0088 -0.0684,-0.102936 c 5.77138,-4.883886 15.95414,-4.995273 15.95414,-4.995273 l 2.34091,0.04562 0,-22.674525 32.18166,-13.175 -54.17245,-16.685047 z m 0.57238,52.817616 c 0.0526,-22.861711 0.0263,-11.430856 0,0 z"
           id="path4264"
           inkscape:connector-curvature="0"
           sodipodi:nodetypes="cccccccccccccccccccccccccccccccccccccccccccccc" /><path
           inkscape:connector-curvature="0"
           id="path4279"
           d="m 610.82674,84.261793 c -2.52344,-1.84512 -7.43523,-3.66047 -11.69366,-4.32183 -1.08483,-0.16844 -2.38451,-0.37025 -2.8882,-0.44839 l -0.91577,-0.14212 0,-7.59515 c 0,-4.17732 0.0673,-7.59516 0.14943,-7.59516 0.0822,0 3.70595,1.40925 8.05275,3.13164 l 7.9033,3.13164 8.36062,-3.41483 c 4.59836,-1.87814 8.45572,-3.41416 8.57197,-3.4134 0.11609,7.9e-4 0.21142,3.46554 0.21142,7.69947 l 0,7.69809 -2.5104,0.33422 c -4.75483,0.63308 -9.48093,2.38293 -12.77653,4.73062 -0.73652,0.52465 -1.37051,0.94768 -1.4089,0.94008 -0.0383,-0.009 -0.51357,-0.33831 -1.056,-0.73494 z"
           style="opacity:1;fill:#734a08;fill-opacity:1;stroke:none;stroke-width:19.18676186;stroke-linecap:butt;stroke-linejoin:round;stroke-miterlimit:4;stroke-dasharray:none;stroke-dashoffset:0;stroke-opacity:1" /><path
           inkscape:connector-curvature="0"
           id="path4296"
           d="m 591.94319,56.928267 -20.22986,-8.06644 19.9481,-6.00094 c 10.97145,-3.30055 20.20171,-6.02548 20.51165,-6.05545 0.65955,-0.0637 39.66057,11.90187 39.45696,12.10552 -0.1781,0.17809 -39.09832,16.12183 -39.30232,16.10016 -0.0851,-0.009 -9.25809,-3.64629 -20.38453,-8.08285 z"
           style="opacity:1;fill:#734a08;fill-opacity:1;stroke:none;stroke-width:17.68400002;stroke-linecap:butt;stroke-linejoin:round;stroke-miterlimit:4;stroke-dasharray:none;stroke-dashoffset:0;stroke-opacity:1" /></g></g></g></svg>