<?xml version="1.0" encoding="UTF-8" standalone="no"?>
<!-- Generator: Adobe Illustrator 16.0.0, SVG Export Plug-In . SVG Version: 6.00 Build 0)  -->

<svg
   xmlns:dc="http://purl.org/dc/elements/1.1/"
   xmlns:cc="http://creativecommons.org/ns#"
   xmlns:rdf="http://www.w3.org/1999/02/22-rdf-syntax-ns#"
   xmlns:svg="http://www.w3.org/2000/svg"
   xmlns="http://www.w3.org/2000/svg"
   xmlns:xlink="http://www.w3.org/1999/xlink"
   xmlns:sodipodi="http://sodipodi.sourceforge.net/DTD/sodipodi-0.dtd"
   xmlns:inkscape="http://www.inkscape.org/namespaces/inkscape"
   version="1.1"
   id="svg2"
   inkscape:output_extension="org.inkscape.output.svg.inkscape"
   sodipodi:docname="JH_food_restaurant.svg"
   inkscape:version="0.92.2 (5c3e80d, 2017-08-06)"
   sodipodi:version="0.32"
   x="0px"
   y="0px"
   width="580px"
   height="580px"
   viewBox="0 0 580 580"
   enable-background="new 0 0 580 580"
   xml:space="preserve"
   inkscape:export-filename="/media/juhele/data_2TB/_GRAFIKA/2018_03_22_Symboly_turistika/JH_icons/JH_food_restaurant.png"
   inkscape:export-xdpi="33.103447"
   inkscape:export-ydpi="33.103447"><metadata
     id="metadata17"><rdf:RDF><cc:Work
         rdf:about=""><dc:format>image/svg+xml</dc:format><dc:type
           rdf:resource="http://purl.org/dc/dcmitype/StillImage" /><dc:title></dc:title></cc:Work></rdf:RDF></metadata><sodipodi:namedview
     showgrid="false"
     inkscape:cy="10.158475"
     inkscape:cx="288.38675"
     inkscape:zoom="0.5"
     pagecolor="#ffffff"
     bordercolor="#666666"
     guidetolerance="10.0"
     objecttolerance="10.0"
     gridtolerance="10.0"
     borderopacity="1.0"
     id="base"
     inkscape:current-layer="g4182"
     inkscape:window-y="0"
     inkscape:window-x="0"
     inkscape:pageopacity="0.0"
     inkscape:pageshadow="2"
     inkscape:window-width="1920"
     inkscape:window-height="1140"
     inkscape:window-maximized="1" /><defs
     id="defs4"><inkscape:perspective
       inkscape:vp_z="580 : 290 : 1"
       inkscape:vp_y="0 : 1000 : 0"
       inkscape:vp_x="0 : 290 : 1"
       sodipodi:type="inkscape:persp3d"
       id="perspective3653"
       inkscape:persp3d-origin="290 : 193.33333 : 1" /><inkscape:perspective
       inkscape:vp_z="355.02399 : 217.53 : 1"
       inkscape:vp_y="0 : 1000 : 0"
       inkscape:vp_x="0 : 217.53 : 1"
       sodipodi:type="inkscape:persp3d"
       id="perspective2512"
       inkscape:persp3d-origin="177.51199 : 145.02 : 1" /><inkscape:perspective
       id="perspective30"
       inkscape:persp3d-origin="35.074001 : 19.682 : 1"
       inkscape:vp_z="70.148003 : 29.523001 : 1"
       inkscape:vp_y="0 : 1000 : 0"
       inkscape:vp_x="0 : 29.523001 : 1"
       sodipodi:type="inkscape:persp3d" /><linearGradient
       id="linearGradient3759"><stop
         offset="0"
         style="stop-color:#7b7b7b"
         id="stop3761" /><stop
         offset=".39825"
         style="stop-color:#969696"
         id="stop3763" /><stop
         offset="1"
         style="stop-color:#7d7d7d"
         id="stop3765" /></linearGradient><linearGradient
       id="linearGradient3723"><stop
         offset="0"
         style="stop-color:#868686"
         id="stop3725" /><stop
         offset="1"
         style="stop-color:#333333"
         id="stop3727" /></linearGradient><linearGradient
       x1="216.17"
       y1="383.44"
       x2="262.32"
       gradientUnits="userSpaceOnUse"
       y2="589.85"
       id="linearGradient3696"><stop
         offset="0"
         style="stop-color:#7b7b7b"
         id="stop3692" /><stop
         offset=".66682"
         style="stop-color:#9a9a9a"
         id="stop3698" /><stop
         offset="1"
         style="stop-color:#7d7d7d"
         id="stop3694" /></linearGradient><radialGradient
       r="30.917"
       gradientTransform="matrix(-0.44009,-1.8824,1.0715,-0.2505,-83.081,1012.8)"
       cx="251.1"
       cy="422.6"
       gradientUnits="userSpaceOnUse"
       xlink:href="#linearGradient3723"
       id="radialGradient3729" /><linearGradient
       x1="142.93"
       y1="434.28"
       x2="181.83"
       gradientUnits="userSpaceOnUse"
       y2="599.19"
       id="linearGradient3739"><stop
         offset="0"
         style="stop-color:#7b7b7b"
         id="stop3815" /><stop
         offset=".61307"
         style="stop-color:#919191"
         id="stop3817" /><stop
         offset="1"
         style="stop-color:#7d7d7d"
         id="stop3819" /></linearGradient><linearGradient
       x1="61.573"
       y1="441.15"
       x2="78.543"
       gradientUnits="userSpaceOnUse"
       xlink:href="#linearGradient3759"
       y2="585.4"
       id="linearGradient3741" /><linearGradient
       x1="135.86"
       y1="377.7"
       gradientTransform="translate(-0.17678)"
       x2="86.714"
       gradientUnits="userSpaceOnUse"
       xlink:href="#linearGradient3723"
       y2="372.22"
       id="linearGradient3753" /><linearGradient
       x1="97.758"
       y1="351.44"
       x2="101.12"
       gradientUnits="userSpaceOnUse"
       y2="376.72"
       id="linearGradient3788"><stop
         offset="0"
         style="stop-color:#7b7b7b"
         id="stop3769" /><stop
         offset=".59164"
         style="stop-color:#aaaaaa"
         id="stop3771" /><stop
         offset="1"
         style="stop-color:#7d7d7d"
         id="stop3773" /></linearGradient><linearGradient
       x1="111.19"
       y1="356.92"
       x2="107.13"
       gradientUnits="userSpaceOnUse"
       xlink:href="#linearGradient3759"
       y2="393.69"
       id="linearGradient3798" /><linearGradient
       x1="234.75"
       y1="431.86"
       x2="261.72"
       gradientUnits="userSpaceOnUse"
       y2="443.62"
       id="linearGradient3807"><stop
         offset="0"
         style="stop-color:#5c5c5c"
         id="stop2858" /><stop
         offset="1"
         style="stop-color:#727272"
         id="stop2860" /></linearGradient><linearGradient
       x1="174.23"
       y1="446.17"
       gradientTransform="translate(0.125,0.75)"
       x2="178.93"
       gradientUnits="userSpaceOnUse"
       y2="459.81"
       id="linearGradient3866"><stop
         offset="0"
         style="stop-color:#848484"
         id="stop3825" /><stop
         offset="1"
         style="stop-color:#cacaca"
         id="stop3829" /></linearGradient><linearGradient
       x1="85.342"
       y1="584.99"
       gradientTransform="matrix(0.98577,0,0,0.98577,1.1733,6.8455)"
       x2="107.32"
       gradientUnits="userSpaceOnUse"
       xlink:href="#linearGradient3723"
       y2="623.48"
       id="linearGradient3880" /><linearGradient
       x1="85.342"
       y1="584.99"
       gradientTransform="matrix(0.98577,0,0,0.98577,77.173,6.8455)"
       x2="107.32"
       gradientUnits="userSpaceOnUse"
       xlink:href="#linearGradient3723"
       y2="623.48"
       id="linearGradient3884" /><linearGradient
       x1="85.342"
       y1="584.99"
       gradientTransform="matrix(0.98577,0,0,0.98577,156.17,6.8455)"
       x2="107.32"
       gradientUnits="userSpaceOnUse"
       xlink:href="#linearGradient3723"
       y2="623.48"
       id="linearGradient3888" /></defs><g
     id="g2121" /><g
     id="g4198"
     transform="translate(-2.8338787,-220.28663)"><g
       transform="matrix(81.437956,0,0,81.437956,-24797.77,-48180.737)"
       id="g43"><g
         transform="matrix(0.00664475,0,0,0.00664475,306.1645,591.97915)"
         id="g4"
         style="stroke:#000000;stroke-width:4.99999857;stroke-miterlimit:4;stroke-dasharray:none;stroke-opacity:1"><g
           transform="matrix(2.7088,0.68982,-0.68982,2.7088,-600.86,144.48)"
           id="g6"
           style="stroke:#000000;stroke-width:1.78874528;stroke-miterlimit:4;stroke-dasharray:none;stroke-opacity:1"><g
             id="g4434"
             transform="matrix(0.65664901,0.0766632,-0.0766632,0.65664901,-59.8231,-10.336049)"><g
               id="g4264"><g
                 transform="matrix(0.48461602,-0.18550558,0.17674505,0.46172994,531.24164,120.88448)"
                 id="layer1" /><g
                 id="g4182"
                 transform="matrix(22.472353,-8.6021649,8.6021649,22.472353,398.56436,28.125279)"><g
                   id="g949"><g
                     id="layer1-7"
                     transform="matrix(0.04302298,0,0,0.04302298,34.707225,-11.452991)"><g
                       transform="matrix(0.75436854,-0.65645114,0.72840978,0.83708509,-1350.5279,121.50725)"
                       id="g936"><path
                         style="color:#000000;font-style:normal;font-variant:normal;font-weight:normal;font-stretch:normal;font-size:medium;line-height:normal;font-family:sans-serif;font-variant-ligatures:normal;font-variant-position:normal;font-variant-caps:normal;font-variant-numeric:normal;font-variant-alternates:normal;font-feature-settings:normal;text-indent:0;text-align:start;text-decoration:none;text-decoration-line:none;text-decoration-style:solid;text-decoration-color:#000000;letter-spacing:normal;word-spacing:normal;text-transform:none;writing-mode:lr-tb;direction:ltr;text-orientation:mixed;dominant-baseline:auto;baseline-shift:baseline;text-anchor:start;white-space:normal;shape-padding:0;clip-rule:nonzero;display:inline;overflow:visible;visibility:visible;opacity:1;isolation:auto;mix-blend-mode:normal;color-interpolation:sRGB;color-interpolation-filters:linearRGB;solid-color:#000000;solid-opacity:1;vector-effect:none;fill:#ffffff;fill-opacity:1;fill-rule:nonzero;stroke:none;stroke-width:30.00000191;stroke-linecap:butt;stroke-linejoin:miter;stroke-miterlimit:4;stroke-dasharray:none;stroke-dashoffset:0;stroke-opacity:1;color-rendering:auto;image-rendering:auto;shape-rendering:auto;text-rendering:auto;enable-background:accumulate"
                         d="m 236.44727,427.94336 c -5.16585,0 -9.07653,2.57606 -11.08594,4.47656 -2.00942,1.90051 -2.90286,3.4474 -3.63672,4.78906 -1.46771,2.68334 -2.12738,4.80762 -2.81641,7.18164 -1.37805,4.74805 -2.43739,10.28277 -3.48437,16.91211 -2.09397,13.2587 -3.92791,30.56234 -5.35352,48.75977 -1.4256,18.19743 -2.42687,37.20621 -2.74804,53.60742 -0.32117,16.40122 -0.25274,29.37428 1.58398,39.16992 3.52332,18.79067 15.92502,30.03411 23.91016,37.86719 7.97901,7.82708 11.31715,11.0244 11.32226,18.75 v 0.0234 c 0,81.90912 -7.84033,133.96562 -13.5957,175.13672 -5.75538,41.17109 -9.63968,72.80447 0.22656,109.625 5.52071,20.60347 25.00228,31.61775 42.32422,30.93359 17.32194,-0.68416 35.20868,-11.56643 40.39844,-30.93359 9.24569,-34.50504 5.46798,-66.87865 0.0547,-109.47657 -5.4133,-42.59791 -12.76954,-96.48915 -12.76954,-176.77148 0,-6.3136 1.04549,-6.30128 7.50977,-12.50195 6.46428,-6.20067 17.3599,-16.10463 24.32422,-33.38672 4.78223,-11.86751 4.69255,-24.80928 4.70508,-41.95703 0.0125,-17.14775 -1.01234,-37.07612 -2.50391,-56.19922 -1.49157,-19.1231 -3.44839,-37.37053 -5.37305,-51.12891 -0.96233,-6.87919 -1.89634,-12.58192 -2.86914,-17.07422 -0.48639,-2.24615 -0.92482,-4.11079 -1.69726,-6.27929 -0.38623,-1.08425 -0.752,-2.20754 -1.95899,-4.12305 -0.60349,-0.95776 -1.39205,-2.17558 -3.21289,-3.72461 -1.82083,-1.54903 -5.28328,-3.67578 -9.94726,-3.67578 h -11.03125 l -3.28711,10.53125 c -2.15321,6.89793 -3.00885,34.3535 -3.63282,42.69141 -0.41819,-5.37308 -0.7836,-30.67275 -1.55272,-35.4629 -0.3516,-2.14467 -0.66825,-4.0341 -1.6543,-6.66601 -0.49302,-1.31596 -1.05399,-2.87247 -2.86914,-5.13477 -1.81515,-2.26229 -6.25652,-5.95898 -12.27929,-5.95898 -5.93375,0 -10.34597,3.59651 -12.17969,5.83398 -1.83372,2.23747 -2.41631,3.7913 -2.92188,5.10157 -1.01113,2.62052 -1.34001,4.49149 -1.70703,6.60937 -0.73404,4.23576 -1.19265,9.09562 -1.64258,14.85547 -0.44806,5.73595 -0.91192,13.44674 -1.33593,20.37891 -0.0987,-6.63184 -0.26887,-14.0841 -0.37891,-19.55274 -0.11411,-5.67048 -0.25638,-10.43265 -0.59961,-14.41797 -0.17161,-1.99266 -0.32114,-3.6825 -0.89258,-6.02734 -0.28572,-1.17242 -0.53735,-2.48643 -1.88476,-4.85547 -1.34742,-2.36904 -5.68194,-7.92578 -13.45703,-7.92578 z"
                         id="path3642"
                         inkscape:connector-curvature="0"
                         sodipodi:nodetypes="csccssssscsscscsssccssccccsccccccssssscccsccc" /><path
                         sodipodi:nodetypes="cccsccssssscc"
                         inkscape:connector-curvature="0"
                         id="path926"
                         style="color:#000000;fill:#734a08;fill-opacity:1;stroke:none;stroke-width:3.74604225"
                         d="m 259.139,655.48107 c 0,165.74986 -22.01816,213.37113 -3.88151,281.05661 7.57776,28.28047 25.15716,24.20169 31.7477,-0.39294 16.7375,-62.46457 -1.22738,-119.74101 -1.22738,-282.15057 0,-22.23443 21.36113,-22.80825 32.92128,-51.495 10.32183,-25.61451 -4.24961,-163.5551 -8.94466,-163.5551 -8.34262,26.72603 0.69116,119.36622 -20.77413,120.19524 -12.87117,0.49711 -9.05188,-120.19524 -15.53206,-120.19524 -6.48017,0 -3.15717,118.84618 -20.46508,118.71441 -19.89597,-0.15141 -11.67589,-118.71441 -16.53617,-118.71441 -8.26069,0 -17.93582,129.73121 -12.79805,157.1321 5.13777,27.40089 35.4909,32.59458 35.4909,59.39653 z" /></g><g
                       transform="matrix(0.73504198,0.67802139,-0.61363429,0.66558313,-265.77939,14.318549)"
                       id="g940"><path
                         style="color:#000000;font-style:normal;font-variant:normal;font-weight:normal;font-stretch:normal;font-size:medium;line-height:normal;font-family:sans-serif;font-variant-ligatures:normal;font-variant-position:normal;font-variant-caps:normal;font-variant-numeric:normal;font-variant-alternates:normal;font-feature-settings:normal;text-indent:0;text-align:start;text-decoration:none;text-decoration-line:none;text-decoration-style:solid;text-decoration-color:#000000;letter-spacing:normal;word-spacing:normal;text-transform:none;writing-mode:lr-tb;direction:ltr;text-orientation:mixed;dominant-baseline:auto;baseline-shift:baseline;text-anchor:start;white-space:normal;shape-padding:0;clip-rule:nonzero;display:inline;overflow:visible;visibility:visible;opacity:1;isolation:auto;mix-blend-mode:normal;color-interpolation:sRGB;color-interpolation-filters:linearRGB;solid-color:#000000;solid-opacity:1;vector-effect:none;fill:#ffffff;fill-opacity:1;fill-rule:nonzero;stroke:none;stroke-width:30.00000191;stroke-linecap:butt;stroke-linejoin:miter;stroke-miterlimit:4;stroke-dasharray:none;stroke-dashoffset:0;stroke-opacity:1;color-rendering:auto;image-rendering:auto;shape-rendering:auto;text-rendering:auto;enable-background:accumulate"
                         d="m 111.79297,294.4082 c -11.17019,0 -18.97038,8.43193 -22.898439,15.82032 -3.928059,7.38838 -6.21967,15.78959 -8.169922,25.70312 -3.900503,19.82706 -5.814869,45.6145 -6.849609,74.40039 -2.06948,57.57178 -0.328125,126.76089 -0.328125,175.2207 0,22.24016 2.975314,37.2761 5.800781,48.32422 2.825468,11.04812 4.865235,17.06543 4.865235,24.17383 v 0.006 c 0,81.89067 -8.002542,136.67429 -13.832032,179.33398 -5.829489,42.6597 -9.917387,74.50818 0.667969,107.54493 6.414948,20.02406 25.370287,30.70868 42.570312,30.09375 17.20003,-0.61494 34.81879,-11.64862 39.94727,-30.78711 8.43739,-31.48858 4.6718,-58.75926 -0.5293,-98.93946 -5.2011,-40.18019 -12.18555,-94.91161 -12.18555,-185.00585 0,-3.96124 6.25638,-17.42921 14.5918,-35.9668 8.33542,-18.53759 17.23047,-43.14339 17.23047,-74.56836 0,-51.64218 -3.60186,-112.16928 -11.33399,-160.73633 -3.86606,-24.28352 -8.65475,-45.48209 -15.16601,-61.91406 -3.25563,-8.21599 -6.85858,-15.30699 -11.97461,-21.29688 -5.11603,-5.98988 -12.9706,-11.40625 -22.40625,-11.40625 z"
                         id="path3688"
                         inkscape:connector-curvature="0"
                         sodipodi:nodetypes="csssssssscscssssssscc" /><path
                         sodipodi:nodetypes="cccsssscc"
                         inkscape:connector-curvature="0"
                         id="path928"
                         style="color:#000000;fill:#734a08;fill-opacity:1;stroke:none;stroke-width:3.74604225"
                         d="m 100.26494,655.42958 c 0,165.74985 -24.628432,223.86876 -5.880267,282.38152 8.932517,27.88257 29.154427,24.41586 35.744967,-0.17877 15.18923,-56.68659 -3.2259,-98.21007 -3.2259,-279.96193 0,-22.23443 31.82181,-53.23949 31.82181,-110.5355 0,-101.86749 -14.43322,-240.35467 -45.88037,-240.35467 -30.148524,0 -23.245945,178.51837 -23.245945,276.14504 0,41.93694 10.666115,52.85206 10.666115,72.49802 z" /></g></g></g></g></g></g></g></g></g></g></svg>