<?xml version="1.0" encoding="UTF-8" standalone="no"?>
<!-- Generator: Adobe Illustrator 16.0.0, SVG Export Plug-In . SVG Version: 6.00 Build 0)  -->

<svg
   xmlns:dc="http://purl.org/dc/elements/1.1/"
   xmlns:cc="http://creativecommons.org/ns#"
   xmlns:rdf="http://www.w3.org/1999/02/22-rdf-syntax-ns#"
   xmlns:svg="http://www.w3.org/2000/svg"
   xmlns="http://www.w3.org/2000/svg"
   xmlns:sodipodi="http://sodipodi.sourceforge.net/DTD/sodipodi-0.dtd"
   xmlns:inkscape="http://www.inkscape.org/namespaces/inkscape"
   version="1.1"
   id="svg2"
   inkscape:output_extension="org.inkscape.output.svg.inkscape"
   sodipodi:docname="JH_historic_ruins.svg"
   inkscape:version="0.91 r13725"
   sodipodi:version="0.32"
   x="0px"
   y="0px"
   width="580px"
   height="580px"
   viewBox="0 0 580 580"
   enable-background="new 0 0 580 580"
   xml:space="preserve"
   inkscape:export-filename="/media/juhele/KONZERVA/__PRACE/JH_icons/JH_historic_ruins.png"
   inkscape:export-xdpi="31"
   inkscape:export-ydpi="31"><metadata
     id="metadata17"><rdf:RDF><cc:Work
         rdf:about=""><dc:format>image/svg+xml</dc:format><dc:type
           rdf:resource="http://purl.org/dc/dcmitype/StillImage" /></cc:Work></rdf:RDF></metadata><sodipodi:namedview
     showgrid="false"
     inkscape:cy="209.38699"
     inkscape:cx="264.20181"
     inkscape:zoom="1"
     pagecolor="#ffffff"
     bordercolor="#666666"
     guidetolerance="10.0"
     objecttolerance="10.0"
     gridtolerance="10.0"
     borderopacity="1.0"
     id="base"
     inkscape:current-layer="g7557"
     inkscape:window-y="0"
     inkscape:window-x="0"
     inkscape:pageopacity="0.0"
     inkscape:pageshadow="2"
     inkscape:window-width="1920"
     inkscape:window-height="1125"
     inkscape:window-maximized="1"
     showguides="true"
     inkscape:guide-bbox="true" /><defs
     id="defs4"><inkscape:perspective
       inkscape:vp_z="580 : 290 : 1"
       inkscape:vp_y="0 : 1000 : 0"
       inkscape:vp_x="0 : 290 : 1"
       sodipodi:type="inkscape:persp3d"
       id="perspective3653"
       inkscape:persp3d-origin="290 : 193.33333 : 1" /><inkscape:perspective
       inkscape:vp_z="355.02399 : 217.53 : 1"
       inkscape:vp_y="0 : 1000 : 0"
       inkscape:vp_x="0 : 217.53 : 1"
       sodipodi:type="inkscape:persp3d"
       id="perspective2512"
       inkscape:persp3d-origin="177.51199 : 145.02 : 1" /></defs><g
     id="g2121" /><g
     id="g4198"
     transform="translate(-2.8338787,-220.28663)"><g
       id="g7557"
       transform="matrix(0.82787648,0,0,0.82787648,660.43779,81.978361)"><g
         style="fill:#ffffff"
         inkscape:label="Warstwa 1"
         id="g7672"
         transform="matrix(1.0609674,0,0,0.90733887,-1347.6256,161.9467)" /><g
         transform="matrix(1.0609674,0,0,0.90733887,-937.6256,161.9467)"
         id="g7471"
         inkscape:label="Warstwa 1"
         style="fill:#ffffff"><g
           id="g7473"
           transform="matrix(4.8748,0,0,4.8748,-340.82,-382.25)"
           style="fill:#ffffff" /></g><g
         id="g7510"
         transform="matrix(1.026283,0,0,1.0268631,6.8080324,-28.424087)"><path
           sodipodi:nodetypes="cccccccccccccccccccccccccccccccccccccccccccc"
           inkscape:connector-curvature="0"
           id="path7506"
           d="m -699.70841,261.71221 -54.97071,0.15429 0.10547,91.41602 33.67774,32.81055 -24.70899,328.73824 -15.39453,-0.047 0.0644,86.5117 233.20313,-0.1055 0,-0.1992 176.78711,0 0,0.3047 233.35547,-0.1055 -0.39258,-41.666 -104.86719,-7.8594 -100.08984,-13.1347 -11.96485,-31.0547 0.46094,-55.0215 -14.15039,-4.9199 -0.0527,-56.4161 -22.34766,-12.125 -5.72266,-32.4707 -34,-7.4472 -7.94726,-26.5508 -30.61328,-0.2109 0.52539,-33.5567 -69.84961,0 -0.52344,33.4707 -10.3125,-0.092 -0.52539,-33.3789 -27.32813,0 -5.75195,-94.47459 30.45313,-31.375 0.20898,-91.10156 -70.02734,-0.0566 -0.20117,36.51562 -1.97266,0 -0.16211,-36.44726 -77.71094,0.0508 -0.16015,36.57812 -2.05079,0 0,-36.73437 -15.02148,0 -0.0215,0 z"
           style="color:#000000;font-style:normal;font-variant:normal;font-weight:normal;font-stretch:normal;font-size:medium;line-height:normal;font-family:sans-serif;text-indent:0;text-align:start;text-decoration:none;text-decoration-line:none;text-decoration-style:solid;text-decoration-color:#000000;letter-spacing:normal;word-spacing:normal;text-transform:none;direction:ltr;block-progression:tb;writing-mode:lr-tb;baseline-shift:baseline;text-anchor:start;white-space:normal;clip-rule:nonzero;display:inline;overflow:visible;visibility:visible;opacity:1;isolation:auto;mix-blend-mode:normal;color-interpolation:sRGB;color-interpolation-filters:linearRGB;solid-color:#000000;solid-opacity:1;fill:#ffffff;fill-opacity:1;fill-rule:nonzero;stroke:none;stroke-width:30;stroke-linecap:round;stroke-linejoin:miter;stroke-miterlimit:4;stroke-dasharray:none;stroke-dashoffset:0;stroke-opacity:1;color-rendering:auto;image-rendering:auto;shape-rendering:auto;text-rendering:auto;enable-background:accumulate" /><path
           sodipodi:nodetypes="cccccccccccccccccccccccccccccccccccccccccc"
           inkscape:connector-curvature="0"
           id="rect7489"
           d="m -699.66563,273.88133 -39.9955,0.11324 0.0802,70.12245 34.16828,33.2883 -26.28148,349.64031 -14.29438,-0.0448 0.0425,56.45799 203.21429,-0.092 0,-0.20526 206.78612,0 0,0.29727 203.21429,-0.092 -0.12032,-12.74439 -91.53456,-6.86051 -109.34376,-14.34975 -16.19798,-42.03796 0.39612,-47.11574 -14.05026,-4.88539 -0.0554,-58.15334 -20.87294,-11.32483 -5.23442,-29.7001 -32.80855,-7.18685 -7.30009,-24.39087 -34.65899,-0.23828 0.52375,-33.45108 -39.84451,0 -0.52611,33.60207 -39.8445,-0.35389 -0.52374,-33.24818 -26.67782,0 -7.01154,-115.17136 30.84181,-31.77605 0.16042,-70.01629 -40.0757,-0.033 -0.20054,36.50388 -31.82559,0 -0.16043,-36.43782 -47.84218,0.0307 -0.16042,36.58881 -31.98602,0 0,-36.73508 z"
           style="opacity:1;fill:#734a08;fill-opacity:1;stroke:none;stroke-width:30;stroke-linecap:round;stroke-miterlimit:4;stroke-dasharray:none;stroke-opacity:1" /><path
           d="m -668.42133,534.84268 0.4634,-90.26269 c 4.7914,-40.18539 51.2364,-37.78971 54.6367,0 l 0,91.2673 -55.1003,-1.00461 z"
           style="fill:#ffffff;fill-rule:evenodd;stroke:none;stroke-width:1.494192px"
           sodipodi:nodetypes="ccccc"
           id="path1451"
           inkscape:connector-curvature="0" /><path
           style="opacity:1;fill:#ffffff;fill-opacity:1;stroke:none;stroke-width:30;stroke-linecap:round;stroke-miterlimit:4;stroke-dasharray:none;stroke-opacity:1"
           d="m -703.41556,375.6493 122.01123,0 0,6.89624 -122.01123,0 z"
           id="rect7667"
           inkscape:connector-curvature="0" /><path
           id="path7670"
           d="m -743.46706,730.00961 197.07466,0 0,6.89625 -197.07466,0 z"
           style="opacity:1;fill:#ffffff;fill-opacity:1;stroke:none;stroke-width:30;stroke-linecap:round;stroke-miterlimit:4;stroke-dasharray:none;stroke-opacity:1"
           inkscape:connector-curvature="0" /><path
           d="m -499.7118,748.57752 0.93613,-133.69036 c 9.67906,-59.5196 103.5034,-55.9713 110.37235,0 l 0,135.17831 -111.30901,-1.48795 z"
           style="fill:#ffffff;fill-rule:evenodd;stroke:none;stroke-width:1.494192px"
           sodipodi:nodetypes="ccccc"
           id="path1451-3"
           inkscape:connector-curvature="0" /></g></g></g></svg>