<?xml version="1.0" encoding="UTF-8" standalone="no"?>
<!-- Generator: Adobe Illustrator 16.0.0, SVG Export Plug-In . SVG Version: 6.00 Build 0)  -->

<svg
   xmlns:dc="http://purl.org/dc/elements/1.1/"
   xmlns:cc="http://creativecommons.org/ns#"
   xmlns:rdf="http://www.w3.org/1999/02/22-rdf-syntax-ns#"
   xmlns:svg="http://www.w3.org/2000/svg"
   xmlns="http://www.w3.org/2000/svg"
   xmlns:sodipodi="http://sodipodi.sourceforge.net/DTD/sodipodi-0.dtd"
   xmlns:inkscape="http://www.inkscape.org/namespaces/inkscape"
   version="1.1"
   id="svg2"
   inkscape:output_extension="org.inkscape.output.svg.inkscape"
   sodipodi:docname="JH_historic_archaeological.svg"
   inkscape:version="0.91 r13725"
   sodipodi:version="0.32"
   x="0px"
   y="0px"
   width="580px"
   height="580px"
   viewBox="0 0 580 580"
   enable-background="new 0 0 580 580"
   xml:space="preserve"
   inkscape:export-filename="/media/juhele/KONZERVA/__PRACE/JH_icons/JH_historic_archaeological.png"
   inkscape:export-xdpi="31"
   inkscape:export-ydpi="31"><metadata
     id="metadata17"><rdf:RDF><cc:Work
         rdf:about=""><dc:format>image/svg+xml</dc:format><dc:type
           rdf:resource="http://purl.org/dc/dcmitype/StillImage" /></cc:Work></rdf:RDF></metadata><sodipodi:namedview
     showgrid="false"
     inkscape:cy="439.47237"
     inkscape:cx="712.93692"
     inkscape:zoom="0.92167712"
     pagecolor="#ffffff"
     bordercolor="#666666"
     guidetolerance="10.0"
     objecttolerance="10.0"
     gridtolerance="10.0"
     borderopacity="1.0"
     id="base"
     inkscape:current-layer="g4146"
     inkscape:window-y="0"
     inkscape:window-x="0"
     inkscape:pageopacity="0.0"
     inkscape:pageshadow="2"
     inkscape:window-width="1920"
     inkscape:window-height="1125"
     inkscape:window-maximized="1" /><defs
     id="defs4"><inkscape:perspective
       inkscape:vp_z="580 : 290 : 1"
       inkscape:vp_y="0 : 1000 : 0"
       inkscape:vp_x="0 : 290 : 1"
       sodipodi:type="inkscape:persp3d"
       id="perspective3653"
       inkscape:persp3d-origin="290 : 193.33333 : 1" /><inkscape:perspective
       inkscape:vp_z="355.02399 : 217.53 : 1"
       inkscape:vp_y="0 : 1000 : 0"
       inkscape:vp_x="0 : 217.53 : 1"
       sodipodi:type="inkscape:persp3d"
       id="perspective2512"
       inkscape:persp3d-origin="177.51199 : 145.02 : 1" /></defs><g
     id="g2121" /><g
     id="g4198"
     transform="translate(-2.8338787,-220.28663)"><g
       id="g4146"
       transform="matrix(25.459129,0,0,25.459129,-652.34788,685.74412)"><g
         id="g7473"
         transform="matrix(1.4047261,0,0,1.4047261,26.218533,-18.180435)"><path
           inkscape:connector-curvature="0"
           d="m 3.0837133,0.47129401 0,2.05532949 1.1852778,0 c 0.7098259,0 0.8168418,0.1866254 0.8573638,0.5455519 C 4.7108797,2.7068013 3.5359522,2.5187919 2.5803399,2.6839966 1.3591412,2.8951142 0.54314392,3.9291599 0.54314392,5.1009471 c 0,0.9171257 0.36994411,1.7198967 1.00007818,2.5531189 0.5507048,0.7281934 0.9047012,1.5686977 1.8738507,2.587159 0.4343437,1.480406 1.2339379,2.655005 2.0371958,3.39324 l 0,0.152873 -1.1852775,0.544665 0,1.269164 7.1116639,0 0,-1.269164 -1.185276,-0.544665 0,-0.152873 c 0.803258,-0.738235 1.60285,-1.912834 2.037194,-3.39324 0.969148,-1.0184613 1.202396,-1.8589656 1.753102,-2.587159 0.630133,-0.8332222 1.000077,-1.6359932 1.000077,-2.5531189 0,-1.1717872 -0.815995,-2.2058329 -2.037195,-2.4169505 -0.955614,-0.1652047 -2.18174,0.1292512 -2.531711,0.4127434 0.03233,-0.2524801 0.254904,-0.5340067 0.963809,-0.5701165 l 1.185278,0 0,-2.05532949 z"
           id="path7494"
           style="fill:#ffffff;fill-opacity:1"
           sodipodi:nodetypes="ccscsssccccccccccssscsccc" /><path
           style="fill:#734a08;fill-opacity:1"
           id="archaeological-site"
           d="m 3.7321846,1.0734463 0,1 1,0 c 0.598869,0 0.841138,1.0430706 0.9375,1.90625 -0.972272,-0.7563474 -1.912515,-1.0266567 -2.71875,-0.875 -1.030306,0.1938055 -1.71875,1.1430545 -1.71875,2.2187498 0,0.8419166 0.312116,1.5788563 0.84375,2.3437502 0.464621,0.6684787 1.119844,1.4400575 1.9375,2.3750007 0.366449,1.359006 1.041054,2.603554 1.71875,3.28125 l 0,0.749999 -1,0.5 0,0.5 5.9999994,0 0,-0.5 -0.9999994,-0.5 0,-0.749999 c 0.6776964,-0.677696 1.3523014,-1.922244 1.7187494,-3.28125 0.817656,-0.9349432 1.47288,-1.706522 1.9375,-2.3750007 0.531634,-0.7648939 0.84375,-1.5018336 0.84375,-2.3437502 0,-1.0756953 -0.688443,-2.0249443 -1.71875,-2.2187498 -0.806235,-0.1516567 -1.746477,0.1186526 -2.7187494,0.875 0.096361,-0.8631794 0.3386314,-1.90625 0.9374994,-1.90625 l 1,0 0,-1 -7.9999994,0 z m -0.625,3.03125 c 0.509837,-0.095903 1.360404,0.101246 2.34375,0.9999999 -1.115009,0.1383788 -1.71875,1.1183135 -1.71875,2.9687501 0,0.031196 -4.83e-4,0.062438 0,0.09375 -0.340524,-0.3956482 -0.623813,-0.7460629 -0.84375,-1.0625001 -0.468366,-0.6738674 -0.65625,-1.1684774 -0.65625,-1.78125 0,-0.700324 0.310925,-1.1126448 0.875,-1.2187498 z m 8.7499994,0 c 0.188112,-0.027114 0.358981,-0.026526 0.5,0 0.564075,0.106105 0.875,0.5184258 0.875,1.2187498 0,0.6127726 -0.187883,1.1073826 -0.65625,1.78125 -0.219937,0.3164372 -0.503226,0.6668519 -0.84375,1.0625001 4.83e-4,-0.031312 0,-0.062554 0,-0.09375 0,-1.8504366 -0.603741,-2.8303713 -1.718749,-2.9687501 0.711356,-0.6501621 1.351766,-0.9290856 1.843749,-0.9999999 z"
           inkscape:connector-curvature="0" /></g></g></g></svg>