<?xml version="1.0" encoding="UTF-8" standalone="no"?>
<!-- Generator: Adobe Illustrator 16.0.0, SVG Export Plug-In . SVG Version: 6.00 Build 0)  -->

<svg
   xmlns:dc="http://purl.org/dc/elements/1.1/"
   xmlns:cc="http://creativecommons.org/ns#"
   xmlns:rdf="http://www.w3.org/1999/02/22-rdf-syntax-ns#"
   xmlns:svg="http://www.w3.org/2000/svg"
   xmlns="http://www.w3.org/2000/svg"
   xmlns:sodipodi="http://sodipodi.sourceforge.net/DTD/sodipodi-0.dtd"
   xmlns:inkscape="http://www.inkscape.org/namespaces/inkscape"
   version="1.1"
   id="svg2"
   inkscape:output_extension="org.inkscape.output.svg.inkscape"
   sodipodi:docname="JH_historic_monument.svg"
   inkscape:version="0.91 r13725"
   sodipodi:version="0.32"
   x="0px"
   y="0px"
   width="580px"
   height="580px"
   viewBox="0 0 580 580"
   enable-background="new 0 0 580 580"
   xml:space="preserve"
   inkscape:export-filename="/media/juhele/KONZERVA/__PRACE/JH_icons/JH_historic_monument.png"
   inkscape:export-xdpi="31"
   inkscape:export-ydpi="31"><metadata
     id="metadata17"><rdf:RDF><cc:Work
         rdf:about=""><dc:format>image/svg+xml</dc:format><dc:type
           rdf:resource="http://purl.org/dc/dcmitype/StillImage" /></cc:Work></rdf:RDF></metadata><sodipodi:namedview
     showgrid="false"
     inkscape:cy="117.06688"
     inkscape:cx="719.9715"
     inkscape:zoom="0.65172414"
     pagecolor="#ffffff"
     bordercolor="#666666"
     guidetolerance="10.0"
     objecttolerance="10.0"
     gridtolerance="10.0"
     borderopacity="1.0"
     id="base"
     inkscape:current-layer="g4146"
     inkscape:window-y="0"
     inkscape:window-x="0"
     inkscape:pageopacity="0.0"
     inkscape:pageshadow="2"
     inkscape:window-width="1920"
     inkscape:window-height="1125"
     inkscape:window-maximized="1" /><defs
     id="defs4"><inkscape:perspective
       inkscape:vp_z="580 : 290 : 1"
       inkscape:vp_y="0 : 1000 : 0"
       inkscape:vp_x="0 : 290 : 1"
       sodipodi:type="inkscape:persp3d"
       id="perspective3653"
       inkscape:persp3d-origin="290 : 193.33333 : 1" /><inkscape:perspective
       inkscape:vp_z="355.02399 : 217.53 : 1"
       inkscape:vp_y="0 : 1000 : 0"
       inkscape:vp_x="0 : 217.53 : 1"
       sodipodi:type="inkscape:persp3d"
       id="perspective2512"
       inkscape:persp3d-origin="177.51199 : 145.02 : 1" /></defs><g
     id="g2121" /><g
     id="g4198"
     transform="translate(-2.8338787,-220.28663)"><g
       id="g4146"
       transform="matrix(25.459129,0,0,25.459129,-652.34788,685.74412)"><g
         id="g7481"
         transform="translate(-5.4958085e-4,0.07064426)"><path
           sodipodi:nodetypes="csccscsccccccss"
           inkscape:connector-curvature="0"
           d="m 37.19259,-17.610146 c 0,0 -3.700789,2.769367 -3.700789,3.700789 l 0,11.7784793 7.40158,0 0,-11.7784793 c 0,-0.887069 -3.700791,-3.700789 -3.700791,-3.700789 z m -5.263119,15.4572427 c -1.850394,0 -1.623485,1.27331265 -1.623485,3.12370727 l -0.966389,0 -2.49854,2.71458983 20.569896,-0.027625 -2.282494,-2.71458983 -1.215013,0.027625 c 0,-1.85039462 0.320644,-3.12370727 -1.529751,-3.12370727 z"
           id="path7479"
           style="fill:#ffffff;fill-opacity:1" /><path
           style="fill:#734a08;fill-opacity:1"
           id="monument"
           d="m 37.208377,-16.560387 c 0,0 -2.793103,2.090129 -2.793103,2.793103 l 0,11.1724111 5.586206,0 0,-11.1724111 c 0,-0.669498 -2.793103,-2.793103 -2.793103,-2.793103 z m -4.189654,15.3620653 c -1.396552,0 -1.396552,1.39655133 -1.396552,2.7931027 l -1.396552,0 -1.396551,1.3965523 16.758618,0 -1.396552,-1.3965523 -1.396551,0 c 0,-1.39655137 0,-2.7931027 -1.396551,-2.7931027 z"
           inkscape:connector-curvature="0" /></g></g></g></svg>