<?xml version="1.0" encoding="UTF-8" standalone="no"?>
<!-- Generator: Adobe Illustrator 16.0.0, SVG Export Plug-In . SVG Version: 6.00 Build 0)  -->

<svg
   xmlns:dc="http://purl.org/dc/elements/1.1/"
   xmlns:cc="http://creativecommons.org/ns#"
   xmlns:rdf="http://www.w3.org/1999/02/22-rdf-syntax-ns#"
   xmlns:svg="http://www.w3.org/2000/svg"
   xmlns="http://www.w3.org/2000/svg"
   xmlns:sodipodi="http://sodipodi.sourceforge.net/DTD/sodipodi-0.dtd"
   xmlns:inkscape="http://www.inkscape.org/namespaces/inkscape"
   version="1.1"
   id="svg2"
   inkscape:output_extension="org.inkscape.output.svg.inkscape"
   sodipodi:docname="JH_landuse_mine.svg"
   inkscape:version="0.91 r13725"
   sodipodi:version="0.32"
   x="0px"
   y="0px"
   width="580px"
   height="580px"
   viewBox="0 0 580 580"
   enable-background="new 0 0 580 580"
   xml:space="preserve"
   inkscape:export-filename="/media/juhele/KONZERVA/__PRACE/JH_icons/JH_landuse_mine.png"
   inkscape:export-xdpi="31"
   inkscape:export-ydpi="31"><metadata
     id="metadata17"><rdf:RDF><cc:Work
         rdf:about=""><dc:format>image/svg+xml</dc:format><dc:type
           rdf:resource="http://purl.org/dc/dcmitype/StillImage" /></cc:Work></rdf:RDF></metadata><sodipodi:namedview
     showgrid="false"
     inkscape:cy="-81.38546"
     inkscape:cx="-228.93443"
     inkscape:zoom="0.46083856"
     pagecolor="#ffffff"
     bordercolor="#666666"
     guidetolerance="10.0"
     objecttolerance="10.0"
     gridtolerance="10.0"
     borderopacity="1.0"
     id="base"
     inkscape:current-layer="g4146"
     inkscape:window-y="0"
     inkscape:window-x="0"
     inkscape:pageopacity="0.0"
     inkscape:pageshadow="2"
     inkscape:window-width="1920"
     inkscape:window-height="1125"
     inkscape:window-maximized="1" /><defs
     id="defs4"><inkscape:perspective
       inkscape:vp_z="580 : 290 : 1"
       inkscape:vp_y="0 : 1000 : 0"
       inkscape:vp_x="0 : 290 : 1"
       sodipodi:type="inkscape:persp3d"
       id="perspective3653"
       inkscape:persp3d-origin="290 : 193.33333 : 1" /><inkscape:perspective
       inkscape:vp_z="355.02399 : 217.53 : 1"
       inkscape:vp_y="0 : 1000 : 0"
       inkscape:vp_x="0 : 217.53 : 1"
       sodipodi:type="inkscape:persp3d"
       id="perspective2512"
       inkscape:persp3d-origin="177.51199 : 145.02 : 1" /></defs><g
     id="g2121" /><g
     id="g4198"
     transform="translate(-2.8338787,-220.28663)"><g
       id="g4146"
       transform="matrix(25.459129,0,0,25.459129,-652.34788,685.74412)"><g
         id="g7478"
         transform="matrix(1.0395509,0,0,1.0395509,-1.4683453,0.27257426)"><path
           sodipodi:nodetypes="ccccccccccccccccccccccccccccccc"
           inkscape:connector-curvature="0"
           id="path7474"
           d="m 41.631316,-17.12806 -3.703126,3.683594 -3.609374,-3.583984 -2.439454,2.429687 -0.263672,-0.291016 -2.753906,2.751954 0.261719,0.269531 -2.425782,2.4023436 3.685547,3.6699218 2.435548,-2.4394531 2.175781,2.21875 -6.585938,6.62304686 0.410156,0.41601564 2.242188,2.2714844 6.640625,-6.6132812 6.623047,6.6640622 2.757812,-2.78124984 -6.671875,-6.64648426 2.613282,-2.5644532 3.894531,4.0117188 0.634765,-6.6718747 -0.951171,-0.966797 0.30664,-0.320313 -2.708984,-2.699218 -0.359375,0.378906 z m -3.666062,3.75 2.18164,2.189453 -2.421874,2.4375003 -2.226563,-2.1679683 z"
           style="color:#000000;font-style:normal;font-variant:normal;font-weight:normal;font-stretch:normal;font-size:medium;line-height:normal;font-family:sans-serif;text-indent:0;text-align:start;text-decoration:none;text-decoration-line:none;text-decoration-style:solid;text-decoration-color:#000000;letter-spacing:normal;word-spacing:normal;text-transform:none;direction:ltr;block-progression:tb;writing-mode:lr-tb;baseline-shift:baseline;text-anchor:start;white-space:normal;clip-rule:nonzero;display:inline;overflow:visible;visibility:visible;opacity:1;isolation:auto;mix-blend-mode:normal;color-interpolation:sRGB;color-interpolation-filters:linearRGB;solid-color:#000000;solid-opacity:1;fill:#ffffff;fill-opacity:1;fill-rule:evenodd;stroke:none;stroke-width:1.17835927;stroke-linecap:butt;stroke-linejoin:miter;stroke-miterlimit:4;stroke-dasharray:none;stroke-dashoffset:0;stroke-opacity:1;color-rendering:auto;image-rendering:auto;shape-rendering:auto;text-rendering:auto;enable-background:accumulate" /><path
           inkscape:connector-curvature="0"
           d="M 29.126695,0.61022222 30.953564,2.4600135 37.5929,-4.15051 l 6.620195,6.6602183 1.924901,-1.94196288 -6.67623,-6.65246822 3.46069,-3.3972211 3.418497,3.5215427 0.487549,-5.1277998 -1.160877,-1.180507 0.303064,-0.314881 -1.870273,-1.864553 -0.361574,0.381339 -2.220498,-2.226369 -2.881725,2.866562 2.229642,2.24032 -3.245933,3.2649293 -3.074078,-2.9911873 2.487972,-2.478092 -2.825963,-2.805779 -2.462221,2.453695 -0.263429,-0.290721 -1.905691,1.904922 0.262322,0.271463 -2.416831,2.394731 2.848086,2.8355556 2.439268,-2.4445111 2.999992,3.0589271 -6.58306,6.62257962 z"
           style="fill:#734a08;fill-opacity:1;fill-rule:evenodd;stroke:none;stroke-width:0.11043543;stroke-linecap:butt;stroke-linejoin:miter;stroke-miterlimit:4;stroke-dasharray:none;stroke-opacity:1"
           id="path1348" /></g></g></g></svg>