<?xml version="1.0" encoding="UTF-8" standalone="no"?>
<!-- Generator: Adobe Illustrator 16.0.0, SVG Export Plug-In . SVG Version: 6.00 Build 0)  -->

<svg
   xmlns:dc="http://purl.org/dc/elements/1.1/"
   xmlns:cc="http://creativecommons.org/ns#"
   xmlns:rdf="http://www.w3.org/1999/02/22-rdf-syntax-ns#"
   xmlns:svg="http://www.w3.org/2000/svg"
   xmlns="http://www.w3.org/2000/svg"
   xmlns:sodipodi="http://sodipodi.sourceforge.net/DTD/sodipodi-0.dtd"
   xmlns:inkscape="http://www.inkscape.org/namespaces/inkscape"
   version="1.1"
   id="svg2"
   inkscape:output_extension="org.inkscape.output.svg.inkscape"
   sodipodi:docname="JH_leisure_playground.svg"
   inkscape:version="0.91 r13725"
   sodipodi:version="0.32"
   x="0px"
   y="0px"
   width="580px"
   height="580px"
   viewBox="0 0 580 580"
   enable-background="new 0 0 580 580"
   xml:space="preserve"
   inkscape:export-filename="/media/juhele/KONZERVA/__PRACE/JH_icons/JH_leisure_playground.png"
   inkscape:export-xdpi="31"
   inkscape:export-ydpi="31"><metadata
     id="metadata17"><rdf:RDF><cc:Work
         rdf:about=""><dc:format>image/svg+xml</dc:format><dc:type
           rdf:resource="http://purl.org/dc/dcmitype/StillImage" /><dc:title></dc:title></cc:Work></rdf:RDF></metadata><sodipodi:namedview
     showgrid="false"
     inkscape:cy="46.678599"
     inkscape:cx="488.0491"
     inkscape:zoom="0.65172414"
     pagecolor="#ffffff"
     bordercolor="#666666"
     guidetolerance="10.0"
     objecttolerance="10.0"
     gridtolerance="10.0"
     borderopacity="1.0"
     id="base"
     inkscape:current-layer="g4198"
     inkscape:window-y="0"
     inkscape:window-x="0"
     inkscape:pageopacity="0.0"
     inkscape:pageshadow="2"
     inkscape:window-width="1920"
     inkscape:window-height="1125"
     inkscape:window-maximized="1" /><defs
     id="defs4"><inkscape:perspective
       inkscape:vp_z="580 : 290 : 1"
       inkscape:vp_y="0 : 1000 : 0"
       inkscape:vp_x="0 : 290 : 1"
       sodipodi:type="inkscape:persp3d"
       id="perspective3653"
       inkscape:persp3d-origin="290 : 193.33333 : 1" /><inkscape:perspective
       inkscape:vp_z="355.02399 : 217.53 : 1"
       inkscape:vp_y="0 : 1000 : 0"
       inkscape:vp_x="0 : 217.53 : 1"
       sodipodi:type="inkscape:persp3d"
       id="perspective2512"
       inkscape:persp3d-origin="177.51199 : 145.02 : 1" /></defs><g
     id="g2121" /><g
     id="g4198"
     transform="translate(-2.8338787,-220.28663)"><g
       id="g7493"
       transform="matrix(35.408319,0,0,35.408319,104.82164,291.46955)"><path
         inkscape:connector-curvature="0"
         d="m 1.7873357,-0.74141494 c -0.97702592,0.0611823 -2.03165586,0.94274158 -2.02974234,1.92167914 3.7336e-4,1.0179744 1.13330737,1.966889 2.15128224,1.966889 1.0179748,0 1.9442687,-0.9259543 1.9446395,-1.9439287 0.00208,-1.06001711 -1.0082333,-2.01089265 -2.0661794,-1.94463944 z M 9.6560739,2.2524125 c -0.977027,0.061182 -1.825013,0.9657019 -1.8231,1.9446393 3.89e-4,1.0179742 0.926664,1.943929 1.944639,1.943929 1.0179741,0 1.9442671,-0.9259548 1.9446391,-1.943929 0.002,-1.0600171 -1.008233,-2.0108924 -2.0661781,-1.9446393 z M 1.3295433,2.6939828 c -1.90703018,0 -2.23523536,1.510322 -2.3686571,2.8088137 l -1.1073365,-0.2795172 0,1.8245132 5.8093798,2.1808976 -1.02631,3.8756359 5.1857048,0 -0.6873128,-2.719635 5.6081435,1.836497 0.02296,-1.916356 -0.825074,-0.261964 c 0.212694,-1.1166489 0.661689,-4.446899 -1.607056,-4.446899 -2.1241453,0 -2.2533293,1.9684571 -2.3227393,3.0694471 L 3.1607949,7.1274055 C 3.4087521,5.6608634 3.4219754,2.6939828 1.3295433,2.6939828 Z"
         id="path7512"
         style="fill:#ffffff;fill-opacity:1;stroke:none"
         sodipodi:nodetypes="scscsscscssccccccccccsccs" /><path
         style="fill:#734a08;fill-opacity:1;stroke:none"
         id="playground"
         d="m 1.6960452,-0.32887707 c -0.75362998,0.047193 -1.40772598,0.7448953 -1.40624998,1.49999997 2.88e-4,0.7852156 0.71478398,1.4994517 1.49999998,1.4994517 0.785216,0 1.499714,-0.7142361 1.5,-1.4994517 0.0016,-0.81764547 -0.777702,-1.55110447 -1.59375,-1.49999997 z M 9.6960449,2.6711228 c -0.75363,0.047193 -1.407726,0.7448954 -1.40625,1.5 3e-4,0.7852156 0.714784,1.4994519 1.5,1.4994519 0.7852161,0 1.4997131,-0.7142363 1.5000001,-1.4994519 0.0016,-0.8176454 -0.777702,-1.5511043 -1.5937501,-1.5 z m -8.4062497,0.5 c -1.47098998,0 -1.86583498,1.8734067 -1.96874998,2.8749999 l -1.03125002,-0.375 0,1 5.96875,2.125 -0.96875,3.8750003 3.9999997,0 -0.9375,-3.1250005 5.9375001,2.1250005 0,-1 -0.9375,-0.34375 c 0.164062,-0.8613283 0.6875,-4.1562503 -1.0625,-4.1562503 -1.6384621,0 -1.9152091,2.244501 -1.9687501,3.09375 l -5.9374997,-2.125 c 0.191262,-1.131219 0.52025,-3.9687499 -1.09375,-3.9687499 z"
         inkscape:connector-curvature="0" /></g></g></svg>