<?xml version="1.0" encoding="UTF-8" standalone="no"?>
<!-- Generator: Adobe Illustrator 16.0.0, SVG Export Plug-In . SVG Version: 6.00 Build 0)  -->

<svg
   xmlns:dc="http://purl.org/dc/elements/1.1/"
   xmlns:cc="http://creativecommons.org/ns#"
   xmlns:rdf="http://www.w3.org/1999/02/22-rdf-syntax-ns#"
   xmlns:svg="http://www.w3.org/2000/svg"
   xmlns="http://www.w3.org/2000/svg"
   xmlns:sodipodi="http://sodipodi.sourceforge.net/DTD/sodipodi-0.dtd"
   xmlns:inkscape="http://www.inkscape.org/namespaces/inkscape"
   version="1.1"
   id="svg2"
   inkscape:output_extension="org.inkscape.output.svg.inkscape"
   sodipodi:docname="JH_leisure_swimming_pool.svg"
   inkscape:version="0.91 r13725"
   sodipodi:version="0.32"
   x="0px"
   y="0px"
   width="580px"
   height="580px"
   viewBox="0 0 580 580"
   enable-background="new 0 0 580 580"
   xml:space="preserve"
   inkscape:export-filename="/media/juhele/KONZERVA/__PRACE/JH_icons/JH_leisure_swimming_pool.png"
   inkscape:export-xdpi="31"
   inkscape:export-ydpi="31"><metadata
     id="metadata17"><rdf:RDF><cc:Work
         rdf:about=""><dc:format>image/svg+xml</dc:format><dc:type
           rdf:resource="http://purl.org/dc/dcmitype/StillImage" /></cc:Work></rdf:RDF></metadata><sodipodi:namedview
     showgrid="false"
     inkscape:cy="196.17871"
     inkscape:cx="39.864464"
     inkscape:zoom="0.65172414"
     pagecolor="#ffffff"
     bordercolor="#666666"
     guidetolerance="10.0"
     objecttolerance="10.0"
     gridtolerance="10.0"
     borderopacity="1.0"
     id="base"
     inkscape:current-layer="g4198"
     inkscape:window-y="0"
     inkscape:window-x="0"
     inkscape:pageopacity="0.0"
     inkscape:pageshadow="2"
     inkscape:window-width="1920"
     inkscape:window-height="1125"
     inkscape:window-maximized="1" /><defs
     id="defs4"><inkscape:perspective
       inkscape:vp_z="580 : 290 : 1"
       inkscape:vp_y="0 : 1000 : 0"
       inkscape:vp_x="0 : 290 : 1"
       sodipodi:type="inkscape:persp3d"
       id="perspective3653"
       inkscape:persp3d-origin="290 : 193.33333 : 1" /><inkscape:perspective
       inkscape:vp_z="355.02399 : 217.53 : 1"
       inkscape:vp_y="0 : 1000 : 0"
       inkscape:vp_x="0 : 217.53 : 1"
       sodipodi:type="inkscape:persp3d"
       id="perspective2512"
       inkscape:persp3d-origin="177.51199 : 145.02 : 1" /></defs><g
     id="g2121" /><g
     id="g4198"
     transform="translate(-2.8338787,-220.28663)"><g
       id="g7486"
       transform="matrix(32.263227,0,0,32.263227,-551.4095,181.5988)"><g
         id="g7510"
         transform="translate(0.09603699,0.93854799)"><path
           sodipodi:nodetypes="sccccccsssscccssssssscccssssscccssssc"
           style="fill:#ffffff;fill-opacity:1"
           id="path7490"
           d="M 27.970674,1.784876 C 27.804903,1.798061 27.644845,1.85188 27.474372,1.9503094 l -4.84232,2.5508279 c -0.678553,0.3211616 -0.943811,1.3272663 -0.496301,1.9300639 l 0.761946,1.3203902 -4.160759,2.3199906 0.07754,2.382319 c 0,0 0.825683,-0.661736 1.709485,-0.661736 0.836057,0 2.108383,1.054749 3.12617,1.054749 0.888252,0 1.677302,-1.009961 2.566324,-1.009961 0.925263,0 2.701433,1.736767 3.529263,1.323474 L 30.64343,12.622974 26.386654,6.4482778 28.992392,5.1708176 C 29.782932,4.7143989 29.568156,3.1821588 29.239002,2.6120467 28.935377,2.0861523 28.467984,1.745325 27.970674,1.784876 Z m 2.082868,3.8169358 c -1.461873,0 -2.646946,1.1851252 -2.646946,2.6469453 0,1.4618188 1.185073,2.6469449 2.646946,2.6469449 1.461872,0 2.646943,-1.1851261 2.646943,-2.6469449 0,-1.4618201 -1.185071,-2.6469453 -2.646943,-2.6469453 z m -9.23846,6.8979622 c -0.942132,0 -2.34221,1.390655 -3.23814,1.390655 l 0,2.646945 c 0.947932,0 2.355901,-0.808413 3.193352,-0.808413 0.889792,0 1.754516,0.942777 2.696649,0.942777 0.839085,0 1.778325,-1.121928 2.674253,-1.121928 0.889793,0 1.679197,1.054747 2.523167,1.054747 0.889789,0 1.870535,-1.009959 2.707986,-1.009959 0.837451,0 2.281166,1.121927 3.170959,1.121927 l 0.02239,-2.893277 c -0.73277,0 -2.251219,-1.219056 -3.193353,-1.166716 -0.843968,0 -1.518068,1.009958 -2.461653,1.009958 -0.785109,0 -1.924494,-1.077139 -2.814287,-1.077139 -0.889791,0 -1.708249,0.853202 -2.495103,0.853202 -0.839085,0 -1.84409,-0.942779 -2.786223,-0.942779 z"
           inkscape:connector-curvature="0" /><path
           inkscape:connector-curvature="0"
           d="m 27.796226,2.6708639 c -0.125111,0.00999 -0.245912,0.050569 -0.374573,0.1248581 l -4.03708,2.1642072 c -0.512125,0.2423912 -0.712323,1.0017283 -0.374575,1.456678 l 1.082104,1.7063941 -4.661369,2.6636397 0.04162,0.832387 c 0,0 0.623169,-0.499432 1.290201,-0.499432 0.630998,0 1.895484,0.998865 2.663641,0.998865 0.67039,0 1.992667,-0.998865 2.663638,-0.998865 0.698324,0 1.965317,0.998865 2.663641,0.998865 l 0.457812,0 -3.787362,-5.9931894 2.788497,-1.456678 C 28.809066,4.3241211 29.001895,3.7254361 28.753473,3.2951544 28.524317,2.8982468 28.171562,2.6410138 27.796226,2.6708639 Z m 2.289065,3.4544077 c -1.103318,0 -1.997729,0.8944502 -1.997729,1.9977297 0,1.1032796 0.894411,1.9977297 1.997729,1.9977297 1.103321,0 1.99773,-0.8944501 1.99773,-1.9977297 0,-1.1032795 -0.894409,-1.9977297 -1.99773,-1.9977297 z m -9.322738,6.9920544 c -0.711056,0 -1.987455,0.998865 -2.66364,0.998865 l 0,1.99773 c 0.715432,0 2.03159,-0.998865 2.66364,-0.998865 0.671552,0 1.952585,0.998865 2.663641,0.998865 0.633283,0 1.987454,-0.998865 2.663638,-0.998865 0.671554,0 2.02667,0.998865 2.663641,0.998865 0.671553,0 2.03159,-0.998865 2.663638,-0.998865 0.63205,0 1.992087,0.998865 2.66364,0.998865 l 0,-1.99773 c -0.553044,0 -1.952584,-1.038368 -2.66364,-0.998865 -0.636968,0 -1.951486,0.998865 -2.663638,0.998865 -0.592548,0 -1.992087,-0.998865 -2.663641,-0.998865 -0.671553,0 -2.069776,0.998865 -2.663638,0.998865 -0.633283,0 -1.952586,-0.998865 -2.663641,-0.998865 z"
           id="swimming"
           style="fill:#734a08;fill-opacity:1" /></g></g></g></svg>