<?xml version="1.0" encoding="UTF-8" standalone="no"?>
<!-- Generator: Adobe Illustrator 16.0.0, SVG Export Plug-In . SVG Version: 6.00 Build 0)  -->

<svg
   xmlns:dc="http://purl.org/dc/elements/1.1/"
   xmlns:cc="http://creativecommons.org/ns#"
   xmlns:rdf="http://www.w3.org/1999/02/22-rdf-syntax-ns#"
   xmlns:svg="http://www.w3.org/2000/svg"
   xmlns="http://www.w3.org/2000/svg"
   xmlns:sodipodi="http://sodipodi.sourceforge.net/DTD/sodipodi-0.dtd"
   xmlns:inkscape="http://www.inkscape.org/namespaces/inkscape"
   version="1.1"
   id="svg2"
   inkscape:output_extension="org.inkscape.output.svg.inkscape"
   sodipodi:docname="JH_money_bank.svg"
   inkscape:version="0.91 r13725"
   sodipodi:version="0.32"
   x="0px"
   y="0px"
   width="580px"
   height="580px"
   viewBox="0 0 580 580"
   enable-background="new 0 0 580 580"
   xml:space="preserve"
   inkscape:export-filename="F:\_GRAFIKA\2016_08_29_Symboly_turistika\JH_icons\JH_money_bank.png"
   inkscape:export-xdpi="31"
   inkscape:export-ydpi="31"><metadata
     id="metadata17"><rdf:RDF><cc:Work
         rdf:about=""><dc:format>image/svg+xml</dc:format><dc:type
           rdf:resource="http://purl.org/dc/dcmitype/StillImage" /></cc:Work></rdf:RDF></metadata><sodipodi:namedview
     showgrid="false"
     inkscape:cy="17.260218"
     inkscape:cx="914.60636"
     inkscape:zoom="0.70710678"
     pagecolor="#ffffff"
     bordercolor="#666666"
     guidetolerance="10.0"
     objecttolerance="10.0"
     gridtolerance="10.0"
     borderopacity="1.0"
     id="base"
     inkscape:current-layer="g4198"
     inkscape:window-y="-9"
     inkscape:window-x="-9"
     inkscape:pageopacity="0.0"
     inkscape:pageshadow="2"
     inkscape:window-width="2560"
     inkscape:window-height="1369"
     inkscape:window-maximized="1"
     showguides="true"
     inkscape:guide-bbox="true" /><defs
     id="defs4"><inkscape:perspective
       inkscape:vp_z="580 : 290 : 1"
       inkscape:vp_y="0 : 1000 : 0"
       inkscape:vp_x="0 : 290 : 1"
       sodipodi:type="inkscape:persp3d"
       id="perspective3653"
       inkscape:persp3d-origin="290 : 193.33333 : 1" /><inkscape:perspective
       inkscape:vp_z="355.02399 : 217.53 : 1"
       inkscape:vp_y="0 : 1000 : 0"
       inkscape:vp_x="0 : 217.53 : 1"
       sodipodi:type="inkscape:persp3d"
       id="perspective2512"
       inkscape:persp3d-origin="177.51199 : 145.02 : 1" /></defs><g
     id="g2121" /><g
     id="g4198"
     transform="translate(-2.8338787,-220.28663)"><g
       id="g4170"
       transform="translate(0.11729457,-13.280056)"><g
         transform="matrix(36.037046,0,0,36.037046,4.0249892,188.88862)"
         id="g4149"><path
           sodipodi:nodetypes="csssscc"
           style="fill:#ffffff;fill-opacity:1;stroke:none"
           id="path4168"
           d="m 0.49769848,3.7148421 0,10.0711049 c 0,0.673102 0.45479857,1.073323 1.07332422,1.073323 l 12.8798893,0 c 0.618526,0 1.073324,-0.454798 1.073324,-1.073323 l 0,-10.0711049 z"
           inkscape:connector-curvature="0" /><path
           inkscape:connector-curvature="0"
           d="m 0.98652611,4.2609394 0,7.0000006 c 0,0.627119 0.42372899,0.999999 0.99999999,0.999999 l 11.9999999,0 c 0.576271,0 1,-0.423729 1,-0.999999 l 0,-7.0000006 -13.99999989,0 z m 2.99999999,1 7.9999999,0 c 0,1 1,2 2,2 l 0,2 c -1,0 -2,1.0000006 -2,2.0000006 l -7.9999999,0 c 0,-1 -1,-2.0000006 -2,-2.0000006 l 0,-2 c 1,0 2,-1 2,-2 z m 4,1 c -1.656854,0 -3,0.895431 -3,2 0,1.104571 1.343146,2.0000006 3,2.0000006 1.656855,0 2.9999999,-0.8954296 2.9999999,-2.0000006 0,-1.104569 -1.3431449,-2 -2.9999999,-2 z M 0.98652611,12.760939 c 0,1.126577 0.44869599,1.5 0.99999999,1.5 l 11.9999999,0 c 0.551304,0 1,-0.445332 1,-1.5 -0.288136,0.271187 -0.559322,0.5 -1,0.5 l -11.9999999,0 c -0.440678,0 -0.728814,-0.245763 -0.99999999,-0.5 z"
           id="bank"
           style="fill:#734a08;fill-opacity:1;stroke:none" /></g></g></g></svg>