<?xml version="1.0" encoding="UTF-8" standalone="no"?>
<!-- Generator: Adobe Illustrator 16.0.0, SVG Export Plug-In . SVG Version: 6.00 Build 0)  -->

<svg
   xmlns:dc="http://purl.org/dc/elements/1.1/"
   xmlns:cc="http://creativecommons.org/ns#"
   xmlns:rdf="http://www.w3.org/1999/02/22-rdf-syntax-ns#"
   xmlns:svg="http://www.w3.org/2000/svg"
   xmlns="http://www.w3.org/2000/svg"
   xmlns:sodipodi="http://sodipodi.sourceforge.net/DTD/sodipodi-0.dtd"
   xmlns:inkscape="http://www.inkscape.org/namespaces/inkscape"
   version="1.1"
   id="svg2"
   inkscape:output_extension="org.inkscape.output.svg.inkscape"
   sodipodi:docname="JH_man_made_water_well.svg"
   inkscape:version="0.91 r13725"
   sodipodi:version="0.32"
   x="0px"
   y="0px"
   width="580px"
   height="580px"
   viewBox="0 0 580 580"
   enable-background="new 0 0 580 580"
   xml:space="preserve"
   inkscape:export-filename="/media/juhele/KONZERVA/__PRACE/JH_icons/JH_man_made_water_well.png"
   inkscape:export-xdpi="31"
   inkscape:export-ydpi="31"><metadata
     id="metadata17"><rdf:RDF><cc:Work
         rdf:about=""><dc:format>image/svg+xml</dc:format><dc:type
           rdf:resource="http://purl.org/dc/dcmitype/StillImage" /></cc:Work></rdf:RDF></metadata><sodipodi:namedview
     showgrid="false"
     inkscape:cy="223.87445"
     inkscape:cx="1666.3462"
     inkscape:zoom="0.25"
     pagecolor="#ffffff"
     bordercolor="#666666"
     guidetolerance="10.0"
     objecttolerance="10.0"
     gridtolerance="10.0"
     borderopacity="1.0"
     id="base"
     inkscape:current-layer="g7473"
     inkscape:window-y="0"
     inkscape:window-x="0"
     inkscape:pageopacity="0.0"
     inkscape:pageshadow="2"
     inkscape:window-width="1920"
     inkscape:window-height="1125"
     inkscape:window-maximized="1"
     showguides="true"
     inkscape:guide-bbox="true" /><defs
     id="defs4"><inkscape:perspective
       inkscape:vp_z="580 : 290 : 1"
       inkscape:vp_y="0 : 1000 : 0"
       inkscape:vp_x="0 : 290 : 1"
       sodipodi:type="inkscape:persp3d"
       id="perspective3653"
       inkscape:persp3d-origin="290 : 193.33333 : 1" /><inkscape:perspective
       inkscape:vp_z="355.02399 : 217.53 : 1"
       inkscape:vp_y="0 : 1000 : 0"
       inkscape:vp_x="0 : 217.53 : 1"
       sodipodi:type="inkscape:persp3d"
       id="perspective2512"
       inkscape:persp3d-origin="177.51199 : 145.02 : 1" /><inkscape:perspective
       id="perspective2481"
       inkscape:persp3d-origin="31.4725 : 34.419334 : 1"
       inkscape:vp_z="62.945 : 51.629002 : 1"
       inkscape:vp_y="0 : 1000 : 0"
       inkscape:vp_x="0 : 51.629002 : 1"
       sodipodi:type="inkscape:persp3d" /><inkscape:perspective
       inkscape:persp3d-origin="290 : 193.33333 : 1"
       id="perspective3653-5"
       sodipodi:type="inkscape:persp3d"
       inkscape:vp_x="0 : 290 : 1"
       inkscape:vp_y="0 : 1000 : 0"
       inkscape:vp_z="580 : 290 : 1" /><inkscape:perspective
       inkscape:persp3d-origin="177.51199 : 145.02 : 1"
       id="perspective2512-6"
       sodipodi:type="inkscape:persp3d"
       inkscape:vp_x="0 : 217.53 : 1"
       inkscape:vp_y="0 : 1000 : 0"
       inkscape:vp_z="355.02399 : 217.53 : 1" /></defs><g
     id="g2121" /><g
     id="g4198"
     transform="translate(-2.8338787,-220.28663)"><g
       id="g7473"
       transform="matrix(34.14563,0,0,34.14563,310.2035,417.52004)"><g
         id="g7583"><path
           sodipodi:nodetypes="sscccccccccssssscscscssccssccccccccccccccccccc"
           inkscape:connector-curvature="0"
           id="rect7529"
           d="m -6.1140784,-3.7147865 c -0.648581,0 -1.184437,0.5358558 -1.184437,1.1844372 l 0,8.1894159 -0.852221,0 0,3.4893049 12.44926,0 0,-3.4893049 -0.826194,0 0,-6.26675766 0.446559,0 0,1.46397272 c -0.02393,0.075884 -0.04078,0.15483154 -0.04078,0.23766564 0,0.4327496 0.362098,0.7948489 0.794848,0.7948489 l 1.665546,0 c 0.43275,0 0.794849,-0.3620979 0.794849,-0.7948489 0,-0.43275145 -0.362098,-0.79484926 -0.794849,-0.79484926 l -0.829913,0 0,-1.65639294 c 0,-0.069686 -0.01111,-0.1368464 -0.02791,-0.2010576 -0.07274,-0.3635642 -0.39793,-0.6390366 -0.777803,-0.6390366 l -1.23054,0 0,-0.3329602 c 0,-0.6485814 -0.535856,-1.1844372 -1.184437,-1.1844372 -0.579265,0 -1.065646,0.4283148 -1.163617,0.9817209 l -6.07468,0 c -0.09798,-0.5534281 -0.58441,-0.9817209 -1.163674,-0.9817209 z m 1.184437,3.69144918 2.168217,0 c -0.771174,0.1872623 -1.493869,0.67894242 -2.162154,1.39962282 l -0.0061,0 0,-1.39962282 z m 3.558174,0 2.47498,0 0,1.39882222 -0.29028997,5.71e-5 C 0.11162962,0.63320955 -0.61970438,0.15844316 -1.3714674,-0.02333732 Z m 2.47498,2.86125072 0,2.8211532 -0.84936098,0 z m -6.033154,0.6315433 0.648875,2.1896099 -0.648875,0 z"
           style="color:#000000;font-style:normal;font-variant:normal;font-weight:normal;font-stretch:normal;font-size:medium;line-height:normal;font-family:sans-serif;text-indent:0;text-align:start;text-decoration:none;text-decoration-line:none;text-decoration-style:solid;text-decoration-color:#000000;letter-spacing:normal;word-spacing:normal;text-transform:none;direction:ltr;block-progression:tb;writing-mode:lr-tb;baseline-shift:baseline;text-anchor:start;white-space:normal;clip-rule:nonzero;display:inline;overflow:visible;visibility:visible;opacity:1;isolation:auto;mix-blend-mode:normal;color-interpolation:sRGB;color-interpolation-filters:linearRGB;solid-color:#000000;solid-opacity:1;fill:#ffffff;fill-opacity:1;fill-rule:nonzero;stroke:none;stroke-width:30.00000381;stroke-linecap:round;stroke-linejoin:miter;stroke-miterlimit:4;stroke-dasharray:none;stroke-dashoffset:0;stroke-opacity:1;color-rendering:auto;image-rendering:auto;shape-rendering:auto;text-rendering:auto;enable-background:accumulate" /><g
           transform="translate(-0.58171497,-0.47387504)"
           id="g7570"><path
             inkscape:connector-curvature="0"
             transform="matrix(0,1,-1,0,0,0)"
             style="opacity:1;fill:#734a08;fill-opacity:1;stroke:none;stroke-width:0.56371987;stroke-linecap:round;stroke-miterlimit:4;stroke-dasharray:none;stroke-opacity:1"
             d="m -1.4790306,1.2749346 2.47290539,0 0,0.4189159 -2.47290539,0 z"
             id="rect7520" /><path
             inkscape:connector-curvature="0"
             style="opacity:1;fill:#734a08;fill-opacity:1;stroke:none;stroke-width:0.56371987;stroke-linecap:round;stroke-miterlimit:4;stroke-dasharray:none;stroke-opacity:1"
             d="m -7.1297231,6.5722418 11.5706778,0 0,2.6107299 -11.5706778,0 z"
             id="rect7481" /><path
             inkscape:connector-curvature="0"
             transform="matrix(0,-1,1,0,0,0)"
             style="opacity:1;fill:#734a08;fill-opacity:1;stroke:none;stroke-width:0.56371987;stroke-linecap:round;stroke-miterlimit:4;stroke-dasharray:none;stroke-opacity:1"
             d="m -8.023909,-6.277514 10.0804136,0 c 0.4128032,0 0.7451321,0.3323289 0.7451321,0.7451321 0,0.4128032 -0.3323289,0.7451321 -0.7451321,0.7451321 l -10.0804136,0 c -0.4128031,0 -0.7451321,-0.3323289 -0.7451321,-0.7451321 0,-0.4128032 0.332329,-0.7451321 0.7451321,-0.7451321 z"
             id="rect7483" /><path
             inkscape:connector-curvature="0"
             transform="matrix(0,-1,1,0,0,0)"
             style="opacity:1;fill:#734a08;fill-opacity:1;stroke:none;stroke-width:0.56371987;stroke-linecap:round;stroke-miterlimit:4;stroke-dasharray:none;stroke-opacity:1"
             d="m -8.023909,2.1244843 10.0804136,0 c 0.4128032,0 0.7451321,0.3323289 0.7451321,0.7451321 0,0.4128032 -0.3323289,0.7451321 -0.7451321,0.7451321 l -10.0804136,0 c -0.4128031,0 -0.7451321,-0.3323289 -0.7451321,-0.7451321 0,-0.4128032 0.332329,-0.7451321 0.7451321,-0.7451321 z"
             id="rect7485" /><path
             sodipodi:nodetypes="cccccccc"
             inkscape:connector-curvature="0"
             d="m -4.3798937,2.2894606 1.1786187,3.977128 3.53813858,0 L 1.5345045,2.2886999 M 0.97067258,2.2888254 -0.01806952,5.7630236 -2.789267,5.7017364 -3.857848,2.2892648"
             id="pub"
             style="fill:#734a08;fill-opacity:1;stroke:none" /><path
             inkscape:connector-curvature="0"
             d="m -2.8249038,5.7891725 2.80974368,0.048923 0.8191584,-2.9050818 c -0.83431,0.4715045 -1.48043171,0.4715045 -2.22064758,0 -0.7402159,-0.4715046 -1.4887264,-0.4593302 -2.2571706,0.012174 z"
             id="path7492"
             style="fill:#0c69c1;fill-opacity:1"
             sodipodi:nodetypes="cccscc" /><path
             inkscape:connector-curvature="0"
             style="opacity:1;fill:#734a08;fill-opacity:1;stroke:none;stroke-width:0.56371987;stroke-linecap:round;stroke-miterlimit:4;stroke-dasharray:none;stroke-opacity:1"
             d="m -5.5749954,-1.28424 10.859576,0 c 0.1969752,0 0.3555509,0.1585757 0.3555509,0.35555085 0,0.19697517 -0.1585757,0.35555085 -0.3555509,0.35555085 l -10.859576,0 c -0.1969752,0 -0.3555509,-0.15857568 -0.3555509,-0.35555085 0,-0.19697515 0.1585757,-0.35555085 0.3555509,-0.35555085 z"
             id="rect7483-6" /><path
             inkscape:connector-curvature="0"
             style="opacity:1;fill:#734a08;fill-opacity:1;stroke:none;stroke-width:0.56371987;stroke-linecap:round;stroke-miterlimit:4;stroke-dasharray:none;stroke-opacity:1"
             d="m -4.274826,-1.8199141 5.7269597,0 0,1.83114767 -5.7269597,0 z"
             id="rect7518" /><path
             style="opacity:1;fill:#734a08;fill-opacity:1;stroke:none;stroke-width:0.56371987;stroke-linecap:round;stroke-miterlimit:4;stroke-dasharray:none;stroke-opacity:1"
             d="m 1.1761366,2.5520763 c -2.13174342,-1.5323325 -2.7826296,-2.04884896 -5.2965297,0 0,-0.099058 0,-0.1981145 0,-0.2971717 1.6540475,-1.85945956 3.46732704,-2.01441459 5.2965297,0 0,0.099058 0,0.1981145 0,0.2971717 z"
             id="rect7522"
             inkscape:connector-curvature="0"
             sodipodi:nodetypes="ccccc" /><path
             inkscape:connector-curvature="0"
             transform="matrix(0,1,-1,0,0,0)"
             style="opacity:1;fill:#734a08;fill-opacity:1;stroke:none;stroke-width:0.56371987;stroke-linecap:round;stroke-miterlimit:4;stroke-dasharray:none;stroke-opacity:1"
             d="m -0.88340142,-5.6509848 2.35426982,0 c 0.1969752,0 0.3555508,0.1585757 0.3555508,0.3555509 0,0.1969752 -0.1585756,0.3555508 -0.3555508,0.3555508 l -2.35426982,0 c -0.19697518,0 -0.35555088,-0.1585756 -0.35555088,-0.3555508 0,-0.1969752 0.1585757,-0.3555509 0.35555088,-0.3555509 z"
             id="rect7525" /><path
             inkscape:connector-curvature="0"
             transform="scale(-1,-1)"
             style="opacity:1;fill:#734a08;fill-opacity:1;stroke:none;stroke-width:0.56371987;stroke-linecap:round;stroke-miterlimit:4;stroke-dasharray:none;stroke-opacity:1"
             d="m -6.9202174,-1.9233588 1.665581,0 c 0.1969752,0 0.3555509,0.1585757 0.3555509,0.3555509 0,0.1969751 -0.1585757,0.3555508 -0.3555509,0.3555508 l -1.665581,0 c -0.1969752,0 -0.3555509,-0.1585757 -0.3555509,-0.3555508 0,-0.1969752 0.1585757,-0.3555509 0.3555509,-0.3555509 z"
             id="rect7527" /></g></g></g></g></svg>