<?xml version="1.0" encoding="UTF-8" standalone="no"?>
<!-- Generator: Adobe Illustrator 16.0.0, SVG Export Plug-In . SVG Version: 6.00 Build 0)  -->

<svg
   xmlns:dc="http://purl.org/dc/elements/1.1/"
   xmlns:cc="http://creativecommons.org/ns#"
   xmlns:rdf="http://www.w3.org/1999/02/22-rdf-syntax-ns#"
   xmlns:svg="http://www.w3.org/2000/svg"
   xmlns="http://www.w3.org/2000/svg"
   xmlns:sodipodi="http://sodipodi.sourceforge.net/DTD/sodipodi-0.dtd"
   xmlns:inkscape="http://www.inkscape.org/namespaces/inkscape"
   version="1.1"
   id="svg2"
   inkscape:output_extension="org.inkscape.output.svg.inkscape"
   sodipodi:docname="JH_man_made_lighthouse.svg"
   inkscape:version="0.91 r13725"
   sodipodi:version="0.32"
   x="0px"
   y="0px"
   width="580px"
   height="580px"
   viewBox="0 0 580 580"
   enable-background="new 0 0 580 580"
   xml:space="preserve"
   inkscape:export-filename="/media/juhele/KONZERVA/__PRACE/JH_icons/JH_mand_made_lighthouse.png"
   inkscape:export-xdpi="31"
   inkscape:export-ydpi="31"><metadata
     id="metadata17"><rdf:RDF><cc:Work
         rdf:about=""><dc:format>image/svg+xml</dc:format><dc:type
           rdf:resource="http://purl.org/dc/dcmitype/StillImage" /></cc:Work></rdf:RDF></metadata><sodipodi:namedview
     showgrid="false"
     inkscape:cy="366.79399"
     inkscape:cx="496.42912"
     inkscape:zoom="1"
     pagecolor="#ffffff"
     bordercolor="#666666"
     guidetolerance="10.0"
     objecttolerance="10.0"
     gridtolerance="10.0"
     borderopacity="1.0"
     id="base"
     inkscape:current-layer="g4198"
     inkscape:window-y="0"
     inkscape:window-x="0"
     inkscape:pageopacity="0.0"
     inkscape:pageshadow="2"
     inkscape:window-width="1920"
     inkscape:window-height="1125"
     inkscape:window-maximized="1"
     showguides="true"
     inkscape:guide-bbox="true" /><defs
     id="defs4"><inkscape:perspective
       inkscape:vp_z="580 : 290 : 1"
       inkscape:vp_y="0 : 1000 : 0"
       inkscape:vp_x="0 : 290 : 1"
       sodipodi:type="inkscape:persp3d"
       id="perspective3653"
       inkscape:persp3d-origin="290 : 193.33333 : 1" /><inkscape:perspective
       inkscape:vp_z="355.02399 : 217.53 : 1"
       inkscape:vp_y="0 : 1000 : 0"
       inkscape:vp_x="0 : 217.53 : 1"
       sodipodi:type="inkscape:persp3d"
       id="perspective2512"
       inkscape:persp3d-origin="177.51199 : 145.02 : 1" /><inkscape:perspective
       id="perspective2481"
       inkscape:persp3d-origin="31.4725 : 34.419334 : 1"
       inkscape:vp_z="62.945 : 51.629002 : 1"
       inkscape:vp_y="0 : 1000 : 0"
       inkscape:vp_x="0 : 51.629002 : 1"
       sodipodi:type="inkscape:persp3d" /><inkscape:perspective
       id="perspective10"
       inkscape:persp3d-origin="372.04724 : 350.78739 : 1"
       inkscape:vp_z="744.09448 : 526.18109 : 1"
       inkscape:vp_y="0 : 1000 : 0"
       inkscape:vp_x="0 : 526.18109 : 1"
       sodipodi:type="inkscape:persp3d" /></defs><g
     id="g2121" /><g
     id="g4198"
     transform="translate(-2.8338787,-220.28663)"><path
       style="fill:#800000;fill-opacity:1"
       id="path7487"
       d="M 1159.6612,627.36015"
       inkscape:connector-curvature="0" /><g
       id="g7605"
       transform="matrix(1.1636224,0,0,1.1636224,-48.73701,-77.902699)"><path
         sodipodi:nodetypes="ccccccccssccccccccssccccccccc"
         inkscape:connector-curvature="0"
         id="path7601"
         d="m 292.95497,272.11606 -6.30469,2.90039 -71.65625,32.95117 0,35.49414 10.98438,0 0,18.8086 -26.11523,0 0,39.13086 c 4e-5,0.003 0.0794,5.99305 3.61132,10.82422 3.5329,4.83245 10.8514,8.11718 17.15235,8.11718 l 0.18554,0 -17.54297,258.94922 -47.0332,0 0,59.55469 273.19531,0 0,-59.55469 -47.05859,0 -17.52539,-258.70508 0.25391,0 c 6.31049,0 13.65458,-3.35175 17.14843,-8.18554 3.49386,-4.8338 3.55469,-10.75782 3.55469,-10.75782 l 0,-0.002 0,-39.1289 -26.11914,0 0,-18.80469 10.91406,0 0,-35.44922 -77.64453,-36.14258 z"
         style="color:#000000;font-style:normal;font-variant:normal;font-weight:normal;font-stretch:normal;font-size:medium;line-height:normal;font-family:sans-serif;text-indent:0;text-align:start;text-decoration:none;text-decoration-line:none;text-decoration-style:solid;text-decoration-color:#000000;letter-spacing:normal;word-spacing:normal;text-transform:none;direction:ltr;block-progression:tb;writing-mode:lr-tb;baseline-shift:baseline;text-anchor:start;white-space:normal;clip-rule:nonzero;display:inline;overflow:visible;visibility:visible;opacity:1;isolation:auto;mix-blend-mode:normal;color-interpolation:sRGB;color-interpolation-filters:linearRGB;solid-color:#000000;solid-opacity:1;fill:#ffffff;fill-opacity:1;fill-rule:nonzero;stroke:none;stroke-width:30;stroke-linecap:butt;stroke-linejoin:miter;stroke-miterlimit:4;stroke-dasharray:none;stroke-dashoffset:0;stroke-opacity:1;color-rendering:auto;image-rendering:auto;shape-rendering:auto;text-rendering:auto;enable-background:accumulate" /><path
         sodipodi:nodetypes="cccccssscscssssssscccssscccsscccssssssscsscsssccccccccccccccssscssssscccssccccssscccccc"
         inkscape:connector-curvature="0"
         id="path7538"
         d="m 459.01273,273.72367 c -2.61368,-0.0976 -5.30391,0.33386 -7.78125,1.33203 l -0.004,0 -63.5039,25.40039 -0.0117,0.006 c -4.95661,1.99834 -8.9375,6.21423 -10.54102,10.81445 -1.60351,4.60023 -1.21008,9.23289 0.39063,13.24219 1.6007,4.0093 4.51221,7.6504 8.86328,9.87305 0.62636,0.31996 1.33574,0.50789 2.01562,0.74609 -3.82383,0.85833 -7.33642,2.85992 -9.72265,5.57031 -3.21685,3.65384 -4.59093,8.10619 -4.59375,12.42383 -0.003,4.31765 1.36662,8.77709 4.58594,12.43555 3.21931,3.65846 8.47856,6.03906 13.79882,6.03906 l 67.75,0 c 5.31973,0 10.57753,-2.38618 13.79297,-6.04297 3.21545,-3.65678 4.58594,-8.11032 4.58594,-12.42578 0,-4.31546 -1.37049,-8.769 -4.58594,-12.42578 -3.21544,-3.65678 -8.47324,-6.04297 -13.79297,-6.04297 l -58.16601,0 62.95117,-25.17969 0.0137,-0.006 c 4.95662,-1.99834 8.9399,-6.21792 10.54102,-10.82032 1.60111,-4.60239 1.20016,-9.23397 -0.40235,-13.24023 -1.60251,-4.00626 -4.51058,-7.64274 -8.85742,-9.86524 -2.17342,-1.11125 -4.71125,-1.73635 -7.32617,-1.83398 z m -330.56641,0.0879 c -2.60194,0.0507 -5.16546,0.57314 -7.17773,1.58594 -6.53761,3.2905 -9.96547,9.28462 -10.50977,15.95312 -0.54429,6.6685 3.70397,15.0842 11.26563,18.13282 l 0.0117,0.006 62.94922,25.17969 -58.16407,0 c -5.31973,0 -10.57556,2.38619 -13.79101,6.04297 -3.21545,3.65678 -4.58594,8.11031 -4.58594,12.42578 0,4.31547 1.37049,8.769 4.58594,12.42578 3.21545,3.65679 8.47128,6.04297 13.79101,6.04297 l 67.75,0 c 5.32027,0 10.58146,-2.3806 13.80079,-6.03906 3.21932,-3.65846 4.58876,-8.1179 4.58593,-12.43555 -0.003,-4.31764 -1.3769,-8.76999 -4.59375,-12.42383 -3.21685,-3.65383 -8.47324,-6.03906 -13.79297,-6.03906 l -1.10937,0 c 5.29417,-2.16478 9.63176,-4.51581 12.8125,-9.125 3.27972,-4.75261 3.04226,-12.39234 0.5039,-16.74219 -5.0767,-8.69968 -13.03269,-11.93393 -22.06445,-16.03906 -18.05189,-8.20497 -42.53525,-15.18101 -48.85937,-17.70703 -2.16631,-0.87333 -4.80626,-1.29484 -7.40821,-1.24414 z m 273.0918,61.07812 0.004,0 -0.0254,0.01 0.0215,-0.01 z m -208.41211,37.04493 c -2.64642,0.0409 -4.7858,0.60455 -7.05469,1.37304 l -0.25586,0.0859 -0.25,0.10156 -63.52929,25.41016 -0.0117,0.006 c -4.95661,1.99834 -8.9375,6.21423 -10.54102,10.81445 -1.60351,4.60023 -1.21008,9.23289 0.39063,13.24219 1.6007,4.0093 4.51221,7.6504 8.86328,9.87305 2.89748,1.48011 6.44091,2.00612 9.94922,1.66211 9.47427,3.86526 19.84427,1.46091 28.72461,-2.51172 10.09163,-4.51451 19.53701,-11.54668 27.39258,-18.80274 7.85556,-7.25605 13.9466,-14.11242 17.31445,-21.36328 0.84196,-1.81271 1.58709,-3.69927 1.83008,-6.32812 0.24298,-2.62885 -0.33491,-6.79852 -3.32813,-9.86914 -2.99322,-3.07063 -6.84771,-3.73432 -9.49414,-3.69336 z m 201.00781,0.32617 c -2.60196,0.0507 -5.16524,0.57303 -7.17773,1.58594 -6.53766,3.29047 -9.96547,9.28462 -10.50977,15.95312 -0.54429,6.66851 3.70395,15.0842 11.26563,18.13281 l 0.0117,0.006 63.5039,25.40039 c 10e-4,4.7e-4 0.003,-4.7e-4 0.004,0 4.95629,1.99699 10.76323,1.72408 15.11328,-0.49804 4.35108,-2.22265 7.26258,-5.86375 8.86328,-9.87305 1.60071,-4.0093 1.99414,-8.64196 0.39063,-13.24219 -1.60351,-4.60022 -5.58441,-8.81611 -10.54102,-10.81445 l -0.0137,-0.006 -63.50195,-25.40039 c -0.001,-4.5e-4 -0.003,4.5e-4 -0.004,0 -2.16581,-0.87259 -4.80367,-1.29479 -7.4043,-1.24414 z"
         style="color:#000000;font-style:normal;font-variant:normal;font-weight:normal;font-stretch:normal;font-size:medium;line-height:normal;font-family:sans-serif;text-indent:0;text-align:start;text-decoration:none;text-decoration-line:none;text-decoration-style:solid;text-decoration-color:#000000;letter-spacing:normal;word-spacing:normal;text-transform:none;direction:ltr;block-progression:tb;writing-mode:lr-tb;baseline-shift:baseline;text-anchor:start;white-space:normal;clip-rule:nonzero;display:inline;overflow:visible;visibility:visible;opacity:1;isolation:auto;mix-blend-mode:normal;color-interpolation:sRGB;color-interpolation-filters:linearRGB;solid-color:#000000;solid-opacity:1;fill:#ffffff;fill-opacity:1;fill-rule:nonzero;stroke:none;stroke-width:20;stroke-linecap:butt;stroke-linejoin:miter;stroke-miterlimit:4;stroke-dasharray:none;stroke-dashoffset:0;stroke-opacity:1;color-rendering:auto;image-rendering:auto;shape-rendering:auto;text-rendering:auto;enable-background:accumulate" /><path
         sodipodi:nodetypes="scccscccccssssssssssccccsccccs"
         inkscape:connector-curvature="0"
         d="m 125.05654,282.91554 c -5.66613,2.85187 -7.7698,12.74637 0,15.8789 l 63.51562,25.40625 c 36.7631,-14.7818 -40.9191,-34.78717 -57.16406,-41.28515 -2.59008,-1.04417 -4.46286,-0.9506 -6.35156,0 z m 329.20313,0 -63.51561,25.40625 c -10.35972,4.1767 -4.02872,20.06389 6.35156,15.8789 l 63.51561,-25.40625 c 10.35976,-4.1767 4.00816,-20.05561 -6.35156,-15.8789 z m -328.14453,60.33984 c -11.17001,0 -11.17001,16.9375 0,16.9375 l 67.74999,0 c 11.19217,0 11.17001,-16.9375 0,-16.9375 z m 265.68751,0 c -11.17001,0 -11.19216,16.9375 0,16.9375 l 67.74999,0 c 11.16998,0 11.16998,-16.9375 0,-16.9375 z m -203.23049,38.10938 -63.51562,25.40625 c -10.35972,4.1767 -4.02872,20.06389 6.35156,15.8789 25.013,15.4357 83.67316,-50.264 57.16406,-41.28515 z m 202.1719,0 c -5.66614,2.85183 -7.76981,12.74637 0,15.8789 l 63.51561,25.40625 c 10.38028,4.18499 16.71128,-11.7022 6.35156,-15.8789 l -63.51561,-25.40625 c -2.58974,-1.04417 -4.46286,-0.9506 -6.35156,0 z"
         id="lighthouse"
         style="fill:#734a08;fill-opacity:1;stroke:none" /><path
         id="path7481"
         transform="translate(2.8338787,220.28663)"
         d="m 290.08203,70.478516 -62.92187,28.935546 0,10.882818 10.98437,0 0,52.7246 -18.29492,0 0,-3.91601 -7.82031,0 0,24.13086 c 0,0 -7.3e-4,3.9414 5.76367,3.9414 l 16.23437,0 -19.57422,288.94922 -46.05078,0 0,29.55469 243.19532,0 0,-29.55469 -46.07813,0 -19.55664,-288.70507 16.30469,0 c 5.7029,0 5.70312,-3.94532 5.70312,-3.94532 l 0,-24.1289 -7.85937,0 0,3.91992 -18.25977,0 0,-52.72461 10.91406,0 0,-10.88672 -62.68359,-29.177734 z"
         style="fill:#734a08;fill-opacity:1"
         inkscape:connector-curvature="0" /><rect
         y="330.03662"
         x="258.08389"
         height="53.25"
         width="68.75"
         id="rect7599"
         style="opacity:1;fill:#ffffff;fill-opacity:1;stroke:none;stroke-width:4.39400005;stroke-linecap:round;stroke-miterlimit:4;stroke-dasharray:none;stroke-opacity:1" /></g></g></svg>