<?xml version="1.0" encoding="UTF-8" standalone="no"?>
<!-- Generator: Adobe Illustrator 16.0.0, SVG Export Plug-In . SVG Version: 6.00 Build 0)  -->

<svg
   xmlns:dc="http://purl.org/dc/elements/1.1/"
   xmlns:cc="http://creativecommons.org/ns#"
   xmlns:rdf="http://www.w3.org/1999/02/22-rdf-syntax-ns#"
   xmlns:svg="http://www.w3.org/2000/svg"
   xmlns="http://www.w3.org/2000/svg"
   xmlns:sodipodi="http://sodipodi.sourceforge.net/DTD/sodipodi-0.dtd"
   xmlns:inkscape="http://www.inkscape.org/namespaces/inkscape"
   version="1.1"
   id="svg2"
   inkscape:output_extension="org.inkscape.output.svg.inkscape"
   sodipodi:docname="JH_man_made_comm_tower.svg"
   inkscape:version="0.91 r13725"
   sodipodi:version="0.32"
   x="0px"
   y="0px"
   width="580px"
   height="580px"
   viewBox="0 0 580 580"
   enable-background="new 0 0 580 580"
   xml:space="preserve"
   inkscape:export-filename="/media/juhele/KONZERVA/__PRACE/JH_icons/JH_mand_made_comm_tower.png"
   inkscape:export-xdpi="31"
   inkscape:export-ydpi="31"><metadata
     id="metadata17"><rdf:RDF><cc:Work
         rdf:about=""><dc:format>image/svg+xml</dc:format><dc:type
           rdf:resource="http://purl.org/dc/dcmitype/StillImage" /></cc:Work></rdf:RDF></metadata><sodipodi:namedview
     showgrid="false"
     inkscape:cy="263.63109"
     inkscape:cx="527.8077"
     inkscape:zoom="1"
     pagecolor="#ffffff"
     bordercolor="#666666"
     guidetolerance="10.0"
     objecttolerance="10.0"
     gridtolerance="10.0"
     borderopacity="1.0"
     id="base"
     inkscape:current-layer="g4198"
     inkscape:window-y="0"
     inkscape:window-x="0"
     inkscape:pageopacity="0.0"
     inkscape:pageshadow="2"
     inkscape:window-width="1920"
     inkscape:window-height="1125"
     inkscape:window-maximized="1"
     showguides="true"
     inkscape:guide-bbox="true" /><defs
     id="defs4"><inkscape:perspective
       inkscape:vp_z="580 : 290 : 1"
       inkscape:vp_y="0 : 1000 : 0"
       inkscape:vp_x="0 : 290 : 1"
       sodipodi:type="inkscape:persp3d"
       id="perspective3653"
       inkscape:persp3d-origin="290 : 193.33333 : 1" /><inkscape:perspective
       inkscape:vp_z="355.02399 : 217.53 : 1"
       inkscape:vp_y="0 : 1000 : 0"
       inkscape:vp_x="0 : 217.53 : 1"
       sodipodi:type="inkscape:persp3d"
       id="perspective2512"
       inkscape:persp3d-origin="177.51199 : 145.02 : 1" /><inkscape:perspective
       id="perspective2481"
       inkscape:persp3d-origin="31.4725 : 34.419334 : 1"
       inkscape:vp_z="62.945 : 51.629002 : 1"
       inkscape:vp_y="0 : 1000 : 0"
       inkscape:vp_x="0 : 51.629002 : 1"
       sodipodi:type="inkscape:persp3d" /><inkscape:perspective
       id="perspective10"
       inkscape:persp3d-origin="372.04724 : 350.78739 : 1"
       inkscape:vp_z="744.09448 : 526.18109 : 1"
       inkscape:vp_y="0 : 1000 : 0"
       inkscape:vp_x="0 : 526.18109 : 1"
       sodipodi:type="inkscape:persp3d" /></defs><g
     id="g2121" /><g
     id="g4198"
     transform="translate(-2.8338787,-220.28663)"><g
       id="g7615"
       transform="matrix(1.266615,0,0,1.266615,-104.13783,-118.07033)"><path
         sodipodi:nodetypes="cscsssccssccsssssccccsssccsccccsssssccccccsssscsccsssssssssccsscccssscssscssscscscssssssccsssscccccsssssccsscssscsccccccccsccccsscscsssccsscsscccscsssssssccccssscccsssssssccsccsccccccscs"
         inkscape:connector-curvature="0"
         id="path7611"
         d="m 445.5059,274.07422 c -2.444,-0.058 -4.775,0.23085 -6.8809,0.69336 -7.5132,1.65015 -12.988,5.9127 -17.0234,11 -4.0355,5.08729 -6.9043,11.35904 -6.9043,18.96289 0,3.52992 1.0278,9.37139 3.416,13.60937 2.3882,4.23798 5.0466,7.17284 8.9512,11.60743 12.7031,14.4277 19.4798,24.64349 26.8828,40.38867 26.8703,57.15208 15.8681,125.72411 -27.6621,171.94531 -1.8903,2.00708 -3.6313,4.06612 -5.1602,6.07031 -1.5289,2.00419 -2.6116,2.61551 -4.4219,7.37696 -5.203,13.68502 0.01,29.38777 12.5781,37.05468 l 0,0 c 10.5448,6.42931 23.5104,5.60716 33.332,-1.52539 4.921,-3.57359 8.4783,-7.64191 13.1953,-13.09375 4.7171,-5.45183 9.8406,-11.92015 14.6075,-18.52929 9.5313,-13.21498 22.3249,-38.18412 27.4648,-53.62696 25.4749,-76.53933 7.9441,-159.53314 -46.2324,-217.12304 -7.4729,-7.9437 -15.5203,-14.55892 -26.1445,-14.81055 z m -264.14262,0.16016 c -1.11171,0.0459 -2.26712,0.15665 -3.45117,0.34765 -3.15302,0.50844 -7.92035,2.19722 -11.25586,4.54492 -3.33551,2.34771 -5.7357,4.79271 -9.15625,8.26172 -32.13602,32.5913 -53.04177,78.05067 -58.251951,125.70703 -5.76762,52.75514 9.232291,107.73694 41.039061,150.7461 6.95811,8.91058 13.43163,17.09177 21.15039,24.32031 2.13675,1.99286 3.28169,3.51155 7.61133,5.64648 19.45539,9.59343 43.77524,-5.08598 43.79492,-26.89648 l 0,-0.002 c 0.007,-8.43586 -4.30861,-17.81836 -10.46094,-23.4961 l 0.002,0 c 0.54752,0.50529 -4.24454,-4.59685 -7.15821,-8.16601 -18.76695,-22.98892 -30.14786,-48.41294 -34.76758,-77.63086 -1.38096,-8.73405 -1.21275,-35.74854 0.5,-46.21485 4.88184,-29.83186 18.82945,-58.72088 38.53907,-80.15429 3.98713,-4.33584 6.98132,-7.76336 9.45898,-12.0918 2.47766,-4.32844 3.88221,-10.01188 3.88672,-14.44141 l 0,-0.002 c 0.0159,-17.33367 -14.28607,-31.18744 -31.47852,-30.47851 l -0.002,0 z m 52.48633,56.35939 c -2.89572,-0.0964 -5.80472,0.3424 -8.54883,1.24805 -5.74595,1.89632 -6.88159,3.73668 -9.07031,5.6875 -2.18872,1.95081 -4.31133,4.14119 -6.49219,6.57422 -4.36172,4.86604 -8.84329,10.60211 -12.52734,16.39257 -14.66161,23.04459 -21.84442,47.66587 -21.85938,74.94532 -0.008,15.71559 1.33741,25.30834 5.65039,40.27343 6.00426,20.8335 19.13495,43.79502 34.30469,57.5 l 0,0.002 c 4.02211,3.63372 9.15957,6.9591 15.93359,7.57617 6.77403,0.61707 13.75438,-2.50422 18.01954,-6.45703 3.95118,-3.66186 7.50781,-12.24387 7.50781,-17.48242 0,-2.92799 -0.76737,-7.57163 -2.5586,-11.08594 -1.79122,-3.51432 -3.7544,-5.73928 -6.0039,-8.31055 -17.1277,-19.57754 -24.1211,-37.75186 -24.1211,-61.57226 0,-23.58885 6.5376,-41.08514 23.31836,-61.1543 2.44918,-2.92914 4.37084,-5.34002 6.10157,-8.35938 1.73072,-3.01935 3.26367,-7.31039 3.26367,-11.50781 0,-12.35328 -10.40889,-23.85317 -22.91797,-24.26953 z m 159.86129,0.002 c -12.5042,0.40767 -22.9336,11.91496 -22.9336,24.26758 0,4.22257 1.564,8.55512 3.3165,11.58594 1.7524,3.03082 3.6955,5.46004 6.1992,8.44922 8.2414,9.84003 10.218,12.87143 14.9258,22.84961 6.1316,12.9964 7.3541,18.26021 7.9277,34.64843 0.4163,11.89348 0.3189,13.65996 -1.1934,20.9375 -3.3877,16.30219 -10.1783,29.92797 -21.289,42.64454 -2.753,3.15094 -4.7998,5.45473 -6.7618,8.89453 -1.9619,3.43979 -3.125,8.62291 -3.125,11.8164 0,5.50795 3.2175,13.19398 7.086,17.0625 3.8907,3.89083 11.3144,7.08594 16.9472,7.08594 3.0254,0 8.799,-1.29578 12.3321,-3.60156 3.533,-2.30579 5.5339,-4.49269 8.4472,-7.47852 12.4832,-12.79384 22.6685,-29.8753 29.0372,-47.96484 12.2146,-34.69389 10.2753,-72.18544 -5.4981,-105.22461 -4.556,-9.54303 -10.3785,-18.88464 -16.2519,-26.62305 -2.9368,-3.8692 -5.8607,-7.31927 -8.92,-10.30664 -3.0593,-2.98737 -5.5739,-5.77015 -11.7031,-7.79297 -2.7408,-0.90462 -5.6495,-1.34431 -8.543,-1.25 z m -124.50387,41.33789 c -8.71372,0 -11.87616,3.83717 -14.8457,6.60547 -2.96954,2.76831 -5.3675,5.81018 -7.70117,9.2168 -4.66735,6.81324 -8.85768,14.98749 -11.66602,23.67187 -4.57162,14.13708 -4.99658,30.3585 -1.18164,44.72266 3.23331,12.17416 9.19665,23.93913 17.3125,33.04492 3.14854,3.53258 5.49305,6.78527 11.89453,9.31836 3.20074,1.26655 7.96046,1.78489 11.96289,0.61719 0.42048,-0.12268 0.67263,-0.34853 1.06446,-0.49219 -9.14987,28.86593 -18.02762,56.79601 -28.37891,89.77344 -7.7413,24.66243 -14.8991,47.5534 -20.10352,64.32031 -2.6022,8.38346 -4.71366,15.2314 -6.17578,20.03516 -0.73106,2.40188 -1.29669,4.28397 -1.69726,5.65234 -0.20029,0.68419 -0.35666,1.22129 -0.5,1.75196 -0.0717,0.26533 -0.13444,0.49585 -0.24219,0.9707 -0.0539,0.23742 -0.1202,0.47863 -0.23047,1.22461 -0.0551,0.37299 -0.14574,0.8032 -0.16211,2.01758 -0.0164,1.21437 5.33831,11.68816 5.33984,11.68945 4.1375,3.48269 3.33102,2.14013 3.76758,2.33398 0.43656,0.19385 0.71485,0.3051 1.00586,0.41992 0.58203,0.22965 1.15493,0.44185 1.82227,0.6836 1.33467,0.48351 2.98523,1.05598 4.76953,1.6543 2.17602,0.72965 4.18624,1.30018 6.23242,1.72656 1.02309,0.21319 1.9935,0.40646 3.51758,0.51562 0.76204,0.0546 1.63138,0.12408 3.2168,-0.0527 1.58541,-0.17681 4.34137,0.26558 8.96289,-4.15235 2.76162,-2.64003 2.57012,-3.19971 2.90039,-3.80664 0.33027,-0.60692 0.49014,-0.96479 0.63672,-1.29101 0.29314,-0.65244 0.48025,-1.13118 0.68359,-1.6582 0.40668,-1.05405 0.82509,-2.22291 1.30273,-3.60547 0.9553,-2.76513 2.11616,-6.31058 3.31446,-10.14649 0.36153,-1.15731 0.18561,-0.60071 0.50976,-1.57617 0.71151,0.0727 1.11411,0.11624 1.89258,0.19531 2.80776,0.28521 7.21773,0.72195 10.75586,1.07617 -0.58853,11.80875 -1.30943,26.23941 -1.38281,28.00196 l -0.6543,15.6875 15.70117,-0.0625 c 19.12296,-0.077 19.55279,-0.0369 37.83399,-0.10352 l 15.85351,-0.0586 -0.93359,-15.82617 c -0.0311,-0.52684 -0.65303,-13.01279 -1.0625,-21.1543 6.18329,0.61435 13.44993,1.32819 18.18753,1.80859 3.4445,0.34928 5.8605,0.60251 8.2656,0.85352 0.4835,1.34642 0.9779,2.74264 1.4199,3.86328 0.3264,0.82764 0.6264,1.56223 0.9746,2.33984 0.1742,0.38881 0.3523,0.77812 0.6406,1.33204 0.2884,0.55391 0.1668,0.91856 2.1758,3.2207 4.5608,5.22635 7.9292,4.8943 9.666,5.11523 1.7369,0.22094 2.6615,0.14054 3.4688,0.082 1.6145,-0.11701 2.6155,-0.32788 3.6777,-0.55859 2.1245,-0.46142 4.2104,-1.07829 6.4746,-1.86719 2.9873,-1.04078 4.9814,-1.28988 9.0293,-4.22265 2.024,-1.46639 4.9478,-4.44466 6.252,-8.49024 1.3042,-4.04558 0.6994,-7.58829 0.2344,-9.42187 -0.537,-2.11746 -0.7254,-2.41503 -1.2696,-4.00391 -0.5441,-1.58888 -1.2699,-3.65992 -2.1699,-6.20117 -1.7999,-5.08251 -4.2922,-12.02604 -7.3066,-20.36719 -6.0289,-16.6823 -14.1397,-38.94054 -22.8731,-62.80078 -11.8316,-32.32504 -22.1389,-60.09033 -32.6113,-88.375 0.83096,0.48941 1.51464,1.02743 2.55859,1.43359 3.81347,1.4837 8.90821,1.41211 12.37891,0.23633 6.9413,-2.35155 9.1786,-5.71275 12.2148,-9.08984 13.0745,-14.54192 20.1399,-33.4068 20.1895,-53.25391 0.033,-13.29312 -2.3027,-23.88189 -7.9356,-35.98633 -3.0768,-6.612 -6.6628,-12.46709 -10.6699,-17.33203 -2.0035,-2.43246 -4.0753,-4.62848 -6.7676,-6.66601 -2.6922,-2.03753 -6.0363,-4.58985 -12.5664,-4.58985 -10.88509,0 -20.08785,8.37081 -20.08785,19.87305 0,5.62365 1.10301,5.78583 1.51563,6.66797 0.41261,0.88214 0.70905,1.38094 0.99414,1.85937 0.57018,0.95687 1.085,1.71667 1.66992,2.55274 1.16984,1.67214 2.56722,3.52138 4.12695,5.46484 13.81201,17.21012 13.84101,37.44135 -0.36328,55.55469 -2.36494,3.0158 -4.31704,4.54973 -6.13281,9.22852 -1.17532,-3.15734 -3.2902,-8.94897 -4.33399,-11.74219 6.09118,-6.17306 10.02841,-14.51548 10.25781,-23.56055 l 0.006,-0.18945 0,-0.18946 c 0,-18.63399 -15.41883,-34.05664 -34.05468,-34.05664 -18.63586,-1e-5 -34.05469,15.4226 -34.05469,34.05664 l 0,0.30274 0.0117,0.30273 c 15.1464,29.42089 13.16934,21.4255 7.75976,30.6875 -1.23137,-1.83575 -2.58225,-3.27838 -4.01953,-5.04297 -4.85975,-5.96648 -6.86076,-9.94341 -8.90429,-17.93359 -3.38757,-13.24525 -0.39077,-26.58883 8.91992,-37.89844 1.64626,-1.99968 3.07582,-3.96156 4.33008,-5.96093 0.62712,-0.99969 1.20717,-1.97918 1.82031,-3.27149 0.61314,-1.29231 1.80664,-1.90473 1.80664,-7.5332 0,-5.35927 -2.86663,-11.4086 -7.08984,-14.76953 -4.22322,-3.36093 -8.97125,-4.40235 -13.15235,-4.40235 z m -8.66797,13.84571 c 0.15236,-0.32112 0.0663,-0.12173 -0.1289,0.18945 -0.0286,0.0455 -0.11917,0.15581 -0.15235,0.20703 0.0993,-0.0972 0.24568,-0.32151 0.28125,-0.39648 z m 14.2793,14.70312 c 0.28373,-0.2645 0.35186,0.15221 -0.49024,0.60742 0.11111,-0.11589 0.41311,-0.53552 0.49024,-0.60742 z m 97.30074,272.63079 c 0.1781,0.0204 0.4481,0.0489 0.5977,0.0664 -0.073,0.0437 -0.2556,0.0151 -0.5977,-0.0664 z m -115.94332,2.86914 c 0.91136,0.15579 1.02043,0.11874 1.44336,0.17188 -1.19603,0.003 -1.73866,-0.22236 -1.44336,-0.17188 z"
         style="color:#000000;font-style:normal;font-variant:normal;font-weight:normal;font-stretch:normal;font-size:medium;line-height:normal;font-family:sans-serif;text-indent:0;text-align:start;text-decoration:none;text-decoration-line:none;text-decoration-style:solid;text-decoration-color:#000000;letter-spacing:normal;word-spacing:normal;text-transform:none;direction:ltr;block-progression:tb;writing-mode:lr-tb;baseline-shift:baseline;text-anchor:start;white-space:normal;clip-rule:nonzero;display:inline;overflow:visible;visibility:visible;opacity:1;isolation:auto;mix-blend-mode:normal;color-interpolation:sRGB;color-interpolation-filters:linearRGB;solid-color:#000000;solid-opacity:1;fill:#ffffff;fill-opacity:1;fill-rule:nonzero;stroke:none;stroke-width:30;stroke-linecap:round;stroke-linejoin:miter;stroke-miterlimit:4;stroke-dasharray:none;stroke-dashoffset:0;stroke-opacity:1;color-rendering:auto;image-rendering:auto;shape-rendering:auto;text-rendering:auto;enable-background:accumulate" /><path
         inkscape:connector-curvature="0"
         id="path7597"
         d="m 444.15029,293.06983 c -1.07051,-0.0254 -2.16028,0.0959 -3.30664,0.34766 -6.44462,1.41548 -12.14649,8.60337 -12.14649,15.3125 0,4.81807 1.08014,6.73563 8.625,15.30469 13.33866,15.14938 21.31145,27.14151 29.19922,43.91797 29.50467,62.75336 17.4226,137.92318 -30.31641,188.61328 -2.99952,3.18493 -5.91547,7.00809 -6.48047,8.49414 -2.68038,7.04997 0.008,15.03883 6.36719,18.91601 5.03512,3.06996 11.77896,2.72472 16.70899,-0.85547 4.82717,-3.50549 15.46398,-15.79926 24.45117,-28.25976 7.36861,-10.21635 21.43412,-37.67905 25.39844,-49.58984 23.80508,-71.52235 7.44088,-148.56736 -42.92579,-202.10743 -6.68319,-7.10429 -10.93536,-9.98388 -15.57421,-10.09375 z m -263.16797,0.15235 c -0.55766,0.023 -1.11832,0.0771 -1.68164,0.16797 -3.74313,0.6036 -5.57916,1.89666 -12.11914,8.52929 -29.48144,29.89911 -49.1757,72.48327 -54.02149,116.80664 -5.33469,48.79522 8.70149,100.32624 38.1875,140.19727 8.2168,11.11078 19.72142,23.64933 23.33594,25.43164 10.26683,5.06256 22.14996,-2.15366 22.16016,-13.45703 0.004,-5.05894 -1.70138,-8.83277 -5.63282,-12.46094 -1.52174,-1.40437 -5.39345,-5.77089 -8.60351,-9.70312 -20.34671,-24.92406 -32.95313,-53.07622 -37.96485,-84.77344 -1.91987,-12.14245 -1.66287,-37.67996 0.51368,-50.98047 5.36056,-32.75728 20.46672,-64.14112 42.30078,-87.88477 7.43939,-8.09003 9.38172,-11.48527 9.38672,-16.39648 0.008,-8.72794 -7.49654,-15.82148 -15.86133,-15.47656 z m 51.36914,56.36328 c -1.07832,-0.0359 -2.20678,0.12283 -3.34961,0.5 -3.59245,1.18561 -13.94745,12.73788 -20.13477,22.46289 -13.33313,20.95654 -19.50202,42.10409 -19.51562,66.90039 -0.008,15.09389 0.92687,21.75484 5.06445,36.11133 4.95657,17.19823 18.67289,40.33964 29.94727,50.52539 5.1057,4.61268 9.62629,5.02452 13.70117,1.24805 2.03057,-1.88188 2.70312,-3.49361 2.70312,-6.48047 0,-3.28325 -0.84469,-4.93953 -4.85156,-9.51953 -19.01334,-21.73289 -27.83203,-44.37195 -27.83203,-71.44922 0,-26.70313 8.31611,-48.65674 26.81055,-70.77539 4.42441,-5.29144 5.87304,-7.81844 5.87304,-10.2461 0,-5.32942 -3.74331,-9.12181 -8.41601,-9.27734 z m 160.84765,0.002 c -4.67826,0.15252 -8.42187,3.94157 -8.42187,9.27539 0,2.43789 1.46449,4.97046 6.01562,10.4043 8.59597,10.2632 11.97786,15.45195 16.99219,26.08008 6.66729,14.1316 8.74267,23.1271 9.35156,40.52539 0.42798,12.22867 0.16689,16.50178 -1.49804,24.51367 -3.88222,18.68177 -11.99938,34.95011 -24.67774,49.46094 -5.16408,5.91046 -6.18359,7.69747 -6.18359,10.84179 0,2.70541 0.75815,4.52183 2.69336,6.45704 1.90383,1.90383 3.76134,2.6914 6.33984,2.6914 3.13839,0 4.53925,-0.91398 10.04297,-6.55469 10.56209,-10.82498 19.97874,-26.43329 25.625,-42.4707 10.9392,-31.07124 9.20965,-64.25482 -4.88672,-93.78125 -8.06097,-16.8846 -21.69455,-34.84753 -28.03906,-36.94141 -1.14478,-0.37781 -2.27392,-0.53714 -3.35352,-0.50195 z m -124.99218,41.3457 c -5.06838,0 -15.4101,15.09693 -19.94141,29.10938 -3.30957,10.23437 -3.72073,25.84448 -0.95508,36.25781 2.55425,9.61735 8.11443,20.29744 14.01172,26.91406 5.31,5.95768 7.76019,6.92733 10.52344,4.16407 2.46315,-2.46315 1.98604,-4.08163 -3,-10.20313 -5.97274,-7.33293 -9.36002,-14.13085 -11.80469,-23.68945 -4.5667,-17.85561 -0.26,-36.41291 11.87109,-51.14844 2.49551,-3.03125 4.53711,-6.2858 4.53711,-7.23242 0,-2.52532 -2.06905,-4.17188 -5.24218,-4.17188 z m 88.97461,0 c -2.75121,0 -5.08789,2.23779 -5.08789,4.87305 0,0.50663 2.25362,3.72689 5.00585,7.15625 17.82618,22.21184 17.72381,51.26655 -0.25976,74.19922 -5.28778,6.74299 -5.45804,7.2994 -3.05469,9.95508 2.70062,2.98414 4.95202,2.22111 9.99219,-3.38477 10.61939,-11.81131 16.30275,-26.85593 16.34375,-43.26172 0.0302,-12.09558 -1.40238,-18.59121 -6.53516,-29.62109 -5.16787,-11.10534 -12.42495,-19.91602 -16.40429,-19.91602 z m -46.40235,31.4629 c -10.51832,-10e-6 -19.05469,8.53827 -19.05469,19.05664 0.31063,7.67675 4.51341,14.32118 11.64063,17.55664 0.0793,0.0335 0.0781,1.47943 0.0352,3.70507 -18.2686,56.99388 -71.23717,225.55363 -70.84375,225.88477 0.19013,0.16004 3.10413,1.21551 6.47461,2.3457 3.37048,1.13017 6.42765,1.76711 6.79492,1.41602 0.36727,-0.3511 2.56515,-6.71328 4.88476,-14.13867 4.16657,-13.33785 4.25071,-13.49402 6.99219,-13.02539 1.07451,0.18368 16.85172,1.77315 36.17188,3.6875 -1.16833,23.52991 -2.00362,40.20248 -2.08399,42.13281 19.14482,-0.0771 19.58149,-0.037 37.83985,-0.10352 -0.10475,-1.7732 -0.9301,-18.19858 -1.94532,-38.6875 27.41459,2.68742 50.29638,4.99934 51.32617,5.21289 1.54291,0.31998 2.73075,2.26754 4.48829,7.35938 1.31464,3.80864 2.66977,7.2432 3.00976,7.63281 0.34001,0.38962 3.51206,-0.29902 7.04883,-1.53125 5.45139,-1.8993 6.3513,-2.5515 5.91211,-4.2832 -1.48217,-5.8442 -59.87147,-165.1464 -81.27149,-222.26172 -0.0729,-3.09276 -0.0981,-5.30583 -0.004,-5.3457 6.94216,-3.26309 11.44069,-9.75044 11.63867,-17.55664 0,-10.51837 -8.53631,-19.05664 -19.05469,-19.05664 z m 9.23438,88.0371 c 3.31351,9.02113 6.54232,17.78436 6.8789,18.63868 0.38731,0.98305 0.30953,1.75845 -0.17187,1.72265 -0.84918,-0.0631 -3.07407,-0.63382 -5.86328,-1.4414 -0.30607,-6.73486 -0.57558,-12.829 -0.84375,-18.91993 z m -18.90235,8.41993 c -0.0577,1.26434 -0.11069,2.44722 -0.16992,3.73632 -0.37073,-0.18346 -0.6289,-0.3352 -0.6289,-0.41211 0,-0.32516 0.33907,-1.65122 0.79882,-3.32421 z m -5.83007,18.34961 c 0.51023,-0.0374 2.43314,0.43548 4.93945,1.14257 -0.35089,7.48658 -0.74129,15.54681 -1.11719,23.41797 -9.1516,6.11792 -14.56188,9.29816 -14.24219,8.25977 5.82968,-18.93549 10.11282,-32.57802 10.29102,-32.78125 0.0192,-0.0219 0.0624,-0.0342 0.12891,-0.0391 z m 41.14257,18.36328 c 0.0278,0.006 0.046,0.0186 0.0527,0.0391 0.23695,0.71408 4.0302,11.15627 8.43164,23.20312 4.40144,12.04685 8.0039,22.04371 8.0039,22.21485 0,0.49774 -0.88329,0.2796 -29.03906,-7.25781 -0.49937,-10.43601 -0.93895,-19.6951 -1.42383,-30.01954 7.35269,-4.70515 13.34307,-8.31232 13.97461,-8.17968 z m -38.1875,24.42187 c -0.11178,2.31549 -0.20807,4.23962 -0.32031,6.55664 -3.19884,-0.95206 -5.52832,-1.68369 -5.57031,-1.81836 -0.0961,-0.30806 2.27677,-2.1551 5.89062,-4.73828 z m -21.6582,16.65235 c 0.18972,-0.18972 9.33629,2.1107 20.59375,5.0664 -0.52411,10.74407 -0.98242,20.07889 -1.47851,30.14453 -18.38253,7.40667 -33.54218,13.42038 -33.90626,13.41407 -0.40367,-0.007 -0.53041,-0.58883 -0.28124,-1.29102 0.24916,-0.70218 3.67608,-11.57092 7.61328,-24.1543 3.9372,-12.58338 7.29354,-23.01423 7.45898,-23.17968 z m 48.03906,12.45703 c 8.52729,2.35656 15.01758,4.22218 15.01758,4.42187 0,0.18255 -5.86313,2.71027 -14.49805,6.3086 -0.17961,-3.70614 -0.33693,-6.94442 -0.51953,-10.73047 z m 35.83985,12.78515 c 0.17723,0.21372 1.81259,4.52436 3.63476,9.58008 1.82217,5.05571 5.09486,14.13311 7.27149,20.17188 2.17664,6.03878 3.85612,10.92682 3.73242,10.86132 -0.27722,-0.14662 -24.856,-2.70863 -48.13477,-5.08007 -0.32282,-6.56151 -0.71414,-14.75664 -1.06836,-22.01758 17.62113,-7.13438 34.3609,-13.7611 34.56446,-13.51563 z m -65.56446,26.26368 c -0.0933,1.88585 -0.20429,4.19785 -0.29492,6.02734 -3.99764,-0.3851 -7.06639,-0.66928 -7.51172,-0.67969 -1.84778,-0.0432 -2.63801,-0.43142 -2.04297,-1.00391 0.26802,-0.25785 4.31083,-2.01102 9.84961,-4.34374 z"
         style="opacity:1;fill:#734a08;fill-opacity:1;stroke:none;stroke-width:30;stroke-linecap:round;stroke-miterlimit:4;stroke-dasharray:none;stroke-opacity:1" /></g></g></svg>