<?xml version="1.0" encoding="UTF-8" standalone="no"?>
<!-- Generator: Adobe Illustrator 16.0.0, SVG Export Plug-In . SVG Version: 6.00 Build 0)  -->

<svg
   xmlns:dc="http://purl.org/dc/elements/1.1/"
   xmlns:cc="http://creativecommons.org/ns#"
   xmlns:rdf="http://www.w3.org/1999/02/22-rdf-syntax-ns#"
   xmlns:svg="http://www.w3.org/2000/svg"
   xmlns="http://www.w3.org/2000/svg"
   xmlns:sodipodi="http://sodipodi.sourceforge.net/DTD/sodipodi-0.dtd"
   xmlns:inkscape="http://www.inkscape.org/namespaces/inkscape"
   version="1.1"
   id="svg2"
   inkscape:output_extension="org.inkscape.output.svg.inkscape"
   sodipodi:docname="JH_man_made_water_tower.svg"
   inkscape:version="0.91 r13725"
   sodipodi:version="0.32"
   x="0px"
   y="0px"
   width="580px"
   height="580px"
   viewBox="0 0 580 580"
   enable-background="new 0 0 580 580"
   xml:space="preserve"
   inkscape:export-filename="/media/juhele/KONZERVA/__PRACE/JH_icons/JH_man_made_water_tower.png"
   inkscape:export-xdpi="31"
   inkscape:export-ydpi="31"><metadata
     id="metadata17"><rdf:RDF><cc:Work
         rdf:about=""><dc:format>image/svg+xml</dc:format><dc:type
           rdf:resource="http://purl.org/dc/dcmitype/StillImage" /></cc:Work></rdf:RDF></metadata><sodipodi:namedview
     showgrid="false"
     inkscape:cy="109.37685"
     inkscape:cx="594.94683"
     inkscape:zoom="0.70710678"
     pagecolor="#ffffff"
     bordercolor="#666666"
     guidetolerance="10.0"
     objecttolerance="10.0"
     gridtolerance="10.0"
     borderopacity="1.0"
     id="base"
     inkscape:current-layer="g7473"
     inkscape:window-y="0"
     inkscape:window-x="0"
     inkscape:pageopacity="0.0"
     inkscape:pageshadow="2"
     inkscape:window-width="1920"
     inkscape:window-height="1125"
     inkscape:window-maximized="1"
     showguides="true"
     inkscape:guide-bbox="true" /><defs
     id="defs4"><inkscape:perspective
       inkscape:vp_z="580 : 290 : 1"
       inkscape:vp_y="0 : 1000 : 0"
       inkscape:vp_x="0 : 290 : 1"
       sodipodi:type="inkscape:persp3d"
       id="perspective3653"
       inkscape:persp3d-origin="290 : 193.33333 : 1" /><inkscape:perspective
       inkscape:vp_z="355.02399 : 217.53 : 1"
       inkscape:vp_y="0 : 1000 : 0"
       inkscape:vp_x="0 : 217.53 : 1"
       sodipodi:type="inkscape:persp3d"
       id="perspective2512"
       inkscape:persp3d-origin="177.51199 : 145.02 : 1" /><inkscape:perspective
       id="perspective2481"
       inkscape:persp3d-origin="31.4725 : 34.419334 : 1"
       inkscape:vp_z="62.945 : 51.629002 : 1"
       inkscape:vp_y="0 : 1000 : 0"
       inkscape:vp_x="0 : 51.629002 : 1"
       sodipodi:type="inkscape:persp3d" /><inkscape:perspective
       inkscape:persp3d-origin="290 : 193.33333 : 1"
       id="perspective3653-5"
       sodipodi:type="inkscape:persp3d"
       inkscape:vp_x="0 : 290 : 1"
       inkscape:vp_y="0 : 1000 : 0"
       inkscape:vp_z="580 : 290 : 1" /><inkscape:perspective
       inkscape:persp3d-origin="177.51199 : 145.02 : 1"
       id="perspective2512-6"
       sodipodi:type="inkscape:persp3d"
       inkscape:vp_x="0 : 217.53 : 1"
       inkscape:vp_y="0 : 1000 : 0"
       inkscape:vp_z="355.02399 : 217.53 : 1" /></defs><g
     id="g2121" /><g
     id="g4198"
     transform="translate(-2.8338787,-220.28663)"><g
       id="g7473"
       transform="matrix(34.14563,0,0,34.14563,310.2035,417.52004)"><g
         id="g7524"
         transform="matrix(1.1002101,0,0,1.1002101,0.05097615,-0.27225026)"><path
           sodipodi:nodetypes="ccscccccccccscccccsccccc"
           inkscape:connector-curvature="0"
           id="path7520"
           d="m -5.9481461,-4.7226607 0,0.4394532 0,3.50000001 c 0,1.47846897 0.813954,2.56150589 1.882813,3.27929679 l -0.941406,7.6601567 2.384765,0 0.210938,-1.6542973 1.89843743,-1.2578125 1.90624997,1.2871094 0.210938,1.6250004 2.382812,0 -0.941406,-7.6308598 c 1.077336,-0.7207546 1.884766,-1.81901834 1.884766,-3.30859369 l 0,-3.93945321 -2.378907,0 0,1.5 -0.154296,0 -0.08594,0.037109 c -1.050272,0.4659102 -1.71645897,0.4640363 -2.62499997,0.00977 -1.04339403,-0.5216972 -2.13269543,-0.5106039 -3.20898443,-0.046875 l -0.04687,0 0,-1.5 -2.378907,0 z"
           style="color:#000000;font-style:normal;font-variant:normal;font-weight:normal;font-stretch:normal;font-size:medium;line-height:normal;font-family:sans-serif;text-indent:0;text-align:start;text-decoration:none;text-decoration-line:none;text-decoration-style:solid;text-decoration-color:#000000;letter-spacing:normal;word-spacing:normal;text-transform:none;direction:ltr;block-progression:tb;writing-mode:lr-tb;baseline-shift:baseline;text-anchor:start;white-space:normal;clip-rule:nonzero;display:inline;overflow:visible;visibility:visible;opacity:1;isolation:auto;mix-blend-mode:normal;color-interpolation:sRGB;color-interpolation-filters:linearRGB;solid-color:#000000;solid-opacity:1;fill:#ffffff;fill-opacity:1;fill-rule:nonzero;stroke:none;stroke-width:0.87858975;stroke-linecap:butt;stroke-linejoin:miter;stroke-miterlimit:4;stroke-dasharray:none;stroke-dashoffset:0;stroke-opacity:1;color-rendering:auto;image-rendering:auto;shape-rendering:auto;text-rendering:auto;enable-background:accumulate" /><path
           inkscape:connector-curvature="0"
           d="m -5.5086925,-4.2832077 0,3.49999987 c 0,1.44691724 0.790551,2.48027173 1.90625,3.12500023 l -0.90625,7.3750002 1.5,0 0.1875,-1.4687498 2.31249995,-1.531251 2.31250005,1.562501 0.1875003,1.4374998 1.5,0 -0.90625,-7.3437503 c 1.12446,-0.6429754 1.90625,-1.69343889 1.90625,-3.15625013 l 0,-3.49999987 -1.5,0 0,1.5 -0.5,0 c -1.1271183,0.5 -2.00000035,0.5 -3.00000035,0 -0.99999995,-0.5 -1.96186395,-0.5 -2.99999995,0 l -0.5,0 0,-1.5 z m 3.34375,7.1875002 c 1.069224,0.2671612 2.24268495,0.2935661 3.3125,0.03125 l 0.1875,1.5624993 -1.84375005,1.218751 -1.84374995,-1.218751 z m -0.3125,2.4999993 1.21875,0.8125 -1.4375,0.96875 z m 3.9375,0 0.21875,1.78125 -1.43750005,-0.96875 z"
           id="water-tower"
           style="fill:#734a08;fill-opacity:1" /><path
           sodipodi:nodetypes="ccccsccc"
           style="fill:#0c69c1;fill-opacity:1"
           id="path7492"
           d="m -4.0640902,-0.23715325 c 1.3690749,3.57854375 7.0443634,2.17232835 7.1008018,-0.041417 l -0.0504,-2.53842235 -0.5,0 c -1.127118,0.4999999 -1.99999999,0.4999999 -2.99999999,0 -1.00000001,-0.5 -1.96186391,-0.5 -2.99999991,0 l -0.5,0 z"
           inkscape:connector-curvature="0" /></g></g></g></svg>