<?xml version="1.0" encoding="UTF-8" standalone="no"?>
<!-- Generator: Adobe Illustrator 16.0.0, SVG Export Plug-In . SVG Version: 6.00 Build 0)  -->

<svg
   xmlns:dc="http://purl.org/dc/elements/1.1/"
   xmlns:cc="http://creativecommons.org/ns#"
   xmlns:rdf="http://www.w3.org/1999/02/22-rdf-syntax-ns#"
   xmlns:svg="http://www.w3.org/2000/svg"
   xmlns="http://www.w3.org/2000/svg"
   xmlns:sodipodi="http://sodipodi.sourceforge.net/DTD/sodipodi-0.dtd"
   xmlns:inkscape="http://www.inkscape.org/namespaces/inkscape"
   version="1.1"
   id="svg2"
   inkscape:output_extension="org.inkscape.output.svg.inkscape"
   sodipodi:docname="JH_natural_beach.svg"
   inkscape:version="0.91 r13725"
   sodipodi:version="0.32"
   x="0px"
   y="0px"
   width="580px"
   height="580px"
   viewBox="0 0 580 580"
   enable-background="new 0 0 580 580"
   xml:space="preserve"
   inkscape:export-filename="F:\_GRAFIKA\2016_08_29_Symboly_turistika\JH_icons\JH_natural_beach.png"
   inkscape:export-xdpi="31"
   inkscape:export-ydpi="31"><metadata
     id="metadata17"><rdf:RDF><cc:Work
         rdf:about=""><dc:format>image/svg+xml</dc:format><dc:type
           rdf:resource="http://purl.org/dc/dcmitype/StillImage" /></cc:Work></rdf:RDF></metadata><sodipodi:namedview
     showgrid="false"
     inkscape:cy="-67.329501"
     inkscape:cx="1139.7829"
     inkscape:zoom="0.70710678"
     pagecolor="#ffffff"
     bordercolor="#666666"
     guidetolerance="10.0"
     objecttolerance="10.0"
     gridtolerance="10.0"
     borderopacity="1.0"
     id="base"
     inkscape:current-layer="g4264"
     inkscape:window-y="-9"
     inkscape:window-x="-9"
     inkscape:pageopacity="0.0"
     inkscape:pageshadow="2"
     inkscape:window-width="2560"
     inkscape:window-height="1369"
     inkscape:window-maximized="1" /><defs
     id="defs4"><inkscape:perspective
       inkscape:vp_z="580 : 290 : 1"
       inkscape:vp_y="0 : 1000 : 0"
       inkscape:vp_x="0 : 290 : 1"
       sodipodi:type="inkscape:persp3d"
       id="perspective3653"
       inkscape:persp3d-origin="290 : 193.33333 : 1" /><inkscape:perspective
       inkscape:vp_z="355.02399 : 217.53 : 1"
       inkscape:vp_y="0 : 1000 : 0"
       inkscape:vp_x="0 : 217.53 : 1"
       sodipodi:type="inkscape:persp3d"
       id="perspective2512"
       inkscape:persp3d-origin="177.51199 : 145.02 : 1" /></defs><g
     id="g2121" /><g
     id="g4198"
     transform="translate(-2.8338787,-220.28663)"><g
       transform="matrix(81.437956,0,0,81.437956,-24797.77,-48180.737)"
       id="g43"><g
         transform="matrix(0.00664475,0,0,0.00664475,306.1645,591.97915)"
         id="g4"
         style="stroke:#000000;stroke-width:4.99999857;stroke-miterlimit:4;stroke-dasharray:none;stroke-opacity:1"><g
           transform="matrix(2.7088,0.68982,-0.68982,2.7088,-600.86,144.48)"
           id="g6"
           style="stroke:#000000;stroke-width:1.78874528;stroke-miterlimit:4;stroke-dasharray:none;stroke-opacity:1"><g
             id="g4434"
             transform="matrix(0.65664901,0.0766632,-0.0766632,0.65664901,-59.8231,-10.336049)"><g
               id="g4264"><g
                 id="g4152"
                 transform="translate(-1.0775028,20.338111)"><path
                   sodipodi:nodetypes="ssscccccccccccccccccss"
                   inkscape:connector-curvature="0"
                   style="fill:#ffffff;fill-opacity:1;stroke:none;stroke-width:1.78900003;stroke-miterlimit:4;stroke-dasharray:none"
                   d="m 731.16613,-34.128258 c -0.52508,0.185852 -1.02693,0.38201 -1.5003,0.587139 -3.15581,1.367536 -5.0913,3.120736 -4.88573,4.69401 l 1.99218,15.246832 C 615.08978,26.982865 583.62086,148.18825 583.62086,148.18825 c 0,0 59.20251,-37.07198 79.69987,-38.33457 13.15248,-0.82459 48.01348,18.60876 48.01348,18.60876 0,0 13.51706,-14.35613 32.40912,-23.41062 l 19.7088,147.30591 -42.04945,27.36554 24.14877,40.86432 L 968.71829,187.76514 943.16766,146.27356 800.75845,232.7394 780.3642,98.774358 c 20.4633,2.286342 41.0456,10.909322 41.0456,10.909322 0,0 27.75038,-29.312085 40.88103,-32.643008 19.73024,-5.054226 83.00073,19.61178 83.00073,19.61178 0,0 -88.10274,-120.278444 -184.49347,-113.92335 l -1.97828,-15.13869 c -0.32894,-2.516909 -15.58926,-4.156173 -22.35486,-3.053359 -1.93055,0.314687 -3.72359,0.777125 -5.29882,1.334689 z"
                   id="path4148" /><path
                   id="path4268"
                   transform="matrix(0.93391598,-0.35749257,0.35749257,0.93391598,311.81272,42.059156)"
                   d="m 422.61523,85.179688 c -0.50831,-0.01381 -1.00018,-0.01011 -1.4707,0.01172 -3.13681,0.145536 -5.35909,1.069077 -5.69726,2.576172 l -3.27735,14.60547 c -87.66045,-9.396678 -179.79687,86.48047 -179.79687,86.48047 0,0 57.12448,-15.26599 75.01172,-9.25977 11.48236,3.84084 34.86132,33.74414 34.86132,33.74414 0,0 28.09474,-7.8468 47.15625,-9.50977 l -36.22265,161.40821 -48.74219,8.6914 6.26172,35.11524 242.52344,-43.24024 -6.26172,-35.11718 -169.43946,30.21093 34.25586,-152.65625 c 16.70001,9.23204 40.34766,29.58594 40.34766,29.58594 0,0 34.7105,-17.05057 46.99219,-15.5039 18.47062,2.2792 62.87695,39.98828 62.87695,39.98828 0,0 -43.28833,-127.24948 -127.54102,-155.11328 l 3.25391,-14.501956 c 0.54095,-2.411062 -4.0107,-5.526231 -10.13867,-6.882812 -1.7486,-0.387094 -3.42819,-0.591376 -4.95313,-0.632812 z"
                   style="fill:#734a08;fill-opacity:1;stroke:none;stroke-width:1.78900003;stroke-miterlimit:4;stroke-dasharray:none"
                   inkscape:connector-curvature="0" /><path
                   sodipodi:nodetypes="sccssssscccsssssccssssscccssss"
                   inkscape:connector-curvature="0"
                   d="m 493.81153,310.55936 c -12.34823,4.72676 -25.66092,36.34011 -37.40357,40.83507 l 17.56988,45.89965 c 12.42422,-4.75588 26.42736,-36.63352 37.4036,-40.8351 11.66221,-4.46415 42.76196,10.14862 55.11019,5.42187 10.99764,-4.20981 25.66095,-36.34014 37.40361,-40.8351 11.66222,-4.46416 44.04855,9.6561 55.11019,5.42182 11.66221,-4.46415 26.42739,-36.63352 37.4036,-40.83507 10.97621,-4.20158 43.44798,9.88599 55.11019,5.42184 l -17.56987,-45.89966 c -9.60418,3.67636 -43.02457,-10.8346 -55.11018,-5.42183 -11.06169,4.23428 -25.03633,36.101 -37.40361,40.83507 -10.29023,3.93898 -43.44798,-9.88599 -55.11023,-5.42183 -11.66222,4.46419 -27.09056,36.88734 -37.40358,40.83507 -10.99764,4.20977 -42.76199,-10.14859 -55.11022,-5.4218 z m 26.55995,69.38532 c -12.34826,4.72679 -25.66096,36.34013 -37.4036,40.8351 l 17.5699,45.89965 c 12.42422,-4.75586 26.42736,-36.63352 37.40356,-40.83507 11.66227,-4.46419 42.762,10.14859 55.11024,5.4218 10.9976,-4.20977 25.66093,-36.3401 37.40356,-40.83507 11.66225,-4.46416 44.04859,9.6561 55.11023,5.42182 11.66222,-4.46415 26.42741,-36.63347 37.40361,-40.83506 10.9762,-4.20156 43.44798,9.88598 55.11019,5.42183 L 760.5093,314.54002 c -9.60419,3.67638 -43.02461,-10.83459 -55.11023,-5.42183 -11.06165,4.23428 -25.03629,36.10104 -37.40358,40.83511 -10.29022,3.93895 -43.44799,-9.88603 -55.11022,-5.42187 -11.66222,4.46419 -27.09054,36.88739 -37.4036,40.83511 -10.99761,4.20977 -42.76196,-10.14863 -55.11019,-5.42186 z"
                   id="path4150"
                   style="color:#000000;fill:#f9f9f9;fill-opacity:1;stroke:none" /><path
                   style="color:#000000;fill:#0092da;fill-opacity:1;stroke:none"
                   id="ford"
                   d="m 495.95649,316.16285 c -12.34823,4.72676 -25.66092,36.34011 -37.40357,40.83507 l 13.27996,34.69267 c 12.42422,-4.75588 26.42736,-36.63352 37.4036,-40.8351 11.66221,-4.46415 42.76196,10.14862 55.11019,5.42187 10.99764,-4.20981 25.66095,-36.34014 37.40361,-40.8351 11.66222,-4.46416 44.04855,9.6561 55.11019,5.42182 11.66221,-4.46415 26.42739,-36.63352 37.4036,-40.83507 10.97621,-4.20158 43.44798,9.88599 55.11019,5.42184 l -13.27995,-34.69268 c -9.60418,3.67636 -43.02457,-10.8346 -55.11018,-5.42183 -11.06169,4.23428 -25.03633,36.101 -37.40361,40.83507 -10.29023,3.93898 -43.44798,-9.88599 -55.11023,-5.42183 -11.66222,4.46419 -27.09056,36.88734 -37.40358,40.83507 -10.99764,4.20977 -42.76199,-10.14859 -55.11022,-5.4218 z m 26.55995,69.38532 c -12.34826,4.72679 -25.66096,36.34013 -37.4036,40.8351 l 13.27998,34.69267 c 12.42422,-4.75586 26.42736,-36.63352 37.40356,-40.83507 11.66227,-4.46419 42.762,10.14859 55.11024,5.4218 10.9976,-4.20977 25.66093,-36.3401 37.40356,-40.83507 11.66225,-4.46416 44.04859,9.6561 55.11023,5.42182 11.66222,-4.46415 26.42741,-36.63347 37.40361,-40.83506 10.9762,-4.20156 43.44798,9.88598 55.11019,5.42183 l -13.27995,-34.69268 c -9.60419,3.67638 -43.02461,-10.83459 -55.11023,-5.42183 -11.06165,4.23428 -25.03629,36.10104 -37.40358,40.83511 -10.29022,3.93895 -43.44799,-9.88603 -55.11022,-5.42187 -11.66222,4.46419 -27.09054,36.88739 -37.4036,40.83511 -10.99761,4.20977 -42.76196,-10.14863 -55.11019,-5.42186 z"
                   inkscape:connector-curvature="0"
                   sodipodi:nodetypes="sccssssscccsssssccssssscccssss" /></g></g></g></g></g></g></g></svg>