<?xml version="1.0" encoding="UTF-8" standalone="no"?>
<!-- Generator: Adobe Illustrator 16.0.0, SVG Export Plug-In . SVG Version: 6.00 Build 0)  -->

<svg
   xmlns:dc="http://purl.org/dc/elements/1.1/"
   xmlns:cc="http://creativecommons.org/ns#"
   xmlns:rdf="http://www.w3.org/1999/02/22-rdf-syntax-ns#"
   xmlns:svg="http://www.w3.org/2000/svg"
   xmlns="http://www.w3.org/2000/svg"
   xmlns:sodipodi="http://sodipodi.sourceforge.net/DTD/sodipodi-0.dtd"
   xmlns:inkscape="http://www.inkscape.org/namespaces/inkscape"
   version="1.1"
   id="svg2"
   inkscape:output_extension="org.inkscape.output.svg.inkscape"
   sodipodi:docname="JH_shop_supermarket.svg"
   inkscape:version="0.91 r13725"
   sodipodi:version="0.32"
   x="0px"
   y="0px"
   width="580px"
   height="580px"
   viewBox="0 0 580 580"
   enable-background="new 0 0 580 580"
   xml:space="preserve"
   inkscape:export-filename="F:\_GRAFIKA\2016_08_29_Symboly_turistika\JH_icons\JH_shop_supermarket.png"
   inkscape:export-xdpi="31"
   inkscape:export-ydpi="31"><metadata
     id="metadata17"><rdf:RDF><cc:Work
         rdf:about=""><dc:format>image/svg+xml</dc:format><dc:type
           rdf:resource="http://purl.org/dc/dcmitype/StillImage" /></cc:Work></rdf:RDF></metadata><sodipodi:namedview
     showgrid="false"
     inkscape:cy="2.4986126"
     inkscape:cx="-142.68879"
     inkscape:zoom="0.70710678"
     pagecolor="#ffffff"
     bordercolor="#666666"
     guidetolerance="10.0"
     objecttolerance="10.0"
     gridtolerance="10.0"
     borderopacity="1.0"
     id="base"
     inkscape:current-layer="svg2"
     inkscape:window-y="-9"
     inkscape:window-x="-9"
     inkscape:pageopacity="0.0"
     inkscape:pageshadow="2"
     inkscape:window-width="2560"
     inkscape:window-height="1369"
     inkscape:window-maximized="1"
     showguides="true"
     inkscape:guide-bbox="true" /><defs
     id="defs4"><inkscape:perspective
       inkscape:vp_z="580 : 290 : 1"
       inkscape:vp_y="0 : 1000 : 0"
       inkscape:vp_x="0 : 290 : 1"
       sodipodi:type="inkscape:persp3d"
       id="perspective3653"
       inkscape:persp3d-origin="290 : 193.33333 : 1" /><inkscape:perspective
       inkscape:vp_z="355.02399 : 217.53 : 1"
       inkscape:vp_y="0 : 1000 : 0"
       inkscape:vp_x="0 : 217.53 : 1"
       sodipodi:type="inkscape:persp3d"
       id="perspective2512"
       inkscape:persp3d-origin="177.51199 : 145.02 : 1" /></defs><g
     id="g2121" /><g
     transform="matrix(31.052038,0,0,31.052038,759.91796,294.81414)"
     id="g4146" /><g
     id="g4255"
     transform="matrix(1.2239772,0,0,1.2239772,-57.807947,-65.979724)"><g
       id="g4185"
       transform="matrix(31.996521,0,0,32.066104,-358.60499,234.69546)"
       style="fill:#ffffff;fill-opacity:1"><path
         sodipodi:nodetypes="ccccccccccccsccccscccccccc"
         inkscape:connector-curvature="0"
         id="rect4189"
         d="m 26.496139,-4.263228 c -0.05543,0.00121 -0.110371,0.010739 -0.162971,0.028275 l -2.232097,0.5499786 -0.267967,1.2499962 -10.749909,0 0.999972,6.2495041 8.312423,0.8376165 0,0.3515651 -7.812436,0 c -0.661678,0.00495 -0.661678,1.5563609 0,1.5613125 l 1.020328,0 c -0.01347,0.065826 -0.02026,0.1328422 -0.02029,0.2000318 1.5e-5,0.5522629 0.697736,0.9999566 1.249999,0.9999721 0.552287,1.87e-5 1.187539,-0.447685 1.187555,-0.9999721 -3.75e-4,-0.067225 -0.0075,-0.1342417 -0.02135,-0.2000318 l 3.166557,0 c -0.01349,0.065824 -0.02031,0.1328398 -0.02036,0.2000318 1.5e-5,0.5522871 0.635268,0.9999908 1.187555,0.9999721 0.552263,-1.5e-5 1.249985,-0.4477088 1.25,-0.9999721 -3.52e-4,-0.067223 -0.0075,-0.1342393 -0.02128,-0.2000318 l 0.52127,0 0,-2.0000063 1.3125,-6.2203524 0.09999,-0.4000012 1.000034,-0.3500089 c 0.94581,-0.2787525 0.634953,-1.8715871 4.77e-4,-1.8578792 z"
         style="fill:#ffffff;fill-opacity:1" /></g><path
       id="rect4142"
       d="m 470.67578,115.98633 a 16.242014,16.242014 0 0 0 -4.7832,0.83203 l -43.4961,16.14258 -7.86523,36.6875 -337.519531,0 29.349611,176.09765 264.14453,26.41407 0,32.28515 -249.4707,0 a 14.674805,14.674805 0 0 0 0,29.34961 l 29.94531,0 a 29.349577,29.349577 0 0 0 -0.5957,5.86914 29.349577,29.349577 0 0 0 29.34961,29.34961 29.349577,29.349577 0 0 0 29.3496,-29.34961 29.349577,29.349577 0 0 0 -0.625,-5.86914 l 118.61719,0 a 29.349577,29.349577 0 0 0 -0.59375,5.86914 29.349577,29.349577 0 0 0 29.34961,29.34961 29.349577,29.349577 0 0 0 29.34961,-29.34961 29.349577,29.349577 0 0 0 -0.625,-5.86914 l 15.29883,0 0,-58.69922 44.02539,-205.44726 2.93555,-11.74024 29.34765,-10.27148 a 16.242014,16.242014 0 0 0 -5.48828,-31.65039 z m -359.41406,83.01172 68.47266,0 0,29.34961 -63.22461,0 -5.24805,-29.34961 z m 83.14648,0 44.02539,0 0,29.34961 -44.02539,0 0,-29.34961 z m 58.69922,0 44.02539,0 0,29.34961 -44.02539,0 0,-29.34961 z m 58.69922,0 44.02539,0 0,29.34961 -44.02539,0 0,-29.34961 z m 58.69922,0 37.74414,0 -6.20508,29.34961 -31.53906,0 0,-29.34961 z m -251.37305,44.02343 60.60157,0 0,44.0254 -52.73047,0 -7.8711,-44.0254 z m 75.27539,0 44.02539,0 0,44.0254 -44.02539,0 0,-44.0254 z m 58.69922,0 44.02539,0 0,44.0254 -44.02539,0 0,-44.0254 z m 58.69922,0 44.02539,0 0,44.0254 -44.02539,0 0,-44.0254 z m 58.69922,0 28.4375,0 -9.30859,44.0254 -19.12891,0 0,-44.0254 z m -240.87891,58.69922 50.10743,0 0,22.11133 -46.95899,-4.5 -3.14844,-17.61133 z m 64.78125,0 44.02539,0 0,27.73438 -44.02539,-4.21875 0,-23.51563 z m 58.69922,0 44.02539,0 0,33.35742 -44.02539,-4.21874 0,-29.13868 z m 58.69922,0 44.02539,0 0,38.98047 -44.02539,-4.21679 0,-34.76368 z m 58.69922,0 16.02539,0 -8.6875,41.08985 -7.33789,-0.70313 0,-40.38672 z"
       style="fill:#734a08;fill-opacity:1"
       inkscape:connector-curvature="0" /></g></svg>