<?xml version="1.0" encoding="UTF-8" standalone="no"?>
<!-- Generator: Adobe Illustrator 16.0.0, SVG Export Plug-In . SVG Version: 6.00 Build 0)  -->

<svg
   xmlns:dc="http://purl.org/dc/elements/1.1/"
   xmlns:cc="http://creativecommons.org/ns#"
   xmlns:rdf="http://www.w3.org/1999/02/22-rdf-syntax-ns#"
   xmlns:svg="http://www.w3.org/2000/svg"
   xmlns="http://www.w3.org/2000/svg"
   xmlns:sodipodi="http://sodipodi.sourceforge.net/DTD/sodipodi-0.dtd"
   xmlns:inkscape="http://www.inkscape.org/namespaces/inkscape"
   version="1.1"
   id="svg2"
   inkscape:output_extension="org.inkscape.output.svg.inkscape"
   sodipodi:docname="JH_transport_taxi.svg"
   inkscape:version="0.91 r13725"
   sodipodi:version="0.32"
   x="0px"
   y="0px"
   width="580px"
   height="580px"
   viewBox="0 0 580 580"
   enable-background="new 0 0 580 580"
   xml:space="preserve"
   inkscape:export-filename="F:\_GRAFIKA\2016_08_29_Symboly_turistika\JH_icons\JH_transport_taxi.png"
   inkscape:export-xdpi="31"
   inkscape:export-ydpi="31"><metadata
     id="metadata17"><rdf:RDF><cc:Work
         rdf:about=""><dc:format>image/svg+xml</dc:format><dc:type
           rdf:resource="http://purl.org/dc/dcmitype/StillImage" /></cc:Work></rdf:RDF></metadata><sodipodi:namedview
     showgrid="false"
     inkscape:cy="97.029122"
     inkscape:cx="365.10029"
     inkscape:zoom="0.65172414"
     pagecolor="#ffffff"
     bordercolor="#666666"
     guidetolerance="10.0"
     objecttolerance="10.0"
     gridtolerance="10.0"
     borderopacity="1.0"
     id="base"
     inkscape:current-layer="g4198"
     inkscape:window-y="-9"
     inkscape:window-x="-9"
     inkscape:pageopacity="0.0"
     inkscape:pageshadow="2"
     inkscape:window-width="2560"
     inkscape:window-height="1369"
     inkscape:window-maximized="1" /><defs
     id="defs4"><inkscape:perspective
       inkscape:vp_z="580 : 290 : 1"
       inkscape:vp_y="0 : 1000 : 0"
       inkscape:vp_x="0 : 290 : 1"
       sodipodi:type="inkscape:persp3d"
       id="perspective3653"
       inkscape:persp3d-origin="290 : 193.33333 : 1" /><inkscape:perspective
       inkscape:vp_z="355.02399 : 217.53 : 1"
       inkscape:vp_y="0 : 1000 : 0"
       inkscape:vp_x="0 : 217.53 : 1"
       sodipodi:type="inkscape:persp3d"
       id="perspective2512"
       inkscape:persp3d-origin="177.51199 : 145.02 : 1" /></defs><g
     id="g2121" /><g
     id="g4198"
     transform="translate(-2.8338787,-220.28663)"><g
       id="g4209"><path
         d="m 292.58238,601.13503 -0.0474,0 -70.78751,0 0,26.30616 c 0,32.02558 -58.03785,32.4074 -58.03785,0 l 0,-26.30616 -24.49713,0 0,-82.37875 c 0,-22.11404 17.67524,-33.79152 27.65117,-35.07222 l 25.20066,-64.74322 c 4.74292,-12.32977 15.01921,-22.86973 34.3861,-22.86973 l 33.99079,0 0,-16.90371 c 0,-6.76149 3.64413,-10.19791 9.57277,-10.19791 l 22.521,0 0.0474,0 -0.0474,0 0.0474,0 22.91624,0 c 5.92864,0 10.36723,3.48325 9.57277,10.19791 l 0,16.90371 33.58765,0 c 19.36688,0 29.64319,10.53996 34.3861,22.86973 l 25.19276,64.74322 c 9.98382,1.2807 27.67488,12.95818 27.67488,35.07222 l 0,82.37875 -24.50503,0 0,26.30616 c 0,32.4074 -60.46569,31.93342 -58.03786,0 l 0,-26.30616 -70.78751,0 -0.0474,0 z"
         style="fill:#ffffff;fill-opacity:1"
         id="path4179"
         inkscape:connector-curvature="0"
         sodipodi:nodetypes="cccssccsccscssccccsscsccsccsscccc" /><path
         inkscape:connector-curvature="0"
         id="path3326"
         style="fill:#0075bd;fill-opacity:1"
         d="m 292.85245,597.64028 -0.0446,0 -77.78615,0 0,25.29421 c 0,30.79362 -43.25662,31.16075 -43.25662,0 l 0,-25.29421 -23.01721,0 0,-79.20981 c 0,-21.26336 16.60745,-32.49163 25.98071,-33.72307 l 23.67824,-62.25267 c 4.45638,-11.85547 14.11188,-21.98998 32.30877,-21.98998 l 33.81652,0 0,-16.25346 c 0,-6.50138 3.42398,-9.80562 8.99446,-9.80562 l 19.28128,0 0.0446,0 -0.0446,0 0.0446,0 19.65264,0 c 5.57048,0 8.99447,3.30424 8.99447,9.80562 l 0,16.25346 33.43772,0 c 18.19689,0 27.85239,10.13451 32.30877,21.98998 l 23.67082,62.25267 c 9.38068,1.23144 26.00299,12.45971 26.00299,33.72307 l 0,79.20981 -23.02464,0 0,25.29421 c 0,31.16075 -43.25662,30.79362 -43.25662,0 l 0,-25.29421 -77.78615,0 -0.0446,0 0.0446,0 z" /><g
         transform="matrix(0.74273039,0,0,0.76486879,65.48782,251.36888)"
         id="g3328"
         style="fill:#ffffff"><path
           inkscape:connector-curvature="0"
           id="path3330"
           style="fill:#ffffff"
           d="m 306.06,303.16 -0.06,0 -125.92,0 24,-62.98 c 3,-9 7.5,-15.5 18,-15.6 l 83.92,0 0.06,0 0.06,0 83.96,0 c 10.5,0.1 15,6.6 18,15.6 l 24,62.98 -125.96,0 -0.06,0 z" /><g
           id="g3332"
           style="fill:#ffffff"><g
             id="g3334"
             style="fill:#ffffff"><path
               inkscape:connector-curvature="0"
               id="path3336"
               style="fill:#ffffff"
               d="m 173.14,389.41 c -14.86,0 -26.9,-12.29 -26.9,-27.45 0,-15.16 12.04,-27.45 26.9,-27.45 14.86,0 26.9,12.29 26.9,27.45 0,15.16 -12.04,27.45 -26.9,27.45 z" /></g><g
             id="g3340"
             style="fill:#ffffff"><path
               inkscape:connector-curvature="0"
               id="path3342"
               style="fill:#ffffff"
               d="m 439.02,389.41 c 14.86,0 26.9,-12.29 26.9,-27.45 0,-15.16 -12.04,-27.45 -26.9,-27.45 -14.85,0 -26.9,12.29 -26.9,27.45 0,15.16 12.05,27.45 26.9,27.45 z" /></g></g></g></g></g></svg>