<?xml version="1.0" encoding="UTF-8" standalone="no"?>
<!-- Generator: Adobe Illustrator 16.0.0, SVG Export Plug-In . SVG Version: 6.00 Build 0)  -->

<svg
   xmlns:dc="http://purl.org/dc/elements/1.1/"
   xmlns:cc="http://creativecommons.org/ns#"
   xmlns:rdf="http://www.w3.org/1999/02/22-rdf-syntax-ns#"
   xmlns:svg="http://www.w3.org/2000/svg"
   xmlns="http://www.w3.org/2000/svg"
   xmlns:sodipodi="http://sodipodi.sourceforge.net/DTD/sodipodi-0.dtd"
   xmlns:inkscape="http://www.inkscape.org/namespaces/inkscape"
   version="1.1"
   id="svg2"
   inkscape:output_extension="org.inkscape.output.svg.inkscape"
   sodipodi:docname="JH_tourism_artwork.svg"
   inkscape:version="0.91 r13725"
   sodipodi:version="0.32"
   x="0px"
   y="0px"
   width="580px"
   height="580px"
   viewBox="0 0 580 580"
   enable-background="new 0 0 580 580"
   xml:space="preserve"
   inkscape:export-filename="F:\_GRAFIKA\2016_08_29_Symboly_turistika\JH_icons\JH_tourism_artwork.png"
   inkscape:export-xdpi="31"
   inkscape:export-ydpi="31"><metadata
     id="metadata17"><rdf:RDF><cc:Work
         rdf:about=""><dc:format>image/svg+xml</dc:format><dc:type
           rdf:resource="http://purl.org/dc/dcmitype/StillImage" /></cc:Work></rdf:RDF></metadata><sodipodi:namedview
     showgrid="false"
     inkscape:cy="252.57867"
     inkscape:cx="1011.6957"
     inkscape:zoom="0.65172414"
     pagecolor="#ffffff"
     bordercolor="#666666"
     guidetolerance="10.0"
     objecttolerance="10.0"
     gridtolerance="10.0"
     borderopacity="1.0"
     id="base"
     inkscape:current-layer="g4146"
     inkscape:window-y="-9"
     inkscape:window-x="-9"
     inkscape:pageopacity="0.0"
     inkscape:pageshadow="2"
     inkscape:window-width="2560"
     inkscape:window-height="1369"
     inkscape:window-maximized="1" /><defs
     id="defs4"><inkscape:perspective
       inkscape:vp_z="580 : 290 : 1"
       inkscape:vp_y="0 : 1000 : 0"
       inkscape:vp_x="0 : 290 : 1"
       sodipodi:type="inkscape:persp3d"
       id="perspective3653"
       inkscape:persp3d-origin="290 : 193.33333 : 1" /><inkscape:perspective
       inkscape:vp_z="355.02399 : 217.53 : 1"
       inkscape:vp_y="0 : 1000 : 0"
       inkscape:vp_x="0 : 217.53 : 1"
       sodipodi:type="inkscape:persp3d"
       id="perspective2512"
       inkscape:persp3d-origin="177.51199 : 145.02 : 1" /></defs><g
     id="g2121" /><g
     id="g4198"
     transform="translate(-2.8338787,-220.28663)"><g
       id="g4146"
       transform="matrix(25.459129,0,0,25.459129,-652.34788,685.74412)"><g
         id="g4167"><path
           sodipodi:nodetypes="ssssssssccsssssccccccss"
           style="fill:#ffffff;fill-opacity:1;stroke:none"
           d="m 37.125456,-17.667452 c -1.36879,0 -2.476798,1.225497 -2.476798,2.236098 0,1.0106 1.108008,2.236098 2.476798,2.236098 1.368788,0 2.476796,-1.225498 2.476797,-2.236098 0,-1.010601 -1.108009,-2.236098 -2.476797,-2.236098 z m -2.476798,4.759508 c -0.871301,0 -1.653888,0.591723 -1.653888,1.232346 0,1.233081 2.539433,5.5225681 2.56616,6.7355362 l 0,3.94471798 3.047517,0 0,-3.94471798 c 0,-1.1892544 2.647693,-5.5024552 2.647693,-6.7355362 0,-0.682367 -0.742982,-1.232346 -1.653887,-1.232346 z m -1.246232,12.16165905 c -1.376894,0 -1.37555,1.0552672 -1.37555,2.10950305 l -1.379585,0 -1.783204,2.5207705 16.522737,0 -1.94627,-2.6023018 -1.379585,0 c 0,-1.05423579 0.245894,-2.02797175 -1.130954,-2.02797175 z"
           id="path4165"
           inkscape:connector-curvature="0" /><path
           inkscape:connector-curvature="0"
           id="monument"
           d="m 37.081226,-17.269384 c -1.039019,0 -1.880084,0.810808 -1.880084,1.812719 0,1.001909 0.841065,1.812718 1.880084,1.812718 1.039018,0 1.880082,-0.810809 1.880083,-1.812718 0,-1.001911 -0.841065,-1.812719 -1.880083,-1.812719 z m -1.880084,4.718579 c -0.661385,0 -1.25543,0.586634 -1.25543,1.221748 0,1.222477 2.195471,4.9089739 2.195471,6.1118029 l 0,3.6683048 1.880084,0 0,-3.6683048 c 0,-1.1790274 2.195472,-4.8893259 2.195472,-6.1118029 0,-0.676499 -0.563982,-1.221748 -1.25543,-1.221748 l -3.760167,0 z m -1.25543,12.54205453 c -1.045171,0 -1.044151,1.04619237 -1.044151,2.09136217 l -1.047213,0 -1.044149,1.0441511 12.542053,0 -1.044151,-1.0441511 -1.047213,0 c 0,-1.0451698 10e-4,-2.09136217 -1.044149,-2.09136217 l -6.271027,0 z"
           style="fill:#734a08;fill-opacity:1;stroke:none" /></g></g></g></svg>