<?xml version="1.0" encoding="UTF-8" standalone="no"?>
<!-- Generator: Adobe Illustrator 16.0.0, SVG Export Plug-In . SVG Version: 6.00 Build 0)  -->

<svg
   xmlns:dc="http://purl.org/dc/elements/1.1/"
   xmlns:cc="http://creativecommons.org/ns#"
   xmlns:rdf="http://www.w3.org/1999/02/22-rdf-syntax-ns#"
   xmlns:svg="http://www.w3.org/2000/svg"
   xmlns="http://www.w3.org/2000/svg"
   xmlns:sodipodi="http://sodipodi.sourceforge.net/DTD/sodipodi-0.dtd"
   xmlns:inkscape="http://www.inkscape.org/namespaces/inkscape"
   version="1.1"
   id="svg2"
   inkscape:output_extension="org.inkscape.output.svg.inkscape"
   sodipodi:docname="JH_tourism_picnic.svg"
   inkscape:version="0.91 r13725"
   sodipodi:version="0.32"
   x="0px"
   y="0px"
   width="580px"
   height="580px"
   viewBox="0 0 580 580"
   enable-background="new 0 0 580 580"
   xml:space="preserve"
   inkscape:export-filename="/media/juhele/KONZERVA/__PRACE/JH_icons/JH_tourism_picnic.png"
   inkscape:export-xdpi="31"
   inkscape:export-ydpi="31"><metadata
     id="metadata17"><rdf:RDF><cc:Work
         rdf:about=""><dc:format>image/svg+xml</dc:format><dc:type
           rdf:resource="http://purl.org/dc/dcmitype/StillImage" /></cc:Work></rdf:RDF></metadata><sodipodi:namedview
     showgrid="false"
     inkscape:cy="354.14357"
     inkscape:cx="-205.77007"
     inkscape:zoom="0.65172414"
     pagecolor="#ffffff"
     bordercolor="#666666"
     guidetolerance="10.0"
     objecttolerance="10.0"
     gridtolerance="10.0"
     borderopacity="1.0"
     id="base"
     inkscape:current-layer="g4198"
     inkscape:window-y="0"
     inkscape:window-x="0"
     inkscape:pageopacity="0.0"
     inkscape:pageshadow="2"
     inkscape:window-width="1920"
     inkscape:window-height="1125"
     inkscape:window-maximized="1" /><defs
     id="defs4"><inkscape:perspective
       inkscape:vp_z="580 : 290 : 1"
       inkscape:vp_y="0 : 1000 : 0"
       inkscape:vp_x="0 : 290 : 1"
       sodipodi:type="inkscape:persp3d"
       id="perspective3653"
       inkscape:persp3d-origin="290 : 193.33333 : 1" /><inkscape:perspective
       inkscape:vp_z="355.02399 : 217.53 : 1"
       inkscape:vp_y="0 : 1000 : 0"
       inkscape:vp_x="0 : 217.53 : 1"
       sodipodi:type="inkscape:persp3d"
       id="perspective2512"
       inkscape:persp3d-origin="177.51199 : 145.02 : 1" /></defs><g
     id="g2121" /><g
     id="g4198"
     transform="translate(-2.8338787,-220.28663)"><g
       id="g7497"
       transform="matrix(1.0738143,0,0,1.0738143,-21.615327,-37.66645)"><path
         sodipodi:nodetypes="sssccsssccccccccsssccssssccccccc"
         inkscape:connector-curvature="0"
         id="path7491"
         d="m 152.662,320.34913 c -28.8003,0 -49.6914,19.30643 -49.6914,41.24023 0,21.9338 20.8911,41.24024 49.6914,41.24024 l 19.90821,0 -22.90039,92.45703 -66.984374,0 c -28.80031,0 -49.69141,19.30643 -49.69141,41.24023 0,21.9338 20.8911,41.24024 49.69141,41.24024 l 46.388664,0 -30.611324,122.45703 83.402344,0 30.61523,-122.45703 160.26367,0 30.61329,122.45703 83.40234,0 -30.61133,-122.45703 46.38867,0 c 29.02649,0 50.13753,-19.19307 50.13672,-41.24024 -8.1e-4,-22.04717 -21.1117,-41.24023 -50.13672,-41.24023 l -66.90429,0 -22.25391,-92.45703 19.18359,0 c 29.02648,0 50.13753,-19.19307 50.13672,-41.24024 -8.1e-4,-22.04717 -21.1117,-41.24023 -50.13672,-41.24023 z m 0,52.48047 c 448.2487,353.54297 224.12435,176.77148 0,0 z m 103.29883,30 74.07813,0 22.25586,92.45703 -119.23438,0 z"
         style="color:#000000;font-style:normal;font-variant:normal;font-weight:normal;font-stretch:normal;font-size:medium;line-height:normal;font-family:sans-serif;text-indent:0;text-align:start;text-decoration:none;text-decoration-line:none;text-decoration-style:solid;text-decoration-color:#000000;letter-spacing:normal;word-spacing:normal;text-transform:none;direction:ltr;block-progression:tb;writing-mode:lr-tb;baseline-shift:baseline;text-anchor:start;white-space:normal;clip-rule:nonzero;display:inline;overflow:visible;visibility:visible;opacity:1;isolation:auto;mix-blend-mode:normal;color-interpolation:sRGB;color-interpolation-filters:linearRGB;solid-color:#000000;solid-opacity:1;fill:#ffffff;fill-opacity:1;fill-rule:nonzero;stroke:none;stroke-width:30;stroke-linecap:butt;stroke-linejoin:miter;stroke-miterlimit:4;stroke-dasharray:none;stroke-dashoffset:0;stroke-opacity:1;color-rendering:auto;image-rendering:auto;shape-rendering:auto;text-rendering:auto;enable-background:accumulate" /><path
         inkscape:connector-curvature="0"
         id="path7482"
         d="m 152.6596,335.34816 c -46.25463,0 -46.25463,52.48241 0,52.48241 l 39.08007,0 -30.33203,122.45703 -78.722657,0 c -46.254625,0 -46.254625,52.48047 0,52.48047 l 65.601567,0 -30.61328,122.45703 52.48047,0 30.61328,-122.45703 183.68554,0 30.61329,122.45703 52.48242,0 -30.61524,-122.45703 65.60352,0 c 46.85152,0 46.84767,-52.48047 0,-52.48047 l -78.72266,0 -29.47656,-122.45703 38.22266,0 c 46.85151,0 46.84766,-52.48242 0,-52.48242 l -279.90039,0 z m 91.56054,52.48241 97.63672,0 29.47461,122.45703 -157.44336,0 30.33203,-122.45703 z"
         style="fill:#734a08;fill-opacity:1;stroke:none" /></g></g></svg>