<?xml version="1.0" encoding="UTF-8" standalone="no"?>
<!-- Generator: Adobe Illustrator 16.0.0, SVG Export Plug-In . SVG Version: 6.00 Build 0)  -->

<svg
   xmlns:dc="http://purl.org/dc/elements/1.1/"
   xmlns:cc="http://creativecommons.org/ns#"
   xmlns:rdf="http://www.w3.org/1999/02/22-rdf-syntax-ns#"
   xmlns:svg="http://www.w3.org/2000/svg"
   xmlns="http://www.w3.org/2000/svg"
   xmlns:sodipodi="http://sodipodi.sourceforge.net/DTD/sodipodi-0.dtd"
   xmlns:inkscape="http://www.inkscape.org/namespaces/inkscape"
   version="1.1"
   id="svg2"
   inkscape:output_extension="org.inkscape.output.svg.inkscape"
   sodipodi:docname="JH_tourism_viewpoint.svg"
   inkscape:version="0.91 r13725"
   sodipodi:version="0.32"
   x="0px"
   y="0px"
   width="580px"
   height="580px"
   viewBox="0 0 580 580"
   enable-background="new 0 0 580 580"
   xml:space="preserve"
   inkscape:export-filename="/media/juhele/KONZERVA/__PRACE/JH_icons/tourism_viewpoint.png"
   inkscape:export-xdpi="31"
   inkscape:export-ydpi="31"><metadata
     id="metadata17"><rdf:RDF><cc:Work
         rdf:about=""><dc:format>image/svg+xml</dc:format><dc:type
           rdf:resource="http://purl.org/dc/dcmitype/StillImage" /></cc:Work></rdf:RDF></metadata><sodipodi:namedview
     showgrid="false"
     inkscape:cy="267.72079"
     inkscape:cx="464.08068"
     inkscape:zoom="0.65172414"
     pagecolor="#ffffff"
     bordercolor="#666666"
     guidetolerance="10.0"
     objecttolerance="10.0"
     gridtolerance="10.0"
     borderopacity="1.0"
     id="base"
     inkscape:current-layer="g7472"
     inkscape:window-y="0"
     inkscape:window-x="0"
     inkscape:pageopacity="0.0"
     inkscape:pageshadow="2"
     inkscape:window-width="1920"
     inkscape:window-height="1125"
     inkscape:window-maximized="1"
     showguides="true"
     inkscape:guide-bbox="true" /><defs
     id="defs4"><inkscape:perspective
       inkscape:vp_z="580 : 290 : 1"
       inkscape:vp_y="0 : 1000 : 0"
       inkscape:vp_x="0 : 290 : 1"
       sodipodi:type="inkscape:persp3d"
       id="perspective3653"
       inkscape:persp3d-origin="290 : 193.33333 : 1" /><inkscape:perspective
       inkscape:vp_z="355.02399 : 217.53 : 1"
       inkscape:vp_y="0 : 1000 : 0"
       inkscape:vp_x="0 : 217.53 : 1"
       sodipodi:type="inkscape:persp3d"
       id="perspective2512"
       inkscape:persp3d-origin="177.51199 : 145.02 : 1" /></defs><g
     id="g2121" /><g
     id="g4198"
     transform="translate(-2.8338787,-220.28663)"><g
       id="g7472"
       transform="matrix(26.429187,0,0,26.429187,31.863981,278.81527)"><g
         id="g7540"
         transform="matrix(1.4004045,0,0,1.4004045,-4.1603182,-3.6289859)"><path
           inkscape:transform-center-y="-100.88624"
           inkscape:transform-center-x="-65.21164"
           sodipodi:nodetypes="sccccccccs"
           inkscape:connector-curvature="0"
           d="M 12.594424,2.0023757 C 12.219326,2.0597427 11.882669,2.3106305 11.664347,2.6224272 11.150055,3.3175085 11.017476,4.177738 10.773024,4.9863719 10.498664,6.030614 10.378357,6.7179815 10.220608,7.7867679 10.195058,8.094508 10.42851,8.1612541 10.7244,7.8642739 11.747703,6.9113145 12.610227,6.2819578 13.602008,5.2963972 13.842985,5.0403324 14.084652,4.7876838 14.260813,4.4825813 14.535049,4.0241835 14.663869,3.418335 14.377072,2.9324528 14.080983,2.44132 13.538854,2.1075016 12.981957,2.0023757 c -0.128646,-0.024504 -0.262501,-0.019122 -0.387533,0 z"
           id="viewpoint-6"
           style="fill:#ffffff;fill-opacity:1" /><path
           style="fill:#ffffff;fill-opacity:1"
           id="path7512"
           d="M 17.156662,7.6419547 C 16.915301,7.3491499 16.527406,7.1884644 16.147793,7.1606115 c -0.860392,-0.085791 -1.66716,0.2408531 -2.486901,0.4449848 -1.037428,0.2990969 -1.689436,0.5477602 -2.688229,0.9595866 -0.277411,0.1356469 -0.215191,0.3703458 0.191418,0.4724116 1.342553,0.3909368 2.32482,0.8094917 3.679233,1.1566585 0.343345,0.07585 0.684109,0.154046 1.036381,0.149114 0.534166,8.05e-4 1.120515,-0.1988 1.390985,-0.6939569 0.270221,-0.5058264 0.279325,-1.1424234 0.08444,-1.6745924 -0.04483,-0.1230461 -0.118001,-0.2352618 -0.198454,-0.332863 z"
           inkscape:connector-curvature="0"
           sodipodi:nodetypes="sccccccccs"
           inkscape:transform-center-x="-111.91725"
           inkscape:transform-center-y="-2.4547232" /><path
           inkscape:transform-center-y="100.43528"
           inkscape:transform-center-x="-65.518035"
           sodipodi:nodetypes="sccccccccs"
           inkscape:connector-curvature="0"
           d="m 14.393936,14.654374 c 0.143711,-0.351194 0.10168,-0.768945 -0.05344,-1.116535 -0.331618,-0.798539 -1.00118,-1.354648 -1.568959,-1.980166 -0.754459,-0.772339 -1.282084,-1.229022 -2.117564,-1.9139755 -0.250783,-0.18018 -0.428088,-0.014291 -0.325566,0.3922005 0.290999,1.367698 0.387159,2.431084 0.722329,3.788515 0.09568,0.338357 0.188063,0.67555 0.359126,0.98354 0.252093,0.470938 0.705427,0.892998 1.269625,0.896921 0.573479,-0.0014 1.138579,-0.294606 1.515144,-0.718142 0.08718,-0.09773 0.151402,-0.21529 0.199304,-0.332354 z"
           id="path7514"
           style="fill:#ffffff;fill-opacity:1" /><path
           style="fill:#ffffff;fill-opacity:1"
           id="path7516"
           d="M 7.2845351,15.487596 C 7.658907,15.425662 7.9924788,15.170689 8.2069856,14.856255 8.7127701,14.154959 8.8348577,13.293179 9.0694378,12.481625 9.3310532,11.434117 9.4429754,10.745336 9.5876889,9.6747072 9.6094872,9.3666784 9.375236,9.3027834 9.082989,9.6033459 8.0713743,10.568701 7.2165839,11.208522 6.2368862,12.206095 c -0.2378353,0.258986 -0.4764094,0.514557 -0.6488399,0.821784 -0.2686294,0.461706 -0.3900581,1.069078 -0.097362,1.551429 0.3020973,0.487461 0.8482086,0.814677 1.4063432,0.91301 0.1289394,0.02294 0.2627117,0.01595 0.3875029,-0.0047 z"
           inkscape:connector-curvature="0"
           sodipodi:nodetypes="sccccccccs"
           inkscape:transform-center-x="12.750182"
           inkscape:transform-center-y="5.8946971" /><path
           style="fill:#ffffff;fill-opacity:1"
           id="path7518"
           d="m 7.1704323,2.0604324 c 0.375098,0.057367 0.711755,0.3082548 0.930077,0.6200515 0.514292,0.6950813 0.646871,1.5553108 0.891323,2.3639447 0.27436,1.0442421 0.394667,1.7316096 0.552416,2.800396 0.02555,0.3077401 -0.207902,0.3744862 -0.503792,0.077506 C 8.0171533,6.9693712 7.1546293,6.3400145 6.1628483,5.3544539 5.9218713,5.0983891 5.6802043,4.8457405 5.5040433,4.540638 5.2298073,4.0822402 5.1009873,3.4763917 5.3877843,2.9905095 c 0.296089,-0.4911328 0.838218,-0.8249512 1.395115,-0.9300771 0.128646,-0.024504 0.262501,-0.019122 0.387533,0 z"
           inkscape:connector-curvature="0"
           sodipodi:nodetypes="sccccccccs"
           inkscape:transform-center-x="65.211647"
           inkscape:transform-center-y="-100.88624" /><path
           inkscape:transform-center-y="-2.4547232"
           inkscape:transform-center-x="111.91726"
           sodipodi:nodetypes="sccccccccs"
           inkscape:connector-curvature="0"
           d="M 2.8870104,7.6419547 C 3.1283711,7.3491499 3.5162656,7.1884644 3.8958781,7.1606115 4.756269,7.0748205 5.5630359,7.4014646 6.3827758,7.6055963 7.4202025,7.9046932 8.0722096,8.1533565 9.0710013,8.5651829 9.3484119,8.7008298 9.286192,8.9355287 8.8795835,9.0375945 7.5370323,9.4285313 6.5547666,9.8470862 5.2003554,10.194253 4.8570108,10.270103 4.5162473,10.348299 4.1639758,10.343367 3.6298105,10.344172 3.0434622,10.144567 2.7729926,9.6494101 2.502772,9.1435837 2.493668,8.5069867 2.6885527,7.9748177 2.7333827,7.8517716 2.8065536,7.7395559 2.8870064,7.6419547 Z"
           id="path7538"
           style="fill:#ffffff;fill-opacity:1" /><path
           inkscape:connector-curvature="0"
           d="m 12.530558,2.4127853 c -0.302473,0.046264 -0.573949,0.2485719 -0.75,0.5 -0.414717,0.5605033 -0.521627,1.2541787 -0.71875,1.9062496 -0.22124,0.842061 -0.435294,1.700648 -0.5625,2.562501 -0.0206,0.248157 0.167649,0.30198 0.40625,0.0625 0.825176,-0.768452 1.637743,-1.58026 2.4375,-2.375001 0.19432,-0.206487 0.389197,-0.410219 0.53125,-0.6562495 0.22114,-0.3696454 0.325018,-0.8581921 0.09375,-1.25 -0.238762,-0.3960416 -0.675926,-0.6652283 -1.125,-0.75 -0.103738,-0.019757 -0.211676,-0.015421 -0.3125,0 z m -5.4374999,0.0625 c -0.462374,0.00819 -0.920373,0.2475902 -1.2187498,0.59375 -0.276304,0.3195061 -0.266251,0.7851336 -0.09375,1.15625 0.2772678,0.6397466 0.8157078,1.0964296 1.2812498,1.5937496 0.617874,0.613389 1.255378,1.208076 1.9375,1.75 0.204437,0.142171 0.3377,0.01397 0.25,-0.312499 -0.251561,-1.099157 -0.525448,-2.190919 -0.8125,-3.2812506 -0.08133,-0.2716293 -0.170762,-0.5662886 -0.3125,-0.8125 -0.209092,-0.3765921 -0.576295,-0.6913221 -1.03125,-0.6875 z m -3.21875,4.9999996 c -0.327141,0.05714 -0.644189,0.234419 -0.8125,0.53125 -0.22435,0.404382 -0.244076,0.912176 -0.09375,1.34375 0.138299,0.399129 0.561126,0.6510811 0.96875,0.6875001 0.692624,0.08018 1.3364392,-0.1896541 2.0000002,-0.3437501 0.8402878,-0.227876 1.6894188,-0.461984 2.4999998,-0.78125 0.225408,-0.105823 0.170289,-0.318754 -0.15625,-0.40625 -1.077472,-0.332393 -2.162405,-0.640248 -3.2499998,-0.9375 -0.2758612,-0.06556 -0.5596562,-0.09322 -0.8437502,-0.09375 -0.10767,-0.0019 -0.203453,-0.01905 -0.3125,0 z m 11.6874999,0 c -0.284095,5.34e-4 -0.567889,0.02819 -0.84375,0.09375 -1.087595,0.297252 -2.17253,0.605107 -3.25,0.9375 -0.326539,0.0875 -0.38166,0.30043 -0.15625,0.40625 0.810581,0.319266 1.659711,0.553373 2.5,0.78125 0.663559,0.154096 1.307371,0.4239361 2,0.3437501 0.407624,-0.03642 0.830451,-0.2883721 0.96875,-0.6875001 0.150318,-0.431574 0.130602,-0.939368 -0.09375,-1.34375 -0.224413,-0.395775 -0.694321,-0.53871 -1.125,-0.53125 z m -6.4062499,2.40625 c -0.04018,0.0022 -0.105141,0.02696 -0.15625,0.0625 -0.682122,0.5419281 -1.319626,1.1678651 -1.9375,1.7812511 -0.465542,0.497321 -1.003982,0.922751 -1.2812498,1.562501 -0.172501,0.371115 -0.182554,0.836743 0.09375,1.15625 0.2983768,0.34616 0.7563758,0.61677 1.2187498,0.625 0.454955,0.0038 0.822158,-0.34216 1.03125,-0.71875 0.141738,-0.246213 0.23117,-0.50962 0.3125,-0.78125 0.287052,-1.090332 0.560939,-2.213344 0.8125,-3.312501 0.06577,-0.244853 0.02679,-0.3816651 -0.09375,-0.3750011 z m 1.4687499,0.0625 c -0.07359,0.0137 -0.1353,0.09467 -0.125,0.2187511 0.127206,0.861854 0.34126,1.689188 0.5625,2.531251 0.197123,0.652071 0.304036,1.376995 0.71875,1.9375 0.234734,0.335235 0.647549,0.54778 1.0625,0.46875 0.449074,-0.08477 0.886238,-0.35396 1.125,-0.75 0.231272,-0.391809 0.12739,-0.880357 -0.09375,-1.25 -0.142053,-0.246031 -0.33693,-0.449766 -0.53125,-0.656251 -0.799757,-0.794743 -1.612324,-1.575302 -2.4375,-2.343751 -0.119301,-0.1197398 -0.207659,-0.1699491 -0.28125,-0.1562501 z"
           id="viewpoint"
           style="fill:#734a08;fill-opacity:1" /></g></g></g></svg>