<?xml version="1.0" encoding="UTF-8" standalone="no"?>
<!-- Generator: Adobe Illustrator 16.0.0, SVG Export Plug-In . SVG Version: 6.00 Build 0)  -->

<svg
   xmlns:dc="http://purl.org/dc/elements/1.1/"
   xmlns:cc="http://creativecommons.org/ns#"
   xmlns:rdf="http://www.w3.org/1999/02/22-rdf-syntax-ns#"
   xmlns:svg="http://www.w3.org/2000/svg"
   xmlns="http://www.w3.org/2000/svg"
   xmlns:sodipodi="http://sodipodi.sourceforge.net/DTD/sodipodi-0.dtd"
   xmlns:inkscape="http://www.inkscape.org/namespaces/inkscape"
   version="1.1"
   id="svg2"
   inkscape:output_extension="org.inkscape.output.svg.inkscape"
   sodipodi:docname="JH_transport_tram.svg"
   inkscape:version="0.91 r13725"
   sodipodi:version="0.32"
   x="0px"
   y="0px"
   width="580px"
   height="580px"
   viewBox="0 0 580 580"
   enable-background="new 0 0 580 580"
   xml:space="preserve"
   inkscape:export-filename="F:\_GRAFIKA\2016_08_29_Symboly_turistika\JH_icons\JH_transport_tram.png"
   inkscape:export-xdpi="31"
   inkscape:export-ydpi="31"><metadata
     id="metadata17"><rdf:RDF><cc:Work
         rdf:about=""><dc:format>image/svg+xml</dc:format><dc:type
           rdf:resource="http://purl.org/dc/dcmitype/StillImage" /></cc:Work></rdf:RDF></metadata><sodipodi:namedview
     showgrid="false"
     inkscape:cy="-7.4292299"
     inkscape:cx="-1071.151"
     inkscape:zoom="0.32586207"
     pagecolor="#ffffff"
     bordercolor="#666666"
     guidetolerance="10.0"
     objecttolerance="10.0"
     gridtolerance="10.0"
     borderopacity="1.0"
     id="base"
     inkscape:current-layer="g4198"
     inkscape:window-y="-9"
     inkscape:window-x="-9"
     inkscape:pageopacity="0.0"
     inkscape:pageshadow="2"
     inkscape:window-width="2560"
     inkscape:window-height="1369"
     inkscape:window-maximized="1" /><defs
     id="defs4"><inkscape:perspective
       inkscape:vp_z="580 : 290 : 1"
       inkscape:vp_y="0 : 1000 : 0"
       inkscape:vp_x="0 : 290 : 1"
       sodipodi:type="inkscape:persp3d"
       id="perspective3653"
       inkscape:persp3d-origin="290 : 193.33333 : 1" /><inkscape:perspective
       inkscape:vp_z="355.02399 : 217.53 : 1"
       inkscape:vp_y="0 : 1000 : 0"
       inkscape:vp_x="0 : 217.53 : 1"
       sodipodi:type="inkscape:persp3d"
       id="perspective2512"
       inkscape:persp3d-origin="177.51199 : 145.02 : 1" /></defs><g
     id="g2121" /><g
     id="g4198"
     transform="translate(-2.8338787,-220.28663)"><g
       id="g4211"
       transform="translate(-4.5022878,0)"><path
         sodipodi:nodetypes="ssccccccscsccsccscccsccsccsccsccccccsccscscccccsscc"
         inkscape:connector-curvature="0"
         id="path4206"
         d="m 289.01519,331.16308 c -3.4517,0 -6.23251,2.9337 -6.23251,6.29905 l 0,2.23729 0,10.971 -47.32975,35.26169 -0.13324,0 0.13324,0.0604 36.36983,26.05512 -23.28757,0 c -6.87284,0 -12.71802,4.18718 -15.24316,10.17757 l -187.642974,0 c -6.884044,0 -12.393388,7.57789 -12.393388,14.54777 0,0 -7.944845,41.00397 -8.237069,41.70508 -4.311055,10.36203 -6.679946,21.77598 -6.679946,33.75675 l 0,71.20474 25.425146,0 c 0.644521,0.10311 1.207238,0.4531 1.881286,0.4531 l 19.389537,0 0,8.80618 27.053867,0 c 0.295279,10.37235 10.623751,18.71393 20.938101,18.71393 10.31436,0 22.65501,-8.34158 22.9401,-18.71393 l 21.11353,0 c 0.2851,10.37235 10.56433,18.71393 20.86851,18.71393 10.31436,0 20.65301,-8.34158 20.9381,-18.71393 l 194.11713,0 c 0.29527,10.37235 12.56409,18.71393 22.87844,18.71393 10.31436,0 20.65302,-8.34158 20.93812,-18.71393 l 20.59646,0 c 0.29528,10.37235 10.56211,18.71393 20.87646,18.71393 10.31436,0 22.71465,-8.34158 22.99975,-18.71393 l 28.53941,0 0,-8.80618 18.3594,-0.0604 c 0.6822,0 1.2831,-0.28958 1.94493,-0.39268 l 26.19675,0 0,-71.20474 c 0,-11.98077 -2.43262,-23.39472 -6.73961,-33.75675 l -8.951,-41.70508 c 0,-6.96988 -5.57823,-14.54777 -12.45107,-14.54777 l -187.06426,0 c -2.52514,-6.01101 -8.42998,-10.17757 -15.30282,-10.17757 l -24.27394,0 38.37777,-26.05512 0,-0.0604 -49.92038,-35.65438 0,-12.8156 c 0,-3.48494 -2.77881,-6.29905 -6.23051,-6.29905 z m 7.57821,20.2907 c 54.14751,103.5881 27.07376,51.79405 0,0 z"
         style="fill:#f9f9f9;fill-rule:evenodd;stroke-width:3pt" /><path
         sodipodi:nodetypes="sccccccscsccsccscccsccsccsccsccccccsccscscccccssccccccsssssscccssssssssssssssssssssssssssssssssssssssssssssssssssssssssssssssssssscsccsssss"
         inkscape:connector-curvature="0"
         id="path635"
         style="fill:#0075bd;fill-opacity:1;fill-rule:evenodd;stroke-width:3pt"
         d="m 291.20963,336.06746 c -3.39,0 -6.12,2.73 -6.12,6.11 l 0,12.81 -44.52,30.32 -0.13,0 0.13,0.06 45.54,31.09 -36.62,0 c -6.75,0 -12.49,4.06 -14.97,9.87 l -184.289993,0 c -6.761,0 -12.171,5.41 -12.171,12.17 0,0 -7.803,39.77 -8.09,40.45 -4.234,10.05 -6.561,21.12 -6.561,32.74 l 0,69.06 24.971,0 c 0.633,0.1 1.185,0.44 1.847,0.44 l 19.044,0 0,8.54 26.57,0 c 0.29,10.06 8.469993,18.15 18.599993,18.15 10.13,0 18.32,-8.09 18.6,-18.15 l 26.63,0 c 0.28,10.06 8.41,18.15 18.53,18.15 10.13,0 18.32,-8.09 18.6,-18.15 l 200.47,0 c 0.29,10.06 8.41,18.15 18.54,18.15 10.13,0 18.32,-8.09 18.6,-18.15 l 26.12,0 c 0.29,10.06 8.41,18.15 18.54,18.15 10.13,0 18.38,-8.09 18.66,-18.15 l 28.03,0 0,-8.54 18.03,-0.06 c 0.67,0 1.26,-0.28 1.91,-0.38 l 25.73,0 0,-69.06 c 0,-11.62 -2.39,-22.69 -6.62,-32.74 l -8.79,-40.45 c 0,-6.76 -5.48,-12.17 -12.23,-12.17 l -183.72,0 c -2.48,-5.83 -8.28,-9.87 -15.03,-9.87 l -37.59,0 45.55,-31.09 0,-0.06 -45.1,-30.7 0,-12.43 c 0,-3.38 -2.73,-6.11 -6.12,-6.11 z m 5.48,19.68 0.32,0 43.31,29.62 -43.5,29.69 -43.58,-29.69 z m -239.389993,93.33 14.843,0 c 4.52,0 8.15,3.63 8.15,8.15 l 0,33.57 c 0,4.52 -3.63,8.15 -8.15,8.15 l -22.551,0 c -4.517,0 -8.154,-3.63 -8.154,-8.15 0,0 7.934,-35.78 8.345,-36.76 0.412,-0.97 0.983,-1.87 1.72,-2.61 0.737,-0.73 1.636,-1.31 2.612,-1.72 0.976,-0.41 2.056,-0.63 3.185,-0.63 z m 47.962993,0 19.31,0 c 4.51,0 8.15,3.63 8.15,8.15 l 0,105.43 c 0,4.51 -3.64,8.15 -8.15,8.15 l -19.31,0 c -4.50999,0 -8.149993,-3.64 -8.149993,-8.15 l 0,-105.43 c 0,-4.52 3.640003,-8.15 8.149993,-8.15 z m 45.49,0 19.3,0 c 4.52,0 8.15,3.63 8.15,8.15 l 0,105.43 c 0,4.51 -3.63,8.15 -8.15,8.15 l -19.3,0 c -4.52,0 -8.16,-3.64 -8.16,-8.15 l 0,-105.43 c 0,-4.52 3.64,-8.15 8.16,-8.15 z m 49.88,0 43.5,0 c 4.52,0 8.16,3.63 8.16,8.15 l 0,33.57 c 0,4.52 -3.64,8.15 -8.16,8.15 l -43.5,0 c -4.52,0 -8.16,-3.63 -8.16,-8.15 l 0,-33.57 c 0,-4.52 3.64,-8.15 8.16,-8.15 z m 74.46,0 43.51,0 c 4.52,0 8.16,3.63 8.16,8.15 l 0,33.57 c 0,4.52 -3.64,8.15 -8.16,8.15 l -43.51,0 c -4.51,0 -8.15,-3.63 -8.15,-8.15 l 0,-33.57 c 0,-4.52 3.64,-8.15 8.15,-8.15 z m 73.39,0 43.51,0 c 4.51,0 8.15,3.63 8.15,8.15 l 0,33.57 c 0,4.52 -3.64,8.15 -8.15,8.15 l -43.51,0 c -4.52,0 -8.16,-3.63 -8.16,-8.15 l 0,-33.57 c 0,-4.52 3.64,-8.15 8.16,-8.15 z m 75.55,0 19.3,0 c 4.52,0 8.15,3.63 8.15,8.15 l 0,105.43 c 0,4.51 -3.63,8.15 -8.15,8.15 l -19.3,0 c -4.52,0 -8.16,-3.64 -8.16,-8.15 l 0,-105.43 c 0,-4.52 3.64,-8.15 8.16,-8.15 z m 45.48,0 19.3,0 c 4.52,0 8.16,3.63 8.16,8.15 l 0,105.43 c 0,4.51 -3.64,8.15 -8.16,8.15 l -19.3,0 c -4.52,0 -8.15,-3.64 -8.15,-8.15 l 0,-105.43 c 0,-4.52 3.63,-8.15 8.15,-8.15 z m 51.34,0 14.91,0 c 1.13,0 2.21,0.22 3.19,0.63 0.97,0.41 1.81,0.99 2.54,1.72 0.74,0.74 1.38,1.64 1.79,2.61 0.41,0.98 8.34,36.76 8.34,36.76 0,4.52 -3.63,8.15 -8.15,8.15 l -22.62,0 c -4.51,0 -8.15,-3.63 -8.15,-8.15 l 0,-33.57 c 0,-4.52 3.64,-8.15 8.15,-8.15 z" /></g></g></svg>