<?xml version="1.0" encoding="UTF-8" standalone="no"?>
<!-- Generator: Adobe Illustrator 16.0.0, SVG Export Plug-In . SVG Version: 6.00 Build 0)  -->

<svg
   xmlns:dc="http://purl.org/dc/elements/1.1/"
   xmlns:cc="http://creativecommons.org/ns#"
   xmlns:rdf="http://www.w3.org/1999/02/22-rdf-syntax-ns#"
   xmlns:svg="http://www.w3.org/2000/svg"
   xmlns="http://www.w3.org/2000/svg"
   xmlns:sodipodi="http://sodipodi.sourceforge.net/DTD/sodipodi-0.dtd"
   xmlns:inkscape="http://www.inkscape.org/namespaces/inkscape"
   version="1.1"
   id="svg2"
   inkscape:output_extension="org.inkscape.output.svg.inkscape"
   sodipodi:docname="JH_transport_aerialway.svg"
   inkscape:version="0.91 r13725"
   sodipodi:version="0.32"
   x="0px"
   y="0px"
   width="580px"
   height="580px"
   viewBox="0 0 580 580"
   enable-background="new 0 0 580 580"
   xml:space="preserve"
   inkscape:export-filename="F:\_GRAFIKA\2016_08_29_Symboly_turistika\JH_icons\JH_transport_aerialway.png"
   inkscape:export-xdpi="31"
   inkscape:export-ydpi="31"><metadata
     id="metadata17"><rdf:RDF><cc:Work
         rdf:about=""><dc:format>image/svg+xml</dc:format><dc:type
           rdf:resource="http://purl.org/dc/dcmitype/StillImage" /></cc:Work></rdf:RDF></metadata><sodipodi:namedview
     showgrid="false"
     inkscape:cy="70.463334"
     inkscape:cx="146.71847"
     inkscape:zoom="0.92167712"
     pagecolor="#ffffff"
     bordercolor="#666666"
     guidetolerance="10.0"
     objecttolerance="10.0"
     gridtolerance="10.0"
     borderopacity="1.0"
     id="base"
     inkscape:current-layer="g4198"
     inkscape:window-y="-9"
     inkscape:window-x="-9"
     inkscape:pageopacity="0.0"
     inkscape:pageshadow="2"
     inkscape:window-width="2560"
     inkscape:window-height="1369"
     inkscape:window-maximized="1" /><defs
     id="defs4"><inkscape:perspective
       inkscape:vp_z="580 : 290 : 1"
       inkscape:vp_y="0 : 1000 : 0"
       inkscape:vp_x="0 : 290 : 1"
       sodipodi:type="inkscape:persp3d"
       id="perspective3653"
       inkscape:persp3d-origin="290 : 193.33333 : 1" /><inkscape:perspective
       inkscape:vp_z="355.02399 : 217.53 : 1"
       inkscape:vp_y="0 : 1000 : 0"
       inkscape:vp_x="0 : 217.53 : 1"
       sodipodi:type="inkscape:persp3d"
       id="perspective2512"
       inkscape:persp3d-origin="177.51199 : 145.02 : 1" /></defs><g
     id="g2121" /><g
     id="g4198"
     transform="translate(-2.8338787,-220.28663)"><g
       id="g4183"
       transform="matrix(2.8515944,0,0,2.8515944,-29.094758,-1953.6467)"><path
         sodipodi:nodetypes="ccccccsscsccccsssssssscc"
         inkscape:connector-curvature="0"
         id="polygon4165"
         d="M 211.04422,775.69677 15.015543,850.11197 14.744298,863.45624 210.77298,789.5715 Z m -83.99332,4.93734 c -1.86114,0.056 -28.999707,9.61576 -30.756831,10.46254 -3.981714,1.91885 -7.142454,5.87889 -6.971834,11.93 0.257404,9.12896 9.477442,14.97518 15.806575,13.39245 1.64808,-0.49211 28.76597,-10.46283 29.9665,-11.26516 10.22869,-6.83595 3.89223,-24.53979 -8.04441,-24.51983 z m -3.6906,42.66245 -12.73251,5.36774 0,33.37307 -48.017079,0 c -3.758061,0 -6.817189,3.02521 -6.817189,6.74171 l 0,76.87764 c 0,3.7165 3.059128,6.75576 6.817189,6.75576 l 106.238569,0 c 3.75806,0 6.83142,-3.03926 6.83142,-6.75576 l 0,-76.87965 c 0,-3.71455 -3.07525,-6.74172 -6.83142,-6.74172 l -45.58488,0 z"
         style="fill:#ffffff;fill-opacity:1" /><g
         style="fill:#0075bd;fill-opacity:1"
         inkscape:export-ydpi="115.78411"
         inkscape:export-xdpi="115.78411"
         transform="translate(400.49694,1030.4659)"
         id="g3349"><g
           style="fill:#0075bd;fill-opacity:1"
           transform="matrix(1.829873,0,0,1.829873,-396.56573,-274.23898)"
           id="g3677"><polygon
             style="fill:#0075bd;fill-opacity:1"
             id="polygon3355"
             points="8.281,56.105 111.406,17.09 111.406,13.605 8.281,52.613 " /><path
             style="fill:#0075bd;fill-opacity:1"
             id="path3357"
             d="m 53.523,30.91 c 3.078,0 5.594,-2.516 5.594,-5.617 0,-3.094 -2.516,-5.586 -5.594,-5.586 -3.102,0 -5.617,2.492 -5.617,5.586 0,3.102 2.516,5.617 5.617,5.617 z"
             inkscape:connector-curvature="0" /><path
             style="fill:#0075bd;fill-opacity:1"
             id="path3359"
             d="m 88.258,59.988 -24.992,0 0,-20.265 -3.492,1.391 0,18.875 -25.219,0 c -1.977,0 -3.586,1.609 -3.586,3.586 l 0,37.617 c 0,1.977 1.609,3.594 3.586,3.594 l 53.703,0 c 1.977,0 3.594,-1.617 3.594,-3.594 l 0,-37.618 c 0,-1.976 -1.618,-3.586 -3.594,-3.586 z m -38.125,20.43 c 0,1.07 -0.859,1.953 -1.93,1.953 l -11.82,0 c -1.07,0 -1.953,-0.883 -1.953,-1.953 l 0,-11.789 c 0,-1.07 0.883,-1.953 1.953,-1.953 l 11.82,0 c 1.07,0 1.93,0.883 1.93,1.953 l 0,11.789 z M 69.344,80.27 c 0,1.078 -0.875,1.93 -1.953,1.93 l -11.789,0 c -1.078,0 -1.953,-0.852 -1.953,-1.93 l 0,-11.813 c 0,-1.07 0.875,-1.922 1.953,-1.922 l 11.789,0 c 1.078,0 1.953,0.852 1.953,1.922 l 0,11.813 z m 19.062,0 c 0,1.078 -0.852,1.93 -1.93,1.93 l -11.812,0 c -1.07,0 -1.953,-0.852 -1.953,-1.93 l 0,-11.813 c 0,-1.07 0.883,-1.922 1.953,-1.922 l 11.812,0 c 1.078,0 1.93,0.852 1.93,1.922 l 0,11.813 z"
             inkscape:connector-curvature="0" /><path
             style="fill:#0075bd;fill-opacity:1"
             id="path3361"
             d="m 66.906,25.91 c 3.094,0 5.609,-2.516 5.609,-5.617 0,-3.101 -2.515,-5.617 -5.609,-5.617 -3.078,0 -5.594,2.516 -5.594,5.617 0,3.101 2.516,5.617 5.594,5.617 z"
             inkscape:connector-curvature="0" /></g></g></g></g></svg>