<?xml version="1.0" encoding="UTF-8" standalone="no"?>
<!-- Generator: Adobe Illustrator 16.0.0, SVG Export Plug-In . SVG Version: 6.00 Build 0)  -->

<svg
   xmlns:dc="http://purl.org/dc/elements/1.1/"
   xmlns:cc="http://creativecommons.org/ns#"
   xmlns:rdf="http://www.w3.org/1999/02/22-rdf-syntax-ns#"
   xmlns:svg="http://www.w3.org/2000/svg"
   xmlns="http://www.w3.org/2000/svg"
   xmlns:sodipodi="http://sodipodi.sourceforge.net/DTD/sodipodi-0.dtd"
   xmlns:inkscape="http://www.inkscape.org/namespaces/inkscape"
   version="1.1"
   id="svg2"
   inkscape:output_extension="org.inkscape.output.svg.inkscape"
   sodipodi:docname="JH_tourism_attraction.svg"
   inkscape:version="0.91 r13725"
   sodipodi:version="0.32"
   x="0px"
   y="0px"
   width="580px"
   height="580px"
   viewBox="0 0 580 580"
   enable-background="new 0 0 580 580"
   xml:space="preserve"
   inkscape:export-filename="F:\_GRAFIKA\2016_08_29_Symboly_turistika\JH_icons\JH_tourism_attraction.png"
   inkscape:export-xdpi="31"
   inkscape:export-ydpi="31"><metadata
     id="metadata17"><rdf:RDF><cc:Work
         rdf:about=""><dc:format>image/svg+xml</dc:format><dc:type
           rdf:resource="http://purl.org/dc/dcmitype/StillImage" /></cc:Work></rdf:RDF></metadata><sodipodi:namedview
     showgrid="false"
     inkscape:cy="271.9787"
     inkscape:cx="136.91904"
     inkscape:zoom="1.3034483"
     pagecolor="#ffffff"
     bordercolor="#666666"
     guidetolerance="10.0"
     objecttolerance="10.0"
     gridtolerance="10.0"
     borderopacity="1.0"
     id="base"
     inkscape:current-layer="g4224"
     inkscape:window-y="-9"
     inkscape:window-x="-9"
     inkscape:pageopacity="0.0"
     inkscape:pageshadow="2"
     inkscape:window-width="2560"
     inkscape:window-height="1369"
     inkscape:window-maximized="1"
     showguides="true"
     inkscape:guide-bbox="true"><sodipodi:guide
       position="326.57857,290.23179"
       orientation="0,1"
       id="guide4268" /><sodipodi:guide
       position="290.23179,401.4421"
       orientation="1,0"
       id="guide4270" /></sodipodi:namedview><defs
     id="defs4"><inkscape:perspective
       inkscape:vp_z="580 : 290 : 1"
       inkscape:vp_y="0 : 1000 : 0"
       inkscape:vp_x="0 : 290 : 1"
       sodipodi:type="inkscape:persp3d"
       id="perspective3653"
       inkscape:persp3d-origin="290 : 193.33333 : 1" /><inkscape:perspective
       inkscape:vp_z="355.02399 : 217.53 : 1"
       inkscape:vp_y="0 : 1000 : 0"
       inkscape:vp_x="0 : 217.53 : 1"
       sodipodi:type="inkscape:persp3d"
       id="perspective2512"
       inkscape:persp3d-origin="177.51199 : 145.02 : 1" /><style
       id="style4145"
       type="text/css"><![CDATA[
    .str2 {stroke:#0A0B0C;stroke-width:0.2}
    .str0 {stroke:#1F1A17;stroke-width:0.2}
    .str1 {stroke:#0A0B0C;stroke-width:1.5}
    .fil0 {fill:none}
    .fil2 {fill:#0A0B0C}
    .fil1 {fill:#616F85}
   ]]></style><inkscape:perspective
       inkscape:persp3d-origin="290 : 193.33333 : 1"
       id="perspective3653-7"
       sodipodi:type="inkscape:persp3d"
       inkscape:vp_x="0 : 290 : 1"
       inkscape:vp_y="0 : 1000 : 0"
       inkscape:vp_z="580 : 290 : 1" /><inkscape:perspective
       inkscape:persp3d-origin="177.51199 : 145.02 : 1"
       id="perspective2512-7"
       sodipodi:type="inkscape:persp3d"
       inkscape:vp_x="0 : 217.53 : 1"
       inkscape:vp_y="0 : 1000 : 0"
       inkscape:vp_z="355.02399 : 217.53 : 1" /><inkscape:perspective
       sodipodi:type="inkscape:persp3d"
       inkscape:vp_x="0 : 29.523001 : 1"
       inkscape:vp_y="0 : 1000 : 0"
       inkscape:vp_z="70.148003 : 29.523001 : 1"
       inkscape:persp3d-origin="35.074001 : 19.682 : 1"
       id="perspective30" /></defs><g
     id="g2121" /><g
     id="g4198"
     transform="translate(-2.8338787,-220.28663)"><g
       style="clip-rule:evenodd;fill-rule:evenodd;image-rendering:optimizeQuality;shape-rendering:geometricPrecision;text-rendering:geometricPrecision"
       id="g4182"
       transform="matrix(17.84036,0,0,17.84036,8.9357808,224.52759)"><g
         id="Ebene_x0020_1"><metadata
           id="CorelCorpID_0Corel-Layer" /></g></g><g
       id="g4224"
       transform="matrix(5.0271583,0,0,5.0271583,42.02141,259.46662)"><g
         id="g4288"><path
           id="path4284"
           d="m 31.021858,31.138569 c -2.658389,2.683725 -6.869534,2.826142 -9.406866,0.312757 l -9.179699,-9.092975 c -2.5391761,-2.515201 -2.433031,-6.723865 0.225366,-9.407583 2.657405,-2.68277 6.860062,-2.823948 9.399235,-0.308746 l 9.179698,9.092973 c 2.53733,2.513383 2.438726,6.721791 -0.217734,9.403567 z"
           inkscape:connector-curvature="0"
           style="fill:#ffffff;fill-opacity:1"
           inkscape:transform-center-x="141.22299"
           inkscape:transform-center-y="-139.71553" /><path
           inkscape:transform-center-y="0.11565418"
           inkscape:transform-center-x="198.64983"
           style="fill:#ffffff;fill-opacity:1"
           inkscape:connector-curvature="0"
           d="m 23.337401,49.857622 c -3.05e-4,3.777488 -2.892146,6.842008 -6.463582,6.841714 l -12.9208776,-0.001 c -3.57402384,-2.86e-4 -6.4601923,-3.065274 -6.459877,-6.842762 2.783e-4,-3.776117 2.88696016,-6.833784 6.4609828,-6.833495 l 12.9208748,0.001 c 3.571434,2.94e-4 6.46278,3.059793 6.462474,6.834538 z"
           id="path4282" /><path
           id="path4280"
           d="m 31.054348,68.569631 c 2.658594,2.683523 2.761382,6.895822 0.224234,9.409393 l -9.178978,9.093703 c -2.53898,2.515398 -6.746459,2.369658 -9.405046,-0.313872 -2.657648,-2.68253 -2.7592762,-6.886329 -0.220295,-9.401724 l 9.178975,-9.093702 c 2.537146,-2.51357 6.74444,-2.375373 9.401102,0.306202 z"
           inkscape:connector-curvature="0"
           style="fill:#ffffff;fill-opacity:1"
           inkscape:transform-center-x="141.03825"
           inkscape:transform-center-y="139.90225" /><path
           inkscape:transform-center-y="198.64712"
           inkscape:transform-center-x="-1.061373"
           style="fill:#ffffff;fill-opacity:1"
           inkscape:connector-curvature="0"
           d="m 50.077098,76.43047 c 3.777447,-0.01768 6.8557,2.859537 6.872414,6.430932 l 0.06047,12.920735 c 0.01673,3.573985 -3.034483,6.474713 -6.811929,6.492383 -3.776076,0.0177 -6.847451,-2.854391 -6.864176,-6.428376 L 43.273405,82.92541 c -0.01671,-3.571395 3.028989,-6.477275 6.803693,-6.49494 z"
           id="path4278" /><path
           id="path4276"
           d="m 68.66714,68.709309 c 2.682871,-2.659252 6.895141,-2.763079 9.409338,-0.226555 l 9.095963,9.176737 c 2.516022,2.538362 2.371315,6.745875 -0.311555,9.405127 -2.681898,2.658285 -6.885652,2.760968 -9.401671,0.222603 l -9.095964,-9.176735 c -2.514196,-2.536525 -2.377032,-6.743855 0.303889,-9.401177 z"
           inkscape:connector-curvature="0"
           style="fill:#ffffff;fill-opacity:1"
           inkscape:transform-center-x="-139.93695"
           inkscape:transform-center-y="141.00378" /><path
           inkscape:transform-center-y="1.651552"
           inkscape:transform-center-x="-198.64281"
           style="fill:#ffffff;fill-opacity:1"
           inkscape:connector-curvature="0"
           d="m 76.522855,50.054338 c 0.03391,-3.777336 2.952893,-6.81601 6.524183,-6.783952 l 12.920354,0.11598 c 3.573881,0.03208 6.432668,3.12262 6.398758,6.899955 -0.0339,3.775964 -2.947638,6.807832 -6.521518,6.77575 L 82.924277,56.946092 c -3.57129,-0.03206 -6.435306,-3.117161 -6.401422,-6.891754 z"
           id="path4274" /><path
           inkscape:transform-center-y="-198.64982"
           inkscape:transform-center-x="0.13162998"
           style="fill:#ffffff;fill-opacity:1"
           inkscape:connector-curvature="0"
           d="m 49.908496,23.244543 c -3.777488,0 -6.842241,-2.891593 -6.842241,-6.463027 l 0,-12.9208753 c 0,-3.57402424 3.064753,-6.4604374 6.842241,-6.4604374 3.776116,0 6.834016,2.88641316 6.834016,6.4604374 l 0,12.9208753 c 0,3.571434 -3.059271,6.463027 -6.834016,6.463027 z"
           id="path4266" /><path
           sodipodi:nodetypes="sssss"
           style="fill:#ffffff;fill-opacity:1"
           inkscape:connector-curvature="0"
           d="m 49.892085,26.519561 c -12.910673,0 -23.373438,10.465107 -23.373438,23.37344 0,12.902475 10.462765,23.373438 23.373438,23.373438 12.907161,0 23.372269,-10.470963 23.372269,-23.373438 0,-12.908333 -10.466279,-23.37344 -23.372269,-23.37344 z"
           id="path4264" /><path
           id="path4184"
           d="m 49.895,39.914 c 5.5,0 9.978,4.472 9.978,9.978 0,5.495 -4.478,9.978 -9.978,9.978 -5.501,0 -9.979,-4.482 -9.979,-9.978 0,-5.506 4.478,-9.978 9.979,-9.978 m 0,-9.978 c -11.023,0 -19.956,8.935 -19.956,19.956 0,11.016 8.933,19.956 19.956,19.956 11.02,0 19.955,-8.94 19.955,-19.956 0,-11.021 -8.936,-19.956 -19.955,-19.956 z"
           inkscape:connector-curvature="0"
           style="fill:#734a08;fill-opacity:1" /><path
           id="path4188"
           d="m 49.895,19.958 c -2.756,0 -4.992,-2.233 -4.992,-4.991 l 0,-9.978 C 44.903,2.229 47.139,0 49.895,0 c 2.755,0 4.986,2.229 4.986,4.989 l 0,9.978 c 0,2.758 -2.232,4.991 -4.986,4.991 z"
           inkscape:connector-curvature="0"
           style="fill:#734a08;fill-opacity:1" /><path
           id="path4272"
           d="m 68.75585,31.054588 c -2.665871,-2.676294 -2.780095,-6.888297 -0.249787,-9.40875 l 9.154248,-9.118594 c 2.532143,-2.522281 6.739999,-2.387965 9.405869,0.288329 2.664902,2.675322 2.77796,6.878815 0.245817,9.401095 l -9.154248,9.118595 c -2.530308,2.520453 -6.737965,2.393676 -9.401899,-0.280675 z"
           inkscape:connector-curvature="0"
           style="fill:#ffffff;fill-opacity:1"
           inkscape:transform-center-x="-140.6578"
           inkscape:transform-center-y="-140.28464" /><path
           id="path4192"
           d="m 74.592,30.183 c -1.276,0 -2.554,-0.483 -3.528,-1.456 -1.949,-1.954 -1.949,-5.112 0,-7.062 l 7.057,-7.054 c 1.944,-1.949 5.103,-1.949 7.052,0 1.949,1.952 1.949,5.11 0,7.054 l -7.052,7.062 c -0.975,0.972 -2.252,1.456 -3.529,1.456 z"
           inkscape:connector-curvature="0"
           style="fill:#734a08;fill-opacity:1" /><path
           id="path4196"
           d="m 94.797,54.883 -9.978,0 c -2.756,0 -4.992,-2.231 -4.992,-4.986 0,-2.755 2.236,-4.989 4.992,-4.989 l 9.978,0 c 2.75,0 4.986,2.234 4.986,4.989 0,2.755 -2.236,4.986 -4.986,4.986 z"
           inkscape:connector-curvature="0"
           style="fill:#734a08;fill-opacity:1" /><path
           id="path4200"
           d="m 81.636,86.64 c -1.279,0 -2.554,-0.488 -3.525,-1.466 L 71.054,78.12 c -1.949,-1.949 -1.949,-5.107 0,-7.049 1.949,-1.949 5.107,-1.949 7.057,0 l 7.051,7.049 c 1.949,1.952 1.949,5.109 0,7.054 -0.973,0.977 -2.247,1.466 -3.526,1.466 z"
           inkscape:connector-curvature="0"
           style="fill:#734a08;fill-opacity:1" /><path
           id="path4204"
           d="m 49.879,99.786 c -2.758,0 -4.991,-2.231 -4.991,-4.986 l 0,-9.979 c 0,-2.755 2.233,-4.991 4.991,-4.991 2.758,0 4.991,2.236 4.991,4.991 l 0,9.979 c 0,2.755 -2.233,4.986 -4.991,4.986 z"
           inkscape:connector-curvature="0"
           style="fill:#734a08;fill-opacity:1" /><path
           id="path4208"
           d="m 18.127,86.625 c -1.279,0 -2.554,-0.483 -3.526,-1.461 -1.949,-1.952 -1.949,-5.109 0,-7.059 l 7.051,-7.055 c 1.949,-1.949 5.107,-1.949 7.057,0 1.949,1.954 1.949,5.112 0,7.055 l -7.057,7.059 c -0.971,0.978 -2.245,1.461 -3.525,1.461 z"
           inkscape:connector-curvature="0"
           style="fill:#734a08;fill-opacity:1" /><path
           id="path4212"
           d="m 14.967,54.868 -9.98,0 C 2.229,54.868 0,52.632 0,49.881 0,47.121 2.229,44.892 4.986,44.892 l 9.98,0 c 2.752,0 4.989,2.229 4.989,4.989 0.001,2.751 -2.236,4.987 -4.988,4.987 z"
           inkscape:connector-curvature="0"
           style="fill:#734a08;fill-opacity:1" /><path
           id="path4216"
           d="m 25.204,30.178 c -1.277,0 -2.554,-0.494 -3.528,-1.466 l -7.057,-7.051 c -1.949,-1.955 -1.949,-5.107 0,-7.057 1.949,-1.944 5.107,-1.944 7.057,0 l 7.054,7.057 c 1.949,1.949 1.949,5.107 0,7.051 -0.978,0.972 -2.252,1.466 -3.526,1.466 z"
           inkscape:connector-curvature="0"
           style="fill:#734a08;fill-opacity:1" /></g></g></g></svg>