<?xml version="1.0" encoding="UTF-8" standalone="no"?>
<!-- Generator: Adobe Illustrator 16.0.0, SVG Export Plug-In . SVG Version: 6.00 Build 0)  -->

<svg
   xmlns:dc="http://purl.org/dc/elements/1.1/"
   xmlns:cc="http://creativecommons.org/ns#"
   xmlns:rdf="http://www.w3.org/1999/02/22-rdf-syntax-ns#"
   xmlns:svg="http://www.w3.org/2000/svg"
   xmlns="http://www.w3.org/2000/svg"
   xmlns:sodipodi="http://sodipodi.sourceforge.net/DTD/sodipodi-0.dtd"
   xmlns:inkscape="http://www.inkscape.org/namespaces/inkscape"
   version="1.1"
   id="svg2"
   inkscape:output_extension="org.inkscape.output.svg.inkscape"
   sodipodi:docname="JH_amenity_courthouse.svg"
   inkscape:version="0.91 r13725"
   sodipodi:version="0.32"
   x="0px"
   y="0px"
   width="580px"
   height="580px"
   viewBox="0 0 580 580"
   enable-background="new 0 0 580 580"
   xml:space="preserve"
   inkscape:export-filename="F:\_GRAFIKA\2016_08_29_Symboly_turistika\JH_icons\JH_amenity_courthouse.png"
   inkscape:export-xdpi="31"
   inkscape:export-ydpi="31"><metadata
     id="metadata17"><rdf:RDF><cc:Work
         rdf:about=""><dc:format>image/svg+xml</dc:format><dc:type
           rdf:resource="http://purl.org/dc/dcmitype/StillImage" /></cc:Work></rdf:RDF></metadata><sodipodi:namedview
     showgrid="false"
     inkscape:cy="52.239446"
     inkscape:cx="495.14352"
     inkscape:zoom="0.70710678"
     pagecolor="#ffffff"
     bordercolor="#666666"
     guidetolerance="10.0"
     objecttolerance="10.0"
     gridtolerance="10.0"
     borderopacity="1.0"
     id="base"
     inkscape:current-layer="g4198"
     inkscape:window-y="-9"
     inkscape:window-x="-9"
     inkscape:pageopacity="0.0"
     inkscape:pageshadow="2"
     inkscape:window-width="2560"
     inkscape:window-height="1369"
     inkscape:window-maximized="1"
     showguides="true"
     inkscape:guide-bbox="true" /><defs
     id="defs4"><inkscape:perspective
       inkscape:vp_z="580 : 290 : 1"
       inkscape:vp_y="0 : 1000 : 0"
       inkscape:vp_x="0 : 290 : 1"
       sodipodi:type="inkscape:persp3d"
       id="perspective3653"
       inkscape:persp3d-origin="290 : 193.33333 : 1" /><inkscape:perspective
       inkscape:vp_z="355.02399 : 217.53 : 1"
       inkscape:vp_y="0 : 1000 : 0"
       inkscape:vp_x="0 : 217.53 : 1"
       sodipodi:type="inkscape:persp3d"
       id="perspective2512"
       inkscape:persp3d-origin="177.51199 : 145.02 : 1" /></defs><g
     id="g2121" /><g
     id="g4198"
     transform="translate(-2.8338787,-220.28663)"><g
       id="g4172"
       transform="matrix(1.2495094,0,0,1.2495094,-72.39406,-128.30433)"><path
         sodipodi:nodetypes="sccccsccccccccccccsccccscccccccc"
         inkscape:connector-curvature="0"
         d="m 294.83389,293.17541 c -31.15306,0 -43.15306,31.65813 -43.15306,31.65813 l -106.82395,31.65813 0,31.65815 -70.094371,158.29063 c 0,31.65814 31.744541,69.68022 84.953711,69.68022 53.20916,0 90.46841,-42.26472 90.46841,-73.92286 l -61.97306,-137.4622 63.46926,1.41421 0,266.58127 -114.61221,0 -55.15305,57.65813 421.83665,0 -55.15307,-57.65813 -110.61221,0 0,-266.58127 61.24742,0 -64.09437,140.29063 c 0,31.65814 44.07945,63.31626 97.88264,63.31626 53.80318,0 77.88262,-31.65812 77.88262,-63.31626 l -70.09435,-158.29063 0,-31.65814 -102.82396,-31.65813 c 0,0 -12,-31.65813 -43.15305,-31.65814 z m -133.70346,158.45235 31.89041,77.13502 -65.23669,0 z m 264.82113,-2.82843 31.18332,82.08477 -65.90217,0 z"
         id="path4168"
         style="fill:#ffffff;fill-opacity:1" /><path
         style="fill:#734a08;fill-opacity:1"
         id="courthouse"
         d="m 292.83388,305.29674 c -29.28427,0 -29.28427,29.28427 -29.28427,29.28427 l -109.81601,29.28427 0,29.28427 -65.889611,146.42136 c 0,29.28427 23.193371,58.56854 73.210671,58.56854 50.0173,0 73.21068,-29.28427 73.21068,-58.56854 l -65.88961,-146.42136 95.17388,0 0,292.8427 -117.13708,0 -29.28427,29.28427 351.41124,0 -29.28427,-29.28427 -117.13708,0 0,-292.8427 95.17388,0 -65.88961,146.42136 c 0,29.28427 22.63498,58.56854 73.21067,58.56854 50.5757,0 73.21068,-29.28427 73.21068,-58.56854 l -65.88961,-146.42136 0,-29.28427 -109.81601,-29.28427 c 0,0 0,-29.28427 -29.28427,-29.28427 z m -131.77922,117.13708 51.24748,117.13709 -102.49495,0 z m 263.55843,0 51.24748,117.13709 -102.49495,0 z"
         inkscape:connector-curvature="0" /></g></g></svg>
