<?xml version="1.0" encoding="UTF-8" standalone="no"?>
<!-- Generator: Adobe Illustrator 16.0.0, SVG Export Plug-In . SVG Version: 6.00 Build 0)  -->

<svg
   xmlns:dc="http://purl.org/dc/elements/1.1/"
   xmlns:cc="http://creativecommons.org/ns#"
   xmlns:rdf="http://www.w3.org/1999/02/22-rdf-syntax-ns#"
   xmlns:svg="http://www.w3.org/2000/svg"
   xmlns="http://www.w3.org/2000/svg"
   xmlns:sodipodi="http://sodipodi.sourceforge.net/DTD/sodipodi-0.dtd"
   xmlns:inkscape="http://www.inkscape.org/namespaces/inkscape"
   version="1.1"
   id="svg2"
   inkscape:output_extension="org.inkscape.output.svg.inkscape"
   sodipodi:docname="JH_amenity_drinking_water.svg"
   inkscape:version="0.91 r13725"
   sodipodi:version="0.32"
   x="0px"
   y="0px"
   width="580px"
   height="580px"
   viewBox="0 0 580 580"
   enable-background="new 0 0 580 580"
   xml:space="preserve"
   inkscape:export-filename="/media/juhele/KONZERVA/__PRACE/JH_icons/JH_amenity_drinking_water.png"
   inkscape:export-xdpi="31"
   inkscape:export-ydpi="31"><metadata
     id="metadata17"><rdf:RDF><cc:Work
         rdf:about=""><dc:format>image/svg+xml</dc:format><dc:type
           rdf:resource="http://purl.org/dc/dcmitype/StillImage" /></cc:Work></rdf:RDF></metadata><sodipodi:namedview
     showgrid="false"
     inkscape:cy="220.44464"
     inkscape:cx="-166.32691"
     inkscape:zoom="0.70710678"
     pagecolor="#ffffff"
     bordercolor="#666666"
     guidetolerance="10.0"
     objecttolerance="10.0"
     gridtolerance="10.0"
     borderopacity="1.0"
     id="base"
     inkscape:current-layer="g4198"
     inkscape:window-y="0"
     inkscape:window-x="0"
     inkscape:pageopacity="0.0"
     inkscape:pageshadow="2"
     inkscape:window-width="1920"
     inkscape:window-height="1125"
     inkscape:window-maximized="1"
     showguides="true"
     inkscape:guide-bbox="true" /><defs
     id="defs4"><inkscape:perspective
       inkscape:vp_z="580 : 290 : 1"
       inkscape:vp_y="0 : 1000 : 0"
       inkscape:vp_x="0 : 290 : 1"
       sodipodi:type="inkscape:persp3d"
       id="perspective3653"
       inkscape:persp3d-origin="290 : 193.33333 : 1" /><inkscape:perspective
       inkscape:vp_z="355.02399 : 217.53 : 1"
       inkscape:vp_y="0 : 1000 : 0"
       inkscape:vp_x="0 : 217.53 : 1"
       sodipodi:type="inkscape:persp3d"
       id="perspective2512"
       inkscape:persp3d-origin="177.51199 : 145.02 : 1" /></defs><g
     id="g2121" /><g
     id="g4198"
     transform="translate(-2.8338787,-220.28663)"><g
       id="g7473"
       transform="matrix(31.759145,0,0,31.759145,850.43309,254.88548)"><g
         id="g7494"
         transform="matrix(1.1488345,0,0,1.1488345,2.5026878,-1.6104553)"><path
           sodipodi:nodetypes="ccccccsccssssccccccc"
           style="fill:#ffffff;fill-opacity:1"
           id="path7492"
           d="m -24.200521,6.6855356 1.724237,9.1959314 5.747457,0 1.724237,-9.1959314 z m 3.133604,-0.01596 c 0,-2.2989825 1.149491,-3.8263177 3.448474,-3.8263177 l 0.582725,0 0,-0.3308296 -0.708673,0 c -1.149491,0 -1.275439,-1.59030925 -0.125948,-1.59030925 l 3.448474,0 c 1.149491,0 1.212465,1.59030925 0.06297,1.59030925 l -0.834621,0 0,0.3308296 4.472017,0 0,2.3539769 -6.896948,0 c -1.2469,-0.010223 -0.905575,0.3027066 -0.905575,1.4723408 z"
           inkscape:connector-curvature="0" /><path
           inkscape:connector-curvature="0"
           d="m -23.621638,7.2135263 1.5,8.0000007 5,0 1.5,-8.0000007 z m 1.18,0.9999999 5.63,0 -0.37,2.0000008 -4.89,0 m 1.45,-4.0000008 c 0,-1.9999999 1,-2.9999998 3,-2.9999998 l 1,0 0,-1 -1,0 c -1,0 -1,-1.0000001 0,-1.0000001 l 3,0 c 1,0 1,1.0000001 0,1.0000001 l -1,0 0,1 4,0 0,1.5 -6,0 c -1.08474,-0.00889 -1.5,0.4824765 -1.5,1.4999998 z"
           id="drinking-water"
           style="fill:#734a08;fill-opacity:1" /></g></g></g></svg>