<?xml version="1.0" encoding="UTF-8" standalone="no"?>
<!-- Generator: Adobe Illustrator 16.0.0, SVG Export Plug-In . SVG Version: 6.00 Build 0)  -->

<svg
   xmlns:dc="http://purl.org/dc/elements/1.1/"
   xmlns:cc="http://creativecommons.org/ns#"
   xmlns:rdf="http://www.w3.org/1999/02/22-rdf-syntax-ns#"
   xmlns:svg="http://www.w3.org/2000/svg"
   xmlns="http://www.w3.org/2000/svg"
   xmlns:sodipodi="http://sodipodi.sourceforge.net/DTD/sodipodi-0.dtd"
   xmlns:inkscape="http://www.inkscape.org/namespaces/inkscape"
   version="1.1"
   id="svg2"
   inkscape:output_extension="org.inkscape.output.svg.inkscape"
   sodipodi:docname="JH_amenity_parking.svg"
   inkscape:version="0.92.2 (5c3e80d, 2017-08-06)"
   sodipodi:version="0.32"
   x="0px"
   y="0px"
   width="580px"
   height="580px"
   viewBox="0 0 580 580"
   enable-background="new 0 0 580 580"
   xml:space="preserve"
   inkscape:export-filename="/media/juhele/data_2TB/_GRAFIKA/2018_03_22_Symboly_turistika/JH_icons/JH_amenity_parking.png"
   inkscape:export-xdpi="33.103447"
   inkscape:export-ydpi="33.103447"><metadata
     id="metadata17"><rdf:RDF><cc:Work
         rdf:about=""><dc:format>image/svg+xml</dc:format><dc:type
           rdf:resource="http://purl.org/dc/dcmitype/StillImage" /></cc:Work></rdf:RDF></metadata><sodipodi:namedview
     showgrid="false"
     inkscape:cy="108.16648"
     inkscape:cx="-2059.6646"
     inkscape:zoom="0.32"
     pagecolor="#ffffff"
     bordercolor="#666666"
     guidetolerance="10.0"
     objecttolerance="10.0"
     gridtolerance="10.0"
     borderopacity="1.0"
     id="base"
     inkscape:current-layer="g4198"
     inkscape:window-y="0"
     inkscape:window-x="0"
     inkscape:pageopacity="0.0"
     inkscape:pageshadow="2"
     inkscape:window-width="1920"
     inkscape:window-height="1140"
     inkscape:window-maximized="1" /><defs
     id="defs4"><style
       id="style4145"
       type="text/css"><![CDATA[
    .str2 {stroke:#0A0B0C;stroke-width:0.2}
    .str0 {stroke:#1F1A17;stroke-width:0.2}
    .str1 {stroke:#0A0B0C;stroke-width:1.5}
    .fil0 {fill:none}
    .fil2 {fill:#0A0B0C}
    .fil1 {fill:#616F85}
   ]]></style></defs><g
     id="g2121" /><g
     id="g4198"
     transform="translate(-2.8338787,-220.28663)"><g
       style="clip-rule:evenodd;fill-rule:evenodd;image-rendering:optimizeQuality;shape-rendering:geometricPrecision;text-rendering:geometricPrecision"
       id="g4182"
       transform="matrix(17.84036,0,0,17.84036,8.9357808,224.52759)"><g
         id="Ebene_x0020_1"><metadata
           id="CorelCorpID_0Corel-Layer" /></g></g><g
       id="g7717"><path
         style="fill:#ffffff"
         id="path4169"
         d="m 477.83045,617.7374 c -1.84633,0 -3.58076,-0.2238 -5.25924,-0.78328 l -14.43495,-4.81165 c -22.93924,69.82483 -88.62381,120.29115 -166.11369,120.29115 -77.48988,0 -143.17445,-50.46632 -166.11369,-120.17926 l -14.43494,4.69976 c -1.62254,0.55948 -3.41291,0.78328 -5.25924,0.78328 -9.847097,0 -17.791909,-8.00076 -17.791909,-17.79189 0,-1.39874 0.111898,-2.85342 0.447595,-4.14026 l 13.315954,-83.02887 c 1.39873,-7.77697 8.28051,-13.65165 16.50507,-13.65165 4.81164,0 9.2876,2.07012 12.36481,5.48303 l 61.43241,57.57192 c 1.11899,0.89518 1.95822,1.84632 2.85343,3.07721 5.87467,7.88886 4.14023,19.02278 -3.69267,24.89747 -1.51063,1.119 -3.18912,1.84633 -4.81164,2.51773 l -15.55393,5.03544 c 15.16228,42.74532 52.87216,74.97218 98.47089,83.14076 L 269.64282,407.7594 c -21.76431,-9.2876 -37.37418,-30.94001 -37.37418,-56.06128 0,-33.68152 27.30329,-60.87292 60.87292,-60.87292 33.68153,0 60.87292,27.1914 60.87292,60.87292 0,25.12127 -15.10633,46.77368 -36.92659,56.06128 l -0.1119,272.64131 c 44.59165,-8.84001 80.84684,-40.7871 95.72938,-82.74913 l -15.38608,-5.14734 c -1.62253,-0.67139 -3.30101,-1.39874 -4.81164,-2.51772 -7.88886,-5.87468 -9.51139,-17.06456 -3.69266,-24.89748 0.89519,-1.17493 1.84633,-2.18202 2.85343,-3.07722 l 61.4324,-57.5719 c 3.18912,-3.41291 7.55316,-5.48304 12.47671,-5.48304 8.11266,0 14.88253,5.87469 16.39318,13.65165 l 13.31594,83.02887 c 0.3357,1.28683 0.4476,2.74152 0.4476,4.14025 -0.1119,9.95899 -8.05672,17.95975 -17.9038,17.95975 z m 25.45696,-383.98057 -420.851203,0 c -36.478992,0 -66.132161,29.59722 -66.132161,66.13217 l 0,420.90715 c 0,36.47901 29.59722,66.02027 66.132161,66.02027 l 420.795263,0 c 36.47899,0 66.13216,-29.48532 66.13216,-66.02027 l 0,-420.90715 c 0.056,-36.53494 -29.59722,-66.13217 -66.07622,-66.13217 z"
         inkscape:connector-curvature="0" /><path
         style="fill:#ffffff"
         inkscape:connector-curvature="0"
         d="m 469.61847,612.96762 c -1.76437,0 -3.42181,-0.21387 -5.02578,-0.74852 l -13.79418,-4.59806 c -21.92097,66.7253 -84.68981,114.95144 -158.73992,114.95144 -74.05012,0 -136.81895,-48.22614 -158.73993,-114.84451 l -13.79417,4.49113 c -1.55051,0.53465 -3.26141,0.74852 -5.02578,0.74852 -9.40998,0 -17.002125,-7.64561 -17.002125,-17.00212 0,-1.33665 0.106931,-2.72676 0.427726,-3.95647 L 110.64917,512.6658 c 1.33664,-7.43175 7.91294,-13.04565 15.77241,-13.04565 4.59805,0 8.87532,1.97823 11.81594,5.23964 l 58.70543,55.0163 c 1.06932,0.85545 1.8713,1.76437 2.72676,2.94062 5.6139,7.53867 3.95646,18.17836 -3.52875,23.79227 -1.44357,1.06932 -3.04755,1.76437 -4.59805,2.40596 l -14.86349,4.81192 c 14.48923,40.84787 50.52517,71.64416 94.09978,79.45016 l -0.10693,-260.96651 c -20.79819,-8.87532 -35.71514,-29.56658 -35.71514,-53.57272 0,-32.1864 26.0913,-58.17077 58.17077,-58.17077 32.18641,0 58.17078,25.98437 58.17078,58.17077 0,24.00614 -14.43576,44.6974 -35.28742,53.57272 l -0.10693,260.53879 c 42.61223,-8.4476 77.25806,-38.97656 91.47996,-79.0759 l -14.70309,-4.91885 c -1.55051,-0.64159 -3.15448,-1.33665 -4.59806,-2.40596 -7.53867,-5.61391 -9.08918,-16.30707 -3.52874,-23.79228 0.85545,-1.12278 1.76437,-2.08517 2.72676,-2.94062 l 58.70543,-55.01629 c 3.04755,-3.26142 7.21788,-5.23965 11.92287,-5.23965 7.75254,0 14.2219,5.61391 15.66548,13.04565 l 12.72485,79.34323 c 0.3208,1.22971 0.42773,2.61982 0.42773,3.95647 -0.10693,9.51691 -7.69907,17.16252 -17.10905,17.16252 z m 24.32693,-366.93571 -402.169655,0 c -34.859693,0 -63.196561,28.2834 -63.196561,63.19656 l 0,402.22313 c 0,34.85969 28.283402,63.08963 63.196561,63.08963 l 402.116195,0 c 34.85969,0 63.19656,-28.17647 63.19656,-63.08963 l 0,-402.22313 c 0.0535,-34.91316 -28.2834,-63.19656 -63.1431,-63.19656 z"
         id="path6979" /><path
         style="fill:#0075bd;fill-opacity:1"
         inkscape:connector-curvature="0"
         d="m 91.775745,256.77854 c -28.978457,0 -52.449938,23.47148 -52.449938,52.39647 l 0,402.22312 c 0,28.81806 23.524947,52.34301 52.449938,52.34301 l 402.116195,0 c 28.97845,0 52.44993,-23.47148 52.44993,-52.34301 l 0,-402.22312 c 0,-28.92499 -23.52494,-52.39647 -52.44993,-52.39647 l -402.116195,0 z"
         id="path6981" /><g
         transform="matrix(1.1651225,0,0,1.1651225,-3945.1172,2565.068)"
         id="g7707"
         style="overflow:visible"><path
           id="path6093"
           d="m 3663.3903,-1768.7054 c 28.8307,0 52.1723,-23.3416 52.1723,-52.1211 0,-28.882 -23.3416,-52.2236 -52.1723,-52.2236 l -76.8477,-0.1026 v 104.396 h 76.8477 z m -1.0773,-168.5212 c 65.1,0 117.7853,52.6853 117.7853,117.734 0,65.1512 -52.6853,117.8365 -117.7853,117.8365 l -75.8217,-0.1026 v 111.8345 h -67.8702 v -347.3024 z"
           inkscape:connector-curvature="0"
           style="fill:#ffffff;stroke-width:51.30021286" /></g></g></g></svg>