<?xml version="1.0" encoding="UTF-8" standalone="no"?>
<!-- Generator: Adobe Illustrator 16.0.0, SVG Export Plug-In . SVG Version: 6.00 Build 0)  -->

<svg
   xmlns:dc="http://purl.org/dc/elements/1.1/"
   xmlns:cc="http://creativecommons.org/ns#"
   xmlns:rdf="http://www.w3.org/1999/02/22-rdf-syntax-ns#"
   xmlns:svg="http://www.w3.org/2000/svg"
   xmlns="http://www.w3.org/2000/svg"
   xmlns:sodipodi="http://sodipodi.sourceforge.net/DTD/sodipodi-0.dtd"
   xmlns:inkscape="http://www.inkscape.org/namespaces/inkscape"
   version="1.1"
   id="svg2"
   inkscape:output_extension="org.inkscape.output.svg.inkscape"
   sodipodi:docname="JH_amenity_hospital.svg"
   inkscape:version="0.91 r13725"
   sodipodi:version="0.32"
   x="0px"
   y="0px"
   width="580px"
   height="580px"
   viewBox="0 0 580 580"
   enable-background="new 0 0 580 580"
   xml:space="preserve"
   inkscape:export-filename="/media/juhele/KONZERVA/__PRACE/JH_icons/JH_amenity_hospital.png"
   inkscape:export-xdpi="31"
   inkscape:export-ydpi="31"><metadata
     id="metadata17"><rdf:RDF><cc:Work
         rdf:about=""><dc:format>image/svg+xml</dc:format><dc:type
           rdf:resource="http://purl.org/dc/dcmitype/StillImage" /></cc:Work></rdf:RDF></metadata><sodipodi:namedview
     showgrid="false"
     inkscape:cy="52.239446"
     inkscape:cx="170.58151"
     inkscape:zoom="0.70710678"
     pagecolor="#ffffff"
     bordercolor="#666666"
     guidetolerance="10.0"
     objecttolerance="10.0"
     gridtolerance="10.0"
     borderopacity="1.0"
     id="base"
     inkscape:current-layer="g4198"
     inkscape:window-y="0"
     inkscape:window-x="0"
     inkscape:pageopacity="0.0"
     inkscape:pageshadow="2"
     inkscape:window-width="1920"
     inkscape:window-height="1125"
     inkscape:window-maximized="1"
     showguides="true"
     inkscape:guide-bbox="true" /><defs
     id="defs4"><inkscape:perspective
       inkscape:vp_z="580 : 290 : 1"
       inkscape:vp_y="0 : 1000 : 0"
       inkscape:vp_x="0 : 290 : 1"
       sodipodi:type="inkscape:persp3d"
       id="perspective3653"
       inkscape:persp3d-origin="290 : 193.33333 : 1" /><inkscape:perspective
       inkscape:vp_z="355.02399 : 217.53 : 1"
       inkscape:vp_y="0 : 1000 : 0"
       inkscape:vp_x="0 : 217.53 : 1"
       sodipodi:type="inkscape:persp3d"
       id="perspective2512"
       inkscape:persp3d-origin="177.51199 : 145.02 : 1" /></defs><g
     id="g2121" /><g
     id="g4198"
     transform="translate(-2.8338787,-220.28663)"><g
       id="g7493"
       transform="matrix(1.1597851,0,0,1.1597851,-46.790507,-81.53619)"><circle
         r="234.54416"
         cy="510.28662"
         cx="292.83389"
         id="path7491"
         style="opacity:1;fill:#ffffff;fill-opacity:1;stroke:none;stroke-width:30;stroke-linecap:round;stroke-miterlimit:4;stroke-dasharray:none;stroke-opacity:1" /><g
         transform="matrix(29.814601,0,0,29.814601,-136.06342,376.33517)"
         id="g7472"><path
           inkscape:connector-curvature="0"
           d="m 14.385478,-2.5071859 c -3.822488,0 -6.9999995,3.08888882 -6.9999995,7.0000006 0,3.911111 3.1775115,6.9999993 6.9999995,6.9999993 3.822489,0 7,-3.0888893 7,-6.9999993 0,-3.91111178 -3.177511,-7.0000006 -7,-7.0000006 z m 0,1.0577778 c 3.389409,0 6.058296,2.7055414 6.058296,5.9422228 0,3.236681 -2.668887,5.9422213 -6.058296,5.9422213 -3.389409,0 -6.0582955,-2.7055403 -6.0582955,-5.9422213 0,-3.2366814 2.6688865,-5.9422228 6.0582955,-5.9422228 z m -2.008969,0.96444442 0,2.98666638 -3.0134515,0 0,3.982223 3.0134515,0 0,2.986666 4.017938,0 0,-2.986666 3.013453,0 0,-3.982223 -3.013453,0 0,-2.98666638 -4.017938,0 z"
           id="hospital"
           style="fill:#734a08;fill-opacity:1;stroke:none" /></g></g></g></svg>