<?xml version="1.0" encoding="UTF-8" standalone="no"?>
<!-- Generator: Adobe Illustrator 16.0.0, SVG Export Plug-In . SVG Version: 6.00 Build 0)  -->

<svg
   xmlns:dc="http://purl.org/dc/elements/1.1/"
   xmlns:cc="http://creativecommons.org/ns#"
   xmlns:rdf="http://www.w3.org/1999/02/22-rdf-syntax-ns#"
   xmlns:svg="http://www.w3.org/2000/svg"
   xmlns="http://www.w3.org/2000/svg"
   xmlns:sodipodi="http://sodipodi.sourceforge.net/DTD/sodipodi-0.dtd"
   xmlns:inkscape="http://www.inkscape.org/namespaces/inkscape"
   version="1.1"
   id="svg2"
   inkscape:output_extension="org.inkscape.output.svg.inkscape"
   sodipodi:docname="JH_amenity_cafe.svg"
   inkscape:version="0.92.2 (5c3e80d, 2017-08-06)"
   sodipodi:version="0.32"
   x="0px"
   y="0px"
   width="580px"
   height="580px"
   viewBox="0 0 580 580"
   enable-background="new 0 0 580 580"
   xml:space="preserve"
   inkscape:export-filename="/media/juhele/data_2TB/_GRAFIKA/2018_03_22_Symboly_turistika/JH_icons/JH_amenity_cafe.png"
   inkscape:export-xdpi="33.103447"
   inkscape:export-ydpi="33.103447"><metadata
     id="metadata17"><rdf:RDF><cc:Work
         rdf:about=""><dc:format>image/svg+xml</dc:format><dc:type
           rdf:resource="http://purl.org/dc/dcmitype/StillImage" /></cc:Work></rdf:RDF></metadata><sodipodi:namedview
     showgrid="false"
     inkscape:cy="-648.36365"
     inkscape:cx="-2032.2163"
     inkscape:zoom="0.125"
     pagecolor="#ffffff"
     bordercolor="#666666"
     guidetolerance="10.0"
     objecttolerance="10.0"
     gridtolerance="10.0"
     borderopacity="1.0"
     id="base"
     inkscape:current-layer="g4198"
     inkscape:window-y="0"
     inkscape:window-x="0"
     inkscape:pageopacity="0.0"
     inkscape:pageshadow="2"
     inkscape:window-width="1920"
     inkscape:window-height="1140"
     inkscape:window-maximized="1"
     showguides="true"
     inkscape:guide-bbox="true" /><defs
     id="defs4" /><g
     id="g2121" /><g
     id="g4198"
     transform="translate(-2.8338787,-220.28663)"><g
       transform="matrix(3.4641365,0,0,3.4641365,-317.05567,-826.80674)"
       id="layer1"
       inkscape:label="Layer 1"
       style="fill:#734a08;fill-opacity:1"><g
         style="fill:#734a08;fill-opacity:1"
         transform="translate(835.45791,305.99045)"
         id="g4374"><g
           id="g897"><path
             sodipodi:nodetypes="ccscsssccccccsscccssccsccscccc"
             inkscape:connector-curvature="0"
             id="path850"
             d="m -674.08726,3.3260714 c -1.68882,0.09361 -2.81722,0.59959 -4.46868,1.307464 -1.65144,0.707879 -3.6398,1.690916 -6.04418,2.96781 -3.09232,1.642239 -5.27756,2.9576526 -6.96936,4.7457856 -1.69179,1.788128 -2.57646,4.308392 -2.57646,6.520357 0,2.44156 1.31768,5.334953 3.69052,7.407086 2.37284,2.072128 5.76914,4.11401 11.37921,7.315472 6.86533,3.917791 10.60701,6.945399 11.31702,8.050633 0.35501,0.552621 0.20569,0.146387 0.17982,0.218293 -0.0258,0.0719 -0.46877,0.803404 -1.67277,1.781363 -0.9444,0.767097 -1.7887,1.562395 -2.49051,2.343482 -0.35092,0.390547 -0.66461,0.76958 -0.96816,1.224904 -0.30354,0.455321 -0.75557,0.765074 -0.8607,2.337826 -0.073,1.093295 0.61445,2.681396 1.50877,3.379505 0.89434,0.698107 1.62269,0.801531 2.158,0.867495 1.07061,0.131932 1.7303,-0.0086 2.48485,-0.15608 1.5091,-0.294833 3.17314,-0.836862 4.9946,-1.53141 3.64294,-1.389092 7.62759,-3.241555 10.38621,-5.396119 1.99435,-1.55763 3.72895,-2.889995 4.78762,-5.257009 0.52935,-1.183503 0.74714,-2.71292 0.43885,-4.098833 -0.3083,-1.385911 -1.01696,-2.535883 -1.86393,-3.533321 -3.3879,-3.989766 -9.55886,-7.247554 -21.166,-13.582482 -3.17776,-1.73436 -4.15797,-3.115438 -4.27413,-3.575173 -0.11616,-0.459736 -0.004,-1.521846 2.01775,-3.922396 1.10567,-1.313573 1.91168,-2.139794 2.44413,-3.9167396 0.26623,-0.888472 0.4299,-2.728271 -0.85392,-4.137289 -1.28382,-1.409018 -2.73456,-1.40742 -3.57855,-1.360624 z m 7.61291,47.7518836 c -0.0839,0.175789 -0.15662,0.192513 -0.15269,0.186619 0.004,-0.0053 0.10164,-0.122162 0.15269,-0.186619 z"
             style="color:#000000;font-style:normal;font-variant:normal;font-weight:normal;font-stretch:normal;font-size:medium;line-height:normal;font-family:sans-serif;font-variant-ligatures:normal;font-variant-position:normal;font-variant-caps:normal;font-variant-numeric:normal;font-variant-alternates:normal;font-feature-settings:normal;text-indent:0;text-align:start;text-decoration:none;text-decoration-line:none;text-decoration-style:solid;text-decoration-color:#000000;letter-spacing:normal;word-spacing:normal;text-transform:none;writing-mode:lr-tb;direction:ltr;text-orientation:mixed;dominant-baseline:auto;baseline-shift:baseline;text-anchor:start;white-space:normal;shape-padding:0;clip-rule:nonzero;display:inline;overflow:visible;visibility:visible;opacity:1;isolation:auto;mix-blend-mode:normal;color-interpolation:sRGB;color-interpolation-filters:linearRGB;solid-color:#000000;solid-opacity:1;vector-effect:none;fill:#ffffff;fill-opacity:1;fill-rule:nonzero;stroke:none;stroke-width:7.31183052;stroke-linecap:butt;stroke-linejoin:miter;stroke-miterlimit:4;stroke-dasharray:none;stroke-dashoffset:0;stroke-opacity:1;color-rendering:auto;image-rendering:auto;shape-rendering:auto;text-rendering:auto;enable-background:accumulate" /><path
             sodipodi:nodetypes="ssccsscccss"
             inkscape:connector-curvature="0"
             id="path852"
             d="m -714.58693,138.15501 c -2.18883,0 -4.12031,1.46361 -4.85663,3.25396 -0.73632,1.79035 -0.39279,4.18983 1.16269,5.72977 l 5.26041,5.20837 c 2.79609,2.76812 6.57607,4.32278 10.5106,4.32278 h 65.06214 c 3.93454,0 7.71452,-1.55466 10.51061,-4.32278 l 5.2604,-5.20837 c 1.55552,-1.53993 1.89902,-3.93942 1.16269,-5.72977 -0.73633,-1.79036 -2.66779,-3.25396 -4.85662,-3.25396 z"
             style="color:#000000;font-style:normal;font-variant:normal;font-weight:normal;font-stretch:normal;font-size:medium;line-height:normal;font-family:sans-serif;font-variant-ligatures:normal;font-variant-position:normal;font-variant-caps:normal;font-variant-numeric:normal;font-variant-alternates:normal;font-feature-settings:normal;text-indent:0;text-align:start;text-decoration:none;text-decoration-line:none;text-decoration-style:solid;text-decoration-color:#000000;letter-spacing:normal;word-spacing:normal;text-transform:none;writing-mode:lr-tb;direction:ltr;text-orientation:mixed;dominant-baseline:auto;baseline-shift:baseline;text-anchor:start;white-space:normal;shape-padding:0;clip-rule:nonzero;display:inline;overflow:visible;visibility:visible;opacity:1;isolation:auto;mix-blend-mode:normal;color-interpolation:sRGB;color-interpolation-filters:linearRGB;solid-color:#000000;solid-opacity:1;vector-effect:none;fill:#ffffff;fill-opacity:1;fill-rule:nonzero;stroke:none;stroke-width:7.31183052;stroke-linecap:butt;stroke-linejoin:miter;stroke-miterlimit:4;stroke-dasharray:none;stroke-dashoffset:0;stroke-opacity:1;color-rendering:auto;image-rendering:auto;shape-rendering:auto;text-rendering:auto;enable-background:accumulate" /><path
             sodipodi:nodetypes="ccscccccccccscccscccc"
             inkscape:connector-curvature="0"
             id="path848"
             d="m -717.98732,63.4449 c -2.01882,3.4e-4 -3.65532,1.636833 -3.65566,3.655656 0,9.488671 2.45076,21.375618 6.89946,32.302315 4.44869,10.926729 10.81008,20.969319 19.66713,26.082929 2.032,1.17318 4.12104,2.19495 6.24494,3.07459 0.4434,0.18346 0.91856,0.27784 1.39841,0.27777 h 37.85124 c 0.48038,2.4e-4 0.95612,-0.0941 1.4,-0.27777 2.12519,-0.88017 4.2097,-1.9023 6.24017,-3.07459 4.63197,-2.67427 8.51523,-6.78004 11.86093,-11.5656 0.0331,8e-5 0.0578,0.0195 0.091,0.0192 2.43777,-0.006 4.80353,-0.74208 7.56195,-1.76877 2.77049,-1.03118 5.7915,-2.42034 8.72729,-3.98132 2.93578,-1.56097 5.77416,-3.28621 8.16537,-5.03172 2.39121,-1.74553 4.34187,-3.327506 5.64472,-5.584109 3.64518,-6.31362 3.64517,-14.116575 0,-20.430198 -2.10047,-3.638131 -5.79253,-5.314076 -9.28601,-6.342329 -2.17946,-0.641488 -4.30907,-0.994055 -6.31998,-1.264315 0.0345,-0.807048 0.12451,-1.656281 0.12451,-2.436042 -2.4e-4,-2.019447 -1.6378,-3.656198 -3.65725,-3.655659 z"
             style="color:#000000;font-style:normal;font-variant:normal;font-weight:normal;font-stretch:normal;font-size:medium;line-height:normal;font-family:sans-serif;font-variant-ligatures:normal;font-variant-position:normal;font-variant-caps:normal;font-variant-numeric:normal;font-variant-alternates:normal;font-feature-settings:normal;text-indent:0;text-align:start;text-decoration:none;text-decoration-line:none;text-decoration-style:solid;text-decoration-color:#000000;letter-spacing:normal;word-spacing:normal;text-transform:none;writing-mode:lr-tb;direction:ltr;text-orientation:mixed;dominant-baseline:auto;baseline-shift:baseline;text-anchor:start;white-space:normal;shape-padding:0;clip-rule:nonzero;display:inline;overflow:visible;visibility:visible;opacity:1;isolation:auto;mix-blend-mode:normal;color-interpolation:sRGB;color-interpolation-filters:linearRGB;solid-color:#000000;solid-opacity:1;vector-effect:none;fill:#ffffff;fill-opacity:1;fill-rule:nonzero;stroke:none;stroke-width:7.311831;stroke-linecap:round;stroke-linejoin:round;stroke-miterlimit:4;stroke-dasharray:none;stroke-dashoffset:0;stroke-opacity:1;color-rendering:auto;image-rendering:auto;shape-rendering:auto;text-rendering:auto;enable-background:accumulate" /><path
             sodipodi:nodetypes="cccccccssccccsscc"
             inkscape:connector-curvature="0"
             id="path4271"
             d="m -718.47449,67.100285 c 0,17.677176 9.42987,46.381075 24.73876,55.219665 1.88801,1.09002 3.83277,2.04108 5.81552,2.86226 h 37.85124 c 1.98275,-0.82118 3.92433,-1.77224 5.81234,-2.86226 4.56521,-2.63573 8.60302,-7.04611 12.02854,-12.39572 0.52608,0.23537 1.10512,0.37261 1.71929,0.36397 5.98625,0 23.97125,-9.35782 26.96437,-14.542109 2.99313,-5.18422 2.99313,-11.590263 0,-16.774505 -2.70507,-4.685315 -10.94469,-5.674839 -16.2608,-6.221791 0.18779,-1.97303 0.28895,-3.8687 0.28895,-5.64951 z m 97.46242,13.759011 c 2.87948,0.169319 8.93508,-0.319979 10.38939,2.198966 1.53965,2.666744 1.53965,5.934429 0,8.601179 -1.22111,2.115 -12.34443,8.208623 -17.00948,9.788099 3.02134,-6.573519 5.26657,-13.776811 6.62009,-20.588244 z"
             style="opacity:1;fill:#734a08;fill-opacity:1;stroke:none;stroke-width:8.17335033;stroke-linecap:round;stroke-linejoin:round;stroke-miterlimit:4;stroke-dasharray:none;stroke-dashoffset:0;stroke-opacity:1" /><path
             inkscape:connector-curvature="0"
             style="fill:#734a08;fill-opacity:1;stroke-width:1.2441262"
             d="m -674.3724,6.9767184 c -1.31513,0.07289 -4.29849,1.356304 -8.99976,3.8530106 -5.93645,3.152666 -7.60469,4.916182 -7.60469,8.037438 0,3.36446 2.09638,5.196771 13.22527,11.547619 13.97391,7.974411 16.13609,11.337145 10.31733,16.063451 -1.60216,1.301376 -2.94139,2.792081 -2.97616,3.312112 -0.11523,1.726928 11.42387,-2.673115 15.63411,-5.961432 7.4671,-5.832016 5.83585,-7.751323 -17.30508,-20.381183 -7.08214,-3.865281 -7.99535,-7.485535 -3.30168,-13.061781 1.9743,-2.3455256 2.32578,-3.4821536 1.01066,-3.4092346 z"
             id="path4292" /><path
             id="path838"
             d="m -637.93462,153.01356 h -65.06274 c -2.97265,0 -5.82521,-1.17318 -7.93774,-3.26457 l -5.26125,-5.20866 c -1.01283,-1.00269 -0.30278,-2.72915 1.12243,-2.72915 h 89.21585 c 1.42521,0 2.13526,1.72646 1.12243,2.72915 l -5.26124,5.20866 c -2.11253,2.09139 -4.96508,3.26457 -7.93774,3.26457 z"
             inkscape:connector-curvature="0"
             style="fill:#734a08;fill-opacity:1;stroke-width:0.09506991"
             sodipodi:nodetypes="ssccssccs" /></g></g></g></g></svg>