<?xml version="1.0" encoding="UTF-8" standalone="no"?>
<!-- Generator: Adobe Illustrator 16.0.0, SVG Export Plug-In . SVG Version: 6.00 Build 0)  -->

<svg
   xmlns:dc="http://purl.org/dc/elements/1.1/"
   xmlns:cc="http://creativecommons.org/ns#"
   xmlns:rdf="http://www.w3.org/1999/02/22-rdf-syntax-ns#"
   xmlns:svg="http://www.w3.org/2000/svg"
   xmlns="http://www.w3.org/2000/svg"
   xmlns:sodipodi="http://sodipodi.sourceforge.net/DTD/sodipodi-0.dtd"
   xmlns:inkscape="http://www.inkscape.org/namespaces/inkscape"
   version="1.1"
   id="svg2"
   inkscape:output_extension="org.inkscape.output.svg.inkscape"
   sodipodi:docname="JH_amenity_theatre.svg"
   inkscape:version="0.91 r13725"
   sodipodi:version="0.32"
   x="0px"
   y="0px"
   width="580px"
   height="580px"
   viewBox="0 0 580 580"
   enable-background="new 0 0 580 580"
   xml:space="preserve"
   inkscape:export-filename="F:\_GRAFIKA\2016_08_29_Symboly_turistika\JH_icons\JH_amenity_theatre.png"
   inkscape:export-xdpi="31"
   inkscape:export-ydpi="31"><metadata
     id="metadata17"><rdf:RDF><cc:Work
         rdf:about=""><dc:format>image/svg+xml</dc:format><dc:type
           rdf:resource="http://purl.org/dc/dcmitype/StillImage" /></cc:Work></rdf:RDF></metadata><sodipodi:namedview
     showgrid="false"
     inkscape:cy="63.020648"
     inkscape:cx="396.24495"
     inkscape:zoom="1"
     pagecolor="#ffffff"
     bordercolor="#666666"
     guidetolerance="10.0"
     objecttolerance="10.0"
     gridtolerance="10.0"
     borderopacity="1.0"
     id="base"
     inkscape:current-layer="svg2"
     inkscape:window-y="-9"
     inkscape:window-x="-9"
     inkscape:pageopacity="0.0"
     inkscape:pageshadow="2"
     inkscape:window-width="2560"
     inkscape:window-height="1369"
     inkscape:window-maximized="1"
     showguides="true"
     inkscape:guide-bbox="true" /><defs
     id="defs4"><inkscape:perspective
       inkscape:vp_z="580 : 290 : 1"
       inkscape:vp_y="0 : 1000 : 0"
       inkscape:vp_x="0 : 290 : 1"
       sodipodi:type="inkscape:persp3d"
       id="perspective3653"
       inkscape:persp3d-origin="290 : 193.33333 : 1" /><inkscape:perspective
       inkscape:vp_z="355.02399 : 217.53 : 1"
       inkscape:vp_y="0 : 1000 : 0"
       inkscape:vp_x="0 : 217.53 : 1"
       sodipodi:type="inkscape:persp3d"
       id="perspective2512"
       inkscape:persp3d-origin="177.51199 : 145.02 : 1" /></defs><g
     id="g2121" /><g
     transform="matrix(31.052038,0,0,31.052038,759.91796,294.81414)"
     id="g4146" /><g
     id="g4175"
     transform="matrix(1.0925143,0,0,1.0925143,-18.815596,-23.413975)"><path
       id="path4172"
       d="m 36.046875,33.587891 0,264.455079 c 0,0 -5.3e-5,151.11719 151.117185,151.11719 18.82047,0 35.2962,-2.34518 49.72071,-6.44922 14.61161,43.44225 50.93552,97.44922 141.27929,97.44922 151.11724,0 151.11914,-151.11719 151.11914,-151.11719 l 0,-264.45508 c -72.53854,33.19561 -129.6031,44.09482 -191,34.71484 l 0,-125.714839 c -113.33792,51.86652 -188.8984,49.3052 -302.236325,0 z"
       style="fill:#ffffff;fill-opacity:1;stroke:none"
       inkscape:connector-curvature="0" /><path
       style="fill:#734a08;fill-opacity:1;stroke:none"
       id="theatre"
       d="m 68.233009,77.979979 0,217.364271 c 0,0 0,124.20815 124.208141,124.20815 15.14389,0 28.10921,-2.57981 39.78543,-5.82226 -1.81307,-15.00717 -0.97038,-25.22978 -0.97038,-25.22978 l 0,-6.79263 c -10.65119,4.15877 -23.59915,6.79263 -38.81505,6.79263 -93.156101,0 -93.156101,-93.15611 -93.156101,-93.15611 l 0,-170.78621 c 62.104071,29.56342 124.208141,29.56342 186.312221,0 l 0,35.90392 c 10.38647,4.13393 21.0108,7.99584 31.05203,10.67413 l 0,-93.156111 c -93.15611,42.630771 -155.26018,40.525541 -248.416291,0 z M 145.8631,171.13609 c -17.14957,0 -31.05204,13.90248 -31.05204,31.05204 0,17.14957 13.90247,31.05204 31.05204,31.05204 17.14957,0 31.05203,-13.90247 31.05203,-31.05204 0,-17.14956 -13.90246,-31.05204 -31.05203,-31.05204 z m 108.68213,0 0,217.36427 c 0,0 0,124.20815 124.20815,124.20815 124.20812,0 124.20812,-124.20815 124.20812,-124.20815 l 0,-217.36427 c -93.1561,42.63077 -155.26016,40.52554 -248.41627,0 z m 77.63009,93.15612 c 17.14958,0 31.05204,13.90247 31.05204,31.05204 0,17.14957 -13.90246,31.05203 -31.05204,31.05203 -17.14957,0 -31.05204,-13.90246 -31.05204,-31.05203 0,-17.14957 13.90247,-31.05204 31.05204,-31.05204 z m 93.15608,0 c 17.1496,0 31.0521,13.90247 31.0521,31.05204 0,17.14957 -13.9025,31.05203 -31.0521,31.05203 -17.1495,0 -31.052,-13.90246 -31.052,-31.05203 0,-17.14957 13.9025,-31.05204 31.052,-31.05204 z m -232.89025,15.52602 c -45.40553,0 -62.10407,31.57834 -62.10407,62.10407 l 100.91912,0 0,-51.42993 c -9.4491,-6.87968 -21.86442,-10.67414 -38.81505,-10.67414 z m 124.20815,108.68213 124.2082,0 c 0,31.05204 -31.0521,62.10408 -62.10412,62.10408 -31.05204,0 -62.10408,-31.05204 -62.10408,-62.10408 z"
       inkscape:connector-curvature="0" /></g></svg>