<?xml version="1.0" encoding="UTF-8" standalone="no"?>
<!-- Generator: Adobe Illustrator 16.0.0, SVG Export Plug-In . SVG Version: 6.00 Build 0)  -->

<svg
   xmlns:dc="http://purl.org/dc/elements/1.1/"
   xmlns:cc="http://creativecommons.org/ns#"
   xmlns:rdf="http://www.w3.org/1999/02/22-rdf-syntax-ns#"
   xmlns:svg="http://www.w3.org/2000/svg"
   xmlns="http://www.w3.org/2000/svg"
   xmlns:sodipodi="http://sodipodi.sourceforge.net/DTD/sodipodi-0.dtd"
   xmlns:inkscape="http://www.inkscape.org/namespaces/inkscape"
   version="1.1"
   id="svg2"
   inkscape:output_extension="org.inkscape.output.svg.inkscape"
   sodipodi:docname="JH_amenity_police.svg"
   inkscape:version="0.91 r13725"
   sodipodi:version="0.32"
   x="0px"
   y="0px"
   width="580px"
   height="580px"
   viewBox="0 0 580 580"
   enable-background="new 0 0 580 580"
   xml:space="preserve"
   inkscape:export-filename="/media/juhele/KONZERVA/__PRACE/JH_icons/JH_amenity_police.png"
   inkscape:export-xdpi="31"
   inkscape:export-ydpi="31"><metadata
     id="metadata17"><rdf:RDF><cc:Work
         rdf:about=""><dc:format>image/svg+xml</dc:format><dc:type
           rdf:resource="http://purl.org/dc/dcmitype/StillImage" /></cc:Work></rdf:RDF></metadata><sodipodi:namedview
     showgrid="false"
     inkscape:cy="106.98732"
     inkscape:cx="-5.9191531"
     inkscape:zoom="0.70710678"
     pagecolor="#ffffff"
     bordercolor="#666666"
     guidetolerance="10.0"
     objecttolerance="10.0"
     gridtolerance="10.0"
     borderopacity="1.0"
     id="base"
     inkscape:current-layer="g7472"
     inkscape:window-y="0"
     inkscape:window-x="0"
     inkscape:pageopacity="0.0"
     inkscape:pageshadow="2"
     inkscape:window-width="1920"
     inkscape:window-height="1125"
     inkscape:window-maximized="1"
     showguides="true"
     inkscape:guide-bbox="true" /><defs
     id="defs4"><inkscape:perspective
       inkscape:vp_z="580 : 290 : 1"
       inkscape:vp_y="0 : 1000 : 0"
       inkscape:vp_x="0 : 290 : 1"
       sodipodi:type="inkscape:persp3d"
       id="perspective3653"
       inkscape:persp3d-origin="290 : 193.33333 : 1" /><inkscape:perspective
       inkscape:vp_z="355.02399 : 217.53 : 1"
       inkscape:vp_y="0 : 1000 : 0"
       inkscape:vp_x="0 : 217.53 : 1"
       sodipodi:type="inkscape:persp3d"
       id="perspective2512"
       inkscape:persp3d-origin="177.51199 : 145.02 : 1" /></defs><g
     id="g2121" /><g
     id="g4198"
     transform="translate(-2.8338787,-220.28663)"><g
       id="g7472"
       transform="matrix(32.377863,0,0,32.377863,-606.20689,280.34132)"><g
         id="g7480"
         transform="matrix(1.131187,0,0,1.131187,-3.6426888,-0.93168077)"><path
           sodipodi:nodetypes="ccccccsssccccccccssccccccscscccs"
           inkscape:connector-curvature="0"
           id="path7476"
           d="m 25.574761,-0.36098358 -0.134765,0.13476562 -1.136719,1.13671873 0,2.70898443 0,0.056641 0.01563,0 c 0.02268,0.8634234 0.502994,1.5964497 1.148437,2.0898438 0.660806,0.5051375 1.493037,0.7988281 2.300781,0.7988281 0.807745,0 1.638024,-0.2936906 2.298829,-0.7988281 0.645442,-0.4933941 1.12576,-1.2264205 1.148437,-2.0898438 l 0.01563,0 0,-0.056641 0,-0.9804688 0,-1.72851563 -1.271484,-1.27148435 -4.384766,0 z M 24.76812,6.6390164 c -0.91369,0 -1.570522,0.6290018 -1.9375,1.3261719 -0.366977,0.6971702 -0.519328,1.4944828 -0.527343,2.1308587 l 0,0.002 0,4.466796 2.544922,0 1.410156,0 6.972656,0 0,-4.46289 c 0,-0.5992643 -0.06549,-1.3845263 -0.318359,-2.080078 C 32.786218,7.6740531 32.611303,7.3430425 32.342339,7.0804227 32.25918,6.9992249 32.112993,7.0062196 32.010308,6.943704 l -0.742188,-0.3046876 -0.226562,0 z"
           style="color:#000000;font-style:normal;font-variant:normal;font-weight:normal;font-stretch:normal;font-size:medium;line-height:normal;font-family:sans-serif;text-indent:0;text-align:start;text-decoration:none;text-decoration-line:none;text-decoration-style:solid;text-decoration-color:#000000;letter-spacing:normal;word-spacing:normal;text-transform:none;direction:ltr;block-progression:tb;writing-mode:lr-tb;baseline-shift:baseline;text-anchor:start;white-space:normal;clip-rule:nonzero;display:inline;overflow:visible;visibility:visible;opacity:1;isolation:auto;mix-blend-mode:normal;color-interpolation:sRGB;color-interpolation-filters:linearRGB;solid-color:#000000;solid-opacity:1;fill:#ffffff;fill-opacity:1;fill-rule:nonzero;stroke:none;stroke-width:0.92655897;stroke-linecap:butt;stroke-linejoin:miter;stroke-miterlimit:4;stroke-dasharray:none;stroke-dashoffset:0;stroke-opacity:1;color-rendering:auto;image-rendering:auto;shape-rendering:auto;text-rendering:auto;enable-background:accumulate" /><path
           inkscape:connector-curvature="0"
           d="m 25.767144,0.10192987 -1,1.00000003 0,0.9999999 5.999999,0 0,-0.9999999 -0.999999,-1.00000003 z m -1,2.99999993 c -0.0333,0.168726 0,0.3395259 0,0.5185186 0,1.431837 1.61931,2.4814814 3,2.4814814 1.38069,0 2.999999,-1.0496444 2.999999,-2.4814814 0,-0.1789927 0,-0.5185186 0,-0.5185186 z m 0,4 c -1.418906,0 -1.98585,1.8765782 -2,3.0000002 l 0,4 1.53125,0 5.46875,-7.0000002 z m 6.499999,0 -5.468749,7.0000002 6.968749,0 0,-4 c 0,-1.123526 -0.272842,-3.0000002 -1.5,-3.0000002 z"
           id="police"
           style="fill:#734a08;fill-opacity:1;stroke:none" /></g></g></g></svg>