<?xml version="1.0" encoding="UTF-8" standalone="no"?>
<!-- Generator: Adobe Illustrator 16.0.0, SVG Export Plug-In . SVG Version: 6.00 Build 0)  -->

<svg
   xmlns:dc="http://purl.org/dc/elements/1.1/"
   xmlns:cc="http://creativecommons.org/ns#"
   xmlns:rdf="http://www.w3.org/1999/02/22-rdf-syntax-ns#"
   xmlns:svg="http://www.w3.org/2000/svg"
   xmlns="http://www.w3.org/2000/svg"
   xmlns:sodipodi="http://sodipodi.sourceforge.net/DTD/sodipodi-0.dtd"
   xmlns:inkscape="http://www.inkscape.org/namespaces/inkscape"
   version="1.1"
   id="svg2"
   inkscape:output_extension="org.inkscape.output.svg.inkscape"
   sodipodi:docname="JH_amenity_cinema.svg"
   inkscape:version="0.91 r13725"
   sodipodi:version="0.32"
   x="0px"
   y="0px"
   width="580px"
   height="580px"
   viewBox="0 0 580 580"
   enable-background="new 0 0 580 580"
   xml:space="preserve"
   inkscape:export-filename="F:\_GRAFIKA\2016_08_29_Symboly_turistika\JH_icons\JH_amenity_cinema.png"
   inkscape:export-xdpi="31"
   inkscape:export-ydpi="31"><metadata
     id="metadata17"><rdf:RDF><cc:Work
         rdf:about=""><dc:format>image/svg+xml</dc:format><dc:type
           rdf:resource="http://purl.org/dc/dcmitype/StillImage" /></cc:Work></rdf:RDF></metadata><sodipodi:namedview
     showgrid="false"
     inkscape:cy="-152.44541"
     inkscape:cx="1169.1648"
     inkscape:zoom="0.70710678"
     pagecolor="#ffffff"
     bordercolor="#666666"
     guidetolerance="10.0"
     objecttolerance="10.0"
     gridtolerance="10.0"
     borderopacity="1.0"
     id="base"
     inkscape:current-layer="g4198"
     inkscape:window-y="-9"
     inkscape:window-x="-9"
     inkscape:pageopacity="0.0"
     inkscape:pageshadow="2"
     inkscape:window-width="2560"
     inkscape:window-height="1369"
     inkscape:window-maximized="1"
     showguides="true"
     inkscape:guide-bbox="true" /><defs
     id="defs4"><inkscape:perspective
       inkscape:vp_z="580 : 290 : 1"
       inkscape:vp_y="0 : 1000 : 0"
       inkscape:vp_x="0 : 290 : 1"
       sodipodi:type="inkscape:persp3d"
       id="perspective3653"
       inkscape:persp3d-origin="290 : 193.33333 : 1" /><inkscape:perspective
       inkscape:vp_z="355.02399 : 217.53 : 1"
       inkscape:vp_y="0 : 1000 : 0"
       inkscape:vp_x="0 : 217.53 : 1"
       sodipodi:type="inkscape:persp3d"
       id="perspective2512"
       inkscape:persp3d-origin="177.51199 : 145.02 : 1" /></defs><g
     id="g2121" /><g
     id="g4198"
     transform="translate(-2.8338787,-220.28663)"><g
       id="g4182"
       transform="matrix(1.4734236,0,0,1.4734236,-82.984905,-217.05836)"><g
         id="layer1"
         inkscape:label="Capa 1"
         transform="matrix(1.9298306,0,0,1.9298306,-1864.2205,-3.0352949)"><path
           sodipodi:nodetypes="cccsscccccccccccccccccccccccccccscc"
           inkscape:connector-curvature="0"
           id="path4176"
           d="m 1116.2445,161.3984 c -17.1225,77.59173 4.1376,317.48137 -0.1918,0.0158 -21.4499,0.0851 -39.4597,14.52377 -45.1929,34.19797 -7.3663,-9.26007 -18.7299,-15.21364 -31.4463,-15.21364 -22.1329,0 -40.18505,18.04923 -40.18505,40.18312 0,11.46271 4.86475,21.7923 12.60065,29.12479 l -10.4993,0 14.7736,30.76034 9.6666,-2.605 0.01,-0.0139 0,41.2497 41.5233,0 -0.095,7.21429 0.7593,0.002 -7.4641,26.95594 20.5069,0.0674 11.6154,-26.96783 1.5246,0.008 10.3824,26.88654 19.9498,0.0753 -5.9575,-27.01343 1.3006,-0.006 0.1367,-7.22222 37.7308,0 0,-31.68417 9.1413,0 30.2806,16.59146 c 0,-22.38298 0,-54.23345 0,-76.61644 l -30.2766,17.18136 -9.1413,0 0,-8.50489 -2.7101,0 c 5.4422,-7.72513 8.6992,-17.10921 8.6992,-27.25134 0,-26.13392 -21.3153,-47.41275 -47.439,-47.41524 z"
           style="color:#000000;font-style:normal;font-variant:normal;font-weight:normal;font-stretch:normal;font-size:medium;line-height:normal;font-family:sans-serif;text-indent:0;text-align:start;text-decoration:none;text-decoration-line:none;text-decoration-style:solid;text-decoration-color:#000000;letter-spacing:normal;word-spacing:normal;text-transform:none;direction:ltr;block-progression:tb;writing-mode:lr-tb;baseline-shift:baseline;text-anchor:start;white-space:normal;clip-rule:nonzero;display:inline;overflow:visible;visibility:visible;opacity:1;isolation:auto;mix-blend-mode:normal;color-interpolation:sRGB;color-interpolation-filters:linearRGB;solid-color:#000000;solid-opacity:1;fill:#ffffff;fill-opacity:1;fill-rule:nonzero;stroke:none;stroke-width:10.36360359;stroke-linecap:butt;stroke-linejoin:miter;stroke-miterlimit:4;stroke-dasharray:none;stroke-dashoffset:0;stroke-opacity:1;color-rendering:auto;image-rendering:auto;shape-rendering:auto;text-rendering:auto;enable-background:accumulate" /><path
           sodipodi:nodetypes="cccsscccccccccccccccccccccccccccccccccscccccccc"
           inkscape:connector-curvature="0"
           id="path2829"
           d="m 1116.6977,168.05181 c -20.5982,0.002 -37.6878,14.99161 -40.9666,34.65532 l -5.0938,0.96957 c -5.989,-10.11801 -17.0103,-16.90665 -29.6243,-16.90665 -19.006,0 -34.4064,15.39936 -34.4064,34.40636 0,16.161 11.136,29.70943 26.156,33.40643 l 0,3.84384 -6.9691,0 -0.031,-0.31374 -8.2493,-3.06151 -5.781,0 9.1248,18.9996 3.3753,-0.90985 1.8743,-3.05949 6.6564,0 0,42.96949 40.9749,0 -0.093,7.12619 2.303,0.008 -7.3529,26.55379 9.9927,0.0328 11.4451,-26.57553 8.4665,0.0444 10.2258,26.48434 9.6403,0.0367 -5.8578,-26.56117 2.6395,-0.0118 0.1347,-7.13804 37.0759,0 0,-31.2153 15.514,0 23.3242,12.78043 0,-57.40566 0,0.001 -23.3202,12.77942 -15.514,0 0,-8.37792 -9.1896,0 c 9.21,-7.62 15.09,-19.13702 15.09,-32.03102 0,-22.94365 -18.6175,-41.52813 -41.5556,-41.53032 l 0,0 z m -36.0915,62.09357 c 2.497,4.379 5.7608,8.27378 9.6248,11.46777 l -21.5308,0 c 2.254,-3.049 4.0035,-6.48349 5.1565,-10.18649 z"
           style="fill:#734a08;fill-opacity:1" /></g></g></g></svg>
