<?xml version="1.0" encoding="UTF-8" standalone="no"?>
<!-- Generator: Adobe Illustrator 16.0.0, SVG Export Plug-In . SVG Version: 6.00 Build 0)  -->

<svg
   xmlns:dc="http://purl.org/dc/elements/1.1/"
   xmlns:cc="http://creativecommons.org/ns#"
   xmlns:rdf="http://www.w3.org/1999/02/22-rdf-syntax-ns#"
   xmlns:svg="http://www.w3.org/2000/svg"
   xmlns="http://www.w3.org/2000/svg"
   xmlns:sodipodi="http://sodipodi.sourceforge.net/DTD/sodipodi-0.dtd"
   xmlns:inkscape="http://www.inkscape.org/namespaces/inkscape"
   version="1.1"
   id="svg2"
   inkscape:output_extension="org.inkscape.output.svg.inkscape"
   sodipodi:docname="JH_food_beer_biergarten_pub.svg"
   inkscape:version="0.92.2 (5c3e80d, 2017-08-06)"
   sodipodi:version="0.32"
   x="0px"
   y="0px"
   width="580px"
   height="580px"
   viewBox="0 0 580 580"
   enable-background="new 0 0 580 580"
   xml:space="preserve"
   inkscape:export-filename="/media/juhele/data_2TB/_GRAFIKA/2018_03_22_Symboly_turistika/JH_icons/JH_food_beer_biergarten_pub.png"
   inkscape:export-xdpi="33.103447"
   inkscape:export-ydpi="33.103447"><metadata
     id="metadata17"><rdf:RDF><cc:Work
         rdf:about=""><dc:format>image/svg+xml</dc:format><dc:type
           rdf:resource="http://purl.org/dc/dcmitype/StillImage" /></cc:Work></rdf:RDF></metadata><sodipodi:namedview
     showgrid="false"
     inkscape:cy="-340.37866"
     inkscape:cx="-754.11438"
     inkscape:zoom="0.35355339"
     pagecolor="#ffffff"
     bordercolor="#666666"
     guidetolerance="10.0"
     objecttolerance="10.0"
     gridtolerance="10.0"
     borderopacity="1.0"
     id="base"
     inkscape:current-layer="g4264"
     inkscape:window-y="0"
     inkscape:window-x="0"
     inkscape:pageopacity="0.0"
     inkscape:pageshadow="2"
     inkscape:window-width="1920"
     inkscape:window-height="1140"
     inkscape:window-maximized="1" /><defs
     id="defs4"><inkscape:perspective
       inkscape:vp_z="580 : 290 : 1"
       inkscape:vp_y="0 : 1000 : 0"
       inkscape:vp_x="0 : 290 : 1"
       sodipodi:type="inkscape:persp3d"
       id="perspective3653"
       inkscape:persp3d-origin="290 : 193.33333 : 1" /><inkscape:perspective
       inkscape:vp_z="355.02399 : 217.53 : 1"
       inkscape:vp_y="0 : 1000 : 0"
       inkscape:vp_x="0 : 217.53 : 1"
       sodipodi:type="inkscape:persp3d"
       id="perspective2512"
       inkscape:persp3d-origin="177.51199 : 145.02 : 1" /></defs><g
     id="g2121" /><g
     id="g4198"
     transform="translate(-2.8338787,-220.28663)"><g
       transform="matrix(81.437956,0,0,81.437956,-24797.77,-48180.737)"
       id="g43"><g
         transform="matrix(0.00664475,0,0,0.00664475,306.1645,591.97915)"
         id="g4"
         style="stroke:#000000;stroke-width:4.99999857;stroke-miterlimit:4;stroke-dasharray:none;stroke-opacity:1"><g
           transform="matrix(2.7088,0.68982,-0.68982,2.7088,-600.86,144.48)"
           id="g6"
           style="stroke:#000000;stroke-width:1.78874528;stroke-miterlimit:4;stroke-dasharray:none;stroke-opacity:1"><g
             id="g4434"
             transform="matrix(0.65664901,0.0766632,-0.0766632,0.65664901,-59.8231,-10.336049)"><g
               id="g4264"><g
                 transform="matrix(0.48461602,-0.18550558,0.17674505,0.46172994,531.24164,120.88448)"
                 id="layer1" /><g
                 id="g1003"
                 transform="matrix(1.0477755,0,0,1.0477755,1163.6745,-451.02482)"><path
                   sodipodi:nodetypes="cssccsssccccccssscccsscccccscsssccccccssccccssscscccccccc"
                   inkscape:connector-curvature="0"
                   id="path977"
                   d="m -437.24805,430.76172 c -6.04811,0.17818 -12.44671,0.78347 -19.29297,1.70117 -27.38502,3.67079 -61.54251,12.86686 -97.89257,26.78125 l -21.12891,8.08789 0.25391,0.47656 c -27.49166,11.72756 -51.57209,24.40593 -69.87696,36.87305 -11.41814,7.77669 -20.66747,15.28601 -27.71875,23.74024 -3.52564,4.22711 -6.60787,8.71896 -8.69922,14.49414 -2.09134,5.77517 -2.97401,13.60931 -0.13671,21.02148 l 13.43554,35.09766 c 0.6867,2.61711 1.40397,5.31685 2.59571,8.63867 l 0.084,0.23047 69.23438,179.00195 44.94335,117.4082 c 2.83736,7.41233 8.72385,12.65399 14.13672,15.55664 5.41288,2.90266 10.70716,4.18767 16.1543,4.98047 10.89428,1.5856 22.79339,1.00058 36.48633,-0.83398 27.38587,-3.66913 61.5458,-12.86467 97.89648,-26.7793 4.54347,-1.73918 9.01553,-3.51303 13.4043,-5.31445 l 0.002,-0.002 c 32.91637,-13.51527 61.12212,-28.45556 81.52344,-43.0293 10.20066,-7.28687 18.48141,-14.32237 24.83203,-22.42383 6.35063,-8.10146 12.86189,-20.00062 7.55469,-33.90039 l -0.0957,-0.25195 c -0.73853,-1.92936 -3.67904,-9.8008 -6.94532,-18.6836 0.32962,-0.20827 0.4682,-0.34837 1.60547,-0.84961 v 0.002 c 6.33029,-2.78981 18.16036,-8.85096 31.2207,-17.57813 13.06035,-8.72716 27.12394,-18.51428 35.3086,-35.27148 9.71634,-19.89427 14.33129,-37.88023 11.12305,-56.91211 -3.20825,-19.03189 -11.5658,-37.51804 -23.96289,-69.9043 -12.35689,-32.28121 -17.98533,-51.18329 -27.82422,-67.30859 -9.8389,-16.1253 -25.14723,-26.36087 -45.42969,-34.32617 -19.69168,-7.73319 -40.30902,-4.87482 -59.50391,-0.45313 -9.97491,2.29769 -18.67679,5.21114 -24.56054,6.90625 -1.06136,0.30578 -1.24551,0.30269 -2.08594,0.51562 -1.32608,-1.11414 -1.84282,-1.49053 -2.95899,-2.48242 -7.9576,-22.00299 -14.88577,-40.38752 -16.19531,-43.80859 -2.83736,-7.41234 -8.72552,-12.65414 -14.13867,-15.55664 -5.41316,-2.9025 -10.70718,-4.18806 -16.1543,-4.98047 -5.44711,-0.79241 -11.14524,-1.04146 -17.19336,-0.86328 z m 115.20313,127.67773 v 0.002 c 13.36864,4.13124 17.13773,8.31818 22.76172,18.87304 5.62398,10.55486 10.76755,28.08395 19.45508,50.7793 8.63497,22.55805 15.27509,36.64965 17.1914,44.46875 1.91631,7.8191 2.13206,9.00774 -3.875,19.62109 -0.35787,0.6323 -6.47468,6.7266 -13.42578,10.5625 -4.35114,2.40114 -9.37462,3.97976 -12.21094,4.87891 -17.03856,-44.89681 -37.23957,-97.57922 -54.82422,-142.12109 2.13765,-0.89205 3.9809,-1.68365 6.38477,-2.58789 9.11185,-3.42778 20.22149,-3.95771 18.54297,-4.47657 z m 54.89453,215.53907 c 0.004,0.0506 0.02,0.20376 0.0195,0.20507 -0.002,0.005 -0.21449,-0.009 -0.0195,-0.20507 z"
                   style="color:#000000;font-style:normal;font-variant:normal;font-weight:normal;font-stretch:normal;font-size:medium;line-height:normal;font-family:sans-serif;font-variant-ligatures:normal;font-variant-position:normal;font-variant-caps:normal;font-variant-numeric:normal;font-variant-alternates:normal;font-feature-settings:normal;text-indent:0;text-align:start;text-decoration:none;text-decoration-line:none;text-decoration-style:solid;text-decoration-color:#000000;letter-spacing:normal;word-spacing:normal;text-transform:none;writing-mode:lr-tb;direction:ltr;text-orientation:mixed;dominant-baseline:auto;baseline-shift:baseline;text-anchor:start;white-space:normal;shape-padding:0;clip-rule:nonzero;display:inline;overflow:visible;visibility:visible;opacity:1;isolation:auto;mix-blend-mode:normal;color-interpolation:sRGB;color-interpolation-filters:linearRGB;solid-color:#000000;solid-opacity:1;vector-effect:none;fill:#ffffff;fill-opacity:1;fill-rule:nonzero;stroke:none;stroke-width:40;stroke-linecap:butt;stroke-linejoin:miter;stroke-miterlimit:4;stroke-dasharray:none;stroke-dashoffset:0;stroke-opacity:1;color-rendering:auto;image-rendering:auto;shape-rendering:auto;text-rendering:auto;enable-background:accumulate" /><path
                   style="fill:#734a08;fill-opacity:1;stroke:none;stroke-width:1.95524848px"
                   d="m -547.28391,477.92306 c -70.31365,26.91527 -122.15021,62.21955 -115.78145,78.85734 l 13.54257,35.37868 c 0.59781,2.48353 1.38333,5.26087 2.63625,8.75323 l 69.15903,178.80525 44.95449,117.43941 c 6.36876,16.63779 68.53381,8.31062 138.84575,-18.604 4.3946,-1.6822 8.71956,-3.39798 12.96034,-5.13866 63.59981,-26.1137 108.7776,-58.11844 102.82112,-73.71869 0,0 -0.006,-0.013 -0.006,-0.013 -0.89243,-2.33139 -3.9607,-10.34698 -8.88431,-23.90386 0,0 -2.17967,-14.13904 14.07451,-21.30291 9.09174,-4.0068 47.16751,-23.96296 56.62393,-43.32394 18.05246,-36.96252 11.45672,-45.56749 -13.54762,-110.889 -25.00517,-65.32366 -24.28437,-75.40163 -61.88657,-90.16872 -11.73362,-4.60795 -30.90097,-3.45091 -47.7032,0.41961 -17.59227,4.05233 -32.66561,10.88587 -37.32464,8.26234 -6.61204,-3.72341 -13.84656,-11.32553 -13.84656,-11.32553 -9.17294,-25.60115 -16.35149,-44.366 -17.79788,-48.14457 -6.36876,-16.63779 -68.5316,-8.30437 -138.84339,18.61019 z m 199.65106,66.26619 c 10.29469,-3.87275 22.9266,-7.51089 31.48998,-4.8638 35.363,10.92804 38.32366,38.0744 54.98914,81.61144 16.66488,43.53541 27.15581,54.38937 12.04297,81.09092 -7.69988,13.60449 -33.91413,26.17056 -44.49161,26.4523 -10.56308,0.281 -14.17162,-5.71722 -14.18145,-5.73368 -18.18534,-47.98159 -40.99283,-107.55512 -59.92253,-155.37007 0,0 -2.83136,-14.09264 5.45309,-17.26382 3.10642,-1.18911 8.44352,-3.59977 14.62041,-5.92329 z"
                   id="path897"
                   inkscape:connector-curvature="0" /><rect
                   rx="7.7805266"
                   ry="12.567261"
                   transform="rotate(-20.946286)"
                   y="300.46558"
                   x="-748.73175"
                   height="358.50311"
                   width="30.689857"
                   id="rect981"
                   style="opacity:1;fill:#ffffff;fill-opacity:1;stroke:none;stroke-width:22.61017418;stroke-miterlimit:4;stroke-dasharray:none;stroke-dashoffset:0;stroke-opacity:1" /><rect
                   style="opacity:1;fill:#ffffff;fill-opacity:1;stroke:none;stroke-width:22.61017418;stroke-miterlimit:4;stroke-dasharray:none;stroke-dashoffset:0;stroke-opacity:1"
                   id="rect987"
                   width="30.689857"
                   height="358.50311"
                   x="-638.73175"
                   y="300.46558"
                   transform="rotate(-20.946286)"
                   ry="12.567261"
                   rx="7.7805266" /><path
                   sodipodi:nodetypes="cccscsccccccccccscccccccccccscscccccccscscsccccsscccsccscccccc"
                   inkscape:connector-curvature="0"
                   id="path993"
                   d="m -474.39234,361.81658 c -6.00875,0.65487 -11.98717,2.6246 -17.7866,5.71874 -1.49825,0.79934 -2.74793,1.72568 -4.08631,2.61043 -6.49573,1.47858 -13.31628,4.14376 -20.50232,7.97768 -5.87813,3.13611 -11.04366,6.50704 -15.41079,10.14309 -5.30916,0.75123 -10.54693,2.4421 -15.45766,5.0621 -3.80949,2.03246 -7.18863,4.5819 -10.1798,7.44756 -8.15884,-0.99944 -16.74574,0.43326 -24.55839,4.60148 l -4.27568,2.28137 -0.20527,0.50193 c -2.63877,1.85472 -5.01459,3.97489 -7.10918,6.30477 -0.78777,0.34143 -1.46071,0.48596 -2.28635,0.92647 -4.79676,2.55918 -8.78883,5.96268 -11.71629,10.17978 -8.52815,4.75965 -15.08962,11.82228 -19.03738,20.04754 -7.83383,1.05304 -15.76324,3.52533 -23.38674,7.59266 -4.69297,2.50379 -8.73904,5.53077 -12.48282,8.73416 -6.33261,0.50495 -12.11729,3.09421 -16.98759,6.57823 -6.75245,4.83043 -12.28104,11.62285 -15.99266,19.86751 -2.22279,4.93727 -4.44222,7.6733 -5.84445,14.15419 -0.0872,0.40318 -0.11806,0.89993 -0.17821,1.35223 -2.68474,1.92389 -4.33679,3.36628 -4.86481,3.64799 -13.81049,7.36827 -18.54045,22.79589 -16.01029,37.49553 -11.50048,11.57541 -14.87196,29.79545 -6.82894,44.87079 5.68962,10.66417 15.79855,17.58715 26.92129,19.63037 0.30543,0.66652 0.48197,1.34851 0.83328,2.00699 10.81969,20.27927 36.74498,26.32294 57.29366,15.87801 5.13602,-0.0684 10.20031,-1.47268 15.0636,-4.06738 0.8104,-0.43237 1.27309,-0.88838 1.98172,-1.34515 4.77405,-0.68213 9.51473,-2.17834 13.9905,-4.56626 7.81642,-4.17025 13.78214,-10.50689 17.49387,-17.83654 4.04713,-0.88865 8.04792,-2.27514 11.85861,-4.30822 4.90923,-2.61919 9.22936,-6.02681 12.80908,-10.01674 5.4932,-1.61265 11.18565,-4.0494 17.08149,-7.19497 7.22217,-3.85318 13.21904,-8.06257 18.03334,-12.62497 1.43003,-0.56251 2.70567,-0.97045 4.38081,-1.86416 7.73267,-4.12556 13.98059,-9.62765 18.17683,-16.46687 2.42165,-3.94696 4.21585,-8.86323 4.4328,-14.01807 0.0791,-0.0749 0.14851,-0.15572 0.2268,-0.23123 2.12313,-0.70086 4.27219,-1.53387 6.42991,-2.68507 7.84541,-4.18571 13.85782,-10.53552 17.58808,-17.91536 4.0454,-0.90932 8.02396,-2.31142 11.80323,-4.32775 4.89714,-2.61273 9.18682,-6.02025 12.73616,-9.97938 5.49374,-1.61263 11.18687,-4.04934 17.08324,-7.19519 7.17748,-3.82935 13.1582,-8.01241 17.97212,-12.55027 1.48106,-0.6198 2.95099,-1.14263 4.44374,-1.93907 7.73263,-4.12554 13.98062,-9.62767 18.17684,-16.46688 2.37532,-3.87141 4.14143,-8.67639 4.41506,-13.72305 3.15607,-2.92309 5.80124,-6.28154 7.68314,-10.11768 3.34653,-6.82164 4.36227,-15.84746 0.15468,-23.73385 -3.76222,-7.05165 -10.2876,-10.95848 -17.17839,-12.53176 -2.93902,-4.69309 -6.40938,-8.6884 -10.64782,-11.80585 -0.32657,-0.2402 -0.76733,-0.45064 -1.11809,-0.68905 -0.24789,-3.12551 -1.04769,-6.26779 -2.64886,-9.26888 -4.18578,-7.84551 -12.20405,-12.06218 -19.7296,-13.10137 -4.23064,-0.58421 -8.49249,-0.26365 -12.67737,0.7261 -4.34526,-2.58482 -9.32223,-3.79323 -13.86213,-3.97609 -2.00435,-0.0807 -4.01017,-0.009 -6.01309,0.20941 z m -42.94849,177.36908 -0.22792,0.12377 c 0.005,-0.003 0.008,-0.006 0.013,-0.009 0.0712,-0.0377 0.09,-0.0453 0.21487,-0.11518 z"
                   style="color:#000000;font-style:normal;font-variant:normal;font-weight:normal;font-stretch:normal;font-size:medium;line-height:normal;font-family:sans-serif;font-variant-ligatures:normal;font-variant-position:normal;font-variant-caps:normal;font-variant-numeric:normal;font-variant-alternates:normal;font-feature-settings:normal;text-indent:0;text-align:start;text-decoration:none;text-decoration-line:none;text-decoration-style:solid;text-decoration-color:#000000;letter-spacing:normal;word-spacing:normal;text-transform:none;writing-mode:lr-tb;direction:ltr;text-orientation:mixed;dominant-baseline:auto;baseline-shift:baseline;text-anchor:start;white-space:normal;shape-padding:0;clip-rule:nonzero;display:inline;overflow:visible;visibility:visible;opacity:1;isolation:auto;mix-blend-mode:normal;color-interpolation:sRGB;color-interpolation-filters:linearRGB;solid-color:#000000;solid-opacity:1;vector-effect:none;fill:#734a08;fill-opacity:1;fill-rule:nonzero;stroke:none;stroke-width:26.88242531;stroke-linecap:butt;stroke-linejoin:miter;stroke-miterlimit:4;stroke-dasharray:none;stroke-dashoffset:0;stroke-opacity:1;color-rendering:auto;image-rendering:auto;shape-rendering:auto;text-rendering:auto;enable-background:accumulate" /><path
                   inkscape:connector-curvature="0"
                   style="fill:#ffffff;fill-opacity:1;stroke:none;stroke-width:2.22207427"
                   sodipodi:nodetypes="scscscsscsscsscscsscscscscscsscscscscscsscsscsccscscscscs"
                   d="m -575.7682,415.30559 c 7.59815,-4.05379 16.01804,-4.31961 23.04,-1.54003 2.91031,-4.28037 6.81831,-7.90694 11.69751,-10.5101 4.7026,-2.50895 9.76403,-3.80277 14.75759,-3.9206 3.6781,-3.63192 9.34843,-7.6756 16.11191,-11.28407 7.23706,-3.86115 14.16741,-6.35487 19.35897,-7.24523 1.59348,-1.19702 3.34702,-2.33907 5.22935,-3.34334 11.70731,-6.24613 24.1668,-5.74497 27.83031,1.12164 0.0875,0.16394 0.1152,0.36238 0.1916,0.53027 0.0236,-0.0131 0.0476,-0.0254 0.071,-0.0379 9.49228,-5.06435 20.12547,-3.5888 23.78897,3.2778 2.03077,3.80632 1.46679,8.46227 -1.04075,12.73014 0.11717,-0.0772 0.22967,-0.12258 0.3545,-0.18906 4.42984,-2.36344 12.12892,3.27311 17.1115,12.6121 0.52054,0.97569 0.94755,1.93578 1.36852,2.90653 6.05278,-0.41202 11.41923,1.7719 13.80057,6.23534 3.66343,6.86648 -1.10292,16.55823 -10.5958,21.62291 0.0965,0.15632 0.17566,0.32916 0.26265,0.49228 3.66343,6.86646 -2.85826,17.49471 -14.56561,23.74086 -1.89265,1.00979 -3.79713,1.82313 -5.68883,2.48172 -3.63401,3.80822 -9.51252,8.15845 -16.72733,12.00771 -6.79444,3.62499 -13.34039,6.1128 -18.41511,7.13692 -2.87818,4.08187 -6.70044,7.52777 -11.40363,10.03703 -4.84552,2.58518 -10.0686,3.87472 -15.21066,3.92516 -1.60662,7.37317 -6.58855,14.26747 -14.18056,18.31799 -2.31608,1.23569 -4.74008,2.07079 -7.15686,2.63243 -1.98509,2.50679 -4.59954,4.74667 -7.83871,6.47485 -0.0236,0.0131 -0.047,0.0254 -0.071,0.0379 0.11097,0.17484 0.26832,0.33178 0.36659,0.51596 3.66343,6.86648 -2.85818,17.4947 -14.56567,23.74091 -1.84355,0.98358 -3.73612,1.6941 -5.57981,2.34453 -3.62098,3.83903 -9.5378,8.25105 -16.83589,12.14473 -6.79456,3.62506 -13.34044,6.11281 -18.41526,7.13699 -2.87813,4.08191 -6.77132,7.56558 -11.47441,10.07478 -4.87868,2.60291 -10.06668,3.82927 -15.24344,3.86356 -1.60653,7.37313 -6.51786,14.22978 -14.10891,18.27979 -3.95816,2.11176 -8.19021,3.22234 -12.30264,3.40132 -1.11352,0.917 -2.29246,1.7765 -3.66946,2.51117 -4.08235,2.17804 -8.3978,2.85087 -11.81249,2.27024 -0.7792,0.50194 -1.58121,1.00192 -2.41557,1.44704 -14.87168,7.93434 -32.76275,3.46186 -39.94329,-9.99657 -1.47252,-2.7601 -2.3283,-5.69958 -2.71381,-8.67124 -9.89422,1.26568 -20.04566,-3.60271 -25.04143,-12.96639 -6.44776,-12.08529 -1.91434,-27.04433 10.10965,-33.45941 0.0466,-0.0247 0.0945,-0.0507 0.14163,-0.0756 -5.31032,-12.26912 -2.41876,-25.58946 7.05648,-30.64476 6.24179,-3.33013 9.66041,-10.11166 16.21191,-5.80331 -0.36019,-0.51539 -0.71202,-1.0262 -1.02818,-1.58601 -6.15794,-4.42528 -3.27059,-7.21335 1.6333,-18.10588 5.49732,-12.21127 16.78117,-20.19627 25.60836,-18.40621 3.85395,-3.93781 8.49448,-7.53631 13.92435,-10.43324 8.998,-4.80065 18.42816,-6.94239 26.79337,-6.62618 1.68936,-8.63832 7.50824,-16.73414 16.40769,-21.48219 0.81071,-0.43255 1.64984,-0.80389 2.47632,-1.1629 1.40515,-3.18457 4.34924,-6.35248 8.46346,-8.54752 1.37701,-0.73466 2.81839,-1.27313 4.2,-1.68738 2.43837,-3.31601 5.71762,-6.21288 9.67594,-8.32475 z"
                   id="path917" /></g></g></g></g></g></g></g></svg>