<?xml version="1.0" encoding="UTF-8" standalone="no"?>
<!-- Generator: Adobe Illustrator 16.0.0, SVG Export Plug-In . SVG Version: 6.00 Build 0)  -->

<svg
   xmlns:dc="http://purl.org/dc/elements/1.1/"
   xmlns:cc="http://creativecommons.org/ns#"
   xmlns:rdf="http://www.w3.org/1999/02/22-rdf-syntax-ns#"
   xmlns:svg="http://www.w3.org/2000/svg"
   xmlns="http://www.w3.org/2000/svg"
   xmlns:xlink="http://www.w3.org/1999/xlink"
   xmlns:sodipodi="http://sodipodi.sourceforge.net/DTD/sodipodi-0.dtd"
   xmlns:inkscape="http://www.inkscape.org/namespaces/inkscape"
   version="1.1"
   id="svg2"
   inkscape:output_extension="org.inkscape.output.svg.inkscape"
   sodipodi:docname="JH_food_barbecue_BBQ.svg"
   inkscape:version="0.92.2 (5c3e80d, 2017-08-06)"
   sodipodi:version="0.32"
   x="0px"
   y="0px"
   width="580px"
   height="580px"
   viewBox="0 0 580 580"
   enable-background="new 0 0 580 580"
   xml:space="preserve"
   inkscape:export-filename="/media/juhele/data_2TB/_GRAFIKA/2018_03_22_Symboly_turistika/JH_icons/JH_food_barbecue_BBQ.png"
   inkscape:export-xdpi="33.103447"
   inkscape:export-ydpi="33.103447"><metadata
     id="metadata17"><rdf:RDF><cc:Work
         rdf:about=""><dc:format>image/svg+xml</dc:format><dc:type
           rdf:resource="http://purl.org/dc/dcmitype/StillImage" /><dc:title /></cc:Work></rdf:RDF></metadata><sodipodi:namedview
     showgrid="false"
     inkscape:cy="176.12113"
     inkscape:cx="340.68462"
     inkscape:zoom="1"
     pagecolor="#ffffff"
     bordercolor="#666666"
     guidetolerance="10.0"
     objecttolerance="10.0"
     gridtolerance="10.0"
     borderopacity="1.0"
     id="base"
     inkscape:current-layer="g4182"
     inkscape:window-y="0"
     inkscape:window-x="0"
     inkscape:pageopacity="0.0"
     inkscape:pageshadow="2"
     inkscape:window-width="1920"
     inkscape:window-height="1140"
     inkscape:window-maximized="1" /><defs
     id="defs4"><inkscape:perspective
       inkscape:vp_z="580 : 290 : 1"
       inkscape:vp_y="0 : 1000 : 0"
       inkscape:vp_x="0 : 290 : 1"
       sodipodi:type="inkscape:persp3d"
       id="perspective3653"
       inkscape:persp3d-origin="290 : 193.33333 : 1" /><inkscape:perspective
       inkscape:vp_z="355.02399 : 217.53 : 1"
       inkscape:vp_y="0 : 1000 : 0"
       inkscape:vp_x="0 : 217.53 : 1"
       sodipodi:type="inkscape:persp3d"
       id="perspective2512"
       inkscape:persp3d-origin="177.51199 : 145.02 : 1" /><inkscape:perspective
       id="perspective30"
       inkscape:persp3d-origin="35.074001 : 19.682 : 1"
       inkscape:vp_z="70.148003 : 29.523001 : 1"
       inkscape:vp_y="0 : 1000 : 0"
       inkscape:vp_x="0 : 29.523001 : 1"
       sodipodi:type="inkscape:persp3d" /><linearGradient
       id="linearGradient3759"><stop
         offset="0"
         style="stop-color:#7b7b7b"
         id="stop3761" /><stop
         offset=".39825"
         style="stop-color:#969696"
         id="stop3763" /><stop
         offset="1"
         style="stop-color:#7d7d7d"
         id="stop3765" /></linearGradient><linearGradient
       id="linearGradient3723"><stop
         offset="0"
         style="stop-color:#868686"
         id="stop3725" /><stop
         offset="1"
         style="stop-color:#333333"
         id="stop3727" /></linearGradient><linearGradient
       x1="216.17"
       y1="383.44"
       x2="262.32"
       gradientUnits="userSpaceOnUse"
       y2="589.85"
       id="linearGradient3696"><stop
         offset="0"
         style="stop-color:#7b7b7b"
         id="stop3692" /><stop
         offset=".66682"
         style="stop-color:#9a9a9a"
         id="stop3698" /><stop
         offset="1"
         style="stop-color:#7d7d7d"
         id="stop3694" /></linearGradient><radialGradient
       r="30.917"
       gradientTransform="matrix(-0.44009,-1.8824,1.0715,-0.2505,-83.081,1012.8)"
       cx="251.1"
       cy="422.6"
       gradientUnits="userSpaceOnUse"
       xlink:href="#linearGradient3723"
       id="radialGradient3729" /><linearGradient
       x1="142.93"
       y1="434.28"
       x2="181.83"
       gradientUnits="userSpaceOnUse"
       y2="599.19"
       id="linearGradient3739"><stop
         offset="0"
         style="stop-color:#7b7b7b"
         id="stop3815" /><stop
         offset=".61307"
         style="stop-color:#919191"
         id="stop3817" /><stop
         offset="1"
         style="stop-color:#7d7d7d"
         id="stop3819" /></linearGradient><linearGradient
       x1="61.573"
       y1="441.15"
       x2="78.543"
       gradientUnits="userSpaceOnUse"
       xlink:href="#linearGradient3759"
       y2="585.4"
       id="linearGradient3741" /><linearGradient
       x1="135.86"
       y1="377.7"
       gradientTransform="translate(-0.17678)"
       x2="86.714"
       gradientUnits="userSpaceOnUse"
       xlink:href="#linearGradient3723"
       y2="372.22"
       id="linearGradient3753" /><linearGradient
       x1="97.758"
       y1="351.44"
       x2="101.12"
       gradientUnits="userSpaceOnUse"
       y2="376.72"
       id="linearGradient3788"><stop
         offset="0"
         style="stop-color:#7b7b7b"
         id="stop3769" /><stop
         offset=".59164"
         style="stop-color:#aaaaaa"
         id="stop3771" /><stop
         offset="1"
         style="stop-color:#7d7d7d"
         id="stop3773" /></linearGradient><linearGradient
       x1="111.19"
       y1="356.92"
       x2="107.13"
       gradientUnits="userSpaceOnUse"
       xlink:href="#linearGradient3759"
       y2="393.69"
       id="linearGradient3798" /><linearGradient
       x1="234.75"
       y1="431.86"
       x2="261.72"
       gradientUnits="userSpaceOnUse"
       y2="443.62"
       id="linearGradient3807"><stop
         offset="0"
         style="stop-color:#5c5c5c"
         id="stop2858" /><stop
         offset="1"
         style="stop-color:#727272"
         id="stop2860" /></linearGradient><linearGradient
       x1="174.23"
       y1="446.17"
       gradientTransform="translate(0.125,0.75)"
       x2="178.93"
       gradientUnits="userSpaceOnUse"
       y2="459.81"
       id="linearGradient3866"><stop
         offset="0"
         style="stop-color:#848484"
         id="stop3825" /><stop
         offset="1"
         style="stop-color:#cacaca"
         id="stop3829" /></linearGradient><linearGradient
       x1="85.342"
       y1="584.99"
       gradientTransform="matrix(0.98577,0,0,0.98577,1.1733,6.8455)"
       x2="107.32"
       gradientUnits="userSpaceOnUse"
       xlink:href="#linearGradient3723"
       y2="623.48"
       id="linearGradient3880" /><linearGradient
       x1="85.342"
       y1="584.99"
       gradientTransform="matrix(0.98577,0,0,0.98577,77.173,6.8455)"
       x2="107.32"
       gradientUnits="userSpaceOnUse"
       xlink:href="#linearGradient3723"
       y2="623.48"
       id="linearGradient3884" /><linearGradient
       x1="85.342"
       y1="584.99"
       gradientTransform="matrix(0.98577,0,0,0.98577,156.17,6.8455)"
       x2="107.32"
       gradientUnits="userSpaceOnUse"
       xlink:href="#linearGradient3723"
       y2="623.48"
       id="linearGradient3888" /><linearGradient
       id="4"><stop
         id="N" /><stop
         stop-opacity="0"
         offset="1"
         id="O" /></linearGradient><linearGradient
       id="3"><stop
         stop-opacity="0.323"
         id="L" /><stop
         stop-opacity="0"
         stop-color="#fff"
         id="M"
         offset="1" /></linearGradient><linearGradient
       id="2"><stop
         stop-color="#303030"
         id="J" /><stop
         stop-color="#272727"
         id="K"
         offset="1" /></linearGradient><radialGradient
       r="21.724001"
       cy="39.349998"
       cx="37.009998"
       gradientTransform="matrix(1,0,0,0.42592594,0,30.295012)"
       gradientUnits="userSpaceOnUse"
       id="radialGradient6385"
       xlink:href="#2"
       inkscape:collect="always" /><radialGradient
       inkscape:collect="always"
       xlink:href="#2"
       id="radialGradient6134-4"
       gradientUnits="userSpaceOnUse"
       gradientTransform="matrix(1,0,0,0.42592594,0,30.295012)"
       cx="37.009998"
       cy="39.349998"
       r="21.724001" /><linearGradient
       id="linearGradient3987-4-3-9"><stop
         offset="0"
         style="stop-color:#606060"
         id="stop3989-3-86-7" /><stop
         offset="1"
         style="stop-color:#cacaca;stop-opacity:.94382"
         id="stop3991-8-96-5" /></linearGradient><linearGradient
       id="linearGradient4179-9-9-3"><stop
         offset="0"
         style="stop-color:#ffffff"
         id="stop4181-37-6-6" /><stop
         offset=".5"
         style="stop-color:#ffffff;stop-opacity:.49804"
         id="stop6679-47-27-6" /><stop
         offset="1"
         style="stop-color:#ffffff;stop-opacity:0"
         id="stop4183-07-51-9" /></linearGradient><linearGradient
       id="linearGradient5054-8-4-8"><stop
         id="stop5056-3-2-4"
         offset="0"
         style="stop-color:#b2b2b2;stop-opacity:1;" /><stop
         id="stop5058-3-67-8"
         offset="1"
         style="stop-color:#ffffff;stop-opacity:1;" /></linearGradient><linearGradient
       id="linearGradient5054-4-6"><stop
         id="stop5056-2-6"
         offset="0"
         style="stop-color:#b2b2b2;stop-opacity:1;" /><stop
         id="stop5058-39-0"
         offset="1"
         style="stop-color:#ebebeb;stop-opacity:1;" /></linearGradient><linearGradient
       id="linearGradient12438-5-3-3-7"><stop
         offset="0"
         style="stop-color:#b3b3b3"
         id="stop12440-2-1-5-5" /><stop
         offset="1"
         style="stop-color:#333333"
         id="stop12442-4-8-4-6" /></linearGradient><linearGradient
       y2="593.29999"
       x2="526.69"
       y1="588.23999"
       x1="526.69"
       gradientTransform="matrix(16.165408,-0.02545035,0,13.359913,-8093.8512,-7032.6377)"
       gradientUnits="userSpaceOnUse"
       id="linearGradient15150-2-8"
       xlink:href="#linearGradient12438-5-3-3-7"
       inkscape:collect="always" /></defs><g
     id="g2121" /><g
     id="g4198"
     transform="translate(-2.8338787,-220.28663)"><g
       transform="matrix(81.437956,0,0,81.437956,-24797.77,-48180.737)"
       id="g43"><g
         transform="matrix(0.00664475,0,0,0.00664475,306.1645,591.97915)"
         id="g4"
         style="stroke:#000000;stroke-width:4.99999857;stroke-miterlimit:4;stroke-dasharray:none;stroke-opacity:1"><g
           transform="matrix(2.7088,0.68982,-0.68982,2.7088,-600.86,144.48)"
           id="g6"
           style="stroke:#000000;stroke-width:1.78874528;stroke-miterlimit:4;stroke-dasharray:none;stroke-opacity:1"><g
             id="g4434"
             transform="matrix(0.65664901,0.0766632,-0.0766632,0.65664901,-59.8231,-10.336049)"><g
               id="g4264"><g
                 transform="matrix(0.48461602,-0.18550558,0.17674505,0.46172994,531.24164,120.88448)"
                 id="layer1" /><g
                 id="g4182"
                 transform="matrix(22.472353,-8.6021649,8.6021649,22.472353,398.56436,28.125279)"><g
                   transform="matrix(0.0579348,-0.00898328,0.00898328,0.0579348,11.837089,-7.3113453)"
                   inkscape:label="Layer 1"
                   id="layer1-5"><path
                     style="color:#000000;font-style:normal;font-variant:normal;font-weight:normal;font-stretch:normal;font-size:medium;line-height:normal;font-family:sans-serif;font-variant-ligatures:normal;font-variant-position:normal;font-variant-caps:normal;font-variant-numeric:normal;font-variant-alternates:normal;font-feature-settings:normal;text-indent:0;text-align:start;text-decoration:none;text-decoration-line:none;text-decoration-style:solid;text-decoration-color:#000000;letter-spacing:normal;word-spacing:normal;text-transform:none;writing-mode:lr-tb;direction:ltr;text-orientation:mixed;dominant-baseline:auto;baseline-shift:baseline;text-anchor:start;white-space:normal;shape-padding:0;clip-rule:nonzero;display:inline;overflow:visible;visibility:visible;opacity:1;isolation:auto;mix-blend-mode:normal;color-interpolation:sRGB;color-interpolation-filters:linearRGB;solid-color:#000000;solid-opacity:1;vector-effect:none;fill:#ffffff;fill-opacity:1;fill-rule:nonzero;stroke:none;stroke-width:23.72722816;stroke-linecap:round;stroke-linejoin:round;stroke-miterlimit:4;stroke-dasharray:none;stroke-dashoffset:0;stroke-opacity:1;color-rendering:auto;image-rendering:auto;shape-rendering:auto;text-rendering:auto;enable-background:accumulate"
                     d="m -195.66637,134.455 c -2.12372,-0.71464 -4.39286,-1.09639 -6.78308,-0.99657 -4.78041,0.19961 -9.39649,2.7345 -12.07886,5.85468 -5.36473,6.24037 -6.42312,13.24735 -2.31172,20.74717 0.21991,0.39986 0.46267,0.78671 0.72713,1.15859 1.66917,2.35398 2.448,3.11155 5.03564,6.24888 2.58766,3.13733 6.11419,7.38752 10.27324,12.38747 8.31811,9.99994 19.16067,22.99733 29.95865,35.97567 10.79799,12.97834 21.55473,25.93953 29.67297,35.82914 4.05912,4.9448 7.46318,9.12969 9.84733,12.11676 0.96375,1.20746 1.61971,2.0516 2.20382,2.80894 0.0245,0.24476 0.073,0.45339 0.0348,0.68773 -0.14214,0.87256 -0.51451,1.16155 -0.11643,0.81378 l -4.19321,3.66083 c 0.38172,-0.32721 0.0517,-0.0156 -0.82559,4e-4 -0.22865,0.004 -0.41842,-0.0723 -0.65088,-0.12846 -0.66036,-0.69617 -1.39285,-1.47515 -2.43841,-2.61997 -2.60037,-2.84725 -6.22507,-6.90295 -10.49695,-11.7322 -8.54374,-9.65846 -19.70112,-22.43237 -30.87149,-35.25727 -11.17039,-12.8249 -22.35737,-25.70372 -30.99555,-35.61842 -4.31908,-4.95735 -7.99819,-9.17206 -10.73615,-12.28414 -2.66444,-3.02845 -3.50496,-4.11837 -5.39929,-5.98394 -3.0736,-3.17237 -7.06196,-5.7303 -11.94468,-6.32494 -4.95076,-0.6029 -10.36179,1.38594 -13.6801,4.76599 -6.63664,6.76011 -6.23958,16.66169 -1.67028,24.0578 0.2899,0.46978 0.61223,0.91876 0.96465,1.34366 l 90.97959,109.58294 -0.67488,-0.89581 c 9.39162,13.77491 24.28363,20.73729 38.6496,20.12216 l 28.306163,37.89295 c -0.25099,1.20613 -0.40892,2.43513 -0.36723,3.66924 0.18127,5.3684 2.66479,9.47868 5.31641,12.55269 l 0.002,0.002 18.17611,21.06465 60.542926,70.17824 0.0031,0.003 9.8565596,11.41967 c 12.2418204,14.18795 34.0428324,15.79862 48.2333524,3.55477 14.190064,-12.24199 15.806781,-34.0448 3.561844,-48.23943 l -0.0031,-0.003 -9.860269,-11.42132 -60.537362,-70.17577 -0.0019,-8.4e-4 -18.627455,-21.58855 0.136541,0.1626 c -3.18122,-3.82352 -8.392826,-8.0111 -15.066316,-7.60784 -0.262347,0.0158 -0.43178,0.0988 -0.682687,0.12362 L -83.797487,291.3414 c 5.72709,-15.42535 1.37668,-34.33138 -12.73711,-47.25392 l 0.93864,0.96161 -91.851093,-105.56679 c -0.67601,-0.77662 -1.45024,-1.46193 -2.30317,-2.03866 -1.81429,-1.22756 -3.79236,-2.27429 -5.91609,-2.9889 z"
                     id="path1514"
                     inkscape:connector-curvature="0"
                     sodipodi:nodetypes="cccccssssccccccccsscccssccccccccccccccccccccccccccccc" /><path
                     style="fill:#734a08;fill-opacity:1;stroke:none;stroke-width:7.5951705;stroke-linecap:round;stroke-linejoin:round"
                     d="m -196.39768,147.27006 c -8.69233,-5.88124 -12.31889,2.92737 -10.03857,7.08702 2.67464,3.77198 87.05666,104.11336 88.48566,107.43216 1.48729,3.45459 1.19354,11.17983 -3.44727,15.23379 l -4.26748,3.7261 c -4.6744,4.01668 -12.37501,3.20179 -15.58277,1.23746 -3.41524,-2.09136 -89.25877,-101.8852 -93.00165,-105.54128 -6.907,-7.22794 -13.42559,0.39511 -8.76276,7.94262 l 90.9789,109.5829 c 8.49913,12.46587 22.97285,17.16464 34.22306,14.17742 l 36.678093,49.1006 c -3.17426,2.89821 -2.90866,6.30826 0.18363,9.89314 l 18.177266,21.06521 60.5436086,70.18024 9.857366,11.42021 c 8.0839474,9.37039 22.1337594,10.40884 31.5031384,2.32476 9.370386,-8.08398 10.412462,-22.13745 2.328932,-31.50807 l -9.86231,-11.42436 -60.538671,-70.17609 -18.629063,-21.58896 c -4.271583,-5.13405 -6.500525,-3.49692 -9.530937,-0.92654 l -41.03562,-43.00734 c 7.8782,-10.55926 6.49384,-28.84875 -6.411023,-40.6644 z"
                     id="rect10732-5-3-4-0-5-10-6"
                     inkscape:connector-curvature="0"
                     sodipodi:nodetypes="cccccccccccccccccccccccc" /><path
                     style="color:#000000;font-style:normal;font-variant:normal;font-weight:normal;font-stretch:normal;font-size:medium;line-height:normal;font-family:sans-serif;font-variant-ligatures:normal;font-variant-position:normal;font-variant-caps:normal;font-variant-numeric:normal;font-variant-alternates:normal;font-feature-settings:normal;text-indent:0;text-align:start;text-decoration:none;text-decoration-line:none;text-decoration-style:solid;text-decoration-color:#000000;letter-spacing:normal;word-spacing:normal;text-transform:none;writing-mode:lr-tb;direction:ltr;text-orientation:mixed;dominant-baseline:auto;baseline-shift:baseline;text-anchor:start;white-space:normal;shape-padding:0;clip-rule:nonzero;display:inline;overflow:visible;visibility:visible;opacity:1;isolation:auto;mix-blend-mode:normal;color-interpolation:sRGB;color-interpolation-filters:linearRGB;solid-color:#000000;solid-opacity:1;vector-effect:none;fill:#ffffff;fill-opacity:1;fill-rule:nonzero;stroke:none;stroke-width:23.72722816;stroke-linecap:round;stroke-linejoin:round;stroke-miterlimit:4;stroke-dasharray:none;stroke-dashoffset:0;stroke-opacity:1;color-rendering:auto;image-rendering:auto;shape-rendering:auto;text-rendering:auto;enable-background:accumulate"
                     d="m -60.599706,123.58058 c -2.616676,-0.83254 -5.360568,-1.09126 -7.689876,-0.71263 -4.658665,0.75726 -7.984205,2.9203 -10.796825,5.35976 -1.86504,1.61759 -3.48118,3.50691 -4.98312,5.51423 -6.88097,-3.63145 -14.58742,-5.95837 -22.925113,-6.00559 -0.42014,-0.0366 -0.84191,-0.051 -1.26356,-0.0427 -0.25862,0.004 -0.51704,0.0157 -0.77487,0.0362 -37.13299,3.20476 -110.22932,29.77691 -164.65263,118.88174 l 0.002,-0.001 c -0.54057,0.88446 -1.09049,1.78761 -1.64265,2.71156 l -0.002,0.006 c -5.74773,9.63184 -12.22866,21.46896 -9.51648,38.76558 0.0115,0.0743 0.0238,0.14854 0.0367,0.22262 0.0898,0.5093 0.28581,0.96175 0.38989,1.46408 -4.1997,1.59197 -8.33231,3.70429 -11.43226,9.02335 -1.64754,2.82699 -2.62133,6.93819 -1.88538,10.75825 0.73596,3.82004 2.83574,6.84013 5.02788,8.9413 1.84538,1.76883 3.82768,3.06143 5.94165,4.15844 0.38937,3.18973 1.2035,6.3577 3.18445,9.55148 2.46797,3.97895 7.561,8.31441 14.02219,8.78282 1.54554,0.11205 3.03394,0.002 4.47512,-0.24985 1.86228,2.26282 3.88856,4.20699 6.41424,5.85661 2.71595,1.7739 6.53181,3.33228 10.99833,2.80604 4.46651,-0.52622 8.37791,-3.40777 10.40486,-6.14798 3.52651,-4.76742 4.02909,-9.00511 4.06077,-13.2649 2.96844,-0.33329 5.91336,-0.9508 8.78409,-2.09322 6.59141,-2.08851 10.97422,-6.27551 15.56746,-11.28095 4.77137,-5.19952 9.82854,-11.77916 16.202,-20.157 l 8.3e-4,-0.002 c 16.59698,-21.81499 43.1657,-45.26626 74.46636,-64.56332 1.33617,-0.82375 1.79982,-1.15957 1.4368,-0.95447 9.48388,-5.3576 20.832503,-11.97291 32.015933,-17.7584 0.55707,-0.28818 1.13447,-0.58128 1.72712,-0.88356 3.6202,-1.84086 7.68815,-3.35399 12.31236,-6.59218 4.599009,-3.22055 9.094563,-8.55139 11.709785,-15.25517 4.179558,1.18285 8.343483,1.96713 13.627245,0.59793 3.052198,-0.79094 6.94278,-2.7392 9.459641,-6.62882 2.516862,-3.88962 2.752378,-8.69661 1.982936,-12.1506 -0.682761,-3.06475 -1.87069,-5.60152 -3.392442,-8.01498 0.592592,-1.12854 1.160235,-2.28162 1.515701,-3.60208 1.76116,-6.54041 -1.136446,-12.8993 -4.244075,-16.37112 -2.546207,-2.8446 -5.368108,-4.54257 -8.32247,-5.8565 -0.520343,-2.89412 -1.703902,-5.61315 -3.530282,-8.20472 -0.431391,-0.80622 -0.954519,-1.55988 -1.559002,-2.24597 l -0.03033,0.0287 c -0.08041,-0.0871 -0.110765,-0.18304 -0.193333,-0.26982 -0.744843,-0.76745 -1.590013,-1.43067 -2.51258,-1.97164 -1.368354,-0.90639 -2.838203,-1.68275 -4.417176,-2.18515 z m 1.666832,66.77072 -0.0241,0.0624 c 0.0033,-0.008 0.004,-0.0187 0.0079,-0.0276 0.0044,-0.0124 0.01223,-0.0223 0.01755,-0.0343 z"
                     id="path1510"
                     inkscape:connector-curvature="0"
                     sodipodi:nodetypes="ccsccccccccccccccccccccsccsccccccccccsccscccccccccccc" /><path
                     style="fill:#734a08;fill-opacity:1;stroke:none;stroke-width:8.51310253;stroke-linecap:round;stroke-linejoin:round"
                     d="m -62.263905,135.91511 c -4.518603,-4.74835 -13.831822,3.03376 -17.347382,15.34129 -7.30935,-7.16734 -17.44597,-11.92672 -28.403763,-11.70225 l 0.002,-0.005 c -32.73277,2.82499 -103.06006,27.30927 -155.54877,113.24666 -0.52811,0.86407 -1.05643,1.73434 -1.5805,2.6113 -5.88995,9.87017 -10.25077,16.3908 -7.98387,30.8477 0.81138,4.59907 2.36848,8.79007 4.45941,12.51985 -0.006,-8.9e-4 -0.0138,-6.2e-4 -0.0188,-9.4e-4 -16.71283,0.28186 -26.63622,10.39647 -5.27955,15.97158 -3.79255,4.42726 0.67816,21.86494 13.06325,10.83132 13.7235,24.30393 19.29892,6.92626 13.69996,-8.68039 -0.0157,-0.0405 -0.038,-0.0789 -0.0542,-0.11931 6.55345,2.22636 13.28812,2.3579 18.87343,-0.002 6.39434,-1.81243 13.60529,-10.82304 26.28864,-27.49519 17.78408,-23.37588 45.29929,-47.51656 77.68191,-67.48067 0.6208,-0.38272 1.19446,-0.82742 1.82679,-1.18468 9.36625,-5.29116 20.85389,-11.99179 32.401013,-17.96542 0.59948,-0.31013 1.20032,-0.61681 1.79994,-0.92264 8.29907,-4.22007 14.60121,-5.85626 18.38317,-15.65021 1.63803,-4.17061 2.107567,-8.53912 1.638341,-12.85803 13.860631,9.84978 34.530988,10.33041 15.054984,-9.73835 14.914455,-7.65934 -0.919455,-17.32348 -6.522292,-15.31196 0.413415,-6.43802 -0.624429,-10.35142 -2.435034,-12.25407 z"
                     id="rect10492-2-8-5-9-9-2"
                     inkscape:connector-curvature="0" /></g></g></g></g></g></g></g></g></svg>