<?xml version="1.0" encoding="UTF-8" standalone="no"?>
<!-- Generator: Adobe Illustrator 16.0.0, SVG Export Plug-In . SVG Version: 6.00 Build 0)  -->

<svg
   xmlns:dc="http://purl.org/dc/elements/1.1/"
   xmlns:cc="http://creativecommons.org/ns#"
   xmlns:rdf="http://www.w3.org/1999/02/22-rdf-syntax-ns#"
   xmlns:svg="http://www.w3.org/2000/svg"
   xmlns="http://www.w3.org/2000/svg"
   xmlns:sodipodi="http://sodipodi.sourceforge.net/DTD/sodipodi-0.dtd"
   xmlns:inkscape="http://www.inkscape.org/namespaces/inkscape"
   version="1.1"
   id="svg2"
   inkscape:output_extension="org.inkscape.output.svg.inkscape"
   sodipodi:docname="JH_food_fastfood.svg"
   inkscape:version="0.91 r13725"
   sodipodi:version="0.32"
   x="0px"
   y="0px"
   width="580px"
   height="580px"
   viewBox="0 0 580 580"
   enable-background="new 0 0 580 580"
   xml:space="preserve"
   inkscape:export-filename="F:\_GRAFIKA\2016_08_29_Symboly_turistika\JH_icons\JH_food_fastfood.png"
   inkscape:export-xdpi="31"
   inkscape:export-ydpi="31"><metadata
     id="metadata17"><rdf:RDF><cc:Work
         rdf:about=""><dc:format>image/svg+xml</dc:format><dc:type
           rdf:resource="http://purl.org/dc/dcmitype/StillImage" /></cc:Work></rdf:RDF></metadata><sodipodi:namedview
     showgrid="false"
     inkscape:cy="52.841143"
     inkscape:cx="18.627283"
     inkscape:zoom="0.5"
     pagecolor="#ffffff"
     bordercolor="#666666"
     guidetolerance="10.0"
     objecttolerance="10.0"
     gridtolerance="10.0"
     borderopacity="1.0"
     id="base"
     inkscape:current-layer="g4182"
     inkscape:window-y="-9"
     inkscape:window-x="-9"
     inkscape:pageopacity="0.0"
     inkscape:pageshadow="2"
     inkscape:window-width="2560"
     inkscape:window-height="1369"
     inkscape:window-maximized="1" /><defs
     id="defs4"><inkscape:perspective
       inkscape:vp_z="580 : 290 : 1"
       inkscape:vp_y="0 : 1000 : 0"
       inkscape:vp_x="0 : 290 : 1"
       sodipodi:type="inkscape:persp3d"
       id="perspective3653"
       inkscape:persp3d-origin="290 : 193.33333 : 1" /><inkscape:perspective
       inkscape:vp_z="355.02399 : 217.53 : 1"
       inkscape:vp_y="0 : 1000 : 0"
       inkscape:vp_x="0 : 217.53 : 1"
       sodipodi:type="inkscape:persp3d"
       id="perspective2512"
       inkscape:persp3d-origin="177.51199 : 145.02 : 1" /><inkscape:perspective
       id="perspective30"
       inkscape:persp3d-origin="35.074001 : 19.682 : 1"
       inkscape:vp_z="70.148003 : 29.523001 : 1"
       inkscape:vp_y="0 : 1000 : 0"
       inkscape:vp_x="0 : 29.523001 : 1"
       sodipodi:type="inkscape:persp3d" /></defs><g
     id="g2121" /><g
     id="g4198"
     transform="translate(-2.8338787,-220.28663)"><g
       transform="matrix(81.437956,0,0,81.437956,-24797.77,-48180.737)"
       id="g43"><g
         transform="matrix(0.00664475,0,0,0.00664475,306.1645,591.97915)"
         id="g4"
         style="stroke:#000000;stroke-width:4.99999857;stroke-miterlimit:4;stroke-dasharray:none;stroke-opacity:1"><g
           transform="matrix(2.7088,0.68982,-0.68982,2.7088,-600.86,144.48)"
           id="g6"
           style="stroke:#000000;stroke-width:1.78874528;stroke-miterlimit:4;stroke-dasharray:none;stroke-opacity:1"><g
             id="g4434"
             transform="matrix(0.65664901,0.0766632,-0.0766632,0.65664901,-59.8231,-10.336049)"><g
               id="g4264"><g
                 transform="matrix(0.48461602,-0.18550558,0.17674505,0.46172994,531.24164,120.88448)"
                 id="layer1" /><g
                 id="g4182"
                 transform="matrix(22.472353,-8.6021649,8.6021649,22.472353,398.56436,28.125279)"><g
                   id="g4207"
                   transform="matrix(1.5859717,0,0,1.5859717,-4.7856223,-5.7049288)"><path
                     sodipodi:nodetypes="csssscccssssssscsscccccccccc"
                     inkscape:connector-curvature="0"
                     id="path4205"
                     d="M 3.348681,15.626752 C 2.9640672,15.560788 2.4715805,15.223969 2.2338321,14.864281 2.015005,14.533218 2.0044292,14.463578 2.0044292,13.353713 c 0,-1.067532 0.0098,-1.01408 -0.1859055,-1.01408 -0.2473981,0 -0.5355866,-0.286899 -0.5993494,-0.506926 -0.070445,-0.243084 0.1754421,-0.710306 0.4836575,-0.758277 0.071459,-0.01113 0.1685527,-0.02787 0.215762,-0.03719 l 0.085835,-0.01696 0,-1.001428 c 0,-1.1467197 0.00522,-1.2720155 0.062743,-1.5060293 C 2.2903457,7.604887 2.9695255,6.789366 3.8928007,6.3206934 4.4566922,6.0344514 4.9757406,5.8905618 5.6875343,5.8231624 c 0.4773899,-0.045204 4.8599917,-0.045204 5.3373807,0 1.654356,0.1566506 2.840137,0.9150609 3.432038,2.1950851 0.238585,0.5159542 0.251068,0.6162081 0.251068,2.0163725 l 0,0.984942 0.216222,0.03771 c 0.354683,0.06186 0.596474,0.356995 0.594796,0.604699 -0.0015,0.221141 -0.262045,0.624696 -0.547116,0.664577 -0.0679,0.0095 -0.154496,0.02372 -0.192447,0.03162 l -0.069,0.01433 -0.009,1.040392 -0.009,1.040388 -0.101925,0.222518 c -0.208649,0.455497 -0.755204,0.870457 -1.255827,0.953459 -0.255352,0.04233 -9.7383703,0.03997 -9.9859782,-0.0025 l 0,-10e-7 z"
                     style="opacity:1;fill:#ffffff;fill-opacity:1;stroke:none;stroke-width:1.78900003;stroke-linecap:butt;stroke-linejoin:round;stroke-miterlimit:4;stroke-dasharray:none;stroke-dashoffset:0;stroke-opacity:1" /><path
                     inkscape:connector-curvature="0"
                     d="m 6.34383,6.2024824 c -2.9999999,0 -4.0399679,2.000799 -3.9999999,3 l 0,0.9999996 11.9999999,0 0,-0.9999996 c 0,-1 -1,-3 -4,-3 z M 2.3438301,11.202482 c -1,0 -1,1 0,1 l 11.9999999,0 c 1,0 1,-1 0,-1 z m 0,2.03125 0,0.625 c 0,0.6842 0.81579,1.34375 1.5,1.34375 l 8.9999999,0 c 0.68421,0 1.5,-0.65955 1.5,-1.34375 l 0,-0.625 z"
                     id="fast-food"
                     style="fill:#734a08;fill-opacity:1;stroke:none;stroke-width:1.78874528;stroke-miterlimit:4;stroke-dasharray:none;stroke-opacity:1" /></g></g></g></g></g></g></g></g></svg>