<?xml version="1.0" encoding="UTF-8" standalone="no"?>
<!-- Generator: Adobe Illustrator 16.0.0, SVG Export Plug-In . SVG Version: 6.00 Build 0)  -->

<svg
   xmlns:dc="http://purl.org/dc/elements/1.1/"
   xmlns:cc="http://creativecommons.org/ns#"
   xmlns:rdf="http://www.w3.org/1999/02/22-rdf-syntax-ns#"
   xmlns:svg="http://www.w3.org/2000/svg"
   xmlns="http://www.w3.org/2000/svg"
   xmlns:sodipodi="http://sodipodi.sourceforge.net/DTD/sodipodi-0.dtd"
   xmlns:inkscape="http://www.inkscape.org/namespaces/inkscape"
   version="1.1"
   id="svg2"
   inkscape:output_extension="org.inkscape.output.svg.inkscape"
   sodipodi:docname="JH_historic_battlefield.svg"
   inkscape:version="0.91 r13725"
   sodipodi:version="0.32"
   x="0px"
   y="0px"
   width="580px"
   height="580px"
   viewBox="0 0 580 580"
   enable-background="new 0 0 580 580"
   xml:space="preserve"
   inkscape:export-filename="/media/juhele/KONZERVA/__PRACE/JH_icons/JH_historic_battlefield.png"
   inkscape:export-xdpi="31"
   inkscape:export-ydpi="31"><metadata
     id="metadata17"><rdf:RDF><cc:Work
         rdf:about=""><dc:format>image/svg+xml</dc:format><dc:type
           rdf:resource="http://purl.org/dc/dcmitype/StillImage" /></cc:Work></rdf:RDF></metadata><sodipodi:namedview
     showgrid="false"
     inkscape:cy="434.82451"
     inkscape:cx="1092.185"
     inkscape:zoom="0.32586207"
     pagecolor="#ffffff"
     bordercolor="#666666"
     guidetolerance="10.0"
     objecttolerance="10.0"
     gridtolerance="10.0"
     borderopacity="1.0"
     id="base"
     inkscape:current-layer="g7494"
     inkscape:window-y="0"
     inkscape:window-x="0"
     inkscape:pageopacity="0.0"
     inkscape:pageshadow="2"
     inkscape:window-width="1920"
     inkscape:window-height="1125"
     inkscape:window-maximized="1" /><defs
     id="defs4"><inkscape:perspective
       inkscape:vp_z="580 : 290 : 1"
       inkscape:vp_y="0 : 1000 : 0"
       inkscape:vp_x="0 : 290 : 1"
       sodipodi:type="inkscape:persp3d"
       id="perspective3653"
       inkscape:persp3d-origin="290 : 193.33333 : 1" /><inkscape:perspective
       inkscape:vp_z="355.02399 : 217.53 : 1"
       inkscape:vp_y="0 : 1000 : 0"
       inkscape:vp_x="0 : 217.53 : 1"
       sodipodi:type="inkscape:persp3d"
       id="perspective2512"
       inkscape:persp3d-origin="177.51199 : 145.02 : 1" /></defs><g
     id="g2121" /><g
     id="g4198"
     transform="translate(-2.8338787,-220.28663)"><g
       id="g4146"
       transform="matrix(25.459129,0,0,25.459129,-652.34788,685.74412)"><g
         transform="matrix(0.03927864,0,0,0.03927864,39.002017,-50.46995)"
         inkscape:label="Layer 1"
         id="layer1"><g
           id="g7489"><path
             sodipodi:nodetypes="csscccscccccccccccccccccccccccccccccccccccccccccccccccccccsccscccsccccccccccccccccsccccsscsscccsscccccscccccccsccccccccccc"
             inkscape:connector-curvature="0"
             id="path6682"
             d="m -308.54378,839.6373 16.25586,37.35742 c 1.09739,2.52184 1.56959,12.44147 3.21484,25.33984 1.64526,12.89838 6.08637,29.34963 19.50196,43.56446 l 157.93945,168.54688 -45.64844,46.795 c -3.993,-3.3008 -7.77179,-6.3997 -10.76172,-9.2735 -6.5132,-6.2601 -8.8816,-10.4607 -9.00781,-14.2148 l -0.5664,-16.8359 -72.57813,10.9218 9.71484,18.6387 c 10.94424,20.9956 26.77326,39.3183 43.72266,56.5977 -7.27649,8.0715 -12.72597,16.135 -18.125,22.455 l -0.004,0 -0.002,0 c -5.17329,6.0639 -14.05301,13.7814 -21.17969,24.8399 l -9.03125,-0.027 -2.08593,9.7305 -0.5586,-0.088 -2.50195,3.6172 -5.66992,6.1133 0.61718,0.9473 c -3.72647,5.1264 -8.84334,11.6738 -14.27734,17.2656 -2.47752,2.5502 -0.98046,2.0899 -5.16016,0.9961 l -30.40234,-7.9571 12.93359,28.6426 c 11.20727,24.8178 31.83761,46.7551 57.91993,54.8867 l 27.23047,8.4883 -8.4375,-27.2461 c -1.27816,-4.1272 -1.67404,-2.6086 0.76562,-5.1992 5.34535,-5.6766 11.65894,-11.0811 16.61523,-15.0312 l 0.97461,0.5761 5.85547,-5.9375 3.50196,-2.6582 -0.11133,-0.5527 9.59961,-2.5078 -0.42578,-9.4551 c 8.93949,-6.7799 16.4856,-14.2298 24.37109,-22.1406 l 0.002,0 0.002,0 c 5.41563,-5.4369 13.259,-10.9352 21.20312,-18.6953 15.68302,14.1133 29.43494,24.6345 49.755857,34.1132 l 13.375,6.2383 22.36523,-45.9883 22.365244,45.9883 13.375,-6.2383 c 20.3210102,-9.4787 34.07287,-19.9999 49.75586,-34.1132 7.94411,7.76 15.78731,13.2583 21.20312,18.6953 l 0.002,0 0.002,0 c 7.88547,7.9107 15.43164,15.3607 24.37109,22.1406 l -0.42578,9.4551 9.59766,2.5078 -0.11133,0.5527 3.50781,2.6621 5.851559,5.9336 0.97266,-0.5761 c 4.95467,3.9487 11.26667,9.3503 16.61133,15.0254 2.45134,2.6058 2.05252,1.0747 0.77344,5.205 l -8.4375,27.2461 27.23047,-8.4883 c 26.08254,-8.1317 46.71102,-30.0715 57.91796,-54.8886 l 12.9336,-28.6407 -30.40235,7.9571 c -4.17972,1.0938 -2.68264,1.5541 -5.16015,-0.9961 l -0.002,0 c -0.004,0 -0.002,0 -0.006,-0.01 -5.43155,-5.5904 -10.54478,-12.1337 -14.26954,-17.2578 l 0.61719,-0.9473 -5.67383,-6.1172 -2.5,-3.6133 -0.55664,0.088 -2.08593,-9.7305 -9.03125,0.027 c -7.12753,-11.0591 -16.00713,-18.7768 -21.17969,-24.8399 l -0.004,0 -0.002,0 c -5.39902,-6.3199 -10.84848,-14.3834 -18.125,-22.455 16.94959,-17.2791 32.78017,-35.6017 43.72461,-56.5977 l 9.71484,-18.6406 -72.580079,-10.9199 -0.5664,16.8359 c -0.1262,3.7541 -2.49461,7.9547 -9.00781,14.2148 -2.98965,2.8735 -6.76917,5.9731 -10.76172,9.2735 l -45.64844,-46.795 157.939449,-168.54688 c 0.005,-0.006 0.008,-0.012 0.0137,-0.0176 13.40338,-14.21102 17.84367,-30.65353 19.48828,-43.54688 1.64526,-12.89838 2.11746,-22.818 3.21485,-25.33984 l 16.25586,-37.35742 -36.59961,17.89648 c -3.38087,1.65321 -12.66086,2.82508 -24.78516,5.74024 -12.12429,2.91515 -27.16315,8.80767 -40.36914,22.42773 L -47.641443,1048.8463 -206.78987,885.70175 c -13.20597,-13.62007 -28.24485,-19.51258 -40.36914,-22.42773 -12.1243,-2.91516 -21.40425,-4.08701 -24.78516,-5.74024 z m 319.691371,361.9652 c -664.390761,113.2671 -332.195381,56.6336 0,0 z m -58.789034,-18.8675 40.8711042,43.6172 c -3.3431002,3.3129 -6.5921802,6.496 -9.6035202,8.9785 -6.94057,5.7217 -12.12221,8.0292 -16.46484,7.9824 l -5.44141,-0.059 0.0977,-0.2011 -9.458994,0.1015 -9.45898,-0.1015 0.0977,0.2011 -5.44141,0.059 c -4.34255,0.047 -9.52622,-2.2607 -16.4668,-7.9824 -3.0113,-2.4825 -6.2585,-5.6656 -9.60156,-8.9785 l 40.87109,-43.6172 z m -192.148427,82.496 c 0.52808,0.056 0.97351,0.1595 1.35156,0.2188 l -1.38672,-0.2168 c 0.0102,0 0.0251,0 0.0352,0 z m 60.91797,38.6738 c 0.004,-0.062 0.75481,0.073 0.0293,1.8575 -0.0224,-0.8835 -0.0337,-1.7857 -0.0293,-1.8575 z"
             style="color:#000000;font-style:normal;font-variant:normal;font-weight:normal;font-stretch:normal;font-size:medium;line-height:normal;font-family:sans-serif;text-indent:0;text-align:start;text-decoration:none;text-decoration-line:none;text-decoration-style:solid;text-decoration-color:#000000;letter-spacing:normal;word-spacing:normal;text-transform:none;direction:ltr;block-progression:tb;writing-mode:lr-tb;baseline-shift:baseline;text-anchor:start;white-space:normal;clip-rule:nonzero;display:inline;overflow:visible;visibility:visible;opacity:1;isolation:auto;mix-blend-mode:normal;color-interpolation:sRGB;color-interpolation-filters:linearRGB;solid-color:#000000;solid-opacity:1;fill:#ffffff;fill-opacity:1;fill-rule:nonzero;stroke:none;stroke-width:30.00000191;stroke-linecap:butt;stroke-linejoin:miter;stroke-miterlimit:4;stroke-dasharray:none;stroke-dashoffset:0;stroke-opacity:1;color-rendering:auto;image-rendering:auto;shape-rendering:auto;text-rendering:auto;enable-background:accumulate" /><path
             sodipodi:nodetypes="cccccccccccccccccccccccccccccccccc"
             id="path6678"
             style="fill:#734a08;fill-opacity:1"
             inkscape:connector-curvature="0"
             d="m -278.38362,1304.7167 c 7.57499,1.9824 13.99229,0.8271 19.71541,-5.0538 7.28154,-7.493 14.03575,-16.3028 18.05825,-22.1211 3.24924,0.5092 6.29333,-1.1276 3.80943,-4.9333 1.56502,-1.6872 3.36012,-3.1052 3.96963,-5.9501 3.33793,0.01 5.45889,-0.204 5.97966,-0.6805 5.54675,-11.5895 16.02356,-20.6396 23.5253,-29.4327 6.78175,-7.9386 12.54776,-16.7515 19.75325,-24.3008 2.61236,-2.7485 5.45534,-5.2273 8.36588,-7.6416 -20.6311,-20.142 -39.88072,-40.8791 -51.82211,-63.7877 l 35.13786,-5.2859 c 0.63485,18.8834 22.55627,30.9346 39.25551,46.7466 1.92486,-1.5539 3.8423,-3.0826 5.70784,-4.6932 2.56282,-4.9888 -0.10669,-4.83 1.55479,-9.641 L 122.42554,893.41548 c 21.81925,-22.50343 46.14055,-17.8796 60.9748,-25.13338 -6.58883,15.14134 1.64224,41.79791 -19.87162,64.59352 L -98.705121,1212.7251 c -4.740699,1.8819 -4.700519,-0.7925 -9.586839,2.0059 -1.50979,1.9349 -2.9525,3.9016 -4.41122,5.8851 16.553949,15.9977 31.661069,35.1724 50.570639,34.9689 l -14.75864,30.3482 c -23.432519,-10.9301 -36.209469,-22.1849 -57.263259,-41.9191 -2.27447,3.023 -4.64179,5.9732 -7.25473,8.7048 -7.23087,7.525 -16.03461,13.3996 -23.40948,20.8033 -9.66539,9.6964 -17.92734,17.9085 -28.35199,24.8154 -0.0419,-0.024 -0.0667,-0.032 -0.10921,-0.056 -0.43553,0.5909 -0.53817,2.7021 -0.39056,5.9785 -2.8151,0.7349 -4.15217,2.5912 -5.76817,4.2296 -3.91221,-2.3128 -5.41222,0.8008 -4.75964,4.0246 -5.63414,4.2764 -14.13567,11.4145 -21.29847,19.0212 -5.62133,5.9783 -6.49094,12.4406 -4.17469,19.92 -20.40324,-6.3611 -39.12787,-25.5148 -48.71238,-46.7391 z" /><path
             d="m 183.4002,1304.7167 c -7.57499,1.9824 -13.99229,0.8271 -19.71541,-5.0538 -7.28154,-7.493 -14.03575,-16.3028 -18.05825,-22.1211 -3.24924,0.5092 -6.29333,-1.1276 -3.80943,-4.9333 -1.56502,-1.6872 -3.36012,-3.1052 -3.96963,-5.9501 -3.33793,0.01 -5.45889,-0.204 -5.97966,-0.6805 -5.54675,-11.5895 -16.02356,-20.6396 -23.5253,-29.4327 -6.78175,-7.9386 -12.54776,-16.7515 -19.75325,-24.3008 -2.61236,-2.7485 -5.45534,-5.2273 -8.36588,-7.6416 20.6311,-20.142 39.88072,-40.8791 51.82211,-63.7877 l -35.13786,-5.2859 c -0.63485,18.8834 -22.55627,30.9346 -39.25551,46.7466 -1.92486,-1.5539 -3.8423,-3.0826 -5.70784,-4.6932 -2.56282,-4.9888 0.10669,-4.83 -1.55479,-9.641 L -217.40896,893.41548 c -21.81925,-22.50343 -46.14055,-17.8796 -60.9748,-25.13338 6.58883,15.14134 -1.64224,41.79791 19.87162,64.59352 L 3.721701,1212.7251 c 4.740699,1.8819 4.700519,-0.7925 9.586839,2.0059 1.50979,1.9349 2.9525,3.9016 4.41122,5.8851 -16.553949,15.9977 -31.661069,35.1724 -50.570639,34.9689 l 14.75864,30.3482 c 23.432519,-10.9301 36.209469,-22.1849 57.263259,-41.9191 2.27447,3.023 4.64179,5.9732 7.25473,8.7048 7.23087,7.525 16.03461,13.3996 23.40948,20.8033 9.66539,9.6964 17.92734,17.9085 28.35199,24.8154 0.0419,-0.024 0.0667,-0.032 0.10921,-0.056 0.43553,0.5909 0.53817,2.7021 0.39056,5.9785 2.8151,0.7349 4.15217,2.5912 5.76817,4.2296 3.91221,-2.3128 5.41222,0.8008 4.75964,4.0246 5.63414,4.2764 14.13567,11.4145 21.29847,19.0212 5.62133,5.9783 6.49094,12.4406 4.17469,19.92 20.40324,-6.3611 39.12787,-25.5148 48.71238,-46.7391 z"
             inkscape:connector-curvature="0"
             style="fill:#734a08;fill-opacity:1"
             id="path6680"
             sodipodi:nodetypes="cccccccccccccccccccccccccccccccccc" /></g><g
           id="g7494"
           transform="translate(768.73018,-56.772489)"
           style="fill:#ff0000" /></g></g></g></svg>