<?xml version="1.0" encoding="UTF-8" standalone="no"?>
<!-- Generator: Adobe Illustrator 16.0.0, SVG Export Plug-In . SVG Version: 6.00 Build 0)  -->

<svg
   xmlns:dc="http://purl.org/dc/elements/1.1/"
   xmlns:cc="http://creativecommons.org/ns#"
   xmlns:rdf="http://www.w3.org/1999/02/22-rdf-syntax-ns#"
   xmlns:svg="http://www.w3.org/2000/svg"
   xmlns="http://www.w3.org/2000/svg"
   xmlns:sodipodi="http://sodipodi.sourceforge.net/DTD/sodipodi-0.dtd"
   xmlns:inkscape="http://www.inkscape.org/namespaces/inkscape"
   version="1.1"
   id="svg2"
   inkscape:output_extension="org.inkscape.output.svg.inkscape"
   sodipodi:docname="JH_historic_memorial.svg"
   inkscape:version="0.91 r13725"
   sodipodi:version="0.32"
   x="0px"
   y="0px"
   width="580px"
   height="580px"
   viewBox="0 0 580 580"
   enable-background="new 0 0 580 580"
   xml:space="preserve"
   inkscape:export-filename="F:\_GRAFIKA\2016_08_29_Symboly_turistika\JH_icons\JH_historic_memorial.png"
   inkscape:export-xdpi="31"
   inkscape:export-ydpi="31"><metadata
     id="metadata17"><rdf:RDF><cc:Work
         rdf:about=""><dc:format>image/svg+xml</dc:format><dc:type
           rdf:resource="http://purl.org/dc/dcmitype/StillImage" /></cc:Work></rdf:RDF></metadata><sodipodi:namedview
     showgrid="false"
     inkscape:cy="-234.89331"
     inkscape:cx="1501.4944"
     inkscape:zoom="0.65172414"
     pagecolor="#ffffff"
     bordercolor="#666666"
     guidetolerance="10.0"
     objecttolerance="10.0"
     gridtolerance="10.0"
     borderopacity="1.0"
     id="base"
     inkscape:current-layer="g4146"
     inkscape:window-y="-9"
     inkscape:window-x="-9"
     inkscape:pageopacity="0.0"
     inkscape:pageshadow="2"
     inkscape:window-width="2560"
     inkscape:window-height="1369"
     inkscape:window-maximized="1" /><defs
     id="defs4"><inkscape:perspective
       inkscape:vp_z="580 : 290 : 1"
       inkscape:vp_y="0 : 1000 : 0"
       inkscape:vp_x="0 : 290 : 1"
       sodipodi:type="inkscape:persp3d"
       id="perspective3653"
       inkscape:persp3d-origin="290 : 193.33333 : 1" /><inkscape:perspective
       inkscape:vp_z="355.02399 : 217.53 : 1"
       inkscape:vp_y="0 : 1000 : 0"
       inkscape:vp_x="0 : 217.53 : 1"
       sodipodi:type="inkscape:persp3d"
       id="perspective2512"
       inkscape:persp3d-origin="177.51199 : 145.02 : 1" /></defs><g
     id="g2121" /><g
     id="g4198"
     transform="translate(-2.8338787,-220.28663)"><g
       id="g4146"
       transform="matrix(25.459129,0,0,25.459129,-652.34788,685.74412)"><g
         id="g4147"
         transform="matrix(1.485342,0,0,1.485342,28.284232,-17.396916)"><path
           inkscape:connector-curvature="0"
           d="m 3.5790715,-0.26332003 c -1.1866215,0 -2.3732429,1.1866215 -2.3732429,2.37324313 l 0,8.9707629 9.4929734,0 0,-8.9707629 c 0,-1.18662163 -1.1866218,-2.37324313 -2.3732445,-2.37324313 z M 0.01920705,10.932773 l -1.18662155,1.186621 0,2.289064 14.2394595,0 0,-2.289064 -1.186622,-1.186621 z"
           id="path4172"
           style="fill:#ffffff;fill-opacity:1;stroke:none"
           sodipodi:nodetypes="ssccsssccccccc" /><path
           style="fill:#734a08;fill-opacity:1;stroke:none"
           id="memorial"
           d="m 3.9009514,0.51569639 c -1,0 -2,1.00000001 -2,2.00000011 l 0,8.0000005 8.0000003,0 0,-8.0000005 c 0,-1.0000001 -1.0000001,-2.00000011 -2.0000003,-2.00000011 z m 1,2.00000011 2,0 0,1 -2,0 z m -2,1.9999998 6.0000002,0 0,1.0000001 -6.0000002,0 z m 1,2.0000003 4,0 0,0.9999998 -4,0 z m -3.00000001,5.0000004 -1,1 0,1 12.00000061,0 0,-1 -1,-1 z"
           inkscape:connector-curvature="0" /></g></g></g></svg>