<?xml version="1.0" encoding="UTF-8" standalone="no"?>
<!-- Generator: Adobe Illustrator 16.0.0, SVG Export Plug-In . SVG Version: 6.00 Build 0)  -->

<svg
   xmlns:dc="http://purl.org/dc/elements/1.1/"
   xmlns:cc="http://creativecommons.org/ns#"
   xmlns:rdf="http://www.w3.org/1999/02/22-rdf-syntax-ns#"
   xmlns:svg="http://www.w3.org/2000/svg"
   xmlns="http://www.w3.org/2000/svg"
   xmlns:sodipodi="http://sodipodi.sourceforge.net/DTD/sodipodi-0.dtd"
   xmlns:inkscape="http://www.inkscape.org/namespaces/inkscape"
   version="1.1"
   id="svg2"
   inkscape:output_extension="org.inkscape.output.svg.inkscape"
   sodipodi:docname="JH_historic_castle.svg"
   inkscape:version="0.91 r13725"
   sodipodi:version="0.32"
   x="0px"
   y="0px"
   width="580px"
   height="580px"
   viewBox="0 0 580 580"
   enable-background="new 0 0 580 580"
   xml:space="preserve"
   inkscape:export-filename="/media/juhele/KONZERVA/__PRACE/JH_icons/JH_historic_castle.png"
   inkscape:export-xdpi="31"
   inkscape:export-ydpi="31"><metadata
     id="metadata17"><rdf:RDF><cc:Work
         rdf:about=""><dc:format>image/svg+xml</dc:format><dc:type
           rdf:resource="http://purl.org/dc/dcmitype/StillImage" /></cc:Work></rdf:RDF></metadata><sodipodi:namedview
     showgrid="false"
     inkscape:cy="1444.7025"
     inkscape:cx="178.76348"
     inkscape:zoom="0.1767767"
     pagecolor="#ffffff"
     bordercolor="#666666"
     guidetolerance="10.0"
     objecttolerance="10.0"
     gridtolerance="10.0"
     borderopacity="1.0"
     id="base"
     inkscape:current-layer="g4198"
     inkscape:window-y="0"
     inkscape:window-x="0"
     inkscape:pageopacity="0.0"
     inkscape:pageshadow="2"
     inkscape:window-width="1920"
     inkscape:window-height="1125"
     inkscape:window-maximized="1"
     showguides="true"
     inkscape:guide-bbox="true" /><defs
     id="defs4"><inkscape:perspective
       inkscape:vp_z="580 : 290 : 1"
       inkscape:vp_y="0 : 1000 : 0"
       inkscape:vp_x="0 : 290 : 1"
       sodipodi:type="inkscape:persp3d"
       id="perspective3653"
       inkscape:persp3d-origin="290 : 193.33333 : 1" /><inkscape:perspective
       inkscape:vp_z="355.02399 : 217.53 : 1"
       inkscape:vp_y="0 : 1000 : 0"
       inkscape:vp_x="0 : 217.53 : 1"
       sodipodi:type="inkscape:persp3d"
       id="perspective2512"
       inkscape:persp3d-origin="177.51199 : 145.02 : 1" /></defs><g
     id="g2121" /><g
     id="g4198"
     transform="translate(-2.8338787,-220.28663)"><g
       id="g7557"
       transform="matrix(0.82787648,0,0,0.82787648,660.43779,81.978361)"><path
         sodipodi:nodetypes="ccccccccccccccccccc"
         inkscape:connector-curvature="0"
         id="path7553"
         d="m -434.68954,464.12485 -0.44336,33.61523 -13.0293,-0.0215 0.5,-33.45899 -58.00391,0 -0.49804,33.36328 -20.44727,-0.0801 -0.50195,-33.28321 -54.27344,0 0,15 0,306.32814 311.42773,0 0,-321.41017 -94.85742,0.51758 0.10009,33.54496 -13.54478,-0.0718 0.15366,-33.41665 -56.58203,-0.62695 z"
         style="color:#000000;font-style:normal;font-variant:normal;font-weight:normal;font-stretch:normal;font-size:medium;line-height:normal;font-family:sans-serif;text-indent:0;text-align:start;text-decoration:none;text-decoration-line:none;text-decoration-style:solid;text-decoration-color:#000000;letter-spacing:normal;word-spacing:normal;text-transform:none;direction:ltr;block-progression:tb;writing-mode:lr-tb;baseline-shift:baseline;text-anchor:start;white-space:normal;clip-rule:nonzero;display:inline;overflow:visible;visibility:visible;opacity:1;isolation:auto;mix-blend-mode:normal;color-interpolation:sRGB;color-interpolation-filters:linearRGB;solid-color:#000000;solid-opacity:1;fill:#ffffff;fill-opacity:1;fill-rule:nonzero;stroke:none;stroke-width:30;stroke-linecap:round;stroke-linejoin:miter;stroke-miterlimit:4;stroke-dasharray:none;stroke-dashoffset:0;stroke-opacity:1;color-rendering:auto;image-rendering:auto;shape-rendering:auto;text-rendering:auto;enable-background:accumulate" /><path
         sodipodi:nodetypes="ccccccccccccccccc"
         inkscape:connector-curvature="0"
         id="rect7489"
         d="m -574.16528,476.43173 36.49916,0 0.5,33.14645 38,0.35355 0.5,-33.5 38,0 -0.5,33.34835 33.05546,0.23744 0.44454,-33.58579 38.6207,0.35355 -0.35355,33.23402 31.82196,0.0732 -0.0126,-33.30725 64.85279,-0.35355 0,291.32801 -281.42849,0 z"
         style="opacity:1;fill:#734a08;fill-opacity:1;stroke:none;stroke-width:30;stroke-linecap:round;stroke-miterlimit:4;stroke-dasharray:none;stroke-opacity:1" /><g
         style="fill:#ffffff"
         inkscape:label="Warstwa 1"
         id="g7672"
         transform="matrix(1.0609674,0,0,0.90733887,-1347.6256,161.9467)"><g
           style="fill:#ffffff"
           transform="matrix(4.8748,0,0,4.8748,-340.82,-382.25)"
           id="g7674"><path
             d="m 181.819,201.34166 0.009,18.14792 46.32647,-0.0209 -0.0274,-18.09574 -3.23089,0 -4.87684,-75.78638 7.03097,-7.24387 0.0366,-20.279628 -12.82818,-0.007 -0.0456,8.321618 -2.33236,0 -0.0365,-8.307018 -12.95764,0.007 -0.0366,8.341458 -2.77913,0 0,-8.374848 -12.80993,0.0261 0.0183,20.303618 7.78897,7.58846 -5.99103,75.38962 z"
             style="fill:#ffffff;fill-opacity:1;fill-rule:evenodd;stroke:none;stroke-width:0.82762069px"
             sodipodi:nodetypes="ccccccccccccccccccccc"
             id="path7676"
             inkscape:connector-curvature="0" /></g></g><g
         transform="matrix(1.0609674,0,0,1.0609674,-1193.7854,113.29407)"
         id="layer1"
         inkscape:label="Warstwa 1"><g
           id="g5101"
           transform="matrix(4.8748,0,0,4.8748,-340.82,-382.25)"><path
             inkscape:connector-curvature="0"
             id="path1377"
             sodipodi:nodetypes="ccccccccccccccccccccc"
             style="fill:#734a08;fill-opacity:1;fill-rule:evenodd;stroke:none;stroke-width:0.82762069px"
             d="m 155.56152,194.27026 0.008,10.91617 39.29115,-0.0177 -0.0232,-10.87192 -2.74023,0 -4.13623,-67.93912 5.96322,-6.14379 0.031,-13.53792 -7.74833,-0.006 -0.0387,7.05787 -6.15377,0 -0.031,-7.04549 -9.25,0.006 -0.031,7.07469 -6.18473,0 0,-7.10301 -7.73285,0.0221 0.0155,13.55827 6.60611,6.43605 -5.08121,67.60262 z" /><path
             inkscape:connector-curvature="0"
             id="path1451"
             sodipodi:nodetypes="ccccc"
             style="fill:#ffffff;fill-rule:evenodd;stroke:none;stroke-width:1.494192px"
             d="m 169.96119,161.76424 0.0896,-17.45217 c 0.9264,-7.76979 9.90649,-7.30659 10.56393,0 l 0,17.64641 -10.65358,-0.19424 z" /><path
             inkscape:connector-curvature="0"
             id="rect7667"
             d="m 163.89574,126.31346 23.59071,0 0,1.33338 -23.59071,0 z"
             style="opacity:1;fill:#ffffff;fill-opacity:1;stroke:none;stroke-width:30;stroke-linecap:round;stroke-miterlimit:4;stroke-dasharray:none;stroke-opacity:1" /><path
             inkscape:connector-curvature="0"
             style="opacity:1;fill:#ffffff;fill-opacity:1;stroke:none;stroke-width:30;stroke-linecap:round;stroke-miterlimit:4;stroke-dasharray:none;stroke-opacity:1"
             d="m 156.15183,194.82855 38.10413,0 0,1.33338 -38.10413,0 z"
             id="path7670" /></g></g><g
         transform="matrix(1.0609674,0,0,0.90733887,-937.6256,161.9467)"
         id="g7471"
         inkscape:label="Warstwa 1"
         style="fill:#ffffff"><g
           id="g7473"
           transform="matrix(4.8748,0,0,4.8748,-340.82,-382.25)"
           style="fill:#ffffff"><path
             inkscape:connector-curvature="0"
             id="path7475"
             sodipodi:nodetypes="ccccccccccccccccccccc"
             style="fill:#ffffff;fill-opacity:1;fill-rule:evenodd;stroke:none;stroke-width:0.82762069px"
             d="m 181.819,201.34166 0.009,18.14792 46.32647,-0.0209 -0.0274,-18.09574 -3.23089,0 -4.87684,-75.78638 7.03097,-7.24387 0.0366,-20.279628 -12.82818,-0.007 -0.0456,8.321618 -2.33236,0 -0.0365,-8.307018 -12.95764,0.007 -0.0366,8.341458 -2.77913,0 0,-8.374848 -12.80993,0.0261 0.0183,20.303618 7.78897,7.58846 -5.99103,75.38962 z" /></g></g><g
         inkscape:label="Warstwa 1"
         id="g7477"
         transform="matrix(1.0609674,0,0,1.0609674,-783.7854,113.29407)"><g
           transform="matrix(4.8748,0,0,4.8748,-340.82,-382.25)"
           id="g7479"><path
             d="m 155.56152,194.27026 0.008,10.91617 39.29115,-0.0177 -0.0232,-10.87192 -2.74023,0 -4.13623,-67.93912 5.96322,-6.14379 0.031,-13.53792 -7.74833,-0.006 -0.0387,7.05787 -6.15377,0 -0.031,-7.04549 -9.25,0.006 -0.031,7.07469 -6.18473,0 0,-7.10301 -7.73285,0.0221 0.0155,13.55827 6.60611,6.43605 -5.08121,67.60262 z"
             style="fill:#734a08;fill-opacity:1;fill-rule:evenodd;stroke:none;stroke-width:0.82762069px"
             sodipodi:nodetypes="ccccccccccccccccccccc"
             id="path7481"
             inkscape:connector-curvature="0" /><path
             d="m 169.96119,161.76424 0.0896,-17.45217 c 0.9264,-7.76979 9.90649,-7.30659 10.56393,0 l 0,17.64641 -10.65358,-0.19424 z"
             style="fill:#ffffff;fill-rule:evenodd;stroke:none;stroke-width:1.494192px"
             sodipodi:nodetypes="ccccc"
             id="path7483"
             inkscape:connector-curvature="0" /><path
             style="opacity:1;fill:#ffffff;fill-opacity:1;stroke:none;stroke-width:30;stroke-linecap:round;stroke-miterlimit:4;stroke-dasharray:none;stroke-opacity:1"
             d="m 163.89574,126.31346 23.59071,0 0,1.33338 -23.59071,0 z"
             id="path7485"
             inkscape:connector-curvature="0" /><path
             id="path7487"
             d="m 156.15183,194.82855 38.10413,0 0,1.33338 -38.10413,0 z"
             style="opacity:1;fill:#ffffff;fill-opacity:1;stroke:none;stroke-width:30;stroke-linecap:round;stroke-miterlimit:4;stroke-dasharray:none;stroke-opacity:1"
             inkscape:connector-curvature="0" /></g></g><path
         inkscape:connector-curvature="0"
         id="path1451-3"
         sodipodi:nodetypes="ccccc"
         style="fill:#ffffff;fill-rule:evenodd;stroke:none;stroke-width:1.494192px"
         d="m -498.57396,750.33605 0.93613,-133.69036 c 9.67906,-59.5196 103.5034,-55.9713 110.37235,0 l 0,135.17831 -111.30901,-1.48795 z" /><path
         inkscape:connector-curvature="0"
         id="rect7667-6"
         d="m -561.9141,517.13857 240.48411,0 0,6.89625 -240.48411,0 z"
         style="opacity:1;fill:#ffffff;fill-opacity:1;stroke:none;stroke-width:30;stroke-linecap:round;stroke-miterlimit:4;stroke-dasharray:none;stroke-opacity:1" /></g></g></svg>