<?xml version="1.0" encoding="UTF-8" standalone="no"?>
<!-- Generator: Adobe Illustrator 16.0.0, SVG Export Plug-In . SVG Version: 6.00 Build 0)  -->

<svg
   xmlns:dc="http://purl.org/dc/elements/1.1/"
   xmlns:cc="http://creativecommons.org/ns#"
   xmlns:rdf="http://www.w3.org/1999/02/22-rdf-syntax-ns#"
   xmlns:svg="http://www.w3.org/2000/svg"
   xmlns="http://www.w3.org/2000/svg"
   xmlns:sodipodi="http://sodipodi.sourceforge.net/DTD/sodipodi-0.dtd"
   xmlns:inkscape="http://www.inkscape.org/namespaces/inkscape"
   version="1.1"
   id="svg2"
   inkscape:output_extension="org.inkscape.output.svg.inkscape"
   sodipodi:docname="JH_man_made_tower.svg"
   inkscape:version="0.91 r13725"
   sodipodi:version="0.32"
   x="0px"
   y="0px"
   width="580px"
   height="580px"
   viewBox="0 0 580 580"
   enable-background="new 0 0 580 580"
   xml:space="preserve"
   inkscape:export-filename="/media/juhele/KONZERVA/__PRACE/JH_icons/JH_mand_made_tower.png"
   inkscape:export-xdpi="31"
   inkscape:export-ydpi="31"><metadata
     id="metadata17"><rdf:RDF><cc:Work
         rdf:about=""><dc:format>image/svg+xml</dc:format><dc:type
           rdf:resource="http://purl.org/dc/dcmitype/StillImage" /></cc:Work></rdf:RDF></metadata><sodipodi:namedview
     showgrid="false"
     inkscape:cy="189.33023"
     inkscape:cx="-10.994134"
     inkscape:zoom="0.70710678"
     pagecolor="#ffffff"
     bordercolor="#666666"
     guidetolerance="10.0"
     objecttolerance="10.0"
     gridtolerance="10.0"
     borderopacity="1.0"
     id="base"
     inkscape:current-layer="g4198"
     inkscape:window-y="0"
     inkscape:window-x="0"
     inkscape:pageopacity="0.0"
     inkscape:pageshadow="2"
     inkscape:window-width="1920"
     inkscape:window-height="1125"
     inkscape:window-maximized="1"
     showguides="true"
     inkscape:guide-bbox="true" /><defs
     id="defs4"><inkscape:perspective
       inkscape:vp_z="580 : 290 : 1"
       inkscape:vp_y="0 : 1000 : 0"
       inkscape:vp_x="0 : 290 : 1"
       sodipodi:type="inkscape:persp3d"
       id="perspective3653"
       inkscape:persp3d-origin="290 : 193.33333 : 1" /><inkscape:perspective
       inkscape:vp_z="355.02399 : 217.53 : 1"
       inkscape:vp_y="0 : 1000 : 0"
       inkscape:vp_x="0 : 217.53 : 1"
       sodipodi:type="inkscape:persp3d"
       id="perspective2512"
       inkscape:persp3d-origin="177.51199 : 145.02 : 1" /></defs><g
     id="g2121" /><g
     id="g4198"
     transform="translate(-2.8338787,-220.28663)"><g
       transform="matrix(1.0609674,0,0,0.90733887,-405.7594,154.87563)"
       id="g7672"
       inkscape:label="Warstwa 1"
       style="fill:#ffffff"><g
         id="g7674"
         transform="matrix(4.8748,0,0,4.8748,-340.82,-382.25)"
         style="fill:#ffffff"><path
           inkscape:connector-curvature="0"
           id="path7676"
           sodipodi:nodetypes="ccccccccccccccccccccc"
           style="fill:#ffffff;fill-opacity:1;fill-rule:evenodd;stroke:none;stroke-width:0.82762069px"
           d="m 181.819,201.34166 0.009,18.14792 46.32647,-0.0209 -0.0274,-18.09574 -3.23089,0 -4.87684,-75.78638 7.03097,-7.24387 0.0366,-20.279628 -12.82818,-0.007 -0.0456,8.321618 -2.33236,0 -0.0365,-8.307018 -12.95764,0.007 -0.0366,8.341458 -2.77913,0 0,-8.374848 -12.80993,0.0261 0.0183,20.303618 7.78897,7.58846 -5.99103,75.38962 z" /></g></g><g
       inkscape:label="Warstwa 1"
       id="layer1"
       transform="matrix(1.0609674,0,0,1.0609674,-251.91912,106.223)"><g
         transform="matrix(4.8748,0,0,4.8748,-340.82,-382.25)"
         id="g5101"><path
           d="m 155.56152,194.27026 0.008,10.91617 39.29115,-0.0177 -0.0232,-10.87192 -2.74023,0 -4.13623,-67.93912 5.96322,-6.14379 0.031,-13.53792 -7.74833,-0.006 -0.0387,7.05787 -6.15377,0 -0.031,-7.04549 -9.25,0.006 -0.031,7.07469 -6.18473,0 0,-7.10301 -7.73285,0.0221 0.0155,13.55827 6.60611,6.43605 -5.08121,67.60262 z"
           style="fill:#734a08;fill-opacity:1;fill-rule:evenodd;stroke:none;stroke-width:0.82762069px"
           sodipodi:nodetypes="ccccccccccccccccccccc"
           id="path1377"
           inkscape:connector-curvature="0" /><path
           d="m 169.96119,161.76424 0.0896,-17.45217 c 0.9264,-7.76979 9.90649,-7.30659 10.56393,0 l 0,17.64641 -10.65358,-0.19424 z"
           style="fill:#ffffff;fill-rule:evenodd;stroke:none;stroke-width:1.494192px"
           sodipodi:nodetypes="ccccc"
           id="path1451"
           inkscape:connector-curvature="0" /><path
           style="opacity:1;fill:#ffffff;fill-opacity:1;stroke:none;stroke-width:30;stroke-linecap:round;stroke-miterlimit:4;stroke-dasharray:none;stroke-opacity:1"
           d="m 163.89574,126.31346 23.59071,0 0,1.33338 -23.59071,0 z"
           id="rect7667"
           inkscape:connector-curvature="0" /><path
           id="path7670"
           d="m 156.15183,194.82855 38.10413,0 0,1.33338 -38.10413,0 z"
           style="opacity:1;fill:#ffffff;fill-opacity:1;stroke:none;stroke-width:30;stroke-linecap:round;stroke-miterlimit:4;stroke-dasharray:none;stroke-opacity:1"
           inkscape:connector-curvature="0" /></g></g></g></svg>