<?xml version="1.0" encoding="UTF-8" standalone="no"?>
<!-- Generator: Adobe Illustrator 16.0.0, SVG Export Plug-In . SVG Version: 6.00 Build 0)  -->

<svg
   xmlns:dc="http://purl.org/dc/elements/1.1/"
   xmlns:cc="http://creativecommons.org/ns#"
   xmlns:rdf="http://www.w3.org/1999/02/22-rdf-syntax-ns#"
   xmlns:svg="http://www.w3.org/2000/svg"
   xmlns="http://www.w3.org/2000/svg"
   xmlns:sodipodi="http://sodipodi.sourceforge.net/DTD/sodipodi-0.dtd"
   xmlns:inkscape="http://www.inkscape.org/namespaces/inkscape"
   version="1.1"
   id="svg2"
   inkscape:output_extension="org.inkscape.output.svg.inkscape"
   sodipodi:docname="JH_natural_cave_entrance_v2.svg"
   inkscape:version="0.91 r13725"
   sodipodi:version="0.32"
   x="0px"
   y="0px"
   width="580px"
   height="580px"
   viewBox="0 0 580 580"
   enable-background="new 0 0 580 580"
   xml:space="preserve"
   inkscape:export-filename="/media/juhele/KONZERVA/__PRACE/JH_icons/JH_natural_cave_entrance_v2.png"
   inkscape:export-xdpi="31"
   inkscape:export-ydpi="31"><metadata
     id="metadata17"><rdf:RDF><cc:Work
         rdf:about=""><dc:format>image/svg+xml</dc:format><dc:type
           rdf:resource="http://purl.org/dc/dcmitype/StillImage" /><dc:title /></cc:Work></rdf:RDF></metadata><sodipodi:namedview
     showgrid="false"
     inkscape:cy="-189.74721"
     inkscape:cx="-325.51716"
     inkscape:zoom="0.11520964"
     pagecolor="#ffffff"
     bordercolor="#666666"
     guidetolerance="10.0"
     objecttolerance="10.0"
     gridtolerance="10.0"
     borderopacity="1.0"
     id="base"
     inkscape:current-layer="g4147"
     inkscape:window-y="0"
     inkscape:window-x="0"
     inkscape:pageopacity="0.0"
     inkscape:pageshadow="2"
     inkscape:window-width="1920"
     inkscape:window-height="1125"
     inkscape:window-maximized="1" /><defs
     id="defs4"><inkscape:perspective
       inkscape:vp_z="580 : 290 : 1"
       inkscape:vp_y="0 : 1000 : 0"
       inkscape:vp_x="0 : 290 : 1"
       sodipodi:type="inkscape:persp3d"
       id="perspective3653"
       inkscape:persp3d-origin="290 : 193.33333 : 1" /><inkscape:perspective
       inkscape:vp_z="355.02399 : 217.53 : 1"
       inkscape:vp_y="0 : 1000 : 0"
       inkscape:vp_x="0 : 217.53 : 1"
       sodipodi:type="inkscape:persp3d"
       id="perspective2512"
       inkscape:persp3d-origin="177.51199 : 145.02 : 1" /><inkscape:perspective
       inkscape:persp3d-origin="290 : 193.33333 : 1"
       id="perspective12"
       sodipodi:type="inkscape:persp3d"
       inkscape:vp_x="0 : 290 : 1"
       inkscape:vp_y="0 : 1000 : 0"
       inkscape:vp_z="580 : 290 : 1" /><inkscape:perspective
       inkscape:persp3d-origin="29.116032 : 19.410688 : 1"
       id="perspective6807"
       sodipodi:type="inkscape:persp3d"
       inkscape:vp_x="0 : 29.116032 : 1"
       inkscape:vp_y="0 : 1000 : 0"
       inkscape:vp_z="58.232063 : 29.116032 : 1" /><inkscape:perspective
       inkscape:persp3d-origin="290 : 193.33333 : 1"
       id="perspective6954"
       sodipodi:type="inkscape:persp3d"
       inkscape:vp_x="0 : 290 : 1"
       inkscape:vp_y="0 : 1000 : 0"
       inkscape:vp_z="580 : 290 : 1" /><inkscape:perspective
       inkscape:persp3d-origin="240 : 160 : 1"
       id="perspective2541"
       sodipodi:type="inkscape:persp3d"
       inkscape:vp_x="0 : 240 : 1"
       inkscape:vp_y="0 : 1000 : 0"
       inkscape:vp_z="480 : 240 : 1" /><inkscape:perspective
       inkscape:persp3d-origin="215 : 143.33333 : 1"
       id="perspective2750"
       sodipodi:type="inkscape:persp3d"
       inkscape:vp_x="0 : 215 : 1"
       inkscape:vp_y="0 : 1000 : 0"
       inkscape:vp_z="430 : 215 : 1" /><inkscape:perspective
       inkscape:persp3d-origin="0.5 : 0.33333333 : 1"
       id="perspective2830"
       sodipodi:type="inkscape:persp3d"
       inkscape:vp_x="0 : 0.5 : 1"
       inkscape:vp_y="0 : 1000 : 0"
       inkscape:vp_z="1 : 0.5 : 1" /></defs><g
     id="g2121" /><g
     id="g4198"
     transform="translate(-2.8338787,-220.28663)"><g
       id="g4162"
       transform="translate(0.9361182,176.73973)"><g
         id="g4181"
         transform="translate(2.9597728,16.047629)"><g
           id="g4147"
           transform="matrix(0.96001862,0,0,0.96001862,10.815616,13.430575)"><g
             id="g4150"
             transform="matrix(0.94208144,0,0,0.93445315,17.482654,39.001295)"><path
               style="opacity:1;fill:#ffffff;fill-opacity:1;stroke:none;stroke-width:30;stroke-linecap:butt;stroke-linejoin:round;stroke-miterlimit:4;stroke-dasharray:none;stroke-dashoffset:0;stroke-opacity:1"
               d="m 155.72785,461.69848 c -16.73774,-1.16439 -44.37144,-4.46973 -68.746414,-8.22295 -67.449807,-10.38578 -115.371472,-23.31527 -115.371472,-31.12776 0,-5.36623 87.420904,-128.22423 118.691584,-166.80463 41.603502,-51.32855 71.220842,-74.34577 123.622542,-96.07362 31.84925,-13.20598 67.06599,-22.42891 98.35503,-25.75829 12.08683,-1.2861 35.20774,-1.4713 45.26374,-0.36253 25.06018,2.76311 44.8953,10.8484 56.83492,23.16732 5.52839,5.70404 37.57021,41.90738 55.17408,62.34001 68.72691,79.77053 120.06806,145.84892 130.63954,168.139 4.82959,10.18323 6.09529,14.92807 6.11486,22.92303 0.0158,6.44924 -0.13858,7.25573 -2.20723,11.5313 -9.74743,20.14657 -46.10876,29.91849 -129.48306,34.79791 -34.90107,2.04256 -103.72662,4.21703 -153.82863,4.86006 -35.78571,0.45929 -160.53275,0.90606 -165.05949,0.59115 z"
               id="path4148"
               inkscape:connector-curvature="0" /><path
               inkscape:connector-curvature="0"
               id="path4177"
               d="m 166.8219,445.88779 c -15.48598,-1.03647 -41.05305,-3.97867 -63.6051,-7.31955 -62.405461,-9.24477 -106.7432234,-20.75378 -106.7432234,-27.70796 0,-4.77668 80.8829854,-114.13708 109.8150334,-148.47891 38.49211,-45.68942 65.89447,-66.17789 114.37722,-85.51865 29.46735,-11.75512 62.05035,-19.96479 90.99939,-22.92839 11.18289,-1.14481 32.57467,-1.30966 41.87861,-0.3227 23.18602,2.45954 41.53773,9.65655 52.58443,20.62208 5.11494,5.07737 34.76046,37.30329 51.04779,55.49112 63.58706,71.00667 111.08857,129.82546 120.86945,149.66668 4.4684,9.06447 5.63944,13.28802 5.65755,20.40463 0.0146,5.7407 -0.12822,6.45859 -2.04216,10.26443 -9.01845,17.9332 -42.66044,26.63154 -119.79945,30.97489 -32.29094,1.81816 -95.96926,3.75374 -142.3243,4.32612 -33.10942,0.40883 -148.52704,0.80652 -152.71524,0.52621 z"
               style="opacity:1;fill:#734a08;fill-opacity:1;stroke:none;stroke-width:30;stroke-linecap:butt;stroke-linejoin:round;stroke-miterlimit:4;stroke-dasharray:none;stroke-dashoffset:0;stroke-opacity:1" /><path
               style="opacity:1;fill:#ffffff;fill-opacity:1;stroke:none;stroke-width:15.90586185;stroke-linecap:butt;stroke-linejoin:round;stroke-miterlimit:4;stroke-dasharray:none;stroke-dashoffset:0;stroke-opacity:1"
               d="m 194.23299,442.02528 c -12.70406,-0.91894 -33.67822,-3.52754 -52.179,-6.48961 -51.19486,-8.19654 -87.567723,-18.40059 -87.567723,-24.56625 0,-4.23507 66.353053,-101.19552 90.087723,-131.64345 31.57732,-40.50886 54.05709,-58.67424 93.83033,-75.82203 24.17378,-10.42224 50.90353,-17.70105 74.65212,-20.32861 9.17398,-1.01502 26.72291,-1.16116 34.3555,-0.28612 19.02083,2.18065 34.07581,8.56163 43.13807,18.28382 4.19609,4.50166 28.51605,33.07362 41.87748,49.19919 52.1642,62.9555 91.13248,115.10505 99.1563,132.69654 3.66569,8.0367 4.62637,11.78136 4.64122,18.09105 0.012,5.08978 -0.10518,5.72627 -1.6753,9.10059 -7.39836,15.8998 -34.99686,23.61188 -98.27851,27.46276 -26.49015,1.61201 -78.7292,3.32811 -116.75696,3.83559 -27.16159,0.36248 -121.84543,0.71508 -125.28125,0.46653 z"
               id="path4179"
               inkscape:connector-curvature="0" /><path
               inkscape:connector-curvature="0"
               id="path3638"
               sodipodi:nodetypes="cssssc"
               fill="param(fill)"
               fill-opacity="param(fill-opacity)"
               stroke="param(outline)"
               stroke-opacity="param(outline-opacity)"
               stroke-width="param(outline-width)"
               d="m 165.40934,436.86113 c 0,-36.61652 85.64349,-152.4642 112.71409,-152.4642 43.30651,0 88.16652,32.00199 120.83963,86.2067 19.28216,31.98728 35.05846,61.67916 35.05846,65.9792 0,4.3023 -60.43691,7.82062 -134.30656,7.82062 -73.8687,0 -134.30562,-3.39388 -134.30562,-7.54232 z"
               style="fill:#734a08;fill-opacity:1" /></g></g></g></g></g></svg>