<?xml version="1.0" encoding="UTF-8" standalone="no"?>
<!-- Generator: Adobe Illustrator 16.0.0, SVG Export Plug-In . SVG Version: 6.00 Build 0)  -->

<svg
   xmlns:dc="http://purl.org/dc/elements/1.1/"
   xmlns:cc="http://creativecommons.org/ns#"
   xmlns:rdf="http://www.w3.org/1999/02/22-rdf-syntax-ns#"
   xmlns:svg="http://www.w3.org/2000/svg"
   xmlns="http://www.w3.org/2000/svg"
   xmlns:sodipodi="http://sodipodi.sourceforge.net/DTD/sodipodi-0.dtd"
   xmlns:inkscape="http://www.inkscape.org/namespaces/inkscape"
   version="1.1"
   id="svg2"
   inkscape:output_extension="org.inkscape.output.svg.inkscape"
   sodipodi:docname="JH_power_plant_coal.svg"
   inkscape:version="0.92.2 (5c3e80d, 2017-08-06)"
   sodipodi:version="0.32"
   x="0px"
   y="0px"
   width="580px"
   height="580px"
   viewBox="0 0 580 580"
   enable-background="new 0 0 580 580"
   xml:space="preserve"
   inkscape:export-filename="/media/juhele/data_2TB/_GRAFIKA/2018_03_22_Symboly_turistika/JH_icons/new/JH_power_plant_coal.png"
   inkscape:export-xdpi="33.103447"
   inkscape:export-ydpi="33.103447"><metadata
     id="metadata17"><rdf:RDF><cc:Work
         rdf:about=""><dc:format>image/svg+xml</dc:format><dc:type
           rdf:resource="http://purl.org/dc/dcmitype/StillImage" /><dc:title></dc:title></cc:Work></rdf:RDF></metadata><sodipodi:namedview
     showgrid="false"
     inkscape:cy="148.07528"
     inkscape:cx="-596.44141"
     inkscape:zoom="0.35355339"
     pagecolor="#ffffff"
     bordercolor="#666666"
     guidetolerance="10.0"
     objecttolerance="10.0"
     gridtolerance="10.0"
     borderopacity="1.0"
     id="base"
     inkscape:current-layer="g4198"
     inkscape:window-y="0"
     inkscape:window-x="0"
     inkscape:pageopacity="0.0"
     inkscape:pageshadow="2"
     inkscape:window-width="1920"
     inkscape:window-height="1140"
     inkscape:window-maximized="1"
     showguides="true"
     inkscape:guide-bbox="true" /><defs
     id="defs4" /><g
     id="g2121" /><g
     id="g4198"
     transform="translate(-2.8338787,-220.28663)"><g
       transform="matrix(0.50063248,0,0,0.50063248,-1931.4433,874.51659)"
       id="g1217"
       inkscape:label="Vrstva 1"
       style="stroke:#ffffff;stroke-opacity:1;stroke-width:1.00073411;stroke-miterlimit:4;stroke-dasharray:none"><g
         id="g1215"
         inkscape:export-ydpi="90"
         inkscape:export-xdpi="90"
         inkscape:export-filename="C:\Users\pafe\Desktop\use37123.png"
         transform="matrix(44.718,0,0,45.91,8409.6,-28683)"
         style="stroke:#ffffff;stroke-opacity:1;stroke-width:0.02208635;stroke-miterlimit:4;stroke-dasharray:none" /></g><g
       transform="matrix(0.50063248,0,0,0.50063248,-1911.2196,833.22086)"
       id="g1231"
       inkscape:label="Vrstva 1"
       style="stroke:#ffffff;stroke-opacity:1;stroke-width:59.92419829;stroke-miterlimit:4;stroke-dasharray:none"><g
         id="g1229"
         inkscape:export-ydpi="90"
         inkscape:export-xdpi="90"
         inkscape:export-filename="C:\Users\pafe\Desktop\use37123.png"
         transform="matrix(44.718,0,0,45.91,8409.6,-28683)"
         style="stroke:#ffffff;stroke-opacity:1;stroke-width:1.32253569;stroke-miterlimit:4;stroke-dasharray:none" /></g><g
       id="g1321"
       transform="translate(1035.2043,110.30866)"><path
         sodipodi:nodetypes="csccsscccccsccccccccccscccccsccssccscccccccc"
         inkscape:connector-curvature="0"
         id="path1202"
         d="m -777.06708,131.58872 c -8.64185,-0.0162 -17.10565,0.84062 -25.34096,2.90079 -15.80774,3.9545 -30.26446,12.84852 -41.16833,26.42933 -0.16847,-0.0271 0.0955,-0.10761 -0.6148,-0.0918 -2.81863,0.0625 -8.47036,-0.58819 -15.32834,-0.92369 -6.85801,-0.33553 -15.29285,-0.29028 -24.1892,2.69551 -7.24454,2.4314 -14.30816,7.15958 -20.00529,13.74765 -2.6477,0.66995 -5.93322,1.52522 -10.44379,3.39054 -4.83338,1.99882 -10.09718,5.62608 -14.49993,10.60199 -8.5844,1.85192 -15.90199,6.41705 -21.52435,12.17932 -5.77806,5.92185 -10.00621,13.65884 -10.853,22.27353 -7.69105,6.85515 -12.26868,14.505 -13.75737,21.64872 -1.85516,8.90233 0.43336,16.10076 2.5331,20.39551 l 0.24353,0.49876 0.28744,0.47896 7.33779,12.28917 31.74856,1.255 4.71688,-6.95756 c 0.25226,-0.37205 4.60753,-5.29814 6.57527,-12.33776 6.0661,-5.20674 9.98567,-11.2024 12.06266,-16.34412 1.4685,-3.63536 2.34842,-6.56881 3.07405,-9.05347 5.18489,-1.89299 11.48623,-4.58381 17.59396,-9.17409 3.96195,0.49028 8.20776,0.72704 12.99485,0.0936 5.30748,-0.70227 10.85706,-2.92839 15.84533,-6.21209 11.38465,1.74074 21.74841,0.0723 29.2993,-4.31425 3.84724,-2.23499 6.62955,-4.87392 8.93072,-7.54816 6.17984,0.53417 12.18859,0.0855 17.47419,-1.31085 7.09551,-1.87445 12.82117,-4.88262 18.07701,-7.9569 10.43372,0.62936 19.26575,0.65285 26.98578,-0.72383 9.12103,-1.62651 17.07507,-5.46932 23.07534,-10.12842 l -1.26556,0.88229 c -1.04452,0.65338 2.05933,-1.05541 4.92847,-2.92419 2.86914,-1.86878 6.42404,-4.4812 9.70523,-8.32421 6.51094,-7.6258 9.7671,-22.39041 1.83045,-34.95703 -2.34052,-4.25498 -4.01865,-4.8332 -6.15609,-6.33994 -2.31957,-1.63513 -5.05862,-3.13647 -8.48559,-4.31786 -5.27152,-1.81729 -13.00206,-2.47402 -20.33863,-0.12965 -7.20894,-0.98276 -14.34975,-1.67759 -21.34868,-1.69077 z m -67.52336,30.55454 c -0.12169,0.158 -0.25653,0.29813 -0.37727,0.45736 l 0.33535,-0.42675 c 0.0131,-0.016 0.0285,-0.0151 0.0419,-0.0307 z"
         style="color:#000000;font-style:normal;font-variant:normal;font-weight:normal;font-stretch:normal;font-size:medium;line-height:normal;font-family:sans-serif;font-variant-ligatures:normal;font-variant-position:normal;font-variant-caps:normal;font-variant-numeric:normal;font-variant-alternates:normal;font-feature-settings:normal;text-indent:0;text-align:start;text-decoration:none;text-decoration-line:none;text-decoration-style:solid;text-decoration-color:#000000;letter-spacing:normal;word-spacing:normal;text-transform:none;writing-mode:lr-tb;direction:ltr;text-orientation:mixed;dominant-baseline:auto;baseline-shift:baseline;text-anchor:start;white-space:normal;shape-padding:0;clip-rule:nonzero;display:inline;overflow:visible;visibility:visible;opacity:1;isolation:auto;mix-blend-mode:normal;color-interpolation:sRGB;color-interpolation-filters:linearRGB;solid-color:#000000;solid-opacity:1;vector-effect:none;fill:#ffffff;fill-opacity:1;fill-rule:nonzero;stroke:none;stroke-width:29.12031555;stroke-linecap:butt;stroke-linejoin:miter;stroke-miterlimit:4;stroke-dasharray:none;stroke-dashoffset:0;stroke-opacity:1;color-rendering:auto;image-rendering:auto;shape-rendering:auto;text-rendering:auto;enable-background:accumulate" /><path
         inkscape:connector-curvature="0"
         style="color:#000000;fill:#734a08;fill-opacity:1;stroke:none;stroke-width:3.62130404"
         sodipodi:nodetypes="ccccccccccccccccc"
         d="m -958.23194,261.25574 c -2.32858,-4.76283 -5.84598,-17.80936 12.56435,-30.36655 -2.16878,-14.24959 12.21077,-27.835 25.82104,-27.61564 7.02037,-12.38119 16.67312,-11.8246 25.5436,-15.11184 18.2109,-27.75058 46.37448,-20.78412 61.98838,-17.75508 18.54045,-24.45241 45.80858,-28.16952 78.98717,-22.86403 8.67628,-5.50327 18.19439,1.19664 19.19212,3.19748 11.17292,17.25453 -8.78257,26.28054 -11.80207,28.16932 -9.01197,6.99764 -19.06235,9.34101 -44.15852,7.32348 -11.78442,7.34068 -23.92761,13.32312 -39.17038,7.57327 -2.7739,7.15071 -11.00822,19.7125 -34.75883,12.41427 -8.3358,9.73741 -18.65344,8.61087 -29.63137,6.41252 -7.75141,8.41059 -16.49837,10.3479 -25.03552,13.64717 -4.48103,9.67945 -3.17084,19.97977 -17.04474,28.6515 0.29109,6.82828 -2.97952,8.88146 -5.26598,12.25395 l -14.01902,-0.55385 z"
         id="path3046-7" /><path
         sodipodi:nodetypes="cccccc"
         inkscape:connector-curvature="0"
         id="path1250"
         d="m -895.75571,433.99932 v 19.40625 222 h 232 V 494.41924 Z"
         style="color:#000000;font-style:normal;font-variant:normal;font-weight:normal;font-stretch:normal;font-size:medium;line-height:normal;font-family:sans-serif;font-variant-ligatures:normal;font-variant-position:normal;font-variant-caps:normal;font-variant-numeric:normal;font-variant-alternates:normal;font-feature-settings:normal;text-indent:0;text-align:start;text-decoration:none;text-decoration-line:none;text-decoration-style:solid;text-decoration-color:#000000;letter-spacing:normal;word-spacing:normal;text-transform:none;writing-mode:lr-tb;direction:ltr;text-orientation:mixed;dominant-baseline:auto;baseline-shift:baseline;text-anchor:start;white-space:normal;shape-padding:0;clip-rule:nonzero;display:inline;overflow:visible;visibility:visible;opacity:1;isolation:auto;mix-blend-mode:normal;color-interpolation:sRGB;color-interpolation-filters:linearRGB;solid-color:#000000;solid-opacity:1;vector-effect:none;fill:#ffffff;fill-opacity:1;fill-rule:nonzero;stroke:none;stroke-width:30;stroke-linecap:butt;stroke-linejoin:miter;stroke-miterlimit:4;stroke-dasharray:none;stroke-dashoffset:0;stroke-opacity:1;color-rendering:auto;image-rendering:auto;shape-rendering:auto;text-rendering:auto;enable-background:accumulate" /><path
         sodipodi:nodetypes="ccccc"
         inkscape:connector-curvature="0"
         id="rect1206"
         d="m -880.75497,453.4063 202,52.60773 V 660.4063 h -202 z"
         style="opacity:1;fill:#734a08;fill-opacity:1;stroke:none;stroke-width:35.49774933;stroke-miterlimit:4;stroke-dasharray:none;stroke-dashoffset:0;stroke-opacity:1" /><path
         id="path1933"
         inkscape:connector-curvature="0"
         sodipodi:nodetypes="cccccccccccc"
         style="fill:#ffffff;fill-rule:evenodd;stroke:none;stroke-width:0.64138192px"
         d="m -797.10639,492.40427 -35.68419,91.08662 52.21905,-20.1785 -11.16457,61.30363 -10.66992,-11.68649 8.19676,38.44458 29.96059,-32.41061 -15.19228,7.067 31.44448,-86.87507 -56.24675,23.24049 41.1958,-70.02348 z" /><path
         sodipodi:nodetypes="ccccccccccc"
         inkscape:connector-curvature="0"
         id="path1227"
         d="m -980.96158,282.10504 -19.63282,372.54803 4.59125,4.75838 c 13.78475,14.38548 31.4566,20.57416 47.92289,19.66216 16.4663,-0.91247 31.61152,-8.03913 44.11862,-18.04615 l 6.12158,-4.89307 -0.43655,-7.99063 -21.07561,-364.15334 -19.58888,9.11294 c -10.69955,4.97191 -10.78395,5.58742 -21.64402,-0.18387 z"
         style="color:#000000;font-style:normal;font-variant:normal;font-weight:normal;font-stretch:normal;font-size:medium;line-height:normal;font-family:sans-serif;font-variant-ligatures:normal;font-variant-position:normal;font-variant-caps:normal;font-variant-numeric:normal;font-variant-alternates:normal;font-feature-settings:normal;text-indent:0;text-align:start;text-decoration:none;text-decoration-line:none;text-decoration-style:solid;text-decoration-color:#000000;letter-spacing:normal;word-spacing:normal;text-transform:none;writing-mode:lr-tb;direction:ltr;text-orientation:mixed;dominant-baseline:auto;baseline-shift:baseline;text-anchor:start;white-space:normal;shape-padding:0;clip-rule:nonzero;display:inline;overflow:visible;visibility:visible;opacity:1;isolation:auto;mix-blend-mode:normal;color-interpolation:sRGB;color-interpolation-filters:linearRGB;solid-color:#000000;solid-opacity:1;vector-effect:none;fill:#ffffff;fill-opacity:1;fill-rule:nonzero;stroke:none;stroke-width:29.99999809;stroke-linecap:butt;stroke-linejoin:miter;stroke-miterlimit:4;stroke-dasharray:none;stroke-dashoffset:0;stroke-opacity:1;color-rendering:auto;image-rendering:auto;shape-rendering:auto;text-rendering:auto;enable-background:accumulate" /><g
         transform="matrix(0.50063248,0,0,0.50063248,-1911.2196,833.22086)"
         id="layer1"
         inkscape:label="Vrstva 1"><g
           id="g7130"
           inkscape:export-ydpi="90"
           inkscape:export-xdpi="90"
           inkscape:export-filename="C:\Users\pafe\Desktop\use37123.png"
           transform="matrix(44.718,0,0,45.91,8409.6,-28683)"><path
             inkscape:connector-curvature="0"
             id="path6545-4"
             sodipodi:nodetypes="ccccc"
             style="fill:#734a08;fill-opacity:1;stroke-width:0.68893868"
             d="m -143.51204,616.51028 -0.88314,-14.88425 c -0.55937,0.25318 -0.94008,0.28883 -1.54412,-0.0236 l -0.80622,14.89555 c 0.98849,1.00479 2.28966,0.74784 3.23348,0.0123 z" /></g></g><g
         id="g1268"
         transform="matrix(0.83607,0,0,0.83607,-963.07894,510.64234)"><g
           id="g1266"
           transform="translate(24,-582)"><path
             sodipodi:nodetypes="cccccccccccccccccccccccccccccccccccccccccccccccccccccccccccc"
             inkscape:connector-curvature="0"
             id="path1270"
             d="m 442.72656,648.04492 c -1.59991,-0.20344 -2.23047,-0.10722 -1.20312,0.0645 l 4.59179,1.41992 c -5.52329,-2.56231 -16.1924,-1.1492 -20.83789,2.76758 -0.0284,0.024 -0.0422,0.0444 -0.0703,0.0684 -3.54096,1.0181 -7.79371,2.65242 -12.22461,5.42188 -5.03278,1.42364 -10.84798,4.56524 -13.26953,8.01172 l -1.09375,1.55664 -0.74219,1.75 c -1.69239,3.98811 -2.5158,7.69755 -3.06054,11.24219 l -3.89649,1.08593 c -10.72073,2.99175 -19.42922,14.83913 -19.03125,14.25977 l 0.44531,-0.46289 c -2.45377,2.81389 -5.44858,6.82285 -7.48242,11.60547 l -4.72265,1.13086 -3.88868,6.27148 c -2.16205,3.48575 -3.28344,6.68724 -4.0625,9.68555 -2.78778,1.5167 -5.6369,3.45211 -7.95703,6.04297 l -2.97265,3.31836 -1.07422,4.32422 c -3.0226,12.16522 0.0271,20.6933 0.0859,22.39257 l 0.58789,16.97852 16.98632,0.33789 120.13868,2.38867 87.60937,-2.97265 0.30469,-17.03321 c -0.0115,0.64644 1.94699,-6.02099 -0.27149,-15.10547 -0.93937,-6.12837 -3.34801,-9.00105 -5.44531,-11.07812 -0.0184,-0.0718 -0.0261,-0.18259 -0.0449,-0.25196 -1.02731,-3.78039 -1.98816,-5.45817 -2.00586,-5.50585 l -1.16992,-3.15039 -2.23242,-2.51563 c -0.65114,-0.73355 -3.46249,-5.82913 -9.63868,-10.00195 -0.49079,-0.72963 -0.95412,-1.48523 -1.52734,-2.13282 -0.39223,-0.44312 -0.81112,-0.79416 -1.21484,-1.19726 -0.0186,-0.2144 -0.0257,-0.32056 -0.0449,-0.55078 l -0.3418,-4.08985 -2.08594,-3.53515 c -1.74659,-2.95956 -3.38051,-5.0916 -7.26562,-7.61133 -0.25833,-0.16754 -0.72732,-0.31014 -1.03516,-0.47656 -1.356,-1.49065 -2.57023,-2.66893 -3.875,-3.76758 -1.00441,-2.21065 -2.14436,-4.15948 -3.39453,-5.84766 l -4.17188,-5.63281 -6.88476,-1.3125 c 1.29683,0.24732 0.0198,-0.19567 -3.67578,-1.46484 -1.12319,-0.38574 -2.66867,-0.74972 -4.37305,-1.05469 -1.69851,-1.72226 -3.56231,-3.45276 -6.05469,-4.97656 -0.74431,-1.84139 -1.48923,-3.70145 -2.32812,-5.32422 l -2.29883,-4.44727 -4.27148,-2.61523 C 482.72602,651.45793 472.42156,649.34363 463,651.48047 l -7.10742,1.61133 -0.0684,0.10547 c -2.02348,-1.45541 -4.08687,-2.70646 -6.08399,-3.42383 -2.84455,-1.02179 -5.41375,-1.52508 -7.01367,-1.72852 z m -79.88281,65.79688 c -0.008,0.0613 0.006,0.14697 -0.002,0.20898 -0.0108,0.0929 -0.0451,0.18236 -0.0547,0.27539 z"
             style="color:#000000;font-style:normal;font-variant:normal;font-weight:normal;font-stretch:normal;font-size:medium;line-height:normal;font-family:sans-serif;font-variant-ligatures:normal;font-variant-position:normal;font-variant-caps:normal;font-variant-numeric:normal;font-variant-alternates:normal;font-feature-settings:normal;text-indent:0;text-align:start;text-decoration:none;text-decoration-line:none;text-decoration-style:solid;text-decoration-color:#000000;letter-spacing:normal;word-spacing:normal;text-transform:none;writing-mode:lr-tb;direction:ltr;text-orientation:mixed;dominant-baseline:auto;baseline-shift:baseline;text-anchor:start;white-space:normal;shape-padding:0;clip-rule:nonzero;display:inline;overflow:visible;visibility:visible;opacity:1;isolation:auto;mix-blend-mode:normal;color-interpolation:sRGB;color-interpolation-filters:linearRGB;solid-color:#000000;solid-opacity:1;vector-effect:none;fill:#ffffff;fill-opacity:1;fill-rule:nonzero;stroke:none;stroke-width:35.882164;stroke-linecap:butt;stroke-linejoin:miter;stroke-miterlimit:4;stroke-dasharray:none;stroke-dashoffset:0;stroke-opacity:1;color-rendering:auto;image-rendering:auto;shape-rendering:auto;text-rendering:auto;enable-background:accumulate" /><path
             id="path1264"
             sodipodi:nodetypes="ccccccccccccccccccccccccccccccccc"
             style="color:#000000;fill:#734a08;fill-opacity:1;stroke-width:1.25938082"
             inkscape:connector-curvature="0"
             d="m 358.19059,759.38102 c -0.20144,-5.81553 -2.364,-10.36414 -0.60432,-17.44644 3.6259,-4.049 7.2518,-3.3605 10.878,-4.75812 0.38906,-4.84139 0.69463,-9.72972 3.0216,-13.48134 3.223,-0.77226 6.446,-1.02896 9.6691,0.79302 -1.3495,-4.58969 -1.2536,-2.71277 -0.52159,-8.32671 0.68646,-6.67263 3.4222,-8.35114 6.0432,-10.30927 1.7605,-2.56288 2.4282,-5.28516 9.0648,-7.13718 6.3674,3.18414 4.8394,1.25377 6.5648,5.15463 1.206,0.0704 1.7457,1.2338 1.813,3.17208 1.3388,-7.05994 4.9397,-8.18285 7.8561,-11.10228 -0.004,-6.96287 -0.0742,-13.9543 2.4173,-19.8255 1.6115,-2.29357 3.223,-0.86839 4.8345,-0.79302 5.4388,-4.9643 10.878,-5.75495 16.317,-7.13718 0.74329,-2.00507 1.7091,-2.98794 3.0216,-2.37906 2.5886,0.43256 7.4087,-0.27274 10.878,6.34416 7.242,-1.39262 9.7794,5.4463 13.899,9.51624 0.62381,-4.99682 1.5868,-9.54859 3.6259,-12.68832 5.0777,-1.15164 9.676,-0.20634 13.899,2.37906 1.8151,3.51118 3.038,6.66359 3.7359,10.63361 4.5573,0.67712 8.5818,4.85027 12.581,9.19189 4.7678,-1.67581 8.4633,1.5728 12.691,2.37906 2.4415,3.2969 2.1578,4.44805 1.813,5.55114 3.2804,2.22839 6.6131,4.31974 9.0648,8.72322 1.3457,-0.83865 2.9845,0.72698 3.6594,1.87058 0.5813,6.95257 0.16475,3.27533 -0.0335,8.43869 5.8935,2.60713 6.9883,4.89943 7.2518,7.13718 4.7145,1.50978 6.7965,5.48706 9.6691,8.72322 0.98129,2.64345 2.646,5.28674 1.2086,7.9302 2.224,1.28826 5.5232,4.25217 5.6347,6.44043 1.2512,4.53243 -0.13058,7.33734 -0.19587,11.00601 l -70.101,2.37906 z" /></g></g></g></g></svg>