<?xml version="1.0" encoding="UTF-8" standalone="no"?>
<!-- Generator: Adobe Illustrator 16.0.0, SVG Export Plug-In . SVG Version: 6.00 Build 0)  -->

<svg
   xmlns:dc="http://purl.org/dc/elements/1.1/"
   xmlns:cc="http://creativecommons.org/ns#"
   xmlns:rdf="http://www.w3.org/1999/02/22-rdf-syntax-ns#"
   xmlns:svg="http://www.w3.org/2000/svg"
   xmlns="http://www.w3.org/2000/svg"
   xmlns:sodipodi="http://sodipodi.sourceforge.net/DTD/sodipodi-0.dtd"
   xmlns:inkscape="http://www.inkscape.org/namespaces/inkscape"
   version="1.1"
   id="svg2"
   inkscape:output_extension="org.inkscape.output.svg.inkscape"
   sodipodi:docname="JH_power_plant_nuclear.svg"
   inkscape:version="0.92.2 (5c3e80d, 2017-08-06)"
   sodipodi:version="0.32"
   x="0px"
   y="0px"
   width="580px"
   height="580px"
   viewBox="0 0 580 580"
   enable-background="new 0 0 580 580"
   xml:space="preserve"
   inkscape:export-filename="/media/juhele/data_2TB/_GRAFIKA/2018_03_22_Symboly_turistika/JH_icons/new/JH_power_plant_nuclear.png"
   inkscape:export-xdpi="33.103447"
   inkscape:export-ydpi="33.103447"><metadata
     id="metadata17"><rdf:RDF><cc:Work
         rdf:about=""><dc:format>image/svg+xml</dc:format><dc:type
           rdf:resource="http://purl.org/dc/dcmitype/StillImage" /></cc:Work></rdf:RDF></metadata><sodipodi:namedview
     showgrid="false"
     inkscape:cy="246.09575"
     inkscape:cx="12.3289"
     inkscape:zoom="0.7071068"
     pagecolor="#ffffff"
     bordercolor="#666666"
     guidetolerance="10.0"
     objecttolerance="10.0"
     gridtolerance="10.0"
     borderopacity="1.0"
     id="base"
     inkscape:current-layer="g4198"
     inkscape:window-y="0"
     inkscape:window-x="0"
     inkscape:pageopacity="0.0"
     inkscape:pageshadow="2"
     inkscape:window-width="1920"
     inkscape:window-height="1140"
     inkscape:window-maximized="1"
     showguides="true"
     inkscape:guide-bbox="true" /><defs
     id="defs4" /><g
     id="g2121" /><g
     id="g4198"
     transform="translate(-2.8338787,-220.28663)"><g
       id="g1108"
       transform="matrix(1.133966,0,0,1.133966,1176.7639,83.508461)"><path
         sodipodi:nodetypes="ccccccscsccscscsccccccscsccccccsccsccccc"
         inkscape:connector-curvature="0"
         id="path1085"
         d="m -730.14686,231.34881 c -1.35412,0.1244 -2.73764,0.46217 -4.1331,0.89105 -1.19381,-0.22942 -2.36464,-0.42575 -3.63193,-0.55255 -3.32144,-0.33234 -6.92838,-0.2562 -10.76432,0.43308 -4.69064,0.84285 -10.19757,2.80494 -14.82318,6.69695 -6.84274,-2.34632 -14.83611,-3.8619 -23.69728,-4.00058 -6.57989,-0.10298 -13.44836,0.6343 -20.12877,3.46297 -4.07966,1.72743 -8.071,4.57885 -11.43564,8.3098 -4.69354,-0.19893 -9.64932,0.51001 -14.31582,3.18586 -5.04199,2.89117 -9.02413,7.40881 -12.46583,13.08195 -9.36924,-1.91581 -20.39174,-1.99979 -31.22101,2.47403 -7.45878,3.0814 -15.00027,9.34546 -18.61908,18.85966 -2.68417,7.05694 -3.1203,15.10554 -1.62261,23.94377 -4.27408,3.75205 -7.82553,8.32115 -9.8053,13.96968 -2.20112,6.2801 -2.23208,13.03388 -0.88787,19.72582 -3.21201,5.1227 -4.16252,11.34979 -3.72783,17.46749 0.68385,9.62443 7.88636,20.87161 19.18985,23.5024 l 1.239,0.28872 h 1.26994 c 24.22406,0.0206 50.23077,-0.40285 73.85756,0.50775 l 3.56233,0.13772 3.04415,-1.98951 c 2.50868,-1.63915 5.80286,-3.44528 9.26235,-7.16322 1.2824,-1.37819 2.4272,-3.12397 3.46952,-5.00446 6.40203,-0.0756 12.29311,-0.38178 18.29579,-2.61175 6.5754,-2.44273 12.1064,-6.96131 17.82555,-13.37068 13.25235,2.91758 26.78612,2.60468 42.10599,-5.64661 11.73499,-0.30475 20.88424,-2.68001 27.91547,-7.08357 5.37922,-3.36894 9.14235,-7.63106 12.02807,-11.56037 10.06968,-1.40137 17.34397,-4.02906 22.53253,-10.2263 4.62109,-5.51947 5.37396,-11.80589 5.52369,-15.67048 2.70897,-5.15096 4.5258,-10.16862 5.10451,-15.40166 0.69968,-6.32696 -0.83773,-12.90948 -3.76032,-17.69648 -4.38274,-7.17864 -10.17186,-10.80462 -15.52853,-13.52334 -2.35631,-6.76493 -6.76256,-12.29387 -11.6754,-15.12456 -4.41384,-2.54318 -8.6494,-3.43912 -12.42715,-3.77989 -3.77719,-3.02795 -8.3055,-4.0293 -12.49057,-4.24119 -3.50843,-0.17763 -7.1581,0.41118 -10.74576,1.7207 -2.94433,-1.66019 -6.04552,-2.60713 -9.07984,-3.24229 -3.02178,-0.63252 -6.08094,-1.06005 -9.23916,-0.76991 z"
         style="color:#000000;font-style:normal;font-variant:normal;font-weight:normal;font-stretch:normal;font-size:medium;line-height:normal;font-family:sans-serif;font-variant-ligatures:normal;font-variant-position:normal;font-variant-caps:normal;font-variant-numeric:normal;font-variant-alternates:normal;font-feature-settings:normal;text-indent:0;text-align:start;text-decoration:none;text-decoration-line:none;text-decoration-style:solid;text-decoration-color:#000000;letter-spacing:normal;word-spacing:normal;text-transform:none;writing-mode:lr-tb;direction:ltr;text-orientation:mixed;dominant-baseline:auto;baseline-shift:baseline;text-anchor:start;white-space:normal;shape-padding:0;clip-rule:nonzero;display:inline;overflow:visible;visibility:visible;opacity:1;isolation:auto;mix-blend-mode:normal;color-interpolation:sRGB;color-interpolation-filters:linearRGB;solid-color:#000000;solid-opacity:1;vector-effect:none;fill:#ffffff;fill-opacity:1;fill-rule:nonzero;stroke:none;stroke-width:24.60787964;stroke-linecap:butt;stroke-linejoin:miter;stroke-miterlimit:4;stroke-dasharray:none;stroke-dashoffset:0;stroke-opacity:1;color-rendering:auto;image-rendering:auto;shape-rendering:auto;text-rendering:auto;enable-background:accumulate" /><path
         inkscape:connector-curvature="0"
         style="fill:#734a08;fill-opacity:1;stroke:none;stroke-width:2.27310896"
         sodipodi:nodetypes="ccccccccccccccccc"
         d="m -889.71825,370.34603 c -13.16115,-3.06314 -11.62188,-20.74649 -4.55155,-24.71056 -5.71613,-14.85445 -1.67882,-25.29797 10.8101,-31.91796 -13.03459,-43.21196 27.67134,-42.0912 43.81086,-36.03663 7.67484,-18.14317 16.05026,-20.46684 26.20239,-17.50388 8.44361,-19.57385 43.26526,-12.01438 53.48495,-6.17746 4.69061,-11.26193 21.91347,-10.82263 26.17269,-8.23698 5.04201,-3.30347 16.41203,-1.26904 20.4834,4.63328 7.48968,-6.10286 17.16425,-4.63364 19.34479,0 7.76798,-0.12203 18.24956,1.61906 19.34486,15.44437 12.74346,6.30792 24.99654,12.90268 12.51751,33.97784 -0.3803,7.46469 1.11858,15.35427 -22.75889,17.50352 -5.98889,9.25177 -12.59608,18.17706 -36.41432,18.01849 -17.15292,10.20711 -27.48308,8.76563 -43.24142,4.11867 -14.25288,18.05777 -19.33521,17.34641 -40.11932,17.50353 -1.05404,7.96957 -5.41432,10.37396 -10.81057,13.89982 -24.06732,-0.92757 -50.19067,-0.49555 -74.27548,-0.51605 z"
         id="path976" /><path
         sodipodi:nodetypes="ccccscsccccccscccccccccscccscc"
         inkscape:connector-curvature="0"
         id="path1089"
         d="m -805.70909,357.49366 c -1.66486,0.0388 -3.29335,0.13431 -4.90625,0.22656 h -34.55078 -18.21484 -34.86133 c -6.6393,0 -13.76991,-0.44386 -22.21875,3.03907 -8.44884,3.48292 -16.1875,14.82473 -16.1875,25.36718 0,8.77552 5.3453,18.71558 11.86719,22.85547 1.75019,1.11097 3.39481,1.94691 4.9707,2.63672 -0.346,7.67357 -1.12149,18.49553 -3.63672,39.47266 -2.1603,18.01835 -11.83899,49.29497 -21.02344,74.1875 -9.20511,24.94863 -17.7207,44.30664 -17.7207,44.30664 l 0.14258,-0.3125 c -2.91865,6.24297 -3.11437,13.05694 -0.73047,19.38867 2.40256,6.38129 7.02282,11.33004 13.35547,14.10742 l 0.29492,0.12891 0.30078,0.11719 c 54.90292,21.32066 116.55437,21.35775 187.9043,0.41015 l 0.92187,-0.26953 0.87891,-0.38672 c 6.33265,-2.77738 10.9529,-7.72613 13.35547,-14.10742 2.3839,-6.33173 2.18818,-13.1457 -0.73047,-19.38867 l 0.14258,0.3125 c 0,0 -8.51559,-19.35801 -17.72071,-44.30664 -9.18444,-24.89253 -18.86313,-56.16915 -21.02343,-74.1875 -2.51523,-20.97713 -3.29073,-31.79909 -3.63672,-39.47266 1.57588,-0.68981 3.22051,-1.52575 4.9707,-2.63672 6.52188,-4.13989 11.86719,-14.07995 11.86719,-22.85547 0,-10.55066 -7.36534,-21.81754 -15.94531,-25.53711 -6.43498,-2.78967 -12.31194,-3.22502 -17.86524,-3.0957 z"
         style="color:#000000;font-style:normal;font-variant:normal;font-weight:normal;font-stretch:normal;font-size:medium;line-height:normal;font-family:Sans;-inkscape-font-specification:Sans;font-variant-ligatures:normal;font-variant-position:normal;font-variant-caps:normal;font-variant-numeric:normal;font-variant-alternates:normal;font-feature-settings:normal;text-indent:0;text-align:start;text-decoration:none;text-decoration-line:none;text-decoration-style:solid;text-decoration-color:#000000;letter-spacing:normal;word-spacing:normal;text-transform:none;writing-mode:lr-tb;direction:ltr;text-orientation:mixed;dominant-baseline:auto;baseline-shift:baseline;text-anchor:start;white-space:normal;shape-padding:0;clip-rule:nonzero;display:inline;overflow:visible;visibility:visible;opacity:1;isolation:auto;mix-blend-mode:normal;color-interpolation:sRGB;color-interpolation-filters:linearRGB;solid-color:#000000;solid-opacity:1;vector-effect:none;fill:#ffffff;fill-opacity:1;fill-rule:nonzero;stroke:none;stroke-width:30;stroke-linecap:butt;stroke-linejoin:miter;stroke-miterlimit:4;stroke-dasharray:none;stroke-dashoffset:0;stroke-opacity:1;marker:none;color-rendering:auto;image-rendering:auto;shape-rendering:auto;text-rendering:auto;enable-background:accumulate" /><path
         sodipodi:nodetypes="ssccccsccsccccssccs"
         inkscape:connector-curvature="0"
         id="path6824"
         transform="translate(2.8338787,220.28663)"
         d="m -901.07617,152.43359 c -12.79712,0 -23.40625,0.61615 -23.40625,13.40625 0,10.6332 7.35587,11.7126 17.1875,14.5 0.0879,6.1926 -0.1047,18.9811 -4.09375,52.25 -2.50877,20.9248 -12.47055,52.18965 -21.84375,77.59375 -9.3732,25.4042 -18.0625,45.15625 -18.0625,45.15625 -1.12581,2.4081 -1.21791,5.2622 -0.28125,7.75 0.93666,2.4878 2.90931,4.58855 5.34375,5.65625 51.42678,19.97076 109.10555,20.30009 178.25,0 2.43444,-1.0677 4.40709,-3.16845 5.34375,-5.65625 0.93666,-2.4878 0.84456,-5.3419 -0.28125,-7.75 0,0 -8.6893,-19.75205 -18.0625,-45.15625 -9.3732,-25.4041 -19.33498,-56.66895 -21.84375,-77.59375 -3.98905,-33.2689 -4.18165,-46.0574 -4.09375,-52.25 9.83163,-2.7874 17.1875,-3.8668 17.1875,-14.5 0,-12.7901 -10.63014,-14.13922 -23.40625,-13.40625 H -848 -866.21484 Z"
         style="color:#000000;font-style:normal;font-variant:normal;font-weight:normal;font-stretch:normal;font-size:medium;line-height:normal;font-family:Sans;-inkscape-font-specification:Sans;text-indent:0;text-align:start;text-decoration:none;text-decoration-line:none;letter-spacing:normal;word-spacing:normal;text-transform:none;writing-mode:lr-tb;direction:ltr;baseline-shift:baseline;text-anchor:start;display:inline;overflow:visible;visibility:visible;fill:#734a08;fill-opacity:1;stroke:none;stroke-width:20;marker:none;enable-background:accumulate" /><path
         sodipodi:nodetypes="sssccscsccssss"
         inkscape:connector-curvature="0"
         id="path1093"
         d="m -680.1005,453.46851 c -19.83277,0 -38.02994,5.53572 -52.05274,15.50781 -14.02279,9.9721 -24.21094,25.33011 -24.21094,43.0586 v 69.61914 l 0.97657,2.57226 c 5.53633,14.5771 18.68728,20.14239 32.00195,24.06641 13.31467,3.92401 28.72991,5.63095 44.3418,5.64062 15.61189,0.01 31.28806,-1.69783 45.00781,-5.54687 13.71975,-3.84904 26.64654,-9.08079 33.84766,-22.31836 l 1.82421,-3.35156 v -70.68164 c 0,-17.72849 -10.18814,-33.0865 -24.21093,-43.0586 -14.0228,-9.97209 -32.21997,-15.50781 -52.05274,-15.50781 z"
         style="color:#000000;font-style:normal;font-variant:normal;font-weight:normal;font-stretch:normal;font-size:medium;line-height:normal;font-family:sans-serif;font-variant-ligatures:normal;font-variant-position:normal;font-variant-caps:normal;font-variant-numeric:normal;font-variant-alternates:normal;font-feature-settings:normal;text-indent:0;text-align:start;text-decoration:none;text-decoration-line:none;text-decoration-style:solid;text-decoration-color:#000000;letter-spacing:normal;word-spacing:normal;text-transform:none;writing-mode:lr-tb;direction:ltr;text-orientation:mixed;dominant-baseline:auto;baseline-shift:baseline;text-anchor:start;white-space:normal;shape-padding:0;clip-rule:nonzero;display:inline;overflow:visible;visibility:visible;opacity:1;isolation:auto;mix-blend-mode:normal;color-interpolation:sRGB;color-interpolation-filters:linearRGB;solid-color:#000000;solid-opacity:1;vector-effect:none;fill:#ffffff;fill-opacity:1;fill-rule:nonzero;stroke:none;stroke-width:30;stroke-linecap:butt;stroke-linejoin:miter;stroke-miterlimit:4;stroke-dasharray:none;stroke-dashoffset:0;stroke-opacity:1;color-rendering:auto;image-rendering:auto;shape-rendering:auto;text-rendering:auto;enable-background:accumulate" /><path
         sodipodi:nodetypes="sssccss"
         inkscape:connector-curvature="0"
         id="rect861"
         d="m -680.09982,468.46802 h 5.47105 c 33.94052,0 61.26447,19.43101 61.26447,43.56729 v 66.86542 c -14.56855,26.78086 -117.88313,26.6376 -128,0 v -66.86542 c 0,-24.13628 27.32396,-43.56729 61.26448,-43.56729 z"
         style="opacity:1;fill:#734a08;fill-opacity:1;stroke:none;stroke-width:27.80565262;stroke-miterlimit:4;stroke-dasharray:none;stroke-dashoffset:0;stroke-opacity:1" /><path
         d="m -696.98291,493.31861 -2.4159,1.74345 c -11.45256,8.31642 -17.86308,19.9699 -19.31197,35.0535 l -0.3678,3.69176 h 15.40758 15.3927 l 0.33653,-2.05075 c 0.44971,-2.74807 2.34889,-6.18136 4.55988,-8.25502 l 1.8082,-1.69287 -6.44819,-11.91243 c -3.54552,-6.55229 -7.0203,-12.95427 -7.71213,-14.23676 z m 45.1521,0.0159 -1.99999,3.6916 c -1.10193,2.03215 -4.58059,8.43428 -7.71214,14.23693 l -5.68012,10.56201 1.79212,1.69287 c 2.20697,2.06984 4.10958,5.49169 4.55988,8.23785 l 0.33653,2.05107 h 15.3927 15.40758 l -0.35291,-3.41835 c -1.56518,-15.18826 -7.93773,-27.03849 -18.75208,-34.8833 z m -22.52691,31.31719 c -1.31189,-0.0795 -3.79122,0.38015 -5.55415,1.88453 -2.57031,2.19407 -3.71318,4.70291 -3.7111,8.09103 0,3.42217 1.62698,6.47881 4.4001,8.27188 4.26058,2.75491 10.30449,1.16432 12.8002,-3.38398 2.39892,-4.37239 1.36102,-9.67192 -2.57598,-13.07452 -1.71125,-1.47925 -3.61222,-1.78894 -5.35907,-1.78894 z m 6.38312,22.82819 c 0,0 -0.99024,0.37061 -2.00014,0.81916 -2.37986,1.06252 -7.64438,1.20885 -10.7661,-0.96072 -2.46995,4.28108 -4.95122,8.63835 -7.26615,12.94091 -3.11264,5.74618 -6.28261,11.6002 -7.05604,13.00644 l -1.40719,2.54654 3.21598,1.6407 c 2.95152,1.49197 8.47053,3.70179 11.68025,4.10182 2.02829,0.2529 5.38871,0.36106 8.54617,0.26086 3.63561,-0.12725 11.326,-1.24862 17.70972,-4.49836 l 2.96,-1.50311 -0.97535,-1.74329 c -0.53756,-0.95118 -2.76479,-5.04854 -4.94407,-9.10949 -5.77512,-10.76227 -9.69604,-17.5013 -9.69604,-17.5013 z"
         inkscape:connector-curvature="0"
         style="fill:#ffffff;stroke-width:1.53900361"
         sodipodi:nodetypes="cccccccccccccccccccccccccsssssccscccccsscccsc"
         id="path3909" /><path
         id="path1933"
         inkscape:connector-curvature="0"
         sodipodi:nodetypes="cccccccccccc"
         style="fill:#ffffff;fill-rule:evenodd;stroke:none;stroke-width:0.56560946px"
         d="m -867.61622,422.93371 -31.46848,80.3257 46.04992,-17.79462 -9.84559,54.06126 -9.40938,-10.30586 7.2284,33.90276 26.42106,-28.58164 -13.39747,6.23211 27.72965,-76.61171 -49.6018,20.49488 36.32896,-61.75095 z" /></g></g></svg>