<?xml version="1.0" encoding="UTF-8" standalone="no"?>
<!-- Generator: Adobe Illustrator 16.0.0, SVG Export Plug-In . SVG Version: 6.00 Build 0)  -->

<svg
   xmlns:dc="http://purl.org/dc/elements/1.1/"
   xmlns:cc="http://creativecommons.org/ns#"
   xmlns:rdf="http://www.w3.org/1999/02/22-rdf-syntax-ns#"
   xmlns:svg="http://www.w3.org/2000/svg"
   xmlns="http://www.w3.org/2000/svg"
   xmlns:sodipodi="http://sodipodi.sourceforge.net/DTD/sodipodi-0.dtd"
   xmlns:inkscape="http://www.inkscape.org/namespaces/inkscape"
   version="1.1"
   id="svg2"
   inkscape:output_extension="org.inkscape.output.svg.inkscape"
   sodipodi:docname="JH_power_plant_wind.svg"
   inkscape:version="0.92.2 (5c3e80d, 2017-08-06)"
   sodipodi:version="0.32"
   x="0px"
   y="0px"
   width="580px"
   height="580px"
   viewBox="0 0 580 580"
   enable-background="new 0 0 580 580"
   xml:space="preserve"
   inkscape:export-filename="/media/juhele/data_2TB/_GRAFIKA/2018_03_22_Symboly_turistika/JH_icons/new/JH_power_plant_wind.png"
   inkscape:export-xdpi="33.103447"
   inkscape:export-ydpi="33.103447"><metadata
     id="metadata17"><rdf:RDF><cc:Work
         rdf:about=""><dc:format>image/svg+xml</dc:format><dc:type
           rdf:resource="http://purl.org/dc/dcmitype/StillImage" /><dc:title /></cc:Work></rdf:RDF></metadata><sodipodi:namedview
     showgrid="false"
     inkscape:cy="1149.9359"
     inkscape:cx="857.32268"
     inkscape:zoom="0.1767767"
     pagecolor="#ffffff"
     bordercolor="#666666"
     guidetolerance="10.0"
     objecttolerance="10.0"
     gridtolerance="10.0"
     borderopacity="1.0"
     id="base"
     inkscape:current-layer="g4198"
     inkscape:window-y="0"
     inkscape:window-x="0"
     inkscape:pageopacity="0.0"
     inkscape:pageshadow="2"
     inkscape:window-width="1920"
     inkscape:window-height="1140"
     inkscape:window-maximized="1"
     showguides="true"
     inkscape:guide-bbox="true" /><defs
     id="defs4" /><g
     id="g2121" /><g
     id="g4198"
     transform="translate(-2.8338787,-220.28663)"><g
       transform="matrix(0.50063248,0,0,0.50063248,-1931.4433,874.51659)"
       id="g1217"
       inkscape:label="Vrstva 1"
       style="stroke:#ffffff;stroke-opacity:1;stroke-width:1.00073411;stroke-miterlimit:4;stroke-dasharray:none"><g
         id="g1215"
         inkscape:export-ydpi="90"
         inkscape:export-xdpi="90"
         inkscape:export-filename="C:\Users\pafe\Desktop\use37123.png"
         transform="matrix(44.718,0,0,45.91,8409.6,-28683)"
         style="stroke:#ffffff;stroke-opacity:1;stroke-width:0.02208635;stroke-miterlimit:4;stroke-dasharray:none" /></g><g
       transform="matrix(0.50063248,0,0,0.50063248,-1911.2196,833.22086)"
       id="g1231"
       inkscape:label="Vrstva 1"
       style="stroke:#ffffff;stroke-opacity:1;stroke-width:59.92419829;stroke-miterlimit:4;stroke-dasharray:none"><g
         id="g1229"
         inkscape:export-ydpi="90"
         inkscape:export-xdpi="90"
         inkscape:export-filename="C:\Users\pafe\Desktop\use37123.png"
         transform="matrix(44.718,0,0,45.91,8409.6,-28683)"
         style="stroke:#ffffff;stroke-opacity:1;stroke-width:1.32253569;stroke-miterlimit:4;stroke-dasharray:none" /></g><g
       id="g1035"
       transform="translate(1208.4853,32)"><path
         sodipodi:nodetypes="cccccc"
         inkscape:connector-curvature="0"
         id="path1250"
         d="m -906.55067,514.90277 v 19.40625 222 h 232 V 575.32269 Z"
         style="color:#000000;font-style:normal;font-variant:normal;font-weight:normal;font-stretch:normal;font-size:medium;line-height:normal;font-family:sans-serif;font-variant-ligatures:normal;font-variant-position:normal;font-variant-caps:normal;font-variant-numeric:normal;font-variant-alternates:normal;font-feature-settings:normal;text-indent:0;text-align:start;text-decoration:none;text-decoration-line:none;text-decoration-style:solid;text-decoration-color:#000000;letter-spacing:normal;word-spacing:normal;text-transform:none;writing-mode:lr-tb;direction:ltr;text-orientation:mixed;dominant-baseline:auto;baseline-shift:baseline;text-anchor:start;white-space:normal;shape-padding:0;clip-rule:nonzero;display:inline;overflow:visible;visibility:visible;opacity:1;isolation:auto;mix-blend-mode:normal;color-interpolation:sRGB;color-interpolation-filters:linearRGB;solid-color:#000000;solid-opacity:1;vector-effect:none;fill:#ffffff;fill-opacity:1;fill-rule:nonzero;stroke:none;stroke-width:30;stroke-linecap:butt;stroke-linejoin:miter;stroke-miterlimit:4;stroke-dasharray:none;stroke-dashoffset:0;stroke-opacity:1;color-rendering:auto;image-rendering:auto;shape-rendering:auto;text-rendering:auto;enable-background:accumulate" /><path
         sodipodi:nodetypes="ccccc"
         inkscape:connector-curvature="0"
         id="rect1206"
         d="m -893.55067,539.71496 202,52.60773 v 154.39227 h -202 z"
         style="opacity:1;fill:#734a08;fill-opacity:1;stroke:none;stroke-width:35.49774933;stroke-miterlimit:4;stroke-dasharray:none;stroke-dashoffset:0;stroke-opacity:1" /><path
         id="path1933"
         inkscape:connector-curvature="0"
         sodipodi:nodetypes="cccccccccccc"
         style="fill:#ffffff;fill-rule:evenodd;stroke:none;stroke-width:0.64138192px"
         d="m -823.90209,576.71293 -35.68419,91.08662 52.21905,-20.1785 -11.16457,61.30363 -10.66992,-11.68649 8.19676,38.44458 29.96059,-32.41061 -15.19228,7.067 31.44448,-86.87507 -56.24675,23.24049 41.1958,-70.02348 z" /><path
         sodipodi:nodetypes="cccsccccccc"
         inkscape:connector-curvature="0"
         id="path991"
         d="m -1015.9316,437.5625 -16.1036,305.44727 4.4903,4.6875 c 11.6198,12.12623 26.9477,17.56435 41.08592,16.78125 14.1382,-0.78311 26.90217,-6.85082 37.36328,-15.22071 l 6.05078,-4.84179 -0.44727,-7.73633 -17.18164,-297.30664 -20.02344,9.30273 c -8.20552,3.81294 -6.30127,4.25185 -14.45898,-0.0801 z"
         style="color:#000000;font-style:normal;font-variant:normal;font-weight:normal;font-stretch:normal;font-size:medium;line-height:normal;font-family:sans-serif;font-variant-ligatures:normal;font-variant-position:normal;font-variant-caps:normal;font-variant-numeric:normal;font-variant-alternates:normal;font-feature-settings:normal;text-indent:0;text-align:start;text-decoration:none;text-decoration-line:none;text-decoration-style:solid;text-decoration-color:#000000;letter-spacing:normal;word-spacing:normal;text-transform:none;writing-mode:lr-tb;direction:ltr;text-orientation:mixed;dominant-baseline:auto;baseline-shift:baseline;text-anchor:start;white-space:normal;shape-padding:0;clip-rule:nonzero;display:inline;overflow:visible;visibility:visible;opacity:1;isolation:auto;mix-blend-mode:normal;color-interpolation:sRGB;color-interpolation-filters:linearRGB;solid-color:#000000;solid-opacity:1;vector-effect:none;fill:#ffffff;fill-opacity:1;fill-rule:nonzero;stroke:none;stroke-width:29.99999809;stroke-linecap:butt;stroke-linejoin:miter;stroke-miterlimit:4;stroke-dasharray:none;stroke-dashoffset:0;stroke-opacity:1;color-rendering:auto;image-rendering:auto;shape-rendering:auto;text-rendering:auto;enable-background:accumulate" /><g
         transform="matrix(0.40282717,0,0,0.40282717,-1760.9106,890.22285)"
         id="layer1"
         inkscape:label="Vrstva 1"><g
           id="g7130"
           inkscape:export-ydpi="90"
           inkscape:export-xdpi="90"
           inkscape:export-filename="C:\Users\pafe\Desktop\use37123.png"
           transform="matrix(44.718,0,0,45.91,8409.6,-28683)"><path
             inkscape:connector-curvature="0"
             id="path6545-4"
             sodipodi:nodetypes="ccccc"
             style="fill:#734a08;fill-opacity:1;stroke-width:0.68893868"
             d="m -143.51204,616.51028 -0.88314,-14.88425 c -0.55937,0.25318 -0.94008,0.28883 -1.54412,-0.0236 l -0.80622,14.89555 c 0.98849,1.00479 2.28966,0.74784 3.23348,0.0123 z" /></g></g><g
         transform="rotate(8.6568973,-992.55074,405.67151)"
         inkscape:transform-center-y="-34.332735"
         inkscape:transform-center-x="-14.10421"
         id="g1005"><path
           style="color:#000000;font-style:normal;font-variant:normal;font-weight:normal;font-stretch:normal;font-size:medium;line-height:normal;font-family:sans-serif;font-variant-ligatures:normal;font-variant-position:normal;font-variant-caps:normal;font-variant-numeric:normal;font-variant-alternates:normal;font-feature-settings:normal;text-indent:0;text-align:start;text-decoration:none;text-decoration-line:none;text-decoration-style:solid;text-decoration-color:#000000;letter-spacing:normal;word-spacing:normal;text-transform:none;writing-mode:lr-tb;direction:ltr;text-orientation:mixed;dominant-baseline:auto;baseline-shift:baseline;text-anchor:start;white-space:normal;shape-padding:0;clip-rule:nonzero;display:inline;overflow:visible;visibility:visible;opacity:1;isolation:auto;mix-blend-mode:normal;color-interpolation:sRGB;color-interpolation-filters:linearRGB;solid-color:#000000;solid-opacity:1;vector-effect:none;fill:#ffffff;fill-opacity:1;fill-rule:evenodd;stroke:none;stroke-width:30;stroke-linecap:round;stroke-linejoin:round;stroke-miterlimit:4;stroke-dasharray:none;stroke-dashoffset:0;stroke-opacity:1;color-rendering:auto;image-rendering:auto;shape-rendering:auto;text-rendering:auto;enable-background:accumulate"
           d="m -1051.5312,205.21875 c -1.1698,-0.0534 -2.4187,-0.0173 -3.7559,0.12305 -6.4286,0.67459 -11.5252,5.46347 -13.6094,8.98437 -2.0841,3.52091 -2.7287,6.41227 -3.2461,9.25781 -1.0348,5.69109 -1.0657,11.46504 -0.8144,18.13672 0.5026,13.34337 2.5578,29.77691 5.0371,46.16016 4.9585,32.7665 11.7207,65.05664 11.7207,65.05664 0.569,2.72095 1.8828,5.2303 3.7949,7.24805 13.9669,14.73724 33.8982,17.05645 48.125,11.68164 14.22679,-5.37481 24.42966,-15.3126 29.58008,-27.53516 0.88752,-2.10708 1.28167,-4.38916 1.15234,-6.67187 -0.28284,-4.99457 -0.82238,-4.55593 -1.30468,-6.04102 -0.48231,-1.48509 -1.0743,-3.14562 -1.80664,-5.10352 -1.46468,-3.91578 -3.47301,-8.95979 -5.91797,-14.83007 -4.88992,-11.74057 -11.50621,-26.7227 -18.71683,-41.5918 -7.2106,-14.8691 -14.9358,-29.54261 -22.4668,-41.08984 -3.7655,-5.77362 -7.3962,-10.753 -11.5937,-14.97852 -3.6729,-3.69732 -7.9894,-8.43274 -16.1777,-8.80664 z"
           id="path979"
           inkscape:connector-curvature="0"
           sodipodi:nodetypes="cccsscccsccccscscc" /><path
           style="fill:#734a08;fill-opacity:1;fill-rule:evenodd;stroke:none;stroke-width:2.60108018;stroke-linecap:round;stroke-linejoin:round"
           inkscape:transform-center-x="32.370123"
           inkscape:transform-center-y="-119.3206"
           d="m -1053.7212,220.25893 c -14.5866,1.53067 12.2042,129.60793 12.2042,129.60793 20.6555,21.79479 46.84289,3.23943 52.99455,-11.3592 -0.31212,-5.51145 -48.00225,-120.05329 -65.19875,-118.24873 z"
           id="path6340"
           inkscape:connector-curvature="0"
           sodipodi:nodetypes="sccs" /><path
           style="color:#000000;font-style:normal;font-variant:normal;font-weight:normal;font-stretch:normal;font-size:medium;line-height:normal;font-family:sans-serif;font-variant-ligatures:normal;font-variant-position:normal;font-variant-caps:normal;font-variant-numeric:normal;font-variant-alternates:normal;font-feature-settings:normal;text-indent:0;text-align:start;text-decoration:none;text-decoration-line:none;text-decoration-style:solid;text-decoration-color:#000000;letter-spacing:normal;word-spacing:normal;text-transform:none;writing-mode:lr-tb;direction:ltr;text-orientation:mixed;dominant-baseline:auto;baseline-shift:baseline;text-anchor:start;white-space:normal;shape-padding:0;clip-rule:nonzero;display:inline;overflow:visible;visibility:visible;opacity:1;isolation:auto;mix-blend-mode:normal;color-interpolation:sRGB;color-interpolation-filters:linearRGB;solid-color:#000000;solid-opacity:1;vector-effect:none;fill:#ffffff;fill-opacity:1;fill-rule:nonzero;stroke:none;stroke-width:30;stroke-linecap:butt;stroke-linejoin:miter;stroke-miterlimit:4;stroke-dasharray:none;stroke-dashoffset:0;stroke-opacity:1;color-rendering:auto;image-rendering:auto;shape-rendering:auto;text-rendering:auto;enable-background:accumulate"
           d="m -990.33789,369.31055 c -21.91371,2e-5 -40.00001,18.08629 -40.00001,40 0,21.9137 18.0863,39.99997 40.00001,40 21.91372,0 39.99999,-18.08629 40,-40 0,-21.91373 -18.08628,-40.00001 -40,-40 z"
           id="path958"
           inkscape:connector-curvature="0"
           sodipodi:nodetypes="sscss" /><path
           inkscape:connector-curvature="0"
           style="opacity:1;fill:#734a08;fill-opacity:1;stroke:none;stroke-width:10.2289629;stroke-miterlimit:4;stroke-dasharray:none;stroke-dashoffset:0;stroke-opacity:1"
           d="m -965.33783,409.31104 a 24.999996,24.999998 0 0 1 -25,24.99999 24.999996,24.999998 0 0 1 -24.99997,-24.99999 24.999996,24.999998 0 0 1 24.99997,-25 24.999996,24.999998 0 0 1 25,25 z"
           id="path900" /><path
           style="color:#000000;font-style:normal;font-variant:normal;font-weight:normal;font-stretch:normal;font-size:medium;line-height:normal;font-family:sans-serif;font-variant-ligatures:normal;font-variant-position:normal;font-variant-caps:normal;font-variant-numeric:normal;font-variant-alternates:normal;font-feature-settings:normal;text-indent:0;text-align:start;text-decoration:none;text-decoration-line:none;text-decoration-style:solid;text-decoration-color:#000000;letter-spacing:normal;word-spacing:normal;text-transform:none;writing-mode:lr-tb;direction:ltr;text-orientation:mixed;dominant-baseline:auto;baseline-shift:baseline;text-anchor:start;white-space:normal;shape-padding:0;clip-rule:nonzero;display:inline;overflow:visible;visibility:visible;opacity:1;isolation:auto;mix-blend-mode:normal;color-interpolation:sRGB;color-interpolation-filters:linearRGB;solid-color:#000000;solid-opacity:1;vector-effect:none;fill:#ffffff;fill-opacity:1;fill-rule:evenodd;stroke:none;stroke-width:30;stroke-linecap:round;stroke-linejoin:round;stroke-miterlimit:4;stroke-dasharray:none;stroke-dashoffset:0;stroke-opacity:1;color-rendering:auto;image-rendering:auto;shape-rendering:auto;text-rendering:auto;enable-background:accumulate"
           d="m -913.91992,380.09766 c -1.26335,-0.0186 -2.52398,0.1225 -3.75196,0.41992 -19.73349,4.77998 -31.66364,20.91303 -34.08203,35.92773 -2.41838,15.01471 1.12191,28.81118 9.16016,39.36133 1.38626,1.81875 3.16999,3.29651 5.21484,4.32031 4.47282,2.24028 4.36054,1.55425 5.88868,1.875 1.52813,0.32076 3.2635,0.63152 5.32617,0.97071 4.12534,0.67837 9.50013,1.44918 15.80859,2.25 12.61693,1.60164 28.90323,3.31712 45.38867,4.46289 16.48545,1.14577 33.05666,1.74825 46.82032,0.96289 6.88182,-0.39268 13.0096,-1.06371 18.76367,-2.60156 5.75406,-1.53786 13.10284,-3.12934 17.45312,-12.9668 2.61422,-5.91163 0.99521,-12.71543 -1.02148,-16.27539 -2.01669,-3.55997 -4.20344,-5.55891 -6.41406,-7.42383 -4.42125,-3.72985 -9.41433,-6.63008 -15.32618,-9.73242 -11.82369,-6.20468 -27.10082,-12.60041 -42.54492,-18.60352 -30.8882,-12.00622 -62.25976,-22.21094 -62.25976,-22.21094 -1.42939,-0.46572 -2.92066,-0.71393 -4.42383,-0.73632 z"
           id="path983"
           inkscape:connector-curvature="0"
           sodipodi:nodetypes="ccsccccssscscssscc" /><path
           sodipodi:nodetypes="sccs"
           inkscape:connector-curvature="0"
           id="path975"
           d="m -795.64898,449.01355 c 5.93171,-13.41359 -118.49103,-53.91698 -118.49103,-53.91698 -29.18365,7.06906 -26.12224,39.01764 -16.5214,51.61869 4.93577,2.47215 128.01934,18.11204 135.01243,2.29829 z"
           inkscape:transform-center-y="16.180557"
           inkscape:transform-center-x="-124.50332"
           style="fill:#734a08;fill-opacity:1;fill-rule:evenodd;stroke:none;stroke-width:2.60108018;stroke-linecap:round;stroke-linejoin:round" /><path
           style="color:#000000;font-style:normal;font-variant:normal;font-weight:normal;font-stretch:normal;font-size:medium;line-height:normal;font-family:sans-serif;font-variant-ligatures:normal;font-variant-position:normal;font-variant-caps:normal;font-variant-numeric:normal;font-variant-alternates:normal;font-feature-settings:normal;text-indent:0;text-align:start;text-decoration:none;text-decoration-line:none;text-decoration-style:solid;text-decoration-color:#000000;letter-spacing:normal;word-spacing:normal;text-transform:none;writing-mode:lr-tb;direction:ltr;text-orientation:mixed;dominant-baseline:auto;baseline-shift:baseline;text-anchor:start;white-space:normal;shape-padding:0;clip-rule:nonzero;display:inline;overflow:visible;visibility:visible;opacity:1;isolation:auto;mix-blend-mode:normal;color-interpolation:sRGB;color-interpolation-filters:linearRGB;solid-color:#000000;solid-opacity:1;vector-effect:none;fill:#ffffff;fill-opacity:1;fill-rule:evenodd;stroke:none;stroke-width:30;stroke-linecap:round;stroke-linejoin:round;stroke-miterlimit:4;stroke-dasharray:none;stroke-dashoffset:0;stroke-opacity:1;color-rendering:auto;image-rendering:auto;shape-rendering:auto;text-rendering:auto;enable-background:accumulate"
           d="m -1051.3652,423.94336 c -1.6564,-0.0641 -3.3145,-0.0429 -4.9688,0.0664 -2.282,0.15097 -4.4993,0.8217 -6.4824,1.96093 -4.3381,2.4915 -3.7031,2.77627 -4.8145,3.87305 -1.1113,1.09678 -2.3299,2.37209 -3.7519,3.9043 -2.8439,3.06442 -6.4537,7.11879 -10.6055,11.93554 -8.3035,9.63351 -18.729,22.26473 -28.789,35.375 -10.06,13.11027 -19.7153,26.59024 -26.6622,38.49805 -3.4734,5.95391 -6.2974,11.43384 -8.1933,17.08008 -1.8959,5.64624 -4.6266,12.65119 1.1719,21.71094 3.4843,5.44436 10.0492,7.85372 14.1308,8.13867 4.0816,0.28495 6.9568,-0.43515 9.7324,-1.24805 5.5512,-1.62579 10.7249,-4.1854 16.5762,-7.40039 11.7027,-6.42999 25.4736,-15.63389 39.0078,-25.19336 27.0684,-19.11893 52.9024,-39.63672 52.9024,-39.63672 2.1769,-1.72823 3.8308,-4.02725 4.7773,-6.64062 6.9139,-19.09075 0.052,-37.94722 -11.1289,-48.25586 -9.7836,-9.02007 -21.3077,-13.71951 -32.9023,-14.16797 z"
           id="path987"
           inkscape:connector-curvature="0"
           sodipodi:nodetypes="ccccccscscsccsccccc" /><path
           style="fill:#734a08;fill-opacity:1;fill-rule:evenodd;stroke:none;stroke-width:2.60108018;stroke-linecap:round;stroke-linejoin:round"
           inkscape:transform-center-x="84.99411"
           inkscape:transform-center-y="85.866349"
           d="m -1131.8278,550.26143 c 7.906,12.35324 110.3897,-69.00178 110.3897,-69.00178 10.2249,-28.23313 -18.0997,-43.32604 -33.9071,-42.28179 -4.7869,2.74928 -85.8036,96.71995 -76.4826,111.28357 z"
           id="path977"
           inkscape:connector-curvature="0"
           sodipodi:nodetypes="sccs" /></g><path
         inkscape:connector-curvature="0"
         style="opacity:1;fill:#ffffff;fill-opacity:1;stroke:none;stroke-width:30.42000198;stroke-miterlimit:4;stroke-dasharray:none;stroke-dashoffset:0;stroke-opacity:1"
         d="m -972.26636,679.44983 h 88.7419 v 43.25914 h -88.7419 z"
         id="path1015" /><path
         inkscape:connector-curvature="0"
         id="rect1012"
         d="m -975.51636,686.19983 h 95.9919 v 30.75914 h -95.9919 z"
         style="opacity:1;fill:#734a08;fill-opacity:1;stroke:none;stroke-width:26.67843246;stroke-miterlimit:4;stroke-dasharray:none;stroke-dashoffset:0;stroke-opacity:1" /></g></g></svg>