<?xml version="1.0" encoding="UTF-8" standalone="no"?>
<!-- Generator: Adobe Illustrator 16.0.0, SVG Export Plug-In . SVG Version: 6.00 Build 0)  -->

<svg
   xmlns:dc="http://purl.org/dc/elements/1.1/"
   xmlns:cc="http://creativecommons.org/ns#"
   xmlns:rdf="http://www.w3.org/1999/02/22-rdf-syntax-ns#"
   xmlns:svg="http://www.w3.org/2000/svg"
   xmlns="http://www.w3.org/2000/svg"
   xmlns:sodipodi="http://sodipodi.sourceforge.net/DTD/sodipodi-0.dtd"
   xmlns:inkscape="http://www.inkscape.org/namespaces/inkscape"
   version="1.1"
   id="svg2"
   inkscape:output_extension="org.inkscape.output.svg.inkscape"
   sodipodi:docname="JH_religion_jewish.svg"
   inkscape:version="0.91 r13725"
   sodipodi:version="0.32"
   x="0px"
   y="0px"
   width="580px"
   height="580px"
   viewBox="0 0 580 580"
   enable-background="new 0 0 580 580"
   xml:space="preserve"
   inkscape:export-filename="F:\_GRAFIKA\2016_08_29_Symboly_turistika\JH_icons\JH_religion_jewish.png"
   inkscape:export-xdpi="31"
   inkscape:export-ydpi="31"><metadata
     id="metadata17"><rdf:RDF><cc:Work
         rdf:about=""><dc:format>image/svg+xml</dc:format><dc:type
           rdf:resource="http://purl.org/dc/dcmitype/StillImage" /></cc:Work></rdf:RDF></metadata><sodipodi:namedview
     showgrid="false"
     inkscape:cy="-638.65693"
     inkscape:cx="3504.4755"
     inkscape:zoom="0.1767767"
     pagecolor="#ffffff"
     bordercolor="#666666"
     guidetolerance="10.0"
     objecttolerance="10.0"
     gridtolerance="10.0"
     borderopacity="1.0"
     id="base"
     inkscape:current-layer="g4148"
     inkscape:window-y="-9"
     inkscape:window-x="-9"
     inkscape:pageopacity="0.0"
     inkscape:pageshadow="2"
     inkscape:window-width="2560"
     inkscape:window-height="1369"
     inkscape:window-maximized="1"
     showguides="true"
     inkscape:guide-bbox="true" /><defs
     id="defs4"><inkscape:perspective
       inkscape:vp_z="580 : 290 : 1"
       inkscape:vp_y="0 : 1000 : 0"
       inkscape:vp_x="0 : 290 : 1"
       sodipodi:type="inkscape:persp3d"
       id="perspective3653"
       inkscape:persp3d-origin="290 : 193.33333 : 1" /><inkscape:perspective
       inkscape:vp_z="355.02399 : 217.53 : 1"
       inkscape:vp_y="0 : 1000 : 0"
       inkscape:vp_x="0 : 217.53 : 1"
       sodipodi:type="inkscape:persp3d"
       id="perspective2512"
       inkscape:persp3d-origin="177.51199 : 145.02 : 1" /></defs><g
     id="g2121" /><g
     id="g4198"
     transform="translate(-2.8338787,-220.28663)"><g
       id="g4148"
       transform="matrix(35.294679,0,0,35.294679,272.09462,277.19861)"><g
         id="g4154"><path
           sodipodi:nodetypes="ccccccccccccc"
           style="fill:#ffffff;fill-opacity:1;stroke:none"
           id="path4152"
           d="m 0.62386963,-1.5198151 -2.35737343,4.0256683 -4.6422108,0 2.3211049,4.0619355 -2.3211049,4.0619353 4.6422108,0 2.35737343,4.098202 2.32110597,-4.098202 4.6059448,0 -2.2848387,-4.0619353 2.2848387,-4.0619355 -4.6059448,0 z"
           inkscape:connector-curvature="0" /><path
           inkscape:connector-curvature="0"
           d="m 0.61885264,-0.39594459 -2.03125004,3.46874999 -3.9999995,0 1.9999995,3.5 -1.9999995,3.4999996 3.9999995,0 2.03125004,3.53125 1.99999996,-3.53125 3.9687501,0 -1.9687501,-3.4999996 1.9687501,-3.5 -3.9687501,0 z m 0,2.43749999 0.59374996,1.03125 -1.18749996,0 z m -3.90625004,2.1875 1.21875,0 -0.625,1.0625 z m 2.65625004,0 2.49999996,0 1.3125,2.34375 -1.3125,2.34375 -2.49999996,0 -1.31250004,-2.34375 z m 3.90624996,0 1.25,0 -0.625,1.09375 z m 0.625,3.59375 0.625,1.09375 -1.25,0 z m -6.59375,0.03125 0.625,1.0625 -1.21875,0 z m 2.71875004,2.2187496 1.18749996,0 -0.59374996,1.03125 z"
           id="jewish"
           style="fill:#734a08;fill-opacity:1;stroke:none" /></g></g></g></svg>