<?xml version="1.0" encoding="UTF-8" standalone="no"?>
<!-- Generator: Adobe Illustrator 16.0.0, SVG Export Plug-In . SVG Version: 6.00 Build 0)  -->

<svg
   xmlns:dc="http://purl.org/dc/elements/1.1/"
   xmlns:cc="http://creativecommons.org/ns#"
   xmlns:rdf="http://www.w3.org/1999/02/22-rdf-syntax-ns#"
   xmlns:svg="http://www.w3.org/2000/svg"
   xmlns="http://www.w3.org/2000/svg"
   xmlns:sodipodi="http://sodipodi.sourceforge.net/DTD/sodipodi-0.dtd"
   xmlns:inkscape="http://www.inkscape.org/namespaces/inkscape"
   version="1.1"
   id="svg2"
   inkscape:output_extension="org.inkscape.output.svg.inkscape"
   sodipodi:docname="JH_religion_christian.svg"
   inkscape:version="0.91 r13725"
   sodipodi:version="0.32"
   x="0px"
   y="0px"
   width="580px"
   height="580px"
   viewBox="0 0 580 580"
   enable-background="new 0 0 580 580"
   xml:space="preserve"
   inkscape:export-filename="F:\_GRAFIKA\2016_08_29_Symboly_turistika\JH_icons\JH_religion_christian.png"
   inkscape:export-xdpi="31"
   inkscape:export-ydpi="31"><metadata
     id="metadata17"><rdf:RDF><cc:Work
         rdf:about=""><dc:format>image/svg+xml</dc:format><dc:type
           rdf:resource="http://purl.org/dc/dcmitype/StillImage" /></cc:Work></rdf:RDF></metadata><sodipodi:namedview
     showgrid="false"
     inkscape:cy="-377.07898"
     inkscape:cx="1837.5997"
     inkscape:zoom="0.35355339"
     pagecolor="#ffffff"
     bordercolor="#666666"
     guidetolerance="10.0"
     objecttolerance="10.0"
     gridtolerance="10.0"
     borderopacity="1.0"
     id="base"
     inkscape:current-layer="g4198"
     inkscape:window-y="-9"
     inkscape:window-x="-9"
     inkscape:pageopacity="0.0"
     inkscape:pageshadow="2"
     inkscape:window-width="2560"
     inkscape:window-height="1369"
     inkscape:window-maximized="1"
     showguides="true"
     inkscape:guide-bbox="true" /><defs
     id="defs4"><inkscape:perspective
       inkscape:vp_z="580 : 290 : 1"
       inkscape:vp_y="0 : 1000 : 0"
       inkscape:vp_x="0 : 290 : 1"
       sodipodi:type="inkscape:persp3d"
       id="perspective3653"
       inkscape:persp3d-origin="290 : 193.33333 : 1" /><inkscape:perspective
       inkscape:vp_z="355.02399 : 217.53 : 1"
       inkscape:vp_y="0 : 1000 : 0"
       inkscape:vp_x="0 : 217.53 : 1"
       sodipodi:type="inkscape:persp3d"
       id="perspective2512"
       inkscape:persp3d-origin="177.51199 : 145.02 : 1" /></defs><g
     id="g2121" /><g
     id="g4198"
     transform="translate(-2.8338787,-220.28663)"><g
       id="g4176"
       transform="matrix(1.2197631,0,0,1.2197631,-41.466571,-125.96071)"><g
         style="fill:#ffffff"
         id="g4168"
         transform="matrix(40.863144,0,0,30.256543,598.511,261.95655)"><path
           sodipodi:nodetypes="sccccccccccccs"
           style="fill:#ffffff;fill-opacity:1;stroke:none"
           id="path4170"
           d="m -7.9152263,1.3505556 c -1.000001,0 -0.999999,1 -0.999999,1 l -1e-6,2.9999999 -3.0211227,0 0,2.46271 3.0211227,0 1e-6,8.0000005 2.0000006,0 -1e-6,-8.0000005 2.9721789,0 0,-2.46271 -2.9721789,0 0,-2.9999999 c 0,0 0,-1 -1.0000006,-1 z"
           inkscape:connector-curvature="0" /></g><g
         transform="matrix(30.256543,0,0,30.256543,513.85025,267.6134)"
         id="g4147"><path
           inkscape:connector-curvature="0"
           d="m -7.9152263,1.3505556 c -1.000001,0 -0.999999,1 -0.999999,1 l -1e-6,2.9999999 -3.9999997,0 0,2.0000002 3.9999997,0 1e-6,8.0000003 2.0000006,0 -1e-6,-8.0000003 4,0 0,-2.0000002 -4,0 0,-2.9999999 c 0,0 0,-1 -1.0000006,-1 z"
           id="christian"
           style="fill:#734a08;fill-opacity:1;stroke:none" /></g></g></g></svg>