<?xml version="1.0" encoding="UTF-8" standalone="no"?>
<!-- Generator: Adobe Illustrator 16.0.0, SVG Export Plug-In . SVG Version: 6.00 Build 0)  -->

<svg
   xmlns:dc="http://purl.org/dc/elements/1.1/"
   xmlns:cc="http://creativecommons.org/ns#"
   xmlns:rdf="http://www.w3.org/1999/02/22-rdf-syntax-ns#"
   xmlns:svg="http://www.w3.org/2000/svg"
   xmlns="http://www.w3.org/2000/svg"
   xmlns:xlink="http://www.w3.org/1999/xlink"
   xmlns:sodipodi="http://sodipodi.sourceforge.net/DTD/sodipodi-0.dtd"
   xmlns:inkscape="http://www.inkscape.org/namespaces/inkscape"
   version="1.1"
   id="svg2"
   inkscape:output_extension="org.inkscape.output.svg.inkscape"
   sodipodi:docname="JH_sport_generic.svg"
   inkscape:version="0.91 r13725"
   sodipodi:version="0.32"
   x="0px"
   y="0px"
   width="580px"
   height="580px"
   viewBox="0 0 580 580"
   enable-background="new 0 0 580 580"
   xml:space="preserve"
   inkscape:export-filename="F:\_GRAFIKA\2016_08_29_Symboly_turistika\JH_icons\JH_sport_generic.png"
   inkscape:export-xdpi="31"
   inkscape:export-ydpi="31"><metadata
     id="metadata17"><rdf:RDF><cc:Work
         rdf:about=""><dc:format>image/svg+xml</dc:format><dc:type
           rdf:resource="http://purl.org/dc/dcmitype/StillImage" /></cc:Work></rdf:RDF></metadata><sodipodi:namedview
     showgrid="false"
     inkscape:cy="99.571559"
     inkscape:cx="1164.4535"
     inkscape:zoom="0.5"
     pagecolor="#ffffff"
     bordercolor="#666666"
     guidetolerance="10.0"
     objecttolerance="10.0"
     gridtolerance="10.0"
     borderopacity="1.0"
     id="base"
     inkscape:current-layer="g4264"
     inkscape:window-y="-9"
     inkscape:window-x="-9"
     inkscape:pageopacity="0.0"
     inkscape:pageshadow="2"
     inkscape:window-width="2560"
     inkscape:window-height="1369"
     inkscape:window-maximized="1" /><defs
     id="defs4"><inkscape:perspective
       inkscape:vp_z="580 : 290 : 1"
       inkscape:vp_y="0 : 1000 : 0"
       inkscape:vp_x="0 : 290 : 1"
       sodipodi:type="inkscape:persp3d"
       id="perspective3653"
       inkscape:persp3d-origin="290 : 193.33333 : 1" /><inkscape:perspective
       inkscape:vp_z="355.02399 : 217.53 : 1"
       inkscape:vp_y="0 : 1000 : 0"
       inkscape:vp_x="0 : 217.53 : 1"
       sodipodi:type="inkscape:persp3d"
       id="perspective2512"
       inkscape:persp3d-origin="177.51199 : 145.02 : 1" /><linearGradient
       x1="780.18"
       y1="645.48"
       gradientTransform="translate(-374,-252)"
       x2="745.18"
       gradientUnits="userSpaceOnUse"
       xlink:href="#linearGradient3544"
       y2="738.37"
       id="linearGradient3829" /><linearGradient
       id="linearGradient3544"><stop
         offset="0"
         style="stop-color:#ffffff"
         id="stop3546" /><stop
         offset="1"
         style="stop-color:#ffffff;stop-opacity:0"
         id="stop3548" /></linearGradient><linearGradient
       x1="225.7"
       y1="458.18"
       gradientTransform="translate(8.5,-12)"
       x2="272.14"
       gradientUnits="userSpaceOnUse"
       xlink:href="#linearGradient3544"
       y2="505.68"
       id="linearGradient3831" /><linearGradient
       x1="491.86"
       y1="501.77"
       gradientTransform="translate(-13,-16.5)"
       x2="493.53"
       gradientUnits="userSpaceOnUse"
       xlink:href="#linearGradient3544"
       y2="593.77"
       id="linearGradient3833" /><linearGradient
       x1="258.59"
       y1="576.95"
       gradientTransform="translate(1.4142,-19.092)"
       x2="317.34"
       gradientUnits="userSpaceOnUse"
       y2="655.95"
       id="linearGradient3835"><stop
         offset="0"
         style="stop-color:#ffffff"
         id="stop3739" /><stop
         offset="1"
         style="stop-color:#ffffff;stop-opacity:0"
         id="stop3741" /></linearGradient><linearGradient
       x1="332.52"
       y1="360.38"
       gradientTransform="translate(-1.25,-3.25)"
       x2="361.79"
       gradientUnits="userSpaceOnUse"
       xlink:href="#linearGradient3544"
       y2="412.49"
       id="linearGradient3837" /><linearGradient
       x1="477.83"
       y1="376.64"
       gradientTransform="translate(-4.9497,-4.9497)"
       x2="470.41"
       gradientUnits="userSpaceOnUse"
       xlink:href="#linearGradient3544"
       y2="466.41"
       id="linearGradient3185" /></defs><g
     id="g2121" /><g
     id="g4198"
     transform="translate(-2.8338787,-220.28663)"><g
       transform="matrix(81.437956,0,0,81.437956,-24797.77,-48180.737)"
       id="g43"><g
         transform="matrix(0.00664475,0,0,0.00664475,306.1645,591.97915)"
         id="g4"
         style="stroke:#000000;stroke-width:4.99999857;stroke-miterlimit:4;stroke-dasharray:none;stroke-opacity:1"><g
           transform="matrix(2.7088,0.68982,-0.68982,2.7088,-600.86,144.48)"
           id="g6"
           style="stroke:#000000;stroke-width:1.78874528;stroke-miterlimit:4;stroke-dasharray:none;stroke-opacity:1"><g
             id="g4434"
             transform="matrix(0.65664901,0.0766632,-0.0766632,0.65664901,-59.8231,-10.336049)"><g
               id="g4264"><g
                 id="g4608"
                 transform="matrix(1.8708225,0,0,1.8708225,-710.21747,-246.50223)"><ellipse
                   style="opacity:1;fill:#ffffff;fill-opacity:1;stroke:none;stroke-width:1.78900003;stroke-linecap:butt;stroke-linejoin:round;stroke-miterlimit:4;stroke-dasharray:none;stroke-dashoffset:0;stroke-opacity:1"
                   id="ellipse4433"
                   cx="534.05371"
                   cy="421.29648"
                   transform="matrix(0.93391598,-0.35749257,0.35749257,0.93391598,0,0)"
                   rx="71.584465"
                   ry="72.07505" /><ellipse
                   ry="69.414215"
                   rx="68.707108"
                   transform="matrix(0.93391598,-0.35749257,0.35749257,0.93391598,0,0)"
                   cy="421.23184"
                   cx="534.00476"
                   id="path4431"
                   style="opacity:1;fill:#734a08;fill-opacity:1;stroke:none;stroke-width:1.78900003;stroke-linecap:butt;stroke-linejoin:round;stroke-miterlimit:4;stroke-dasharray:none;stroke-dashoffset:0;stroke-opacity:1" /><g
                   transform="translate(153.06235,-86.649371)"
                   id="g4409"><g
                     transform="matrix(0.93391598,-0.35749257,0.35749257,0.93391598,678.61657,-464.50724)"
                     id="layer1"
                     style="stroke:none"><g
                       transform="matrix(1.3321,0,0,1.3398,-299.33,151.21)"
                       id="g3779"
                       style="stroke:none"><g
                         id="g3781"
                         transform="matrix(0.37883973,0,0,0.37883973,-247.57788,164.73422)"
                         style="stroke:none"><path
                           transform="matrix(1.0442,0,0,1.0514,-35.121,-45.548)"
                           d="m 520.23,542.24 a 125.26,127.28 0 1 1 -250.52,0 125.26,127.28 0 1 1 250.52,0 z"
                           style="fill:none;stroke:none"
                           id="path3783"
                           inkscape:connector-curvature="0" /><path
                           d="m 281.54829,486.62526 c 2.58849,-3.90765 38.60102,-8.57977 43.94215,-6.17683 5.62064,2.52831 27.44239,34.07588 28.148,39.51511 0.66285,5.10785 -11.47654,49.14367 -15.19232,52.45381 -3.52371,3.14006 -40.61691,8.18159 -43.55444,6.83376 -3.21864,-1.47678 -27.4905,-36.45212 -27.73953,-42.30925 -0.26358,-6.18927 11.90481,-46.55706 14.39614,-50.31717 z"
                           style="fill:#ffffff;fill-rule:evenodd;stroke:none;stroke-width:0.94332904px"
                           id="path3785"
                           inkscape:connector-curvature="0" /><path
                           d="m 359.65591,527.73574 c 4.23422,-3.73936 43.25638,-13.83636 48.85013,-12.04226 5.49217,1.76171 31.65141,30.01567 32.92276,35.82086 -0.54538,5.3392 -12.48044,40.09916 -14.29163,45.62992 -4.2434,3.21886 -44.38018,14.30603 -48.20052,12.85383 -3.54177,-1.34656 -34.34706,-29.35164 -34.06184,-34.06184 0.28413,-4.70173 10.73132,-44.624 14.782,-48.20051 z"
                           style="fill:#ffffff;fill-rule:evenodd;stroke:none;stroke-width:0.89975011px"
                           id="path3789"
                           inkscape:connector-curvature="0" /><path
                           d="m 275.36751,451.91912 c 0,0 5.8448,25.36503 8.63652,27.42986 2.62759,1.94348 39.6396,-3.98353 42.78349,-5.87864 2.901,-1.7487 33.50272,-33.81089 33.31251,-37.88477 -0.19038,-4.07515 -6.71453,-23.95311 -10.45125,-26.12676 -3.98289,-2.31768 -41.80319,5.22544 -41.80319,5.22544 -11.30901,8.49113 -36.70056,28.15045 -32.47763,37.2346 z"
                           style="fill:#ffffff;fill-rule:evenodd;stroke:none;stroke-width:0.91445047px"
                           id="path3791"
                           inkscape:connector-curvature="0" /><path
                           d="m 355.42184,407.27927 c 4.73486,-2.62208 30.31767,-10.16863 37.68407,-13.91839 16.83356,-0.55291 43.42809,13.07644 47.07043,17.0585 0,0 7.85477,20.01958 8.51264,27.03158 -3.10045,3.5081 -29.2673,12.67245 -35.22983,13.4382 -5.99449,0.76996 -47.22927,-17.54514 -47.22927,-17.54514 0,0 -6.77989,-21.96424 -10.80767,-26.06383 z"
                           style="fill:#ffffff;fill-rule:evenodd;stroke:none;stroke-width:0.91816074px"
                           id="path3793"
                           inkscape:connector-curvature="0" /><path
                           d="m 449.96222,443.30673 c 4.89093,-1.93162 28.4508,26.52874 35.1902,36.95929 3.17272,13.99781 -4.354,49.18144 -4.354,49.18144 0,0 -31.39301,14.54871 -35.53557,13.89457 -2.91059,-4.56057 -34.17474,-37.85555 -34.17474,-37.85555 0,0 1.56421,-47.83 2.67474,-49.10918 1.42071,-1.63582 31.50093,-11.21607 36.1991,-13.07244 z"
                           style="fill:#ffffff;fill-rule:evenodd;stroke:none;stroke-width:1px"
                           id="path3795"
                           inkscape:connector-curvature="0" /><path
                           d="m 247.24949,543.49844 c 0,0 10.51392,-1.23112 16.67755,0.57189 3.93678,8.14008 27.63018,41.78209 27.63018,41.78209 0,0 11.71401,35.02126 12.46689,40.09708 -3.03256,3.03256 -7.74987,5.72812 -7.74987,5.72812 0,0 -19.70134,-15.7105 -32.1786,-35.96943 -12.56973,-20.408 -16.84549,-52.20922 -16.84549,-52.20922 z"
                           style="fill:#ffffff;fill-rule:evenodd;stroke:none;stroke-width:0.94346052px"
                           id="path3803"
                           inkscape:connector-curvature="0" /><path
                           d="m 490.73,479.53 c 5.9553,-4.7818 7.4844,-5.9028 7.4844,-5.9028 0.0655,0 10.917,30.178 9.9607,52.833 -0.74823,17.734 -5.004,36.902 -7.9457,43.974 -0.91452,1.5036 -2.5394,2.2696 -7.541,4.4941 4.7211,-11.286 -2.563,-38.135 -6.425,-42.424 2.3957,-8.1845 4.7612,-48.068 4.4666,-52.974 z"
                           style="fill:#ffffff;fill-rule:evenodd;stroke:none;stroke-width:1px"
                           id="path3809"
                           inkscape:connector-curvature="0" /><path
                           d="m 300.27,631.63 7.0711,-5.8084 c 0,0 18.694,10.56 48.992,15.91 0.21672,5.4322 10.354,16.162 10.354,16.162 0,0 -25.506,-3.5355 -44.699,-13.132 -19.193,-9.5964 -21.718,-12.879 -21.718,-13.132 z"
                           style="fill:#ffffff;fill-rule:evenodd;stroke:none;stroke-width:1px"
                           id="path3811"
                           inkscape:connector-curvature="0" /><path
                           d="m 382.34578,616.5048 c 16.54927,-1.70538 49.61609,-14.22846 49.61609,-14.22846 0,0 20.51128,13.6824 24.6558,13.92779 0.13478,5.84548 -0.41299,12.41172 -0.41299,12.41172 0,0 -15.97231,15.0503 -37.40904,21.95353 -28.20847,9.08282 -46.6992,6.99849 -46.6992,6.99849 0,0 -6.35886,-7.13187 -9.49461,-13.80186 0.80816,-4.91907 16.23701,-25.02589 19.7434,-27.26028 z"
                           style="fill:#ffffff;fill-rule:evenodd;stroke:none;stroke-width:1px"
                           id="path3813"
                           inkscape:connector-curvature="0" /><path
                           d="m 460.89,614.33 c 11.989,-11.075 32.143,-39.286 32.143,-39.286 l 6.25,-3.0357 c 0,0 -9.1202,22.22 -16.429,31.429 -8.1888,10.318 -23.036,24.286 -23.036,24.286 0,0 1.4035,-4.8176 1.0714,-13.393 z"
                           style="fill:#ffffff;fill-rule:evenodd;stroke:none;stroke-width:1px"
                           id="path3815"
                           inkscape:connector-curvature="0" /></g></g></g></g><g
                   id="g4435"
                   transform="matrix(0.90811332,0.54862985,-0.54862985,0.90811332,1063.8086,46.149646)"
                   style="fill:#ffffff;stroke-width:1.78900003;stroke-miterlimit:4;stroke-dasharray:none"><path
                     sodipodi:nodetypes="sssccccccccccccccccss"
                     id="path4549"
                     d="m -66.786903,254.93517 c 0,-43.413 -23.892,-75.104 -53.263997,-75.104 -29.372,0 -53.266,31.691 -53.266,75.104 0,23.14 6.786,43.977 17.575,58.403 l -0.534,0.351 c 0.168,0.248 16.797,24.829 21.677,37.028 3.82,9.527 2.28975,11.1946 3.14875,16.0026 l -1.882,0 -0.15302,79.73719 -3.176,3.799 -0.0209,7.77767 32.0763,-0.70764 1.10847,-9.34643 -3.95,-3.939 -0.91514,-76.36136 -1.528,0 c 0.856,-4.808 0.70354,-7.43503 4.50654,-16.96103 4.876,-12.199 21.507997,-36.78 21.683997,-37.028 l -0.619,-0.42 c 10.764,-14.4 17.532,-35.217 17.532,-58.326 z"
                     inkscape:connector-curvature="0"
                     style="fill:#ffffff;fill-opacity:1;stroke:none;stroke-width:1.78900003;stroke-miterlimit:4;stroke-dasharray:none" /></g><path
                   id="path4261"
                   d="m 860.00841,238.89644 c 22.44888,-37.15826 18.38655,-76.63793 -6.75362,-91.82619 -25.14026,-15.18828 -61.97921,-0.41879 -84.42809,36.73946 -11.96564,19.80612 -16.93216,41.15007 -15.15732,59.07662 l -0.63857,0.0243 c 0.0154,0.29909 1.53793,29.9375 -0.59331,42.90236 -1.65682,10.12972 -5.80488,21.55013 -7.55593,26.10958 l -1.6108,-0.97316 -40.62806,67.24915 -4.68294,1.60933 -3.47022,5.74413 21.98527,13.28223 3.74071,-6.19175 -1.34403,-5.41404 40.28471,-66.68081 -1.30787,-0.79013 c 3.21886,-3.67266 11.41351,-12.64957 19.59448,-18.83658 10.4816,-7.92004 37.4282,-20.35911 37.70709,-20.48036 l -0.31263,-0.67957 c 16.6594,-6.75926 33.21679,-21.07731 45.16644,-40.85687 z m -84.95827,-51.32689 c 0.73847,-1.22225 1.52561,-2.35897 2.29311,-3.52864 l 4.18286,2.52706 -6.4684,10.70677 -4.01175,-2.42366 c 1.2335,-2.442 2.55013,-4.87466 4.00418,-7.28153 z m 2.55257,11.2439 6.46841,-10.70677 10.70415,6.46685 -6.4684,10.70677 -10.70416,-6.46685 z m 9.1639,9.01442 -6.47202,10.71276 -10.70336,-6.46635 6.47203,-10.71275 10.70335,6.46634 z m -1.15816,-22.26585 6.4684,-10.70676 10.70426,6.46688 -6.46841,10.70675 -10.70425,-6.46687 z m 8.00829,-13.25571 6.47,-10.70933 10.70425,6.46688 -6.47052,10.71017 -10.70373,-6.46772 z m 8.00946,-13.2574 0.4571,-0.75665 c 4.03129,-2.70634 8.14256,-4.81992 12.25276,-6.4329 l 4.57495,2.76391 -6.58065,10.89249 -10.70416,-6.46685 z m -12.09488,14.26848 -6.46841,10.70677 -4.0999,-2.47691 c 2.48978,-3.56989 5.1317,-6.8387 7.86532,-9.86285 l 2.70299,1.63299 z m -0.61616,-3.85152 c 2.19721,-2.27922 4.44991,-4.37768 6.74898,-6.29974 l -4.59284,7.60234 -2.15614,-1.3026 z m -15.39734,30.35782 -6.47203,10.71276 -2.00887,-1.21364 c 1.29362,-3.91862 2.86776,-7.8489 4.71903,-11.7718 l 3.76187,2.27268 z m -8.01255,13.26253 -2.86518,4.7427 c 0.42806,-1.85268 0.90335,-3.71616 1.46146,-5.59222 l 1.40798,0.85062 z m 2.54554,1.53787 10.70425,6.46687 -6.47255,10.71361 -10.70426,-6.46688 6.47415,-10.71616 z m 61.24853,-17.28116 -6.46841,10.70677 -10.71622,-6.47411 6.46841,-10.70676 10.71622,6.4741 z m -9.17624,-9.02303 6.46991,-10.70935 10.71621,6.47411 -6.47052,10.71017 -10.7156,-6.47493 z m 1.1705,22.27446 -6.4684,10.70677 -10.71622,-6.47411 6.4684,-10.70677 10.71622,6.47411 z m -8.00786,13.25484 -6.47203,10.71276 -10.71612,-6.47409 6.47203,-10.71275 10.71612,6.47408 z m -8.01245,13.26255 -6.47255,10.71361 -10.71613,-6.47408 6.47246,-10.71363 10.71622,6.4741 z m -8.00467,13.24974 -6.37798,10.55696 -10.71612,-6.47409 6.37788,-10.55698 10.71622,6.47411 z m 41.57996,-68.82493 -10.71612,-6.47409 6.58065,-10.89249 10.71613,6.47409 -6.58066,10.89249 z m -14.8045,-5.46594 -6.47043,10.7102 -10.70336,-6.46634 6.47043,-10.7102 10.70336,6.46634 z m -9.1639,-9.01441 6.58065,-10.89249 10.70326,6.46632 -6.58056,10.89252 -10.70335,-6.46635 z m 1.15401,22.27269 -6.4684,10.70676 -10.70336,-6.46634 6.4684,-10.70676 10.70336,6.46634 z m -8.00574,13.25143 -6.4684,10.70676 -10.70336,-6.46634 6.46841,-10.70676 10.70335,6.46634 z m -8.00786,13.25484 -6.47202,10.71276 -10.70336,-6.46635 6.47212,-10.71273 10.70326,6.46632 z m -8.01244,13.26256 -6.47256,10.7136 -10.70336,-6.46634 6.47256,-10.71361 10.70336,6.46635 z m -8.00468,13.24972 -6.37798,10.55696 -10.70335,-6.46634 6.37797,-10.55696 10.70336,6.46634 z m 38.99513,-88.72927 2.92577,-4.84282 c 4.90004,-0.64399 9.67596,-0.4271 14.19416,0.69024 l -6.41568,10.61945 -10.70425,-6.46687 z m -46.91194,101.83348 -6.2818,10.39776 c -3.00718,-3.61834 -5.29281,-7.95737 -6.84767,-12.85035 l 2.42522,-4.01429 10.70425,6.46688 z m 2.54893,1.53992 10.71622,6.47411 -6.8977,11.41716 c -1.7169,-0.64473 -3.39794,-1.39742 -4.9899,-2.3592 -2.05084,-1.239 -3.85381,-2.76637 -5.5358,-4.42627 l 6.70515,-11.10237 z m 22.71091,-7.6364 6.47246,-10.71363 10.71363,6.47255 -6.47256,10.7136 -10.71353,-6.47252 z m 9.1769,9.0141 -6.37788,10.55699 -10.71274,-6.47202 6.37788,-10.55699 10.71274,6.47202 z m -1.16754,-22.27152 6.47202,-10.71276 10.71363,6.47255 -6.47212,10.71273 -10.71353,-6.47252 z m 8.01138,-13.26086 6.46841,-10.70677 10.71363,6.47255 -6.46841,10.70677 -10.71363,-6.47255 z m 8.00574,-13.25143 6.4684,-10.70677 10.71363,6.47255 -6.4684,10.70677 -10.71363,-6.47255 z m 8.00839,-13.25569 6.4699,-10.70934 10.71363,6.47255 -6.47043,10.7102 -10.7131,-6.47341 z m 8.00936,-13.25742 6.58065,-10.89249 10.71353,6.47253 -6.58055,10.89251 -10.71363,-6.47255 z m -38.78414,88.40113 -3.07882,5.09618 c -4.93889,0.65436 -9.71056,0.43421 -14.16786,-0.75498 l 6.53262,-10.81287 10.71353,6.47252 z m 46.90265,-101.83913 6.64105,-10.99267 c 3.19469,3.27713 5.72917,7.20222 7.59296,11.63806 l -3.521,5.82798 -10.71301,-6.47337 z m 17.84818,24.603 -2.00167,3.31329 -10.70416,-6.46685 6.58055,-10.89252 5.88541,3.55561 c 0.37017,3.35942 0.45397,6.86014 0.23987,10.49047 z m -4.00248,20.20074 -3.45793,-2.08908 6.47,-10.70932 0.14378,0.0869 c -0.68353,4.1482 -1.72681,8.39685 -3.15585,12.71153 z m -9.57596,20.69488 c -1.45405,2.40688 -2.99753,4.70249 -4.58246,6.93333 l -5.31354,-3.21014 6.4684,-10.70677 5.48475,3.31358 c -0.67872,1.22211 -1.31868,2.44776 -2.05715,3.67 z m 2.02752,-21.77595 -6.46841,10.70675 -10.70425,-6.46687 6.4684,-10.70676 10.70426,6.46688 z m -9.16427,-9.01581 6.4699,-10.70935 10.70426,6.46688 -6.47053,10.71017 -10.70363,-6.4677 z m 1.15853,22.26724 -6.4685,10.70673 -10.70416,-6.46685 6.46841,-10.70676 10.70425,6.46688 z m -8.00786,13.25483 -6.47202,10.71275 -10.70426,-6.46687 6.47212,-10.71273 10.70416,6.46685 z m -8.01245,13.26256 -6.47255,10.71361 -10.70426,-6.46688 6.47256,-10.7136 10.70425,6.46687 z m 4.09105,-1.00885 6.47202,-10.71275 5.06365,3.05916 c -2.61041,3.46426 -5.35809,6.68555 -8.22412,9.65424 L 835.8715,252.117 Z m 1.16944,4.18694 c -2.52389,2.46038 -5.1248,4.68847 -7.77129,6.74064 l 5.06143,-8.37778 2.70986,1.63714 z m 14.84777,-30.6992 6.46841,-10.70677 4.00657,2.42055 c -1.4078,3.82513 -3.07142,7.68498 -5.07239,11.55015 l -5.40259,-3.26393 z m -38.81719,34.30396 10.70416,6.46685 -0.58171,0.96292 c -3.85272,2.4649 -7.75879,4.51549 -11.65532,6.05313 l -4.84457,-2.92679 6.37585,-10.55355 z m 53.50991,-79.96029 -3.81053,-2.30211 2.27889,-3.77206 c 0.62449,1.95219 1.14636,3.96975 1.53164,6.07417 z m -12.6474,-23.38172 -6.96693,11.53186 -10.71622,-6.47411 6.79834,-11.25283 c 2.22221,0.76771 4.39079,1.68994 6.44074,2.9284 1.59419,0.96197 3.05541,2.07842 4.44407,3.26668 z m -31.89185,-7.12828 -1.59421,2.63881 -2.50096,-1.51095 c 1.36795,-0.42717 2.73603,-0.8274 4.09517,-1.12786 z m -61.15126,78.94578 9.86027,5.95699 -6.37798,10.55696 -3.53492,-2.1356 c -0.49556,-4.54042 -0.45344,-9.3752 0.0505,-14.37495 z m 0.5277,18.2059 1.41406,0.85427 -0.96957,1.60486 c -0.18029,-0.79822 -0.29606,-1.63926 -0.44705,-2.45485 z m 11.6422,48.53251 c -9.65801,7.28784 -18.95562,17.79836 -21.54584,20.81334 l -0.30294,-0.18304 c 1.45865,-3.69859 6.44326,-16.81478 8.40135,-28.75446 0.91269,-5.50989 1.19777,-13.54515 1.23878,-21.2769 3.23377,5.36284 7.52277,9.81633 12.84499,13.03168 5.38034,3.2505 11.37874,4.9712 17.70807,5.32624 -6.85304,3.62917 -13.87191,7.66053 -18.34547,11.04485 z m 30.37711,-19.26802 1.71881,-2.8451 2.72443,1.64593 c -1.48572,0.46935 -2.96955,0.86974 -4.44121,1.19573 z"
                   inkscape:connector-curvature="0"
                   style="fill:#734a08;fill-opacity:1;stroke:none;stroke-width:1.78900003;stroke-miterlimit:4;stroke-dasharray:none" /></g></g></g></g></g></g></g></svg>