<?xml version="1.0" encoding="UTF-8" standalone="no"?>
<!-- Generator: Adobe Illustrator 16.0.0, SVG Export Plug-In . SVG Version: 6.00 Build 0)  -->

<svg
   xmlns:dc="http://purl.org/dc/elements/1.1/"
   xmlns:cc="http://creativecommons.org/ns#"
   xmlns:rdf="http://www.w3.org/1999/02/22-rdf-syntax-ns#"
   xmlns:svg="http://www.w3.org/2000/svg"
   xmlns="http://www.w3.org/2000/svg"
   xmlns:sodipodi="http://sodipodi.sourceforge.net/DTD/sodipodi-0.dtd"
   xmlns:inkscape="http://www.inkscape.org/namespaces/inkscape"
   version="1.1"
   id="svg2"
   inkscape:output_extension="org.inkscape.output.svg.inkscape"
   sodipodi:docname="JH_transport_metro_London_Underground.svg"
   inkscape:version="0.91 r13725"
   sodipodi:version="0.32"
   x="0px"
   y="0px"
   width="580px"
   height="580px"
   viewBox="0 0 580 580"
   enable-background="new 0 0 580 580"
   xml:space="preserve"
   inkscape:export-filename="/media/sdb1/_SURO/JH_icons/JH_transport_metro_London_Underground.png"
   inkscape:export-xdpi="31"
   inkscape:export-ydpi="31"><metadata
     id="metadata17"><rdf:RDF><cc:Work
         rdf:about=""><dc:format>image/svg+xml</dc:format><dc:type
           rdf:resource="http://purl.org/dc/dcmitype/StillImage" /></cc:Work></rdf:RDF></metadata><sodipodi:namedview
     showgrid="false"
     inkscape:cy="-478.2636"
     inkscape:cx="-668.37367"
     inkscape:zoom="0.23041928"
     pagecolor="#ffffff"
     bordercolor="#666666"
     guidetolerance="10.0"
     objecttolerance="10.0"
     gridtolerance="10.0"
     borderopacity="1.0"
     id="base"
     inkscape:current-layer="svg2"
     inkscape:window-y="0"
     inkscape:window-x="0"
     inkscape:pageopacity="0.0"
     inkscape:pageshadow="2"
     inkscape:window-width="1920"
     inkscape:window-height="1125"
     inkscape:window-maximized="1" /><defs
     id="defs4"><inkscape:perspective
       inkscape:vp_z="580 : 290 : 1"
       inkscape:vp_y="0 : 1000 : 0"
       inkscape:vp_x="0 : 290 : 1"
       sodipodi:type="inkscape:persp3d"
       id="perspective3653"
       inkscape:persp3d-origin="290 : 193.33333 : 1" /><inkscape:perspective
       inkscape:vp_z="355.02399 : 217.53 : 1"
       inkscape:vp_y="0 : 1000 : 0"
       inkscape:vp_x="0 : 217.53 : 1"
       sodipodi:type="inkscape:persp3d"
       id="perspective2512"
       inkscape:persp3d-origin="177.51199 : 145.02 : 1" /><path
       d="m 0,0 0,-23.52456 7.36985,0 0.0295,24.3205 c 0.19933,6.05928 4.68048,10.91014 10.19987,10.99581 5.68952,0 10.2883,-5.04097 10.2883,-10.99581 l 0,-24.3205 7.34037,0 0.0295,23.64247 c 0,10.78946 -7.84151,18.83733 -17.65815,18.83733 -9.81665,0 -17.5992,-8.66694 -17.5992,-18.95524 z"
       id="U" /><path
       d="m 0,0 7.36985,0 0,-41.00584 -7.36985,0 0,28.09386 -21.1662,-28.09386 -7.39933,0 0,41.00584 7.39933,0 0,-27.56324 21.1662,27.56324 z"
       id="N" /><path
       d="m 0,0 0,40.98489 14.85232,-0.0313 c 10.78945,10e-6 19.45843,-9.2074 19.45843,-20.58645 0,-11.2906 -8.45148,-20.36711 -19.27042,-20.36711 z m 14.78965,7.52017 c 6.78026,0 12.22027,5.80137 12.22027,12.84694 0,7.13402 -5.62801,12.87828 -12.40827,12.87828 l -7.14415,0.0313 0,-25.72523 z"
       id="D" /><path
       d="m 0,0 0,40.98489 7.39483,0 0,-16.32502 4.4181,0 11.59358,16.32502 7.99018,0 -11.90693,-17.79772 c 3.97972,-2.06356 6.67415,-6.03458 6.67415,-10.81023 0,-6.80974 -5.53585,-12.37694 -12.3456,-12.37694 z m 7.48883,7.23816 6.32948,0.0313 c 2.83002,0 5.10744,2.27742 5.10744,5.10745 0,2.80054 -2.27741,5.07611 -5.10744,5.07611 l -6.32948,0 z"
       id="R" /><path
       d="m 0,0 0,-23.52456 7.36985,0 0.0295,24.3205 c 0.19933,6.05928 4.68048,10.91014 10.19987,10.99581 5.68952,0 10.2883,-5.04097 10.2883,-10.99581 l 0,-24.3205 7.34037,0 0.0295,23.64247 c 0,10.78946 -7.84151,18.83733 -17.65815,18.83733 -9.81665,0 -17.5992,-8.66694 -17.5992,-18.95524 z"
       id="U-3" /><path
       d="m 0,0 7.36985,0 0,-41.00584 -7.36985,0 0,28.09386 -21.1662,-28.09386 -7.39933,0 0,41.00584 7.39933,0 0,-27.56324 21.1662,27.56324 z"
       id="N-6" /><path
       d="m 0,0 0,40.98489 14.85232,-0.0313 c 10.78945,10e-6 19.45843,-9.2074 19.45843,-20.58645 0,-11.2906 -8.45148,-20.36711 -19.27042,-20.36711 z m 14.78965,7.52017 c 6.78026,0 12.22027,5.80137 12.22027,12.84694 0,7.13402 -5.62801,12.87828 -12.40827,12.87828 l -7.14415,0.0313 0,-25.72523 z"
       id="D-7" /><path
       d="m 0,0 0,40.98489 7.39483,0 0,-16.32502 4.4181,0 11.59358,16.32502 7.99018,0 -11.90693,-17.79772 c 3.97972,-2.06356 6.67415,-6.03458 6.67415,-10.81023 0,-6.80974 -5.53585,-12.37694 -12.3456,-12.37694 z m 7.48883,7.23816 6.32948,0.0313 c 2.83002,0 5.10744,2.27742 5.10744,5.10745 0,2.80054 -2.27741,5.07611 -5.10744,5.07611 l -6.32948,0 z"
       id="R-5" /><inkscape:perspective
       inkscape:persp3d-origin="70 : 46.666667 : 1"
       inkscape:vp_z="140 : 70 : 1"
       inkscape:vp_y="0 : 1000 : 0"
       inkscape:vp_x="0 : 70 : 1"
       sodipodi:type="inkscape:persp3d"
       id="perspective8" /></defs><g
     id="g2121" /><g
     id="g7642"
     transform="matrix(1.0264103,0,0,1.0264103,-7.658988,-7.6589865)"><path
       sodipodi:nodetypes="sccccsccccs"
       inkscape:connector-curvature="0"
       id="circle7593"
       d="m 289.99999,64.980469 c -106.04212,0 -195.351469,74.332901 -218.808589,173.541011 l -57.158199,0 0,102.95704 57.158199,0 c 23.45712,99.20811 112.766469,173.54101 218.808589,173.54101 106.04214,0 195.35151,-74.33291 218.80861,-173.54101 l 57.1582,0 0,-102.95704 -57.1582,0 C 485.3515,139.31337 396.04213,64.980469 289.99999,64.980469 Z"
       style="color:#000000;font-style:normal;font-variant:normal;font-weight:normal;font-stretch:normal;font-size:medium;line-height:normal;font-family:sans-serif;text-indent:0;text-align:start;text-decoration:none;text-decoration-line:none;text-decoration-style:solid;text-decoration-color:#000000;letter-spacing:normal;word-spacing:normal;text-transform:none;direction:ltr;block-progression:tb;writing-mode:lr-tb;baseline-shift:baseline;text-anchor:start;white-space:normal;clip-rule:nonzero;display:inline;overflow:visible;visibility:visible;opacity:1;isolation:auto;mix-blend-mode:normal;color-interpolation:sRGB;color-interpolation-filters:linearRGB;solid-color:#000000;solid-opacity:1;fill:#ffffff;fill-opacity:1;fill-rule:nonzero;stroke:none;stroke-width:21.22827721;stroke-linecap:butt;stroke-linejoin:miter;stroke-miterlimit:4;stroke-dasharray:none;stroke-dashoffset:0;stroke-opacity:1;color-rendering:auto;image-rendering:auto;shape-rendering:auto;text-rendering:auto;enable-background:accumulate" /><g
       transform="translate(32.668408,68.020968)"
       id="g7575"><circle
         id="ring"
         style="fill:none;stroke:#dc241f;stroke-width:70"
         cx="257.3316"
         cy="221.97903"
         r="167" /><path
         style="color:#000000;font-style:normal;font-variant:normal;font-weight:normal;font-stretch:normal;font-size:medium;line-height:normal;font-family:sans-serif;text-indent:0;text-align:start;text-decoration:none;text-decoration-line:none;text-decoration-style:solid;text-decoration-color:#000000;letter-spacing:normal;word-spacing:normal;text-transform:none;direction:ltr;block-progression:tb;writing-mode:lr-tb;baseline-shift:baseline;text-anchor:start;white-space:normal;clip-rule:nonzero;display:inline;overflow:visible;visibility:visible;opacity:1;isolation:auto;mix-blend-mode:normal;color-interpolation:sRGB;color-interpolation-filters:linearRGB;solid-color:#000000;solid-opacity:1;fill:#0075bd;fill-opacity:1;fill-rule:nonzero;stroke:none;stroke-width:77;stroke-linecap:butt;stroke-linejoin:miter;stroke-miterlimit:4;stroke-dasharray:none;stroke-dashoffset:0;stroke-opacity:1;color-rendering:auto;image-rendering:auto;shape-rendering:auto;text-rendering:auto;enable-background:accumulate"
         d="m 7.3320312,183.47852 0,77 499.9999988,0 0,-77 -499.9999988,0 z"
         id="bar"
         inkscape:connector-curvature="0" /></g></g></svg>