<?xml version="1.0" encoding="UTF-8" standalone="no"?>
<!-- Generator: Adobe Illustrator 16.0.0, SVG Export Plug-In . SVG Version: 6.00 Build 0)  -->

<svg
   xmlns:dc="http://purl.org/dc/elements/1.1/"
   xmlns:cc="http://creativecommons.org/ns#"
   xmlns:rdf="http://www.w3.org/1999/02/22-rdf-syntax-ns#"
   xmlns:svg="http://www.w3.org/2000/svg"
   xmlns="http://www.w3.org/2000/svg"
   xmlns:sodipodi="http://sodipodi.sourceforge.net/DTD/sodipodi-0.dtd"
   xmlns:inkscape="http://www.inkscape.org/namespaces/inkscape"
   version="1.1"
   id="svg2"
   inkscape:output_extension="org.inkscape.output.svg.inkscape"
   sodipodi:docname="JH_transport_ferry.svg"
   inkscape:version="0.91 r13725"
   sodipodi:version="0.32"
   x="0px"
   y="0px"
   width="580px"
   height="580px"
   viewBox="0 0 580 580"
   enable-background="new 0 0 580 580"
   xml:space="preserve"
   inkscape:export-filename="F:\_GRAFIKA\2016_08_29_Symboly_turistika\JH_icons\JH_transport_ferry.png"
   inkscape:export-xdpi="31"
   inkscape:export-ydpi="31"><metadata
     id="metadata17"><rdf:RDF><cc:Work
         rdf:about=""><dc:format>image/svg+xml</dc:format><dc:type
           rdf:resource="http://purl.org/dc/dcmitype/StillImage" /></cc:Work></rdf:RDF></metadata><sodipodi:namedview
     showgrid="false"
     inkscape:cy="-350.2995"
     inkscape:cx="1649.8383"
     inkscape:zoom="0.46083856"
     pagecolor="#ffffff"
     bordercolor="#666666"
     guidetolerance="10.0"
     objecttolerance="10.0"
     gridtolerance="10.0"
     borderopacity="1.0"
     id="base"
     inkscape:current-layer="g4198"
     inkscape:window-y="-9"
     inkscape:window-x="-9"
     inkscape:pageopacity="0.0"
     inkscape:pageshadow="2"
     inkscape:window-width="2560"
     inkscape:window-height="1369"
     inkscape:window-maximized="1" /><defs
     id="defs4"><inkscape:perspective
       inkscape:vp_z="580 : 290 : 1"
       inkscape:vp_y="0 : 1000 : 0"
       inkscape:vp_x="0 : 290 : 1"
       sodipodi:type="inkscape:persp3d"
       id="perspective3653"
       inkscape:persp3d-origin="290 : 193.33333 : 1" /><inkscape:perspective
       inkscape:vp_z="355.02399 : 217.53 : 1"
       inkscape:vp_y="0 : 1000 : 0"
       inkscape:vp_x="0 : 217.53 : 1"
       sodipodi:type="inkscape:persp3d"
       id="perspective2512"
       inkscape:persp3d-origin="177.51199 : 145.02 : 1" /></defs><g
     id="g2121" /><g
     id="g4198"
     transform="translate(-2.8338787,-220.28663)"><g
       transform="matrix(6.9596513,0,0,6.9596513,-132.08415,-10.352316)"
       id="g4166"
       style="fill:#ffffff" /><g
       id="g4174"
       transform="matrix(0.79333686,0,0,0.79333686,60.517968,167.75691)"><path
         sodipodi:nodetypes="ccscscscscscscsccccscscscscscscsccc"
         id="path4168"
         d="m 110.062,96.34 c -2.125,0 -4.203,-0.492 -6.031,-1.297 -1.883,-0.883 -4.008,-1.414 -6.227,-1.414 -2.195,0 -4.32,0.531 -6.203,1.414 -1.852,0.805 -3.906,1.297 -6.055,1.297 -2.149,0 -4.195,-0.492 -6.031,-1.297 -1.875,-0.883 -3.992,-1.414 -6.219,-1.414 -2.195,0 -4.32,0.531 -6.195,1.414 -1.859,0.805 -3.906,1.297 -6.055,1.297 -2.149,0 -4.203,-0.492 -6.031,-1.297 -1.883,-0.883 -4.008,-1.414 -6.227,-1.414 -2.227,0 -4.344,0.531 -6.227,1.414 -1.828,0.805 -3.883,1.297 -6.031,1.297 -2.148,0 -4.195,-0.492 -6.031,-1.297 -1.906,-0.883 -4.023,-1.414 -6.227,-1.414 -2.219,0 -4.344,0.531 -6.227,1.414 -1.828,0.805 -3.875,1.297 -6.023,1.297 l 0,-11.648336 c 2.148,0 4.195,-0.461 6.023,-1.289 1.883,-0.883 4.008,-1.391 6.227,-1.391 2.203,0 4.32,0.508 6.227,1.391 1.836,0.828 3.883,1.289 6.031,1.289 2.148,0 4.203,-0.461 6.031,-1.289 1.883,-0.883 4,-1.391 6.227,-1.391 2.219,0 4.344,0.508 6.227,1.391 1.828,0.828 3.883,1.289 6.031,1.289 2.148,0 4.195,-0.461 6.055,-1.289 1.875,-0.883 4,-1.391 6.195,-1.391 2.227,0 4.344,0.508 6.219,1.391 1.836,0.828 3.883,1.289 6.031,1.289 2.148,0 4.203,-0.461 6.055,-1.289 1.883,-0.883 4.008,-1.391 6.203,-1.391 2.219,0 4.344,0.508 6.227,1.391 1.828,0.828 3.906,1.289 6.031,1.289 z"
         inkscape:connector-curvature="0"
         style="fill:#ffffff;fill-opacity:1"
         transform="matrix(6.9596513,0,0,6.9596513,-132.08415,-10.35232)" /><path
         sodipodi:nodetypes="cccsccssccsccccccsccssccsccccccccscscscscscccccccccccccccc"
         id="path4170"
         d="m 99.25173,60.604439 c 0.8325,-0.865525 0.57727,-1.591887 0.57727,-3.862327 l 3.078,0 0,-10.753112 c 0,-2.148 -1.461,-3.953 -3.445,-4.492 l -3.516,-8.398 c -0.508,-1.242 -1.727,-2.389371 -3.148,-2.389371 l -18.056,0 c -1.422,0 -4.077854,0.859 -4.584854,2.102 l -3.516,8.685371 c -1.984,0.539 -3.445,2.344 -3.445,4.492 l 0,10.753112 3.078,0 c 0.01764,1.340331 -0.322984,2.200379 0.383624,3.513151 l -11.444362,0.05512 c 0.959981,-0.814732 0.794819,-1.278381 0.770446,-3.568269 l 3.078,0 0,-10.753112 c 0,-2.148 -1.461,-3.953 -3.445,-4.492 l -3.516,-8.685371 c -0.508,-1.242 -3.163854,-2.102 -4.584854,-2.102 l -18.063,0 c -1.414,0 -2.641,1.146371 -3.148,2.389371 l -3.516,8.398 c -1.977,0.539 -3.445,2.344 -3.445,4.492 l 0,10.465741 3.078,0 c -0.255338,2.408458 -0.03288,3.026029 0.350427,3.706431 l -10.749427,0.03897 0,9.691595 8.297,0 6.766,7.883 c 1.195,0.242 2.344,0.633 3.414,1.117 1.836,0.836 3.883,1.297 6.031,1.297 2.148,0 4.203,-0.461 6.031,-1.297 1.883,-0.875 4,-1.391 6.227,-1.391 2.219,0 4.344,0.516 6.227,1.391 1.828,0.836 3.883,1.297 6.031,1.297 2.148,0 4.195,-0.461 6.055,-1.297 1.875,-0.875 4,-1.391 6.195,-1.391 2.227,0 4.344,0.516 6.219,1.391 1.836,0.836 3.883,1.297 6.031,1.297 2.148,0 4.203,-0.461 6.055,-1.297 1.297,-0.609 2.711,-1.023 4.203,-1.242 l 6.594,-7.852 7.688,0 0,-9.310224 z M 30.533928,60.390082 c 0.623341,-1.117082 0.514759,0.891504 0.482408,-3.360599 l 16.668552,0 c 0.07512,2.948611 -0.0405,2.399956 0.431741,3.430475 z m 43.237586,0.08565 c 0.786316,-0.668758 0.514227,-0.245002 0.514227,-3.44625 l 16.967706,-0.0669 c 0.06946,1.733877 -0.08533,2.999877 1.086207,3.568842 z"
         inkscape:connector-curvature="0"
         style="fill:#ffffff;fill-opacity:1"
         transform="matrix(6.9596513,0,0,6.9596513,-132.08415,-10.35232)" /><g
         transform="matrix(6.7093044,0,0,6.7093044,-116.79935,3.8052993)"
         id="g4160"><path
           style="fill:#0075bd;fill-opacity:1"
           inkscape:connector-curvature="0"
           d="m 110.062,96.34 c -2.125,0 -4.203,-0.492 -6.031,-1.297 -1.883,-0.883 -4.008,-1.414 -6.227,-1.414 -2.195,0 -4.32,0.531 -6.203,1.414 -1.852,0.805 -3.906,1.297 -6.055,1.297 -2.149,0 -4.195,-0.492 -6.031,-1.297 -1.875,-0.883 -3.992,-1.414 -6.219,-1.414 -2.195,0 -4.32,0.531 -6.195,1.414 -1.859,0.805 -3.906,1.297 -6.055,1.297 -2.149,0 -4.203,-0.492 -6.031,-1.297 -1.883,-0.883 -4.008,-1.414 -6.227,-1.414 -2.227,0 -4.344,0.531 -6.227,1.414 -1.828,0.805 -3.883,1.297 -6.031,1.297 -2.148,0 -4.195,-0.492 -6.031,-1.297 -1.906,-0.883 -4.023,-1.414 -6.227,-1.414 -2.219,0 -4.344,0.531 -6.227,1.414 -1.828,0.805 -3.875,1.297 -6.023,1.297 l 0,-9.062 c 2.148,0 4.195,-0.461 6.023,-1.289 1.883,-0.883 4.008,-1.391 6.227,-1.391 2.203,0 4.32,0.508 6.227,1.391 1.836,0.828 3.883,1.289 6.031,1.289 2.148,0 4.203,-0.461 6.031,-1.289 1.883,-0.883 4,-1.391 6.227,-1.391 2.219,0 4.344,0.508 6.227,1.391 1.828,0.828 3.883,1.289 6.031,1.289 2.148,0 4.195,-0.461 6.055,-1.289 1.875,-0.883 4,-1.391 6.195,-1.391 2.227,0 4.344,0.508 6.219,1.391 1.836,0.828 3.883,1.289 6.031,1.289 2.148,0 4.203,-0.461 6.055,-1.289 1.883,-0.883 4.008,-1.391 6.203,-1.391 2.219,0 4.344,0.508 6.227,1.391 1.828,0.828 3.906,1.289 6.031,1.289 l 0,9.062 z"
           id="path4150" /><path
           style="fill:#0075bd;fill-opacity:1"
           inkscape:connector-curvature="0"
           d="m 98.102,61.637 c 1.023,-0.484 1.727,-1.516 1.727,-2.734 l 0,-3.023 3.078,0 0,-9.891 c 0,-2.148 -1.461,-3.953 -3.445,-4.492 l -3.516,-8.398 c -0.508,-1.242 -1.727,-2.102 -3.148,-2.102 l -18.056,0 c -1.422,0 -2.641,0.859 -3.148,2.102 l -3.516,8.398 c -1.984,0.539 -3.445,2.344 -3.445,4.492 l 0,9.891 3.078,0 0,3.023 c 0,1.219 0.703,2.25 1.734,2.734 l -16.633,0 c 1.031,-0.484 1.758,-1.516 1.758,-2.734 l -0.023,-3.023 3.078,0 0,-9.891 c 0,-2.148 -1.461,-3.953 -3.445,-4.492 l -3.516,-8.398 c -0.508,-1.242 -1.727,-2.102 -3.148,-2.102 l -18.063,0 c -1.414,0 -2.641,0.859 -3.148,2.102 l -3.516,8.398 c -1.977,0.539 -3.445,2.344 -3.445,4.492 l 0,9.891 3.078,0 0,3.023 c 0,1.219 0.703,2.25 1.734,2.734 l -12.133,0 0,7.68 8.297,0 6.766,7.883 c 1.195,0.242 2.344,0.633 3.414,1.117 1.836,0.836 3.883,1.297 6.031,1.297 2.148,0 4.203,-0.461 6.031,-1.297 1.883,-0.875 4,-1.391 6.227,-1.391 2.219,0 4.344,0.516 6.227,1.391 1.828,0.836 3.883,1.297 6.031,1.297 2.148,0 4.195,-0.461 6.055,-1.297 1.875,-0.875 4,-1.391 6.195,-1.391 2.227,0 4.344,0.516 6.219,1.391 1.836,0.836 3.883,1.297 6.031,1.297 2.148,0 4.203,-0.461 6.055,-1.297 1.297,-0.609 2.711,-1.023 4.203,-1.242 l 6.594,-7.852 7.688,0 0,-7.586 -11.985,0 z m -71.407,0 c 1.023,-0.484 1.758,-1.516 1.758,-2.734 l -0.023,-3.023 20.117,0 0,3.023 c 0,1.219 0.703,2.25 1.727,2.734 l -23.579,0 z m 45.289,0 c 1.023,-0.484 1.727,-1.516 1.727,-2.734 l 0,-3.023 20.117,0 0,3.023 c 0,1.219 0.703,2.25 1.727,2.734 l -23.571,0 z M 22.922,47.762 c 0,-1.688 1.375,-3.039 3.047,-3.039 1.68,0 3.055,1.352 3.055,3.039 0,1.68 -1.375,3.039 -3.055,3.039 -1.672,0 -3.047,-1.36 -3.047,-3.039 z M 51,50.801 c -1.688,0 -3.055,-1.359 -3.055,-3.039 0,-1.688 1.367,-3.039 3.055,-3.039 1.672,0 3.07,1.352 3.07,3.039 0,1.679 -1.398,3.039 -3.07,3.039 z m -25.188,-9.477 3.031,-7.25 c 0.117,-0.367 0.461,-0.633 0.875,-0.633 l 17.532,0 c 0.414,0 0.758,0.266 0.906,0.633 l 3.023,7.25 -25.367,0 z m 42.399,6.438 c 0,-1.688 1.375,-3.039 3.047,-3.039 1.672,0 3.055,1.352 3.055,3.039 0,1.68 -1.383,3.039 -3.055,3.039 -1.672,0 -3.047,-1.36 -3.047,-3.039 z m 28.078,3.039 c -1.68,0 -3.047,-1.359 -3.047,-3.039 0,-1.688 1.367,-3.039 3.047,-3.039 1.664,0 3.055,1.352 3.055,3.039 0,1.679 -1.391,3.039 -3.055,3.039 z m -25.187,-9.477 3.031,-7.25 c 0.117,-0.367 0.461,-0.633 0.875,-0.633 l 17.523,0 c 0.414,0 0.758,0.266 0.883,0.633 l 3.023,7.25 -25.335,0 z"
           id="path4152" /></g></g></g></svg>