<?xml version="1.0" encoding="UTF-8" standalone="no"?>
<!-- Generator: Adobe Illustrator 16.0.0, SVG Export Plug-In . SVG Version: 6.00 Build 0)  -->

<svg
   xmlns:dc="http://purl.org/dc/elements/1.1/"
   xmlns:cc="http://creativecommons.org/ns#"
   xmlns:rdf="http://www.w3.org/1999/02/22-rdf-syntax-ns#"
   xmlns:svg="http://www.w3.org/2000/svg"
   xmlns="http://www.w3.org/2000/svg"
   xmlns:sodipodi="http://sodipodi.sourceforge.net/DTD/sodipodi-0.dtd"
   xmlns:inkscape="http://www.inkscape.org/namespaces/inkscape"
   version="1.1"
   id="svg2"
   inkscape:output_extension="org.inkscape.output.svg.inkscape"
   sodipodi:docname="JH_tourism_alpine.svg"
   inkscape:version="0.91 r13725"
   sodipodi:version="0.32"
   x="0px"
   y="0px"
   width="580px"
   height="580px"
   viewBox="0 0 580 580"
   enable-background="new 0 0 580 580"
   xml:space="preserve"
   inkscape:export-filename="F:\_GRAFIKA\2016_08_29_Symboly_turistika\JH_icons\JH_tourism_alpine_hut.png"
   inkscape:export-xdpi="31"
   inkscape:export-ydpi="31"><metadata
     id="metadata17"><rdf:RDF><cc:Work
         rdf:about=""><dc:format>image/svg+xml</dc:format><dc:type
           rdf:resource="http://purl.org/dc/dcmitype/StillImage" /></cc:Work></rdf:RDF></metadata><sodipodi:namedview
     showgrid="false"
     inkscape:cy="250.83803"
     inkscape:cx="599.40792"
     inkscape:zoom="0.65172414"
     pagecolor="#ffffff"
     bordercolor="#666666"
     guidetolerance="10.0"
     objecttolerance="10.0"
     gridtolerance="10.0"
     borderopacity="1.0"
     id="base"
     inkscape:current-layer="g4198"
     inkscape:window-y="-9"
     inkscape:window-x="-9"
     inkscape:pageopacity="0.0"
     inkscape:pageshadow="2"
     inkscape:window-width="2560"
     inkscape:window-height="1369"
     inkscape:window-maximized="1" /><defs
     id="defs4"><inkscape:perspective
       inkscape:vp_z="580 : 290 : 1"
       inkscape:vp_y="0 : 1000 : 0"
       inkscape:vp_x="0 : 290 : 1"
       sodipodi:type="inkscape:persp3d"
       id="perspective3653"
       inkscape:persp3d-origin="290 : 193.33333 : 1" /><inkscape:perspective
       inkscape:vp_z="355.02399 : 217.53 : 1"
       inkscape:vp_y="0 : 1000 : 0"
       inkscape:vp_x="0 : 217.53 : 1"
       sodipodi:type="inkscape:persp3d"
       id="perspective2512"
       inkscape:persp3d-origin="177.51199 : 145.02 : 1" /><style
       id="style4145"
       type="text/css"><![CDATA[
    .str2 {stroke:#0A0B0C;stroke-width:0.2}
    .str0 {stroke:#1F1A17;stroke-width:0.2}
    .str1 {stroke:#0A0B0C;stroke-width:1.5}
    .fil0 {fill:none}
    .fil2 {fill:#0A0B0C}
    .fil1 {fill:#616F85}
   ]]></style></defs><g
     id="g2121" /><g
     id="g4198"
     transform="translate(-2.8338787,-220.28663)"><g
       style="clip-rule:evenodd;fill-rule:evenodd;image-rendering:optimizeQuality;shape-rendering:geometricPrecision;text-rendering:geometricPrecision"
       id="g4182"
       transform="matrix(17.84036,0,0,17.84036,8.9357808,224.52759)"><g
         id="Ebene_x0020_1"><metadata
           id="CorelCorpID_0Corel-Layer" /></g></g><g
       transform="translate(985.05286,-264.67189)"
       inkscape:label="Layer 1"
       id="layer1" /><g
       id="g4273"
       transform="matrix(1.3580515,0,0,1.3580515,-97.943182,-249.6698)"><path
         style="color:#000000;font-style:normal;font-variant:normal;font-weight:normal;font-stretch:normal;font-size:medium;line-height:normal;font-family:sans-serif;text-indent:0;text-align:start;text-decoration:none;text-decoration-line:none;text-decoration-style:solid;text-decoration-color:#000000;letter-spacing:normal;word-spacing:normal;text-transform:none;direction:ltr;block-progression:tb;writing-mode:lr-tb;baseline-shift:baseline;text-anchor:start;white-space:normal;clip-rule:nonzero;display:inline;overflow:visible;visibility:visible;opacity:1;isolation:auto;mix-blend-mode:normal;color-interpolation:sRGB;color-interpolation-filters:linearRGB;solid-color:#000000;solid-opacity:1;fill:#ffffff;fill-opacity:1;fill-rule:evenodd;stroke:none;stroke-width:16.55997086;stroke-linecap:round;stroke-linejoin:round;stroke-miterlimit:4;stroke-dasharray:none;stroke-dashoffset:0;stroke-opacity:1;color-rendering:auto;image-rendering:auto;shape-rendering:auto;text-rendering:auto;enable-background:accumulate"
         d="m -697.28241,624.23645 c -2.47164,-0.005 -4.86461,0.8685 -6.75097,2.4656 l -195.13223,165.18632 c -7.39908,6.26708 -2.96768,30.35643 6.72887,30.35703 l 46.6723,0 0,191.6366 c 1.3e-4,5.8236 4.77659,10.5148 10.59919,10.4101 l 276.09475,-4.995 c 5.67491,-0.1042 10.22092,-4.7343 10.221,-10.4101 l 0,-186.6416 46.67967,0 c 9.69533,-0.002 14.12457,-24.09073 6.72641,-30.35703 l -75.35247,-63.07598 -0.60317,-94.16339 c 3e-4,-5.74985 -4.66023,-10.41149 -10.41009,-10.41255 l -71.72926,0 c -5.74986,10e-4 -10.4104,4.6627 -10.41009,10.41255 l 0.10847,17.45618 -26.74052,-25.40558 c -1.8738,-1.58531 -4.2474,-2.4577 -6.70186,-2.46315 z"
         id="path4268"
         inkscape:connector-curvature="0"
         sodipodi:nodetypes="cccccccccccccccccccc"
         transform="translate(985.05286,-264.67189)" /><path
         sodipodi:nodetypes="cccccccccccccccccccc"
         inkscape:connector-curvature="0"
         id="path7196"
         d="m -694.59916,642.44532 c -2.25486,-0.005 -4.43796,0.79233 -6.15887,2.24936 l -178.01809,150.69859 c -6.75014,5.71742 -2.7074,16.74647 6.13871,16.74702 l 42.57889,0 0,185.77661 c 1.2e-4,5.3128 4.35766,9.5926 9.66959,9.4971 l 251.87975,-4.557 c 5.17719,-0.095 9.32449,-4.31901 9.32457,-9.49708 l 0,-181.21963 42.58561,0 c 8.845,-0.002 12.88577,-11.03031 6.13647,-16.74702 l -72.9431,-61.74332 0,-81.70531 c 2.7e-4,-5.24556 -4.25151,-9.49835 -9.49707,-9.49932 l -50.84151,0 c -5.24556,9.7e-4 -9.49735,4.25376 -9.49707,9.49932 l 0,22.57431 -35.24381,-29.82651 c -1.70946,-1.44627 -3.87488,-2.24214 -6.11407,-2.24712 z"
         style="color:#000000;font-style:normal;font-variant:normal;font-weight:normal;font-stretch:normal;font-size:medium;line-height:normal;font-family:sans-serif;text-indent:0;text-align:start;text-decoration:none;text-decoration-line:none;text-decoration-style:solid;text-decoration-color:#000000;letter-spacing:normal;word-spacing:normal;text-transform:none;direction:ltr;block-progression:tb;writing-mode:lr-tb;baseline-shift:baseline;text-anchor:start;white-space:normal;clip-rule:nonzero;display:inline;overflow:visible;visibility:visible;opacity:1;isolation:auto;mix-blend-mode:normal;color-interpolation:sRGB;color-interpolation-filters:linearRGB;solid-color:#000000;solid-opacity:1;fill:#734a08;fill-opacity:1;fill-rule:evenodd;stroke:none;stroke-width:16.55997086;stroke-linecap:round;stroke-linejoin:round;stroke-miterlimit:4;stroke-dasharray:none;stroke-dashoffset:0;stroke-opacity:1;color-rendering:auto;image-rendering:auto;shape-rendering:auto;text-rendering:auto;enable-background:accumulate"
         transform="translate(985.05286,-264.67189)" /><path
         style="color:#000000;font-style:normal;font-variant:normal;font-weight:normal;font-stretch:normal;font-size:medium;line-height:normal;font-family:sans-serif;text-indent:0;text-align:start;text-decoration:none;text-decoration-line:none;text-decoration-style:solid;text-decoration-color:#000000;letter-spacing:normal;word-spacing:normal;text-transform:none;direction:ltr;block-progression:tb;writing-mode:lr-tb;baseline-shift:baseline;text-anchor:start;white-space:normal;clip-rule:nonzero;display:inline;overflow:visible;visibility:visible;opacity:1;isolation:auto;mix-blend-mode:normal;color-interpolation:sRGB;color-interpolation-filters:linearRGB;solid-color:#000000;solid-opacity:1;fill:#ffffff;fill-opacity:1;fill-rule:evenodd;stroke:none;stroke-width:16.55997086;stroke-linecap:round;stroke-linejoin:round;stroke-miterlimit:4;stroke-dasharray:none;stroke-dashoffset:0;stroke-opacity:1;color-rendering:auto;image-rendering:auto;shape-rendering:auto;text-rendering:auto;enable-background:accumulate"
         d="m -694.60163,659.01525 c -1.97812,-0.004 -3.8933,0.69509 -5.403,1.9733 l -156.17025,128.20362 c -5.9217,5.01573 -2.37512,10.69121 5.38532,10.69169 l 37.35326,0 0,186.97657 c 10e-5,4.66075 3.82285,8.41535 8.48286,8.33155 l 220.96699,-3.9977 c 4.5418,-0.083 8.18011,-3.78898 8.18018,-8.33156 l 0,-182.97886 35.35916,0 c 7.75947,-0.002 11.30432,-5.67658 5.38335,-10.69169 l -62.27813,-51.91861 0.0361,-76.79879 c 2.3e-4,-4.60179 -3.72973,-8.33264 -8.33151,-8.33349 l -26.60183,0 c -4.60178,8.5e-4 -8.33175,3.7317 -8.33151,8.33349 l 0.95107,44.45445 -49.61831,-43.94263 c -1.49966,-1.26878 -3.39932,-1.96697 -5.3637,-1.97134 z"
         id="path4260"
         inkscape:connector-curvature="0"
         sodipodi:nodetypes="ccccccccccccccccccccc"
         transform="translate(985.05286,-264.67189)" /><g
         transform="matrix(1.081765,0,0,1.081765,1085.9711,207.20023)"
         id="g4163"><path
           inkscape:connector-curvature="0"
           id="path4169"
           d="m -735.35561,242.22791 c -9.97681,0 -18.09341,8.06543 -18.09341,18.04225 0,9.99431 8.1166,18.11058 18.09341,18.11058 9.97682,0 18.04224,-8.11627 18.04224,-18.11058 0,-9.97682 -8.06542,-18.04225 -18.04224,-18.04225 z m -50.42774,29.13072 c -2.43012,-0.08 -4.63062,1.48999 -5.18545,3.91257 l -12.6604,52.384 c -0.69982,2.78397 1.00905,5.55346 3.79303,6.25328 l 15.10365,3.62212 c 2.73367,0.69982 5.55242,-1.00901 6.20194,-3.79298 l 12.64313,-52.36692 c 0.69982,-2.78397 -1.05914,-5.55345 -3.79281,-6.25327 l -15.05226,-3.62211 c -0.35254,-0.0811 -0.70376,-0.12531 -1.05083,-0.13669 z m 45.15263,9.7686 c -14.72685,-0.37615 -18.42255,15.12064 -18.42255,15.12064 l -38.22003,160.59048 0,0.0219 c -0.17058,0.85509 -0.22219,1.70771 -0.22219,2.56281 0,7.03975 5.67401,12.6945 12.71157,12.6945 5.77571,0 10.62699,-3.8456 12.18191,-9.07239 l 21.83111,-90.39915 20.81419,89.8695 c 1.33184,5.55263 6.35196,9.6063 12.26325,9.6063 7.05725,0 12.71158,-5.65474 12.71158,-12.6945 0,-0.97319 -0.10278,-1.87952 -0.27336,-2.78491 l -28.54567,-119.38891 2.39207,-10.52464 1.87924,8.26936 c 1.708,5.39955 6.6122,5.92864 6.6122,5.92864 l 29.42111,7.48344 c 0.58172,0.10279 1.1781,0.15374 1.75983,0.15374 4.80033,0 8.69657,-3.8449 8.69657,-8.64523 0,-4.118 -2.81874,-7.58609 -6.66338,-8.49149 l -25.47433,-6.40703 -6.98814,-28.41312 c -3.3154,-15.8553 -18.46498,-15.47943 -18.46498,-15.47943 z m 78.69129,18.39677 c -2.08415,0 -3.69111,1.60534 -4.11757,3.63919 l -30.32671,164.49453 0,0.004 c 0,0.10278 -0.047,0.20601 -0.047,0.25629 0,2.30722 1.87486,4.16885 4.16459,4.16885 2.08415,0 3.84464,-1.60576 4.10051,-3.62212 l 30.34377,-164.4988 0,-0.32463 c 0,-2.23723 -1.82784,-4.11759 -4.11757,-4.11759 z"
           style="fill:#734a08;fill-opacity:1" /></g></g></g></svg>