<?xml version="1.0" encoding="UTF-8" standalone="no"?>
<!-- Generator: Adobe Illustrator 16.0.0, SVG Export Plug-In . SVG Version: 6.00 Build 0)  -->

<svg
   xmlns:dc="http://purl.org/dc/elements/1.1/"
   xmlns:cc="http://creativecommons.org/ns#"
   xmlns:rdf="http://www.w3.org/1999/02/22-rdf-syntax-ns#"
   xmlns:svg="http://www.w3.org/2000/svg"
   xmlns="http://www.w3.org/2000/svg"
   xmlns:sodipodi="http://sodipodi.sourceforge.net/DTD/sodipodi-0.dtd"
   xmlns:inkscape="http://www.inkscape.org/namespaces/inkscape"
   version="1.1"
   id="svg2"
   inkscape:output_extension="org.inkscape.output.svg.inkscape"
   sodipodi:docname="JH_transport_metro_Prague.svg"
   inkscape:version="0.91 r13725"
   sodipodi:version="0.32"
   x="0px"
   y="0px"
   width="580px"
   height="580px"
   viewBox="0 0 580 580"
   enable-background="new 0 0 580 580"
   xml:space="preserve"><metadata
     id="metadata17"><rdf:RDF><cc:Work
         rdf:about=""><dc:format>image/svg+xml</dc:format><dc:type
           rdf:resource="http://purl.org/dc/dcmitype/StillImage" /></cc:Work></rdf:RDF></metadata><sodipodi:namedview
     showgrid="false"
     inkscape:cy="-143.81691"
     inkscape:cx="665.64584"
     inkscape:zoom="0.65172414"
     pagecolor="#ffffff"
     bordercolor="#666666"
     guidetolerance="10.0"
     objecttolerance="10.0"
     gridtolerance="10.0"
     borderopacity="1.0"
     id="base"
     inkscape:current-layer="g4198"
     inkscape:window-y="-9"
     inkscape:window-x="-9"
     inkscape:pageopacity="0.0"
     inkscape:pageshadow="2"
     inkscape:window-width="2560"
     inkscape:window-height="1369"
     inkscape:window-maximized="1" /><defs
     id="defs4"><inkscape:perspective
       inkscape:vp_z="580 : 290 : 1"
       inkscape:vp_y="0 : 1000 : 0"
       inkscape:vp_x="0 : 290 : 1"
       sodipodi:type="inkscape:persp3d"
       id="perspective3653"
       inkscape:persp3d-origin="290 : 193.33333 : 1" /><inkscape:perspective
       inkscape:vp_z="355.02399 : 217.53 : 1"
       inkscape:vp_y="0 : 1000 : 0"
       inkscape:vp_x="0 : 217.53 : 1"
       sodipodi:type="inkscape:persp3d"
       id="perspective2512"
       inkscape:persp3d-origin="177.51199 : 145.02 : 1" /></defs><g
     id="g2121" /><g
     id="g4198"
     transform="translate(-2.8338787,-220.28663)"><g
       id="g4152"
       transform="matrix(1.5597227,0,0,1.5597227,-62.49284,-780.64804)"><path
         sodipodi:nodetypes="cccc"
         inkscape:connector-curvature="0"
         id="path4149"
         d="M 226.85504,918.43475 46.885436,736.90394 408.74263,737.08197 Z"
         inkscape:transform-center-y="15.299408"
         inkscape:transform-center-x="-0.38359788"
         style="opacity:1;fill:#ffffff;fill-opacity:1;stroke:none;stroke-width:10;stroke-linecap:butt;stroke-linejoin:round;stroke-miterlimit:4;stroke-dasharray:none;stroke-dashoffset:0;stroke-opacity:1" /><path
         id="path4"
         d="m 163.70376,841.03075 125.56,0.48 -63,62.63 -62.56,-63.11 z m 177.06,-50.57 -43.9,-0.17 -0.2,43.87 44.1,-43.7 z m -228.11,-0.88 43.8,0.17 -0.19,43.8 -43.61,-43.97 z m 274.31,-45.006 -89.9,-0.3462 -0.2,38.6122 51.4,0.2 38.7,-38.466 z m -320.2,-1.234 89.86,0.3459 -0.15,38.6141 -51.25,-0.2 -38.46,-38.76 z m 159.9,36.94 34.5,-36.1858 28.4,0.0988 -0.3,89.857 -25.5,-0.1 0.2,-55.61 -37.4,37.84 -37.2,-38.12 -0.2,55.61 -25.42,-0.1 0.35,-89.8547 28.37,0.1153 34.2,36.4494 z"
         style="fill:#0075bd;fill-opacity:1"
         inkscape:connector-curvature="0" /></g></g></svg>