<?xml version="1.0" encoding="UTF-8" standalone="no"?>
<!-- Generator: Adobe Illustrator 16.0.0, SVG Export Plug-In . SVG Version: 6.00 Build 0)  -->

<svg
   xmlns:dc="http://purl.org/dc/elements/1.1/"
   xmlns:cc="http://creativecommons.org/ns#"
   xmlns:rdf="http://www.w3.org/1999/02/22-rdf-syntax-ns#"
   xmlns:svg="http://www.w3.org/2000/svg"
   xmlns="http://www.w3.org/2000/svg"
   xmlns:sodipodi="http://sodipodi.sourceforge.net/DTD/sodipodi-0.dtd"
   xmlns:inkscape="http://www.inkscape.org/namespaces/inkscape"
   version="1.1"
   id="svg2"
   inkscape:output_extension="org.inkscape.output.svg.inkscape"
   sodipodi:docname="JH_tourism_museum.svg"
   inkscape:version="0.91 r13725"
   sodipodi:version="0.32"
   x="0px"
   y="0px"
   width="580px"
   height="580px"
   viewBox="0 0 580 580"
   enable-background="new 0 0 580 580"
   xml:space="preserve"
   inkscape:export-filename="F:\_GRAFIKA\2016_08_29_Symboly_turistika\JH_icons\JH_tourism_museum.png"
   inkscape:export-xdpi="31"
   inkscape:export-ydpi="31"><metadata
     id="metadata17"><rdf:RDF><cc:Work
         rdf:about=""><dc:format>image/svg+xml</dc:format><dc:type
           rdf:resource="http://purl.org/dc/dcmitype/StillImage" /></cc:Work></rdf:RDF></metadata><sodipodi:namedview
     showgrid="false"
     inkscape:cy="74.710197"
     inkscape:cx="229.09545"
     inkscape:zoom="0.65172414"
     pagecolor="#ffffff"
     bordercolor="#666666"
     guidetolerance="10.0"
     objecttolerance="10.0"
     gridtolerance="10.0"
     borderopacity="1.0"
     id="base"
     inkscape:current-layer="g4146"
     inkscape:window-y="-9"
     inkscape:window-x="-9"
     inkscape:pageopacity="0.0"
     inkscape:pageshadow="2"
     inkscape:window-width="2560"
     inkscape:window-height="1369"
     inkscape:window-maximized="1" /><defs
     id="defs4"><inkscape:perspective
       inkscape:vp_z="580 : 290 : 1"
       inkscape:vp_y="0 : 1000 : 0"
       inkscape:vp_x="0 : 290 : 1"
       sodipodi:type="inkscape:persp3d"
       id="perspective3653"
       inkscape:persp3d-origin="290 : 193.33333 : 1" /><inkscape:perspective
       inkscape:vp_z="355.02399 : 217.53 : 1"
       inkscape:vp_y="0 : 1000 : 0"
       inkscape:vp_x="0 : 217.53 : 1"
       sodipodi:type="inkscape:persp3d"
       id="perspective2512"
       inkscape:persp3d-origin="177.51199 : 145.02 : 1" /></defs><g
     id="g2121" /><g
     id="g4198"
     transform="translate(-2.8338787,-220.28663)"><g
       id="g4176"
       transform="translate(-2.3604878,-7.2649287)"><g
         transform="matrix(35.448279,0,0,35.448279,93.207306,309.31754)"
         id="g4146"><path
           sodipodi:nodetypes="cccccccccccccccccccssccssssccss"
           style="fill:#ffffff;fill-opacity:1;stroke:none"
           id="path4174"
           d="m 5.6980779,-0.84650609 -6.7208115,2.24027049 0,1.8194568 13.4416226,0 0,-1.8194568 z m -6.7208115,4.06094819 0,2.4488462 1.12013523,0 0,3.7125084 -1.12013523,0 -1.1201353,3.2193203 15.6818939,0 -1.120136,-3.2193203 -1.120134,0 0,-3.7125084 1.120134,0 0,-2.4488462 z m 4.7602697,2.4488462 c 0.5571239,0 0.5465594,0.5967637 0.5606779,1.1201351 l 0,2.5923733 -1.0514237,0 0,-2.5923733 c 0,-0.590685 -0.066378,-1.1201351 0.4907458,-1.1201351 z m 4.1308802,0 c 0.5638357,0 0.4748172,0.5296649 0.4907458,1.1201351 l 0,2.5923733 -1.0514238,0 0,-2.5923733 c 0,-0.590685 -0.00316,-1.1201351 0.560678,-1.1201351 z"
           inkscape:connector-curvature="0" /><path
           inkscape:connector-curvature="0"
           d="m 5.76763,-0.01188215 -6.00000005,2.00000005 0,0.9999999 12.00000005,0 0,-0.9999999 z m -6.00000005,4.00000015 0,0.9999999 1,0 0,5.0000004 -1,0 -0.99999995,1.9999997 14,0 -1,-1.9999997 -1,0 0,-5.0000004 1,0 0,-0.9999999 z M 3.76763,4.9881179 c 0.497372,0 1,0.5325904 1,0.9999998 l 0,4.0000006 -2,0 0,-4.0000006 c 0,-0.5273336 0.502628,-0.9999998 1,-0.9999998 z m 4,0 c 0.503364,0 1,0.4726662 1,0.9999998 l 0,4.0000006 -2,0 0,-4.0000006 c 0,-0.5273336 0.496636,-0.9999998 1,-0.9999998 z"
           id="museum"
           style="fill:#734a08;fill-opacity:1;stroke:none" /></g></g></g></svg>