<?xml version="1.0" encoding="UTF-8" standalone="no"?>
<!-- Generator: Adobe Illustrator 16.0.0, SVG Export Plug-In . SVG Version: 6.00 Build 0)  -->

<svg
   xmlns:dc="http://purl.org/dc/elements/1.1/"
   xmlns:cc="http://creativecommons.org/ns#"
   xmlns:rdf="http://www.w3.org/1999/02/22-rdf-syntax-ns#"
   xmlns:svg="http://www.w3.org/2000/svg"
   xmlns="http://www.w3.org/2000/svg"
   xmlns:sodipodi="http://sodipodi.sourceforge.net/DTD/sodipodi-0.dtd"
   xmlns:inkscape="http://www.inkscape.org/namespaces/inkscape"
   version="1.1"
   id="svg2"
   inkscape:output_extension="org.inkscape.output.svg.inkscape"
   sodipodi:docname="JH_amenity_hotel.svg"
   inkscape:version="0.91 r13725"
   sodipodi:version="0.32"
   x="0px"
   y="0px"
   width="580px"
   height="580px"
   viewBox="0 0 580 580"
   enable-background="new 0 0 580 580"
   xml:space="preserve"
   inkscape:export-filename="F:\_GRAFIKA\2016_08_29_Symboly_turistika\JH_icons\JH_amenity_hotel.png"
   inkscape:export-xdpi="31"
   inkscape:export-ydpi="31"><metadata
     id="metadata17"><rdf:RDF><cc:Work
         rdf:about=""><dc:format>image/svg+xml</dc:format><dc:type
           rdf:resource="http://purl.org/dc/dcmitype/StillImage" /></cc:Work></rdf:RDF></metadata><sodipodi:namedview
     showgrid="false"
     inkscape:cy="208.89264"
     inkscape:cx="200.34843"
     inkscape:zoom="0.92167712"
     pagecolor="#ffffff"
     bordercolor="#666666"
     guidetolerance="10.0"
     objecttolerance="10.0"
     gridtolerance="10.0"
     borderopacity="1.0"
     id="base"
     inkscape:current-layer="g4198"
     inkscape:window-y="-9"
     inkscape:window-x="-9"
     inkscape:pageopacity="0.0"
     inkscape:pageshadow="2"
     inkscape:window-width="2560"
     inkscape:window-height="1369"
     inkscape:window-maximized="1" /><defs
     id="defs4"><inkscape:perspective
       inkscape:vp_z="580 : 290 : 1"
       inkscape:vp_y="0 : 1000 : 0"
       inkscape:vp_x="0 : 290 : 1"
       sodipodi:type="inkscape:persp3d"
       id="perspective3653"
       inkscape:persp3d-origin="290 : 193.33333 : 1" /><inkscape:perspective
       inkscape:vp_z="355.02399 : 217.53 : 1"
       inkscape:vp_y="0 : 1000 : 0"
       inkscape:vp_x="0 : 217.53 : 1"
       sodipodi:type="inkscape:persp3d"
       id="perspective2512"
       inkscape:persp3d-origin="177.51199 : 145.02 : 1" /></defs><g
     id="g2121" /><g
     id="g4198"
     transform="translate(-2.8338787,-220.28663)"><g
       id="g4205"
       transform="matrix(1.4987583,0,0,1.4987583,-117.73302,-235.78927)"><path
         sodipodi:nodetypes="csccccccssccccccsssssssccssssscccssccc"
         inkscape:connector-curvature="0"
         style="fill:#ffffff;fill-opacity:1"
         d="m 109.4756,373.71512 c -10.765178,0 -21.654451,7.76078 -21.529748,23.27904 l 0,224.88302 48.017388,0 0,-40.2768 274.90852,0 0,39.7933 49.05951,0 0,-174.23058 c 0,-32.75485 -49.53617,-32.75485 -49.53617,0 l 0,82.72711 -275.38519,0 0,-132.89833 -0.005,0.002 c 0,-15.51877 -14.76459,-23.27904 -25.52975,-23.27904 z m 60.471,27.90201 c -21.76631,0 -41.41268,17.65018 -41.41268,39.41951 0,21.76631 19.64637,45.41268 41.41268,45.41268 21.76933,0 39.41723,-23.64637 39.41724,-45.41268 0,-21.76933 -17.64791,-39.41951 -39.41724,-39.41951 z m 49.07014,25.30675 c -9.42375,0 -18.84765,7.1132 -18.84765,21.34274 l 0,20.20356 -50.57296,2 c -29.2436,0.10486 -29.291,51.69531 0,51.69531 l 81.41149,0 c 11.59659,0 16.85678,-9.35875 16.85678,-19.94695 l 0,-51.95192 c 0,-14.22954 -19.42391,-23.34274 -28.84766,-23.34274 z m 14.03167,-1.0672 0,95.82074 208.27864,0 0,-57.02646 c 0,-19.91691 -5.61476,-38.79428 -28.72829,-38.79428 l -179.54351,0 -0.007,0 z"
         id="path4203" /><path
         id="path3040"
         transform="translate(2.8338787,220.28663)"
         d="m 108.5918,162.59766 c -9.219007,0 -18.437503,6.64569 -18.437503,19.93554 l 0,213.13672 37.695313,0 0,-55.04492 286.80664,0 0,54.63086 36.875,0 0,-164.62109 c 0,-28.05037 -37.2832,-28.05037 -37.2832,0 l 0,65.70703 -287.21485,0 0,-113.81055 -0.004,0.002 c 0,-13.28985 -9.2185,-19.93554 -18.4375,-19.93554 z m 58.63672,23.89453 c -18.64008,0 -33.75196,15.11514 -33.75196,33.75781 0,18.64008 15.11188,33.75195 33.75196,33.75195 18.64267,0 33.75585,-15.11187 33.75586,-33.75195 0,-18.64267 -15.11319,-33.75781 -33.75586,-33.75781 z m 52.29882,23.38476 c -8.07024,0 -16.14062,6.09156 -16.14062,18.27735 l 0,29.29101 -51.87305,0 c -25.04343,0.0898 -25.08402,32.28125 0,32.28125 l 68.00586,0 c 9.93101,0 16.14844,-8.01458 16.14844,-17.08203 l 0,-44.49023 c 0,-12.18579 -8.07038,-18.27735 -16.14063,-18.27735 z m 20.58008,0.79883 0,78.63281 166.375,0 0,-48.83593 c 0,-17.0563 -11.65932,-29.79688 -31.45312,-29.79688 l -134.91602,0 -0.006,0 z"
         style="fill:#734a08;fill-opacity:1"
         inkscape:connector-curvature="0" /></g></g></svg>