<?xml version="1.0" encoding="UTF-8" standalone="no"?>
<!-- Generator: Adobe Illustrator 16.0.0, SVG Export Plug-In . SVG Version: 6.00 Build 0)  -->

<svg
   xmlns:dc="http://purl.org/dc/elements/1.1/"
   xmlns:cc="http://creativecommons.org/ns#"
   xmlns:rdf="http://www.w3.org/1999/02/22-rdf-syntax-ns#"
   xmlns:svg="http://www.w3.org/2000/svg"
   xmlns="http://www.w3.org/2000/svg"
   xmlns:sodipodi="http://sodipodi.sourceforge.net/DTD/sodipodi-0.dtd"
   xmlns:inkscape="http://www.inkscape.org/namespaces/inkscape"
   version="1.1"
   id="svg2"
   inkscape:output_extension="org.inkscape.output.svg.inkscape"
   sodipodi:docname="JH_tourism_ZOO.svg"
   inkscape:version="0.91 r13725"
   sodipodi:version="0.32"
   x="0px"
   y="0px"
   width="580px"
   height="580px"
   viewBox="0 0 580 580"
   enable-background="new 0 0 580 580"
   xml:space="preserve"
   inkscape:export-filename="/media/juhele/KONZERVA/__PRACE/JH_icons/JH_tourism_ZOO.png"
   inkscape:export-xdpi="31"
   inkscape:export-ydpi="31"><metadata
     id="metadata17"><rdf:RDF><cc:Work
         rdf:about=""><dc:format>image/svg+xml</dc:format><dc:type
           rdf:resource="http://purl.org/dc/dcmitype/StillImage" /></cc:Work></rdf:RDF></metadata><sodipodi:namedview
     showgrid="false"
     inkscape:cy="152.33079"
     inkscape:cx="173.03566"
     inkscape:zoom="0.92167712"
     pagecolor="#ffffff"
     bordercolor="#666666"
     guidetolerance="10.0"
     objecttolerance="10.0"
     gridtolerance="10.0"
     borderopacity="1.0"
     id="base"
     inkscape:current-layer="g4198"
     inkscape:window-y="0"
     inkscape:window-x="0"
     inkscape:pageopacity="0.0"
     inkscape:pageshadow="2"
     inkscape:window-width="1920"
     inkscape:window-height="1125"
     inkscape:window-maximized="1" /><defs
     id="defs4"><inkscape:perspective
       inkscape:vp_z="580 : 290 : 1"
       inkscape:vp_y="0 : 1000 : 0"
       inkscape:vp_x="0 : 290 : 1"
       sodipodi:type="inkscape:persp3d"
       id="perspective3653"
       inkscape:persp3d-origin="290 : 193.33333 : 1" /><inkscape:perspective
       inkscape:vp_z="355.02399 : 217.53 : 1"
       inkscape:vp_y="0 : 1000 : 0"
       inkscape:vp_x="0 : 217.53 : 1"
       sodipodi:type="inkscape:persp3d"
       id="perspective2512"
       inkscape:persp3d-origin="177.51199 : 145.02 : 1" /></defs><g
     id="g2121" /><g
     id="g4198"
     transform="translate(-2.8338787,-220.28663)"><g
       id="g40723"
       transform="translate(1.7e-6,1.9918679e-6)"><path
         sodipodi:nodetypes="cscccscccssccccccsccccccccscscscccscccccssccccccccscscscccccscccccccccscccccscccscccsccccccccc"
         inkscape:connector-curvature="0"
         id="path40719"
         d="m 236.27524,323.48755 c -14.98388,0.17197 -27.44727,5.88057 -37.77539,10.37696 -11.80356,5.13872 -20.84849,8.68786 -29.53906,7.9082 l -2.23633,-0.19922 -2.19726,0.46289 c -31.05126,6.54331 -52.37505,27.21283 -66.876957,50.39258 -14.501904,23.17975 -23.417661,49.38529 -31.789062,71.26172 l -0.351563,0.91797 -0.123046,0.51758 c -0.193368,0.0719 -0.751264,0.39252 -2.765626,0.75 -4.811442,0.85385 -13.556498,0.0336 -24.140624,5.04101 l -21.140628,10.00195 17.906252,15.04297 c 6.592263,5.53793 13.523269,8.16934 19.822266,9.73047 -11.040319,55.43543 -16.194141,111.51793 -19.410156,167.05473 l -0.798828,13.7695 13.65625,1.9473 c 4.386983,0.6251 9.161641,1.5604 14.34375,2.4218 l 19.798828,3.291 -2.451172,-19.9199 c -3.662463,-29.7779 6.746038,-61.1455 15.876953,-94.3535 l -0.234375,0.7676 c 10.788868,-32.3537 15.279158,-63.73083 31.859378,-85.69337 7.11996,-3.70103 14.98721,-6.81363 23.18554,-9.67774 l 0.15235,4.62305 7.90429,4.01367 c 14.02401,7.12395 27.4599,4.47631 36.89844,3.53321 5.63983,-0.56354 9.21149,-0.59176 11.72461,-0.20899 2.70685,19.91603 -3.88892,38.83827 -13.58398,60.19337 -10.32939,22.7523 -24.05902,47.2553 -27.65625,76.125 -1.12404,1.9254 -3.48593,4.4345 -7.99219,8.2324 -5.08767,4.2879 -12.52745,10.0525 -16.99805,20.2578 l -3.49609,7.9805 5.19726,6.9902 c 9.45739,12.718 23.8939,17.8471 36.17969,18.8848 12.2858,1.0377 23.56009,-0.8222 32.33594,-1.5801 l 14.35156,-1.2383 -0.6582,-14.3906 c -0.95606,-20.923 8.5239,-41.2811 21.3789,-61.041 4.01958,11.0866 8.44224,22.5301 14.43359,33.9355 -0.13675,0.2501 -0.26112,0.6454 -1.37695,2.1114 -2.89639,3.8054 -10.64293,9.4096 -12.54687,22.3593 l -2.08203,14.1602 14.04687,2.7441 c 18.55309,3.6236 45.04754,9.0812 68.31641,-5.2832 l 15.36914,-9.4863 -12.14844,-13.3652 c -10.47667,-11.5278 -10.33258,-31.6537 -15.90234,-55.6094 l -0.0527,-0.2266 -0.0605,-0.2265 c -3.11248,-11.7208 -2.15899,-24.9034 -0.86523,-40.0899 0.78837,-9.254 1.50618,-19.3297 0.9082,-29.8828 10.04045,2.0751 20.58481,5.7073 32.19532,9.7129 16.14291,5.5693 34.65084,11.3285 55.26953,8.8242 1.99336,2.0503 3.537,3.6477 6.49414,6.3926 3.27278,3.0379 7.71786,6.2645 13.07031,8.6367 8.4928,27.6675 -1.44243,64.3715 -21.13867,85.8574 l -7.10352,7.75 4.86133,9.3223 c 4.28525,8.2167 12.69338,13.8475 20.24024,15.5977 7.54685,1.7501 14.21724,1.0061 20.25,0.1015 12.06551,-1.8092 23.10786,-3.5728 24.29101,-3.2949 l 21.03906,4.9434 -2.72851,-21.4395 c -1.20585,-9.4732 0.0527,-19.2156 2.41015,-29.3848 2.80592,7.8963 4.40401,15.2726 3.38282,22.4708 l -1.72071,12.1367 11.54883,4.1054 c 20.5746,7.3134 39.01129,-0.4779 51.12696,-2.6445 l 20.16796,-3.6055 -9.52929,-18.1367 c -8.0899,-15.3972 -15.89167,-30.7808 -22.54102,-46.2832 l 10.58594,-2.9277 c -3.23249,-39.0082 -17.1753,-72.1661 -14.56055,-104.08791 l 0.0195,-0.25 0.0117,-0.25195 c 1.36349,-28.26081 -1.80635,-59.84703 -12.92773,-88.5625 -11.12138,-28.71547 -30.87921,-54.93521 -61.83789,-68.69141 l -0.0508,-0.0234 -0.0508,-0.0215 c -28.56745,-12.44493 -56.96617,-9.04182 -82.36914,-5.27929 -25.40297,3.76252 -48.28703,7.68106 -68.90234,2.29296 l -1.1543,-0.30078 -1.1875,-0.11523 c -7.47421,-0.72708 -15.72629,-4.33741 -25.79101,-8.71875 -10.06472,-4.38134 -22.17895,-9.52958 -36.95899,-9.23633 l 1.76953,0.0684 c -2.24452,-0.22108 -4.43757,-0.30972 -6.57812,-0.28516 z m 25.2168,329.01561 c 0.0322,0.06 0.0536,0.1212 0.0859,0.1817 l -0.0859,-0.1661 c 0.002,0 -0.002,-0.02 0,-0.016 z"
         style="color:#000000;font-style:normal;font-variant:normal;font-weight:normal;font-stretch:normal;font-size:medium;line-height:normal;font-family:sans-serif;text-indent:0;text-align:start;text-decoration:none;text-decoration-line:none;text-decoration-style:solid;text-decoration-color:#000000;letter-spacing:normal;word-spacing:normal;text-transform:none;direction:ltr;block-progression:tb;writing-mode:lr-tb;baseline-shift:baseline;text-anchor:start;white-space:normal;clip-rule:nonzero;display:inline;overflow:visible;visibility:visible;opacity:1;isolation:auto;mix-blend-mode:normal;color-interpolation:sRGB;color-interpolation-filters:linearRGB;solid-color:#000000;solid-opacity:1;fill:#ffffff;fill-opacity:1;fill-rule:nonzero;stroke:none;stroke-width:30;stroke-linecap:butt;stroke-linejoin:miter;stroke-miterlimit:4;stroke-dasharray:none;stroke-dashoffset:0;stroke-opacity:1;color-rendering:auto;image-rendering:auto;shape-rendering:auto;text-rendering:auto;enable-background:accumulate" /><path
         id="path24684"
         d="m 300.00888,356.71042 c -21.5875,-2.1 -38.95,-18.325 -61,-17.8875 -26.65,-2.625 -47.15,20.4 -73.7625,18.0125 -52.675,11.1 -70.749992,67.9125 -87.75,112.3375 -3.7625,15.7375 -23.5875,10.0375 -34.975,15.425 7.7375,6.5 18.4125,7.2625 27.9125,9.325 -13,59.1375 -18.6875,119.5875 -22.175,179.8125 4.9125,0.7 9.8,1.6625 14.6875,2.475 -4.2125,-34.25 7.35,-67.6125 16.3,-100.1625 10.462505,-31.375 14.537508,-66.3625 36.075,-92.7125 14.7625,-8.1875 31.3375,-13.475 47.5375,-18.4375 0.225,5.25 0.3375,10.525 0.5125,15.7875 17.225,8.75 40.6625,-5.65 55.25,6.5375 13.2,54.7625 -35.375,98.875 -40.2375,151.5125 -5.2,12.225 -20.2375,17.0625 -25.675,29.475 13.125,17.65 36.225,12.95 55.1875,11.3125 -1.625,-35.5625 20.15,-66.475 40.4625,-93.525 8.275,19.8375 13.9,40.7 24.075,59.7375 6.975,13.45 -11.1875,21.5125 -12.825,32.65 18.1125,3.5375 40.675,7.1 57.5625,-3.325 -15.45,-17 -14.5125,-41.225 -19.4125,-62.3 -7.95,-29.9375 5.4875,-60.45 -3.125,-90.5375 38.275,-1.9125 71.025,28.175 110.1125,19.2 8.5,6.9375 14.0125,17.2125 26.1875,19.15 15.075,35.025 3.4875,80.4625 -21.6875,107.925 9.5375,18.2875 38.7375,0.9375 54.9125,4.7375 -3.3875,-26.6125 7.6375,-51.475 14.8375,-76.425 8.1,22.75 24.275,44.4375 20.6875,69.725 13.75,4.8875 29.4125,-0.7625 43.4625,-3.275 -19.9,-37.875 -39.75,-77.375 -42.475,-120.9375 -3.4125,-16.4875 -2.8875,-34.5 6.4625,-49.075 7.65,38.2 4.8375,79.375 22.3875,115.0625 -2.9625,-35.75 -17.5625,-69.925 -14.5625,-106.55 2.5625,-53.1125 -12.425,-119.075 -65.875,-142.825 -48.55,-21.15 -99.575,10.7125 -149.075,-2.225 z"
         inkscape:connector-curvature="0"
         style="opacity:1;fill:#734a08;fill-opacity:1;stroke:none;stroke-width:0.1171875" /></g></g></svg>