<?xml version="1.0" encoding="UTF-8" standalone="no"?>
<!-- Generator: Adobe Illustrator 16.0.0, SVG Export Plug-In . SVG Version: 6.00 Build 0)  -->

<svg
   xmlns:dc="http://purl.org/dc/elements/1.1/"
   xmlns:cc="http://creativecommons.org/ns#"
   xmlns:rdf="http://www.w3.org/1999/02/22-rdf-syntax-ns#"
   xmlns:svg="http://www.w3.org/2000/svg"
   xmlns="http://www.w3.org/2000/svg"
   xmlns:sodipodi="http://sodipodi.sourceforge.net/DTD/sodipodi-0.dtd"
   xmlns:inkscape="http://www.inkscape.org/namespaces/inkscape"
   version="1.1"
   id="svg2"
   inkscape:output_extension="org.inkscape.output.svg.inkscape"
   sodipodi:docname="JH_transport_train2.svg"
   inkscape:version="0.91 r13725"
   sodipodi:version="0.32"
   x="0px"
   y="0px"
   width="580px"
   height="580px"
   viewBox="0 0 580 580"
   enable-background="new 0 0 580 580"
   xml:space="preserve"
   inkscape:export-filename="F:\_GRAFIKA\2016_08_29_Symboly_turistika\JH_icons\JH_transport_train2.png"
   inkscape:export-xdpi="31"
   inkscape:export-ydpi="31"><metadata
     id="metadata17"><rdf:RDF><cc:Work
         rdf:about=""><dc:format>image/svg+xml</dc:format><dc:type
           rdf:resource="http://purl.org/dc/dcmitype/StillImage" /></cc:Work></rdf:RDF></metadata><sodipodi:namedview
     showgrid="false"
     inkscape:cy="-133.15788"
     inkscape:cx="124.02684"
     inkscape:zoom="0.23041928"
     pagecolor="#ffffff"
     bordercolor="#666666"
     guidetolerance="10.0"
     objecttolerance="10.0"
     gridtolerance="10.0"
     borderopacity="1.0"
     id="base"
     inkscape:current-layer="g4198"
     inkscape:window-y="-9"
     inkscape:window-x="-9"
     inkscape:pageopacity="0.0"
     inkscape:pageshadow="2"
     inkscape:window-width="2560"
     inkscape:window-height="1369"
     inkscape:window-maximized="1" /><defs
     id="defs4"><inkscape:perspective
       inkscape:vp_z="580 : 290 : 1"
       inkscape:vp_y="0 : 1000 : 0"
       inkscape:vp_x="0 : 290 : 1"
       sodipodi:type="inkscape:persp3d"
       id="perspective3653"
       inkscape:persp3d-origin="290 : 193.33333 : 1" /><inkscape:perspective
       inkscape:vp_z="355.02399 : 217.53 : 1"
       inkscape:vp_y="0 : 1000 : 0"
       inkscape:vp_x="0 : 217.53 : 1"
       sodipodi:type="inkscape:persp3d"
       id="perspective2512"
       inkscape:persp3d-origin="177.51199 : 145.02 : 1" /></defs><g
     id="g2121" /><g
     id="g4198"
     transform="translate(-2.8338787,-220.28663)"><g
       id="g4144"
       transform="translate(0,-106.87557)"><g
         transform="matrix(1.9142286,0,0,1.9142286,-260.7281,-755.98968)"
         id="g4182"><path
           style="color:#000000;font-style:normal;font-variant:normal;font-weight:normal;font-stretch:normal;font-size:medium;line-height:normal;font-family:sans-serif;text-indent:0;text-align:start;text-decoration:none;text-decoration-line:none;text-decoration-style:solid;text-decoration-color:#000000;letter-spacing:normal;word-spacing:normal;text-transform:none;direction:ltr;block-progression:tb;writing-mode:lr-tb;baseline-shift:baseline;text-anchor:start;white-space:normal;clip-rule:nonzero;display:inline;overflow:visible;visibility:visible;opacity:1;isolation:auto;mix-blend-mode:normal;color-interpolation:sRGB;color-interpolation-filters:linearRGB;solid-color:#000000;solid-opacity:1;fill:#ffffff;fill-opacity:1;fill-rule:nonzero;stroke:none;stroke-width:20;stroke-linecap:butt;stroke-linejoin:miter;stroke-miterlimit:4;stroke-dasharray:none;stroke-dashoffset:0;stroke-opacity:1;color-rendering:auto;image-rendering:auto;shape-rendering:auto;text-rendering:auto;enable-background:accumulate"
           d="m 168.25321,636.46666 8.4481,22.93705 0.33725,25.78892 -12.0957,0 0,38.38086 -1.08789,0 c -6.41956,0 -11.58399,5.16443 -11.58399,11.58399 l 0,15.25976 c 0,6.41956 5.16443,11.58399 11.58399,11.58399 l 1.08789,0 0,0.0195 10.52734,-0.0195 0.61719,0 0,-0.002 19.55664,-0.0351 c -0.95823,4.38287 -0.85414,8.9359 0.15234,13.30078 l -43.52539,0 0,23.16797 272.57032,0 0,-23.16797 -44.36328,0 c 0.53662,-2.19535 0.875,-4.4562 0.875,-6.77539 0,-2.21785 -0.31171,-4.38148 -0.80274,-6.48828 l 20.40625,0 11.14063,0 1.09179,0 c 6.06421,0 11.65625,-5.16443 11.65625,-11.58399 l 0,-15.26367 c 0,-6.41955 -5.59204,-11.58398 -11.65625,-11.58398 l -1.08789,0 0,-12.03907 6.41016,0 0,-26.33789 -10,0 -0.01,0 -24.98242,0 -4.08789,0 -5.34375,0 0,-11.39062 19.00781,0 0,-29.50391 -48.58398,0 0,40.89453 -7.9375,0 0,-1.1582 c 0,-5.77181 -2.53906,-11.36934 -6.44727,-14.82422 -3.9082,-3.45487 -8.71189,-4.95117 -13.3789,-4.95117 -4.66702,0 -9.47265,1.4963 -13.38086,4.95117 -3.90821,3.45488 -6.44727,9.05241 -6.44727,14.82422 l 0,1.1582 -11.10547,0 0,-19.29492 -10.63867,0 c -4.66815,-5.34412 -11.44227,-8.26172 -18.01758,-8.26172 -6.58766,0 -13.3656,2.91629 -18.05078,8.26172 l -10.66015,0 0,19.29492 -12.4004,0 0,-23.98242 10.01346,-24.964 z"
           id="path4176"
           inkscape:connector-curvature="0"
           sodipodi:nodetypes="cccccssssccccccccccccscccsssscccccccccccccccsssssccccsccccccc" /><path
           sodipodi:nodetypes="ccccccsssscccccscccccccccccsssscccccccccccccccccssccccccccccccccccc"
           inkscape:connector-curvature="0"
           d="m 408.21866,695.78396 0,6.336 -6.41,0 0,37.8 8.856,0 0,-5.76 2.232,0 c 0.936,0 1.656,0.72 1.656,1.584 l 0,15.264 c 0,0.864 -0.72,1.584 -1.656,1.584 l -2.232,0 0,-6.336 -8.86,0 0,6.336 -40.608,0 c 6.048,3.24 9.864,9.576 9.864,16.488 0,7.128 -4.104,13.68 -10.512,16.776 l 54,0 0,3.168 -252.57,0 0,-3.168 52.704,0 c -13.68,-6.624 -14.112,-26.064 -0.576,-33.336 l -39.456,0.072 0,-6.336 -8.856,0 0,6.336 -2.232,0 c -0.864,0 -1.584,-0.72 -1.584,-1.584 l 0,-15.26 c 0,-0.864 0.72,-1.584 1.584,-1.584 l 2.232,0 0,5.76 8.856,0 0,-44.14 12.096,0 0,-37.728 -4.38901,-12.71035 28.00253,0.0762 -4.60552,11.33812 0,39.024 32.4,0 0,-19.296 5.976,0 c 4.968,-11.016 20.52,-11.016 25.416,0 l 5.976,0 0,19.296 31.104,0 0,-11.16 c 0,-13.032 19.656,-13.032 19.656,0 l 0,11.16 27.936,0 0,-40.896 28.584,0 0,9.504 -19.008,0 0,31.392 9.432,0 0,3.456 -2.808,0 0,34.92 25.056,0 0,-32.04 -6.336,0 0,-6.336 19.07,0 z"
           id="path4147"
           style="fill:#0075bd;fill-opacity:1" /><path
           style="fill:#ffffff;fill-opacity:1"
           inkscape:connector-curvature="0"
           d="m 231.09866,786.00396 c 6.48,-3.168 10.584,-9.72 10.584,-16.848 0,-6.912 -3.888,-13.248 -9.936,-16.488 l 25.488,0 c -6.12,3.24 -9.864,9.576 -9.864,16.488 0,7.2 4.032,13.68 10.512,16.848 l -26.78,0 z"
           id="path4149" /><path
           style="fill:#ffffff;fill-opacity:1"
           inkscape:connector-curvature="0"
           d="m 274.22866,786.00396 c 6.408,-3.168 10.44,-9.72 10.44,-16.848 0,-6.912 -3.816,-13.248 -9.864,-16.488 l 25.488,0 c -6.12,3.24 -9.936,9.576 -9.936,16.488 0,7.2 4.104,13.68 10.512,16.848 l -26.64,0 z"
           id="path4151" /><path
           style="fill:#ffffff;fill-opacity:1"
           inkscape:connector-curvature="0"
           d="m 317.42866,786.00396 c 6.408,-3.168 10.44,-9.72 10.44,-16.848 0,-6.912 -3.816,-13.248 -9.864,-16.488 l 25.488,0 c -6.12,3.24 -9.936,9.576 -9.936,16.488 0,7.2 4.104,13.68 10.512,16.848 l -26.64,0 z"
           id="path4153" /></g></g></g></svg>